<?xml version="1.0" encoding="UTF-8" standalone="no"?>
<!-- Created with Inkscape (http://www.inkscape.org/) -->

<svg
   xmlns:dc="http://purl.org/dc/elements/1.1/"
   xmlns:cc="http://creativecommons.org/ns#"
   xmlns:rdf="http://www.w3.org/1999/02/22-rdf-syntax-ns#"
   xmlns:svg="http://www.w3.org/2000/svg"
   xmlns="http://www.w3.org/2000/svg"
   xmlns:xlink="http://www.w3.org/1999/xlink"
   xmlns:sodipodi="http://sodipodi.sourceforge.net/DTD/sodipodi-0.dtd"
   xmlns:inkscape="http://www.inkscape.org/namespaces/inkscape"
   width="54.025799mm"
   height="155.62579mm"
   viewBox="0 0 54.025798 155.62579"
   version="1.1"
   id="svg1164"
   inkscape:export-filename="/tmp/python_bookmark.png"
   inkscape:export-xdpi="510.56"
   inkscape:export-ydpi="510.56"
   sodipodi:docname="bookmark.svg"
   inkscape:version="0.92.4 5da689c313, 2019-01-14">
  <defs
     id="defs1158">
    <clipPath
       id="clipPath1760"
       clipPathUnits="userSpaceOnUse">
      <path
         inkscape:connector-curvature="0"
         id="path1758"
         d="M 0,0 H 441.144 V 153.144 H 0 Z" />
    </clipPath>
    <radialGradient
       id="radialGradient1770"
       spreadMethod="pad"
       gradientTransform="matrix(99.020656,0,0,86.660173,91.489807,415.25226)"
       gradientUnits="userSpaceOnUse"
       r="1"
       cy="0"
       cx="0"
       fy="0"
       fx="0">
      <stop
         id="stop1766"
         offset="0"
         style="stop-opacity:1;stop-color:#ffffff" />
      <stop
         id="stop1768"
         offset="1"
         style="stop-opacity:1;stop-color:#bdbcbc" />
    </radialGradient>
    <clipPath
       id="clipPath1780"
       clipPathUnits="userSpaceOnUse">
      <path
         inkscape:connector-curvature="0"
         id="path1778"
         d="M 0,0 H 440.595 V 153.144 H 0 Z" />
    </clipPath>
    <clipPath
       id="clipPath1788"
       clipPathUnits="userSpaceOnUse">
      <path
         inkscape:connector-curvature="0"
         id="path1786"
         d="M -1443.13,571.375 H 1621 v -938.438 h -3064.13 z" />
    </clipPath>
    <clipPath
       id="clipPath1792"
       clipPathUnits="userSpaceOnUse">
      <path
         inkscape:connector-curvature="0"
         id="path1790"
         d="M 451.05,-345.811 H -782.059 V 455.1 H 451.05 Z" />
    </clipPath>
    <clipPath
       id="clipPath1796"
       clipPathUnits="userSpaceOnUse">
      <path
         inkscape:connector-curvature="0"
         id="path1794"
         d="M -509.075,254.008 H 686.294 V -52.2555 H -509.075 Z" />
    </clipPath>
    <clipPath
       id="clipPath1800"
       clipPathUnits="userSpaceOnUse">
      <path
         inkscape:connector-curvature="0"
         id="path1798"
         d="M 425.627,254.008 H 1621 V -52.2555 H 425.627 Z" />
    </clipPath>
    <clipPath
       id="clipPath3226"
       clipPathUnits="userSpaceOnUse">
      <path
         inkscape:connector-curvature="0"
         id="path3224"
         d="M 0,153.144 H 441.144 V 0 H 0 Z" />
    </clipPath>
    <clipPath
       id="clipPath3290"
       clipPathUnits="userSpaceOnUse">
      <path
         inkscape:connector-curvature="0"
         id="path3288"
         d="m 59.632,98.89 c 0,-22.475 16.588,-41.07 38.189,-44.223 v 0 12.856 C 83.254,70.532 72.303,83.434 72.303,98.89 v 0 c 0,17.691 14.34,32.032 32.03,32.032 v 0 c 17.69,0 32.03,-14.341 32.03,-32.032 v 0 c 0,-15.458 -10.95,-28.358 -25.519,-31.367 v 0 -12.856 c 21.602,3.153 38.191,21.748 38.191,44.223 v 0 c 0,24.689 -20.014,44.703 -44.702,44.703 v 0 c -24.687,0 -44.701,-20.014 -44.701,-44.703" />
    </clipPath>
    <radialGradient
       id="radialGradient3304"
       spreadMethod="pad"
       gradientTransform="matrix(16.310361,0,0,16.310361,89.773315,321.63824)"
       gradientUnits="userSpaceOnUse"
       r="1"
       cy="0"
       cx="0"
       fy="0"
       fx="0">
      <stop
         id="stop3296"
         offset="0"
         style="stop-opacity:1;stop-color:#fefefe" />
      <stop
         id="stop3298"
         offset="0.624242"
         style="stop-opacity:1;stop-color:#fefefe" />
      <stop
         id="stop3300"
         offset="0.73011945"
         style="stop-opacity:1;stop-color:#d2d1d2" />
      <stop
         id="stop3302"
         offset="1"
         style="stop-opacity:1;stop-color:#d2d1d2" />
    </radialGradient>
    <clipPath
       id="clipPath3314"
       clipPathUnits="userSpaceOnUse">
      <path
         inkscape:connector-curvature="0"
         id="path3312"
         d="m 59.632,98.89 c 0,-22.475 16.588,-41.07 38.189,-44.223 v 0 12.856 C 83.254,70.532 72.303,83.434 72.303,98.89 v 0 c 0,17.691 14.34,32.032 32.03,32.032 v 0 c 17.69,0 32.03,-14.341 32.03,-32.032 v 0 c 0,-15.458 -10.95,-28.358 -25.519,-31.367 v 0 -12.856 c 21.602,3.153 38.191,21.748 38.191,44.223 v 0 c 0,24.689 -20.014,44.703 -44.702,44.703 v 0 c -24.687,0 -44.701,-20.014 -44.701,-44.703" />
    </clipPath>
    <linearGradient
       id="linearGradient3324"
       spreadMethod="pad"
       gradientTransform="matrix(0,-31.371015,31.371015,0,89.773315,337.23347)"
       gradientUnits="userSpaceOnUse"
       y2="0"
       x2="1"
       y1="0"
       x1="0">
      <stop
         id="stop3320"
         offset="0"
         style="stop-opacity:1;stop-color:#605d5e" />
      <stop
         id="stop3322"
         offset="1"
         style="stop-opacity:1;stop-color:#bebdbd" />
    </linearGradient>
    <clipPath
       id="clipPath3334"
       clipPathUnits="userSpaceOnUse">
      <path
         inkscape:connector-curvature="0"
         id="path3332"
         d="m 110.844,116.669 c 7.245,-2.655 12.416,-9.612 12.416,-17.779 v 0 c 0,-8.164 -5.171,-15.122 -12.416,-17.777 v 0 -7.987 c 11.526,2.905 20.062,13.338 20.062,25.764 v 0 c 0,12.428 -8.536,22.861 -20.062,25.766 v 0 z" />
    </clipPath>
    <linearGradient
       id="linearGradient3344"
       spreadMethod="pad"
       gradientTransform="matrix(0,-18.178655,18.178655,0,95.608902,330.7216)"
       gradientUnits="userSpaceOnUse"
       y2="0"
       x2="1"
       y1="0"
       x1="0">
      <stop
         id="stop3340"
         offset="0"
         style="stop-opacity:1;stop-color:#605d5e" />
      <stop
         id="stop3342"
         offset="1"
         style="stop-opacity:1;stop-color:#bebdbd" />
    </linearGradient>
    <clipPath
       id="clipPath3354"
       clipPathUnits="userSpaceOnUse">
      <path
         inkscape:connector-curvature="0"
         id="path3352"
         d="M 98.877,124.875 V 54.531 c 1.789,-0.22 3.61,-0.342 5.456,-0.342 v 0 c 1.847,0 3.668,0.122 5.456,0.342 v 0 70.37 c -1.745,0.361 -3.548,0.561 -5.4,0.561 v 0 c -1.892,0 -3.733,-0.211 -5.512,-0.587" />
    </clipPath>
    <linearGradient
       id="linearGradient3364"
       spreadMethod="pad"
       gradientTransform="matrix(0,-25.14356,25.14356,0,89.773322,337.40214)"
       gradientUnits="userSpaceOnUse"
       y2="0"
       x2="1"
       y1="0"
       x1="0">
      <stop
         id="stop3360"
         offset="0"
         style="stop-opacity:1;stop-color:#605d5e" />
      <stop
         id="stop3362"
         offset="1"
         style="stop-opacity:1;stop-color:#bebdbd" />
    </linearGradient>
    <clipPath
       id="clipPath3374"
       clipPathUnits="userSpaceOnUse">
      <path
         inkscape:connector-curvature="0"
         id="path3372"
         d="M 0,153.144 H 441.144 V 0 H 0 Z" />
    </clipPath>
    <clipPath
       id="clipPath3422"
       clipPathUnits="userSpaceOnUse">
      <path
         inkscape:connector-curvature="0"
         id="path3420"
         d="M 0,153.144 H 441.144 V 0 H 0 Z" />
    </clipPath>
    <linearGradient
       id="linearGradient2795">
      <stop
         style="stop-color:#b8b8b8;stop-opacity:0.49803922;"
         offset="0"
         id="stop2797" />
      <stop
         style="stop-color:#7f7f7f;stop-opacity:0;"
         offset="1"
         id="stop2799" />
    </linearGradient>
    <linearGradient
       id="linearGradient2787">
      <stop
         style="stop-color:#7f7f7f;stop-opacity:0.5;"
         offset="0"
         id="stop2789" />
      <stop
         style="stop-color:#7f7f7f;stop-opacity:0;"
         offset="1"
         id="stop2791" />
    </linearGradient>
    <linearGradient
       id="linearGradient3676">
      <stop
         style="stop-color:#b2b2b2;stop-opacity:0.5;"
         offset="0"
         id="stop3678" />
      <stop
         style="stop-color:#b3b3b3;stop-opacity:0;"
         offset="1"
         id="stop3680" />
    </linearGradient>
    <linearGradient
       id="linearGradient3236">
      <stop
         style="stop-color:#f4f4f4;stop-opacity:1"
         offset="0"
         id="stop3244" />
      <stop
         style="stop-color:white;stop-opacity:1"
         offset="1"
         id="stop3240" />
    </linearGradient>
    <linearGradient
       id="linearGradient4671">
      <stop
         style="stop-color:#ffd43b;stop-opacity:1;"
         offset="0"
         id="stop4673" />
      <stop
         style="stop-color:#ffe873;stop-opacity:1"
         offset="1"
         id="stop4675" />
    </linearGradient>
    <linearGradient
       id="linearGradient4689">
      <stop
         style="stop-color:#5a9fd4;stop-opacity:1;"
         offset="0"
         id="stop4691" />
      <stop
         style="stop-color:#306998;stop-opacity:1;"
         offset="1"
         id="stop4693" />
    </linearGradient>
    <linearGradient
       x1="224.23996"
       y1="144.75717"
       x2="-65.308502"
       y2="144.75717"
       id="linearGradient2987"
       xlink:href="#linearGradient4671"
       gradientUnits="userSpaceOnUse"
       gradientTransform="translate(100.2702,99.61116)" />
    <linearGradient
       x1="172.94208"
       y1="77.475983"
       x2="26.670298"
       y2="76.313133"
       id="linearGradient2990"
       xlink:href="#linearGradient4689"
       gradientUnits="userSpaceOnUse"
       gradientTransform="translate(100.2702,99.61116)" />
    <linearGradient
       inkscape:collect="always"
       xlink:href="#linearGradient4671"
       id="linearGradient2255"
       gradientUnits="userSpaceOnUse"
       gradientTransform="matrix(0.562541,0,0,0.567972,-11.5974,-7.60954)"
       x1="224.23996"
       y1="144.75717"
       x2="-65.308502"
       y2="144.75717" />
    <linearGradient
       inkscape:collect="always"
       xlink:href="#linearGradient4689"
       id="linearGradient2258"
       gradientUnits="userSpaceOnUse"
       gradientTransform="matrix(0.562541,0,0,0.567972,-11.5974,-7.60954)"
       x1="172.94208"
       y1="76.176224"
       x2="26.670298"
       y2="76.313133" />
    <radialGradient
       inkscape:collect="always"
       xlink:href="#linearGradient2795"
       id="radialGradient2801"
       cx="61.518883"
       cy="132.28575"
       fx="61.518883"
       fy="132.28575"
       r="29.036913"
       gradientTransform="matrix(1,0,0,0.177966,0,108.7434)"
       gradientUnits="userSpaceOnUse" />
    <linearGradient
       id="linearGradient2399">
      <stop
         offset="0"
         stop-color="#fff"
         id="stop3708" />
      <stop
         offset="1"
         stop-color="#fff"
         stop-opacity="0"
         id="stop3710" />
    </linearGradient>
    <linearGradient
       id="linearGradient2355">
      <stop
         offset="0"
         id="stop3713" />
      <stop
         offset="1"
         stop-opacity="0"
         id="stop3715" />
    </linearGradient>
    <linearGradient
       gradientUnits="userSpaceOnUse"
       id="linearGradient2258-6"
       x1="41.25"
       x2="48.25"
       y1="36.689548"
       y2="35.689548">
      <stop
         offset="0"
         stop-color="#c6c6c6"
         id="stop3718" />
      <stop
         offset="1"
         stop-color="#c6c6c6"
         stop-opacity="0"
         id="stop3720" />
    </linearGradient>
    <linearGradient
       gradientUnits="userSpaceOnUse"
       id="linearGradient2377"
       x1="18.32872"
       x2="14.40625"
       y1="15.32307"
       y2="14.04688">
      <stop
         offset="0"
         id="stop3723" />
      <stop
         offset="1"
         stop-opacity=".48454"
         id="stop3725" />
    </linearGradient>
    <linearGradient
       gradientUnits="userSpaceOnUse"
       id="linearGradient2361"
       x1="25.160469"
       x2="33.96875"
       xlink:href="#linearGradient2355"
       y1="15.80366"
       y2="20.4375" />
    <linearGradient
       gradientUnits="userSpaceOnUse"
       id="linearGradient2405"
       x1="16.4375"
       x2="17.40238"
       xlink:href="#linearGradient2399"
       y1="49.11071"
       y2="43.420429" />
    <radialGradient
       cx="15.4375"
       cy="42.090431"
       gradientTransform="matrix(1,0,0,0.52514,0,22.02165)"
       gradientUnits="userSpaceOnUse"
       id="radialGradient2238"
       r="11.1875">
      <stop
         offset="0"
         stop-color="#b0b0b0"
         id="stop3730" />
      <stop
         offset="1"
         stop-color="#747474"
         id="stop3732" />
    </radialGradient>
    <radialGradient
       cx="19.557501"
       cy="6.6440701"
       gradientTransform="matrix(1.49192,-0.08445108,-0.05874412,3.98672,-9.6468,-20.27595)"
       gradientUnits="userSpaceOnUse"
       id="radialGradient2351"
       r="10.98921">
      <stop
         offset="0"
         stop-color="#d5d5d5"
         id="stop3735" />
      <stop
         offset="1"
         stop-color="#a0a0a0"
         id="stop3737" />
    </radialGradient>
    <radialGradient
       cx="33.5"
       cy="20.53817"
       gradientTransform="matrix(0.43533,0,0,0.43533,18.91658,12.49341)"
       gradientUnits="userSpaceOnUse"
       id="radialGradient2413"
       r="2.2697401">
      <stop
         offset="0"
         stop-color="#d5d5d5"
         id="stop3740" />
      <stop
         offset="1"
         stop-color="#747474"
         id="stop3742" />
    </radialGradient>
    <radialGradient
       cx="25.1875"
       cy="41"
       gradientTransform="matrix(1,0,0,0.42586,0,23.53992)"
       gradientUnits="userSpaceOnUse"
       id="radialGradient2248"
       r="16.4375"
       xlink:href="#linearGradient2355" />
    <radialGradient
       cx="20.27528"
       cy="5.7119699"
       gradientTransform="matrix(2.53075,0,0,2.29601,-31.03641,-6.69986)"
       gradientUnits="userSpaceOnUse"
       id="radialGradient2343"
       r="12.49403"
       xlink:href="#linearGradient2399" />
    <radialGradient
       cx="25.1875"
       cy="41"
       gradientTransform="matrix(1,0,0,0.42586,0,23.53992)"
       gradientUnits="userSpaceOnUse"
       id="radialGradient2248-4"
       r="16.4375"
       xlink:href="#linearGradient2355" />
    <radialGradient
       cx="15.4375"
       cy="42.090431"
       gradientTransform="matrix(1,0,0,0.52514,0,22.02165)"
       gradientUnits="userSpaceOnUse"
       id="radialGradient2238-6"
       r="11.1875">
      <stop
         offset="0"
         stop-color="#b0b0b0"
         id="stop3730-8" />
      <stop
         offset="1"
         stop-color="#747474"
         id="stop3732-8" />
    </radialGradient>
    <radialGradient
       cx="19.557501"
       cy="6.6440701"
       gradientTransform="matrix(1.49192,-0.08445108,-0.05874412,3.98672,-9.6468,-20.27595)"
       gradientUnits="userSpaceOnUse"
       id="radialGradient2351-9"
       r="10.98921">
      <stop
         offset="0"
         stop-color="#d5d5d5"
         id="stop3735-9" />
      <stop
         offset="1"
         stop-color="#a0a0a0"
         id="stop3737-8" />
    </radialGradient>
    <radialGradient
       cx="20.27528"
       cy="5.7119699"
       gradientTransform="matrix(2.53075,0,0,2.29601,-31.03641,-6.69986)"
       gradientUnits="userSpaceOnUse"
       id="radialGradient2343-4"
       r="12.49403"
       xlink:href="#linearGradient2399" />
    <radialGradient
       cx="33.5"
       cy="20.53817"
       gradientTransform="matrix(0.43533,0,0,0.43533,18.91658,12.49341)"
       gradientUnits="userSpaceOnUse"
       id="radialGradient2413-4"
       r="2.2697401">
      <stop
         offset="0"
         stop-color="#d5d5d5"
         id="stop3740-6" />
      <stop
         offset="1"
         stop-color="#747474"
         id="stop3742-2" />
    </radialGradient>
    <radialGradient
       xlink:href="#linearGradient2355"
       r="16.4375"
       id="radialGradient2248-4-4"
       gradientUnits="userSpaceOnUse"
       gradientTransform="matrix(1,0,0,0.42586,0,23.53992)"
       cy="41"
       cx="25.1875" />
    <radialGradient
       r="11.1875"
       id="radialGradient2238-6-1"
       gradientUnits="userSpaceOnUse"
       gradientTransform="matrix(1,0,0,0.52514,0,22.02165)"
       cy="42.090431"
       cx="15.4375">
      <stop
         id="stop3730-8-5"
         stop-color="#b0b0b0"
         offset="0" />
      <stop
         id="stop3732-8-0"
         stop-color="#747474"
         offset="1" />
    </radialGradient>
    <radialGradient
       r="10.98921"
       id="radialGradient2351-9-2"
       gradientUnits="userSpaceOnUse"
       gradientTransform="matrix(1.49192,-0.08445108,-0.05874412,3.98672,-9.6468,-20.27595)"
       cy="6.6440701"
       cx="19.557501">
      <stop
         id="stop3735-9-6"
         stop-color="#d5d5d5"
         offset="0" />
      <stop
         id="stop3737-8-8"
         stop-color="#a0a0a0"
         offset="1" />
    </radialGradient>
    <radialGradient
       xlink:href="#linearGradient2399"
       r="12.49403"
       id="radialGradient2343-4-8"
       gradientUnits="userSpaceOnUse"
       gradientTransform="matrix(2.53075,0,0,2.29601,-31.03641,-6.69986)"
       cy="5.7119699"
       cx="20.27528" />
    <radialGradient
       r="2.2697401"
       id="radialGradient2413-4-3"
       gradientUnits="userSpaceOnUse"
       gradientTransform="matrix(0.43533,0,0,0.43533,18.91658,12.49341)"
       cy="20.53817"
       cx="33.5">
      <stop
         id="stop3740-6-3"
         stop-color="#d5d5d5"
         offset="0" />
      <stop
         id="stop3742-2-1"
         stop-color="#747474"
         offset="1" />
    </radialGradient>
    <linearGradient
       y2="137.27299"
       x2="112.03144"
       y1="192.35176"
       x1="150.96111"
       gradientTransform="matrix(0.562541,0,0,0.567972,301.94071,459.02523)"
       gradientUnits="userSpaceOnUse"
       id="linearGradient1475"
       xlink:href="#linearGradient4671"
       inkscape:collect="always" />
    <linearGradient
       y2="114.39767"
       x2="135.66525"
       y1="20.603781"
       x1="26.648937"
       gradientTransform="matrix(0.562541,0,0,0.567972,301.0102,459.02523)"
       gradientUnits="userSpaceOnUse"
       id="linearGradient1478"
       xlink:href="#linearGradient4689"
       inkscape:collect="always" />
    <radialGradient
       xlink:href="#linearGradient2355"
       r="16.4375"
       id="radialGradient2248-6"
       gradientUnits="userSpaceOnUse"
       gradientTransform="matrix(1,0,0,0.42586,0,23.53992)"
       cy="41"
       cx="25.1875" />
    <radialGradient
       r="11.1875"
       id="radialGradient2238-5"
       gradientUnits="userSpaceOnUse"
       gradientTransform="matrix(1,0,0,0.52514,0,22.02165)"
       cy="42.090431"
       cx="15.4375">
      <stop
         id="stop3730-9"
         stop-color="#b0b0b0"
         offset="0" />
      <stop
         id="stop3732-3"
         stop-color="#747474"
         offset="1" />
    </radialGradient>
    <radialGradient
       r="10.98921"
       id="radialGradient2351-6"
       gradientUnits="userSpaceOnUse"
       gradientTransform="matrix(1.49192,-0.08445108,-0.05874412,3.98672,-9.6468,-20.27595)"
       cy="6.6440701"
       cx="19.557501">
      <stop
         id="stop3735-5"
         stop-color="#d5d5d5"
         offset="0" />
      <stop
         id="stop3737-9"
         stop-color="#a0a0a0"
         offset="1" />
    </radialGradient>
    <radialGradient
       xlink:href="#linearGradient2399"
       r="12.49403"
       id="radialGradient2343-2"
       gradientUnits="userSpaceOnUse"
       gradientTransform="matrix(2.53075,0,0,2.29601,-31.03641,-6.69986)"
       cy="5.7119699"
       cx="20.27528" />
    <radialGradient
       r="2.2697401"
       id="radialGradient2413-7"
       gradientUnits="userSpaceOnUse"
       gradientTransform="matrix(0.43533,0,0,0.43533,18.91658,12.49341)"
       cy="20.53817"
       cx="33.5">
      <stop
         id="stop3740-0"
         stop-color="#d5d5d5"
         offset="0" />
      <stop
         id="stop3742-9"
         stop-color="#747474"
         offset="1" />
    </radialGradient>
  </defs>
  <sodipodi:namedview
     id="base"
     pagecolor="#ffffff"
     bordercolor="#666666"
     borderopacity="1.0"
     inkscape:pageopacity="0.0"
     inkscape:pageshadow="2"
     inkscape:zoom="1.9529253"
     inkscape:cx="113.7911"
     inkscape:cy="315.21743"
     inkscape:document-units="mm"
     inkscape:current-layer="layer1"
     showgrid="false"
     fit-margin-top="0"
     fit-margin-left="0"
     fit-margin-right="0"
     fit-margin-bottom="0"
     inkscape:window-width="3840"
     inkscape:window-height="2053"
     inkscape:window-x="0"
     inkscape:window-y="0"
     inkscape:window-maximized="1" />
  <metadata
     id="metadata1161">
    <rdf:RDF>
      <cc:Work
         rdf:about="">
        <dc:format>image/svg+xml</dc:format>
        <dc:type
           rdf:resource="http://purl.org/dc/dcmitype/StillImage" />
        <dc:title />
      </cc:Work>
    </rdf:RDF>
  </metadata>
  <g
     inkscape:groupmode="layer"
     id="layer2"
     inkscape:label="Background"
     transform="translate(0,101.59999)"
     style="display:inline">
    <g
       id="g9606"
       transform="rotate(-90,26.992348,27.129233)">
      <rect
         transform="translate(-52.966863,-302.49304)"
         y="302.84335"
         x="53.237797"
         height="53.598942"
         width="155.27548"
         id="rect9097"
         style="fill:#ffffff;fill-opacity:1;stroke:#fffafa;stroke-width:0.145;stroke-miterlimit:4;stroke-dasharray:none;stroke-opacity:1" />
    </g>
  </g>
  <g
     inkscape:label="Drawing"
     inkscape:groupmode="layer"
     id="layer1"
     transform="translate(-52.966864,-200.89306)">
    <g
       id="g4229"
       transform="matrix(0.20878379,0,0,0.20878379,2.3023295,107.75325)">
      <path
         inkscape:connector-curvature="0"
         style="fill:url(#linearGradient1478);fill-opacity:1"
         d="m 370.92011,470.72852 c -4.58366,0.0213 -8.96094,0.41222 -12.8125,1.09375 -11.34622,2.00451 -13.40625,6.2001 -13.40625,13.9375 v 10.21875 h 26.8125 v 3.40625 h -26.8125 -10.0625 c -7.79246,0 -14.61576,4.68372 -16.75001,13.59375 -2.46182,10.21297 -2.57101,16.58603 0,27.25 1.90593,7.93786 6.45755,13.59375 14.25001,13.59375 h 9.21875 v -12.25 c 0,-8.8499 7.65714,-16.65625 16.75,-16.65625 h 26.78125 c 7.45495,0 13.40625,-6.13816 13.40625,-13.625 v -25.53125 c 0,-7.26634 -6.12998,-12.72477 -13.40625,-13.9375 -4.60599,-0.76672 -9.3851,-1.11505 -13.96875,-1.09375 z m -14.5,8.21875 c 2.76954,0 5.03125,2.29865 5.03125,5.125 -1e-5,2.81634 -2.26171,5.09375 -5.03125,5.09375 -2.77948,0 -5.03125,-2.27741 -5.03125,-5.09375 -1e-5,-2.82635 2.25177,-5.125 5.03125,-5.125 z"
         id="path1948" />
      <path
         inkscape:connector-curvature="0"
         style="fill:url(#linearGradient1475);fill-opacity:1"
         d="m 402.56937,499.38477 v 11.90625 c 0,9.23076 -7.8259,17 -16.75,17 h -26.78125 c -7.33584,0 -13.40625,6.27849 -13.40625,13.625 v 25.53126 c 0,7.26634 6.31858,11.54032 13.40625,13.625 8.48733,2.49561 16.62623,2.94663 26.78125,0 6.75015,-1.95439 13.40625,-5.88761 13.40625,-13.625 v -10.21876 h -26.78125 v -3.40625 h 26.78125 13.40625 c 7.79246,0 10.69625,-5.43541 13.40624,-13.59375 2.79933,-8.39888 2.68022,-16.47577 0,-27.25 -1.92578,-7.75744 -5.60387,-13.59375 -13.40624,-13.59375 z m -15.0625,64.65625 c 2.77947,10e-6 5.03125,2.27742 5.03125,5.09376 -10e-6,2.82635 -2.25178,5.125 -5.03125,5.125 -2.76955,0 -5.03125,-2.29865 -5.03125,-5.125 0,-2.81634 2.26169,-5.09376 5.03125,-5.09376 z"
         id="path1950" />
      <path
         inkscape:connector-curvature="0"
         d="m 308.76154,489.7276 v 7 c 0,4.8785 -4.121,9 -9,9 h -4 c -4.8785,0 -9,-4.1215 -9,-9 v -7 h -4 v 7 c 0,7.047 5.953,13 13,13 v 7 h -8.5 v 4 h 21 v -4 h -8.5 v -7 c 7.047,0 13,-5.953 13,-13 v -7 z"
         id="path9980" />
      <path
         inkscape:connector-curvature="0"
         d="m 295.76154,502.7276 h 4 c 2.857,0 5.394,-2.2415 5.902,-5 h -5.9435 v -2 h 6.0415 v -2 h -6.0415 v -2 h 6.0415 v -2 h -6.0415 v -2 h 6.0415 v -2 h -6.0415 v -2 h 6.0415 v -2 h -6.0415 v -2 h 6.0415 v -2 h -6.0415 v -2 h 5.9435 c -0.508,-2.7585 -3.045,-5 -5.902,-5 h -4 c -3.1965,0 -6,2.8035 -6,6 v 20 c 0,3.1965 2.8035,6 6,6 z"
         id="path9982" />
      <path
         inkscape:connector-curvature="0"
         d="m 435.33295,564.11661 v -7 c 0,-4.8785 4.121,-9 9,-9 h 4 c 4.8785,0 9,4.1215 9,9 v 7 h 4 v -7 c 0,-7.047 -5.953,-13 -13,-13 v -7 h 8.5 v -4 h -21 v 4 h 8.5 v 7 c -7.047,0 -13,5.953 -13,13 v 7 z"
         id="path9980-7" />
      <path
         inkscape:connector-curvature="0"
         d="m 448.33295,551.11661 h -4 c -2.857,0 -5.394,2.2415 -5.902,5 h 5.9435 v 2 h -6.0415 v 2 h 6.0415 v 2 h -6.0415 v 2 h 6.0415 v 2 h -6.0415 v 2 h 6.0415 v 2 h -6.0415 v 2 h 6.0415 v 2 h -6.0415 v 2 h 6.0415 v 2 h -5.9435 c 0.508,2.7585 3.045,5 5.902,5 h 4 c 3.1965,0 6,-2.8035 6,-6 v -20 c 0,-3.1965 -2.8035,-6 -6,-6 z"
         id="path9982-8" />
      <g
         id="g4224">
        <g
           id="g4220">
          <path
             style="fill:none;fill-rule:evenodd;stroke:#000000;stroke-width:1px;stroke-linecap:butt;stroke-linejoin:miter;stroke-opacity:1"
             d="m 410.88323,562.75595 c 3.0786,3.38813 4.48422,7.67153 0,12.14286"
             id="path10015"
             inkscape:connector-curvature="0"
             sodipodi:nodetypes="cc" />
          <path
             style="fill:none;fill-rule:evenodd;stroke:#000000;stroke-width:1.35535014px;stroke-linecap:butt;stroke-linejoin:miter;stroke-opacity:1"
             d="m 414.26614,559.66641 c 3.74965,5.11006 5.46166,11.57038 0,18.31415"
             id="path10015-7"
             inkscape:connector-curvature="0"
             sodipodi:nodetypes="cc" />
        </g>
      </g>
      <path
         style="fill:none;fill-rule:evenodd;stroke:#000000;stroke-width:1.83304119px;stroke-linecap:butt;stroke-linejoin:miter;stroke-opacity:1"
         d="m 417.60218,555.02242 c 4.55214,7.69915 6.63054,17.4327 0,27.59331"
         id="path10015-7-8"
         inkscape:connector-curvature="0"
         sodipodi:nodetypes="cc" />
      <g
         id="g4216">
        <path
           sodipodi:nodetypes="cc"
           inkscape:connector-curvature="0"
           id="path10015-5"
           d="m 333.21122,491.08823 c -3.0786,-3.38813 -4.48422,-7.67153 0,-12.14286"
           style="fill:none;fill-rule:evenodd;stroke:#000000;stroke-width:1px;stroke-linecap:butt;stroke-linejoin:miter;stroke-opacity:1" />
        <path
           sodipodi:nodetypes="cc"
           inkscape:connector-curvature="0"
           id="path10015-7-3"
           d="m 329.82831,494.17777 c -3.74965,-5.11006 -5.46166,-11.57038 0,-18.31415"
           style="fill:none;fill-rule:evenodd;stroke:#000000;stroke-width:1.35535014px;stroke-linecap:butt;stroke-linejoin:miter;stroke-opacity:1" />
      </g>
      <path
         style="fill:none;fill-rule:evenodd;stroke:#000000;stroke-width:1.83304119px;stroke-linecap:butt;stroke-linejoin:miter;stroke-opacity:1"
         d="m 326.49227,498.82176 c -4.55214,-7.69915 -6.63054,-17.4327 0,-27.59331"
         id="path10015-7-8-3"
         inkscape:connector-curvature="0"
         sodipodi:nodetypes="cc" />
    </g>
    <text
       id="text4610"
       y="234.7997"
       x="57.893738"
       style="font-style:normal;font-variant:normal;font-weight:normal;font-stretch:normal;font-size:2.20031881px;line-height:0%;font-family:'Source Code Pro';-inkscape-font-specification:'Source Code Pro, Normal';text-align:start;letter-spacing:0px;word-spacing:0px;writing-mode:lr-tb;text-anchor:start;fill:#000000;fill-opacity:1;stroke:none;stroke-width:0.18335991px;stroke-linecap:butt;stroke-linejoin:miter;stroke-opacity:1"
       xml:space="preserve"><tspan
         style="font-size:4.58399773px;line-height:1;stroke-width:0.18335991px"
         y="234.7997"
         x="57.893738"
         id="tspan4612"
         sodipodi:role="line">Podcast.__init__</tspan></text>
    <flowRoot
       transform="matrix(0.18335991,0,0,0.18335991,0.98104424,286.74191)"
       style="font-style:normal;font-variant:normal;font-weight:normal;font-stretch:normal;line-height:0.01%;font-family:Inconsolata;-inkscape-font-specification:Inconsolata;text-align:center;letter-spacing:0px;word-spacing:0px;text-anchor:middle;fill:#306998;fill-opacity:1;stroke:none;stroke-width:1px;stroke-linecap:butt;stroke-linejoin:miter;stroke-opacity:1"
       id="flowRoot4634"
       xml:space="preserve"><flowRegion
         id="flowRegion4636"
         style="fill:#306998;fill-opacity:1"><rect
           style="font-style:normal;font-variant:normal;font-weight:normal;font-stretch:normal;font-size:15px;font-family:Inconsolata;-inkscape-font-specification:Inconsolata;text-align:center;text-anchor:middle;fill:#306998;fill-opacity:1"
           y="294.24274"
           x="305.06607"
           height="47.30323"
           width="252.14751"
           id="rect4638" /></flowRegion><flowPara
         style="font-style:normal;font-variant:normal;font-weight:normal;font-stretch:normal;font-size:15px;line-height:1.25;font-family:Inconsolata;-inkscape-font-specification:Inconsolata;text-align:center;text-anchor:middle;fill:#306998;fill-opacity:1"
         id="flowPara4640">The Podcast About Python</flowPara><flowPara
         id="flowPara4642"
         style="font-style:normal;font-variant:normal;font-weight:normal;font-stretch:normal;font-size:15px;line-height:1.25;font-family:Inconsolata;-inkscape-font-specification:Inconsolata;text-align:center;text-anchor:middle;fill:#306998;fill-opacity:1">And The People Who Make It Great</flowPara></flowRoot>    <text
       id="text4610-7"
       y="350.70538"
       x="59.759613"
       style="font-style:normal;font-variant:normal;font-weight:normal;font-stretch:normal;font-size:1.54571211px;line-height:0%;font-family:'Source Code Pro';-inkscape-font-specification:'Source Code Pro, Normal';text-align:start;letter-spacing:0px;word-spacing:0px;writing-mode:lr-tb;text-anchor:start;fill:#000000;fill-opacity:1;stroke:none;stroke-width:0.12880936px;stroke-linecap:butt;stroke-linejoin:miter;stroke-opacity:1"
       xml:space="preserve"><tspan
         style="font-size:3.22023392px;line-height:1;stroke-width:0.12880936px"
         y="350.70538"
         x="59.759613"
         id="tspan4612-5"
         sodipodi:role="line">www.pythonpodcast.com</tspan></text>
  </g>
  <g
     inkscape:groupmode="layer"
     id="layer3"
     inkscape:label="Guides"
     style="display:none"
     transform="translate(0,101.59999)">
    <g
       transform="rotate(90,255.47124,100.99645)"
       id="g9105">
      <path
         inkscape:connector-curvature="0"
         id="path3408"
         style="fill:none;stroke:#343596;stroke-width:0.35313058;stroke-linecap:butt;stroke-linejoin:miter;stroke-miterlimit:4;stroke-dasharray:1.25976942;stroke-dashoffset:0;stroke-opacity:1"
         d="M 206.84959,354.8548 H 54.474989 v -50.8 H 206.84959 Z" />
      <path
         inkscape:connector-curvature="0"
         id="path3424"
         style="fill:#4dbd38;fill-opacity:1;fill-rule:nonzero;stroke:none;stroke-width:0.35277778"
         d="M 208.51329,302.4673 H 52.862089 v 53.975 H 208.51329 Z m -0.37607,53.59929 H 53.237797 V 302.84336 H 208.13722 Z" />
      <path
         inkscape:connector-curvature="0"
         id="path3426"
         style="fill:#ee2736;fill-opacity:1;fill-rule:nonzero;stroke:none;stroke-width:0.35277778"
         d="M 205.28749,305.6423 H 56.037089 v 47.57102 H 205.28749 Z m -0.35278,47.21824 H 56.389867 V 305.99508 H 204.93471 Z" />
    </g>
  </g>
</svg>
