<?xml version="1.0" encoding="UTF-8" standalone="no"?>
<!-- Created with Inkscape (http://www.inkscape.org/) -->

<svg
   xmlns:dc="http://purl.org/dc/elements/1.1/"
   xmlns:cc="http://creativecommons.org/ns#"
   xmlns:rdf="http://www.w3.org/1999/02/22-rdf-syntax-ns#"
   xmlns:svg="http://www.w3.org/2000/svg"
   xmlns="http://www.w3.org/2000/svg"
   xmlns:xlink="http://www.w3.org/1999/xlink"
   xmlns:sodipodi="http://sodipodi.sourceforge.net/DTD/sodipodi-0.dtd"
   xmlns:inkscape="http://www.inkscape.org/namespaces/inkscape"
   width="54.025799mm"
   height="155.62579mm"
   viewBox="0 0 54.025798 155.62579"
   version="1.1"
   id="svg1164"
   inkscape:export-filename="/tmp/python_bookmark.png"
   inkscape:export-xdpi="510.56"
   inkscape:export-ydpi="510.56"
   sodipodi:docname="bookmark.svg"
   inkscape:version="0.92.4 5da689c313, 2019-01-14">
  <defs
     id="defs1158">
    <clipPath
       id="clipPath1760"
       clipPathUnits="userSpaceOnUse">
      <path
         inkscape:connector-curvature="0"
         id="path1758"
         d="M 0,0 H 441.144 V 153.144 H 0 Z" />
    </clipPath>
    <radialGradient
       id="radialGradient1770"
       spreadMethod="pad"
       gradientTransform="matrix(99.020656,0,0,86.660173,91.489807,415.25226)"
       gradientUnits="userSpaceOnUse"
       r="1"
       cy="0"
       cx="0"
       fy="0"
       fx="0">
      <stop
         id="stop1766"
         offset="0"
         style="stop-opacity:1;stop-color:#ffffff" />
      <stop
         id="stop1768"
         offset="1"
         style="stop-opacity:1;stop-color:#bdbcbc" />
    </radialGradient>
    <clipPath
       id="clipPath1780"
       clipPathUnits="userSpaceOnUse">
      <path
         inkscape:connector-curvature="0"
         id="path1778"
         d="M 0,0 H 440.595 V 153.144 H 0 Z" />
    </clipPath>
    <clipPath
       id="clipPath1788"
       clipPathUnits="userSpaceOnUse">
      <path
         inkscape:connector-curvature="0"
         id="path1786"
         d="M -1443.13,571.375 H 1621 v -938.438 h -3064.13 z" />
    </clipPath>
    <clipPath
       id="clipPath1792"
       clipPathUnits="userSpaceOnUse">
      <path
         inkscape:connector-curvature="0"
         id="path1790"
         d="M 451.05,-345.811 H -782.059 V 455.1 H 451.05 Z" />
    </clipPath>
    <clipPath
       id="clipPath1796"
       clipPathUnits="userSpaceOnUse">
      <path
         inkscape:connector-curvature="0"
         id="path1794"
         d="M -509.075,254.008 H 686.294 V -52.2555 H -509.075 Z" />
    </clipPath>
    <clipPath
       id="clipPath1800"
       clipPathUnits="userSpaceOnUse">
      <path
         inkscape:connector-curvature="0"
         id="path1798"
         d="M 425.627,254.008 H 1621 V -52.2555 H 425.627 Z" />
    </clipPath>
    <clipPath
       id="clipPath3226"
       clipPathUnits="userSpaceOnUse">
      <path
         inkscape:connector-curvature="0"
         id="path3224"
         d="M 0,153.144 H 441.144 V 0 H 0 Z" />
    </clipPath>
    <clipPath
       id="clipPath3290"
       clipPathUnits="userSpaceOnUse">
      <path
         inkscape:connector-curvature="0"
         id="path3288"
         d="m 59.632,98.89 c 0,-22.475 16.588,-41.07 38.189,-44.223 v 0 12.856 C 83.254,70.532 72.303,83.434 72.303,98.89 v 0 c 0,17.691 14.34,32.032 32.03,32.032 v 0 c 17.69,0 32.03,-14.341 32.03,-32.032 v 0 c 0,-15.458 -10.95,-28.358 -25.519,-31.367 v 0 -12.856 c 21.602,3.153 38.191,21.748 38.191,44.223 v 0 c 0,24.689 -20.014,44.703 -44.702,44.703 v 0 c -24.687,0 -44.701,-20.014 -44.701,-44.703" />
    </clipPath>
    <radialGradient
       id="radialGradient3304"
       spreadMethod="pad"
       gradientTransform="matrix(16.310361,0,0,16.310361,89.773315,321.63824)"
       gradientUnits="userSpaceOnUse"
       r="1"
       cy="0"
       cx="0"
       fy="0"
       fx="0">
      <stop
         id="stop3296"
         offset="0"
         style="stop-opacity:1;stop-color:#fefefe" />
      <stop
         id="stop3298"
         offset="0.624242"
         style="stop-opacity:1;stop-color:#fefefe" />
      <stop
         id="stop3300"
         offset="0.73011945"
         style="stop-opacity:1;stop-color:#d2d1d2" />
      <stop
         id="stop3302"
         offset="1"
         style="stop-opacity:1;stop-color:#d2d1d2" />
    </radialGradient>
    <clipPath
       id="clipPath3314"
       clipPathUnits="userSpaceOnUse">
      <path
         inkscape:connector-curvature="0"
         id="path3312"
         d="m 59.632,98.89 c 0,-22.475 16.588,-41.07 38.189,-44.223 v 0 12.856 C 83.254,70.532 72.303,83.434 72.303,98.89 v 0 c 0,17.691 14.34,32.032 32.03,32.032 v 0 c 17.69,0 32.03,-14.341 32.03,-32.032 v 0 c 0,-15.458 -10.95,-28.358 -25.519,-31.367 v 0 -12.856 c 21.602,3.153 38.191,21.748 38.191,44.223 v 0 c 0,24.689 -20.014,44.703 -44.702,44.703 v 0 c -24.687,0 -44.701,-20.014 -44.701,-44.703" />
    </clipPath>
    <linearGradient
       id="linearGradient3324"
       spreadMethod="pad"
       gradientTransform="matrix(0,-31.371015,31.371015,0,89.773315,337.23347)"
       gradientUnits="userSpaceOnUse"
       y2="0"
       x2="1"
       y1="0"
       x1="0">
      <stop
         id="stop3320"
         offset="0"
         style="stop-opacity:1;stop-color:#605d5e" />
      <stop
         id="stop3322"
         offset="1"
         style="stop-opacity:1;stop-color:#bebdbd" />
    </linearGradient>
    <clipPath
       id="clipPath3334"
       clipPathUnits="userSpaceOnUse">
      <path
         inkscape:connector-curvature="0"
         id="path3332"
         d="m 110.844,116.669 c 7.245,-2.655 12.416,-9.612 12.416,-17.779 v 0 c 0,-8.164 -5.171,-15.122 -12.416,-17.777 v 0 -7.987 c 11.526,2.905 20.062,13.338 20.062,25.764 v 0 c 0,12.428 -8.536,22.861 -20.062,25.766 v 0 z" />
    </clipPath>
    <linearGradient
       id="linearGradient3344"
       spreadMethod="pad"
       gradientTransform="matrix(0,-18.178655,18.178655,0,95.608902,330.7216)"
       gradientUnits="userSpaceOnUse"
       y2="0"
       x2="1"
       y1="0"
       x1="0">
      <stop
         id="stop3340"
         offset="0"
         style="stop-opacity:1;stop-color:#605d5e" />
      <stop
         id="stop3342"
         offset="1"
         style="stop-opacity:1;stop-color:#bebdbd" />
    </linearGradient>
    <clipPath
       id="clipPath3354"
       clipPathUnits="userSpaceOnUse">
      <path
         inkscape:connector-curvature="0"
         id="path3352"
         d="M 98.877,124.875 V 54.531 c 1.789,-0.22 3.61,-0.342 5.456,-0.342 v 0 c 1.847,0 3.668,0.122 5.456,0.342 v 0 70.37 c -1.745,0.361 -3.548,0.561 -5.4,0.561 v 0 c -1.892,0 -3.733,-0.211 -5.512,-0.587" />
    </clipPath>
    <linearGradient
       id="linearGradient3364"
       spreadMethod="pad"
       gradientTransform="matrix(0,-25.14356,25.14356,0,89.773322,337.40214)"
       gradientUnits="userSpaceOnUse"
       y2="0"
       x2="1"
       y1="0"
       x1="0">
      <stop
         id="stop3360"
         offset="0"
         style="stop-opacity:1;stop-color:#605d5e" />
      <stop
         id="stop3362"
         offset="1"
         style="stop-opacity:1;stop-color:#bebdbd" />
    </linearGradient>
    <clipPath
       id="clipPath3374"
       clipPathUnits="userSpaceOnUse">
      <path
         inkscape:connector-curvature="0"
         id="path3372"
         d="M 0,153.144 H 441.144 V 0 H 0 Z" />
    </clipPath>
    <clipPath
       id="clipPath3422"
       clipPathUnits="userSpaceOnUse">
      <path
         inkscape:connector-curvature="0"
         id="path3420"
         d="M 0,153.144 H 441.144 V 0 H 0 Z" />
    </clipPath>
    <linearGradient
       id="linearGradient2795">
      <stop
         style="stop-color:#b8b8b8;stop-opacity:0.49803922;"
         offset="0"
         id="stop2797" />
      <stop
         style="stop-color:#7f7f7f;stop-opacity:0;"
         offset="1"
         id="stop2799" />
    </linearGradient>
    <linearGradient
       id="linearGradient2787">
      <stop
         style="stop-color:#7f7f7f;stop-opacity:0.5;"
         offset="0"
         id="stop2789" />
      <stop
         style="stop-color:#7f7f7f;stop-opacity:0;"
         offset="1"
         id="stop2791" />
    </linearGradient>
    <linearGradient
       id="linearGradient3676">
      <stop
         style="stop-color:#b2b2b2;stop-opacity:0.5;"
         offset="0"
         id="stop3678" />
      <stop
         style="stop-color:#b3b3b3;stop-opacity:0;"
         offset="1"
         id="stop3680" />
    </linearGradient>
    <linearGradient
       id="linearGradient3236">
      <stop
         style="stop-color:#f4f4f4;stop-opacity:1"
         offset="0"
         id="stop3244" />
      <stop
         style="stop-color:white;stop-opacity:1"
         offset="1"
         id="stop3240" />
    </linearGradient>
    <linearGradient
       id="linearGradient4671">
      <stop
         style="stop-color:#ffd43b;stop-opacity:1;"
         offset="0"
         id="stop4673" />
      <stop
         style="stop-color:#ffe873;stop-opacity:1"
         offset="1"
         id="stop4675" />
    </linearGradient>
    <linearGradient
       id="linearGradient4689">
      <stop
         style="stop-color:#5a9fd4;stop-opacity:1;"
         offset="0"
         id="stop4691" />
      <stop
         style="stop-color:#306998;stop-opacity:1;"
         offset="1"
         id="stop4693" />
    </linearGradient>
    <linearGradient
       x1="224.23996"
       y1="144.75717"
       x2="-65.308502"
       y2="144.75717"
       id="linearGradient2987"
       xlink:href="#linearGradient4671"
       gradientUnits="userSpaceOnUse"
       gradientTransform="translate(100.2702,99.61116)" />
    <linearGradient
       x1="172.94208"
       y1="77.475983"
       x2="26.670298"
       y2="76.313133"
       id="linearGradient2990"
       xlink:href="#linearGradient4689"
       gradientUnits="userSpaceOnUse"
       gradientTransform="translate(100.2702,99.61116)" />
    <linearGradient
       inkscape:collect="always"
       xlink:href="#linearGradient4671"
       id="linearGradient2255"
       gradientUnits="userSpaceOnUse"
       gradientTransform="matrix(0.562541,0,0,0.567972,-11.5974,-7.60954)"
       x1="224.23996"
       y1="144.75717"
       x2="-65.308502"
       y2="144.75717" />
    <linearGradient
       inkscape:collect="always"
       xlink:href="#linearGradient4689"
       id="linearGradient2258"
       gradientUnits="userSpaceOnUse"
       gradientTransform="matrix(0.562541,0,0,0.567972,-11.5974,-7.60954)"
       x1="172.94208"
       y1="76.176224"
       x2="26.670298"
       y2="76.313133" />
    <radialGradient
       inkscape:collect="always"
       xlink:href="#linearGradient2795"
       id="radialGradient2801"
       cx="61.518883"
       cy="132.28575"
       fx="61.518883"
       fy="132.28575"
       r="29.036913"
       gradientTransform="matrix(1,0,0,0.177966,0,108.7434)"
       gradientUnits="userSpaceOnUse" />
    <linearGradient
       id="linearGradient2399">
      <stop
         offset="0"
         stop-color="#fff"
         id="stop3708" />
      <stop
         offset="1"
         stop-color="#fff"
         stop-opacity="0"
         id="stop3710" />
    </linearGradient>
    <linearGradient
       id="linearGradient2355">
      <stop
         offset="0"
         id="stop3713" />
      <stop
         offset="1"
         stop-opacity="0"
         id="stop3715" />
    </linearGradient>
    <linearGradient
       gradientUnits="userSpaceOnUse"
       id="linearGradient2258-6"
       x1="41.25"
       x2="48.25"
       y1="36.689548"
       y2="35.689548">
      <stop
         offset="0"
         stop-color="#c6c6c6"
         id="stop3718" />
      <stop
         offset="1"
         stop-color="#c6c6c6"
         stop-opacity="0"
         id="stop3720" />
    </linearGradient>
    <linearGradient
       gradientUnits="userSpaceOnUse"
       id="linearGradient2377"
       x1="18.32872"
       x2="14.40625"
       y1="15.32307"
       y2="14.04688">
      <stop
         offset="0"
         id="stop3723" />
      <stop
         offset="1"
         stop-opacity=".48454"
         id="stop3725" />
    </linearGradient>
    <linearGradient
       gradientUnits="userSpaceOnUse"
       id="linearGradient2361"
       x1="25.160469"
       x2="33.96875"
       xlink:href="#linearGradient2355"
       y1="15.80366"
       y2="20.4375" />
    <linearGradient
       gradientUnits="userSpaceOnUse"
       id="linearGradient2405"
       x1="16.4375"
       x2="17.40238"
       xlink:href="#linearGradient2399"
       y1="49.11071"
       y2="43.420429" />
    <radialGradient
       cx="15.4375"
       cy="42.090431"
       gradientTransform="matrix(1,0,0,0.52514,0,22.02165)"
       gradientUnits="userSpaceOnUse"
       id="radialGradient2238"
       r="11.1875">
      <stop
         offset="0"
         stop-color="#b0b0b0"
         id="stop3730" />
      <stop
         offset="1"
         stop-color="#747474"
         id="stop3732" />
    </radialGradient>
    <radialGradient
       cx="19.557501"
       cy="6.6440701"
       gradientTransform="matrix(1.49192,-0.08445108,-0.05874412,3.98672,-9.6468,-20.27595)"
       gradientUnits="userSpaceOnUse"
       id="radialGradient2351"
       r="10.98921">
      <stop
         offset="0"
         stop-color="#d5d5d5"
         id="stop3735" />
      <stop
         offset="1"
         stop-color="#a0a0a0"
         id="stop3737" />
    </radialGradient>
    <radialGradient
       cx="33.5"
       cy="20.53817"
       gradientTransform="matrix(0.43533,0,0,0.43533,18.91658,12.49341)"
       gradientUnits="userSpaceOnUse"
       id="radialGradient2413"
       r="2.2697401">
      <stop
         offset="0"
         stop-color="#d5d5d5"
         id="stop3740" />
      <stop
         offset="1"
         stop-color="#747474"
         id="stop3742" />
    </radialGradient>
    <radialGradient
       cx="25.1875"
       cy="41"
       gradientTransform="matrix(1,0,0,0.42586,0,23.53992)"
       gradientUnits="userSpaceOnUse"
       id="radialGradient2248"
       r="16.4375"
       xlink:href="#linearGradient2355" />
    <radialGradient
       cx="20.27528"
       cy="5.7119699"
       gradientTransform="matrix(2.53075,0,0,2.29601,-31.03641,-6.69986)"
       gradientUnits="userSpaceOnUse"
       id="radialGradient2343"
       r="12.49403"
       xlink:href="#linearGradient2399" />
    <radialGradient
       cx="25.1875"
       cy="41"
       gradientTransform="matrix(1,0,0,0.42586,0,23.53992)"
       gradientUnits="userSpaceOnUse"
       id="radialGradient2248-4"
       r="16.4375"
       xlink:href="#linearGradient2355" />
    <radialGradient
       cx="15.4375"
       cy="42.090431"
       gradientTransform="matrix(1,0,0,0.52514,0,22.02165)"
       gradientUnits="userSpaceOnUse"
       id="radialGradient2238-6"
       r="11.1875">
      <stop
         offset="0"
         stop-color="#b0b0b0"
         id="stop3730-8" />
      <stop
         offset="1"
         stop-color="#747474"
         id="stop3732-8" />
    </radialGradient>
    <radialGradient
       cx="19.557501"
       cy="6.6440701"
       gradientTransform="matrix(1.49192,-0.08445108,-0.05874412,3.98672,-9.6468,-20.27595)"
       gradientUnits="userSpaceOnUse"
       id="radialGradient2351-9"
       r="10.98921">
      <stop
         offset="0"
         stop-color="#d5d5d5"
         id="stop3735-9" />
      <stop
         offset="1"
         stop-color="#a0a0a0"
         id="stop3737-8" />
    </radialGradient>
    <radialGradient
       cx="20.27528"
       cy="5.7119699"
       gradientTransform="matrix(2.53075,0,0,2.29601,-31.03641,-6.69986)"
       gradientUnits="userSpaceOnUse"
       id="radialGradient2343-4"
       r="12.49403"
       xlink:href="#linearGradient2399" />
    <radialGradient
       cx="33.5"
       cy="20.53817"
       gradientTransform="matrix(0.43533,0,0,0.43533,18.91658,12.49341)"
       gradientUnits="userSpaceOnUse"
       id="radialGradient2413-4"
       r="2.2697401">
      <stop
         offset="0"
         stop-color="#d5d5d5"
         id="stop3740-6" />
      <stop
         offset="1"
         stop-color="#747474"
         id="stop3742-2" />
    </radialGradient>
    <radialGradient
       xlink:href="#linearGradient2355"
       r="16.4375"
       id="radialGradient2248-4-4"
       gradientUnits="userSpaceOnUse"
       gradientTransform="matrix(1,0,0,0.42586,0,23.53992)"
       cy="41"
       cx="25.1875" />
    <radialGradient
       r="11.1875"
       id="radialGradient2238-6-1"
       gradientUnits="userSpaceOnUse"
       gradientTransform="matrix(1,0,0,0.52514,0,22.02165)"
       cy="42.090431"
       cx="15.4375">
      <stop
         id="stop3730-8-5"
         stop-color="#b0b0b0"
         offset="0" />
      <stop
         id="stop3732-8-0"
         stop-color="#747474"
         offset="1" />
    </radialGradient>
    <radialGradient
       r="10.98921"
       id="radialGradient2351-9-2"
       gradientUnits="userSpaceOnUse"
       gradientTransform="matrix(1.49192,-0.08445108,-0.05874412,3.98672,-9.6468,-20.27595)"
       cy="6.6440701"
       cx="19.557501">
      <stop
         id="stop3735-9-6"
         stop-color="#d5d5d5"
         offset="0" />
      <stop
         id="stop3737-8-8"
         stop-color="#a0a0a0"
         offset="1" />
    </radialGradient>
    <radialGradient
       xlink:href="#linearGradient2399"
       r="12.49403"
       id="radialGradient2343-4-8"
       gradientUnits="userSpaceOnUse"
       gradientTransform="matrix(2.53075,0,0,2.29601,-31.03641,-6.69986)"
       cy="5.7119699"
       cx="20.27528" />
    <radialGradient
       r="2.2697401"
       id="radialGradient2413-4-3"
       gradientUnits="userSpaceOnUse"
       gradientTransform="matrix(0.43533,0,0,0.43533,18.91658,12.49341)"
       cy="20.53817"
       cx="33.5">
      <stop
         id="stop3740-6-3"
         stop-color="#d5d5d5"
         offset="0" />
      <stop
         id="stop3742-2-1"
         stop-color="#747474"
         offset="1" />
    </radialGradient>
    <linearGradient
       y2="137.27299"
       x2="112.03144"
       y1="192.35176"
       x1="150.96111"
       gradientTransform="matrix(0.562541,0,0,0.567972,301.94071,459.02523)"
       gradientUnits="userSpaceOnUse"
       id="linearGradient1475"
       xlink:href="#linearGradient4671"
       inkscape:collect="always" />
    <linearGradient
       y2="114.39767"
       x2="135.66525"
       y1="20.603781"
       x1="26.648937"
       gradientTransform="matrix(0.562541,0,0,0.567972,301.0102,459.02523)"
       gradientUnits="userSpaceOnUse"
       id="linearGradient1478"
       xlink:href="#linearGradient4689"
       inkscape:collect="always" />
    <radialGradient
       xlink:href="#linearGradient2355"
       r="16.4375"
       id="radialGradient2248-6"
       gradientUnits="userSpaceOnUse"
       gradientTransform="matrix(1,0,0,0.42586,0,23.53992)"
       cy="41"
       cx="25.1875" />
    <radialGradient
       r="11.1875"
       id="radialGradient2238-5"
       gradientUnits="userSpaceOnUse"
       gradientTransform="matrix(1,0,0,0.52514,0,22.02165)"
       cy="42.090431"
       cx="15.4375">
      <stop
         id="stop3730-9"
         stop-color="#b0b0b0"
         offset="0" />
      <stop
         id="stop3732-3"
         stop-color="#747474"
         offset="1" />
    </radialGradient>
    <radialGradient
       r="10.98921"
       id="radialGradient2351-6"
       gradientUnits="userSpaceOnUse"
       gradientTransform="matrix(1.49192,-0.08445108,-0.05874412,3.98672,-9.6468,-20.27595)"
       cy="6.6440701"
       cx="19.557501">
      <stop
         id="stop3735-5"
         stop-color="#d5d5d5"
         offset="0" />
      <stop
         id="stop3737-9"
         stop-color="#a0a0a0"
         offset="1" />
    </radialGradient>
    <radialGradient
       xlink:href="#linearGradient2399"
       r="12.49403"
       id="radialGradient2343-2"
       gradientUnits="userSpaceOnUse"
       gradientTransform="matrix(2.53075,0,0,2.29601,-31.03641,-6.69986)"
       cy="5.7119699"
       cx="20.27528" />
    <radialGradient
       r="2.2697401"
       id="radialGradient2413-7"
       gradientUnits="userSpaceOnUse"
       gradientTransform="matrix(0.43533,0,0,0.43533,18.91658,12.49341)"
       cy="20.53817"
       cx="33.5">
      <stop
         id="stop3740-0"
         stop-color="#d5d5d5"
         offset="0" />
      <stop
         id="stop3742-9"
         stop-color="#747474"
         offset="1" />
    </radialGradient>
  </defs>
  <sodipodi:namedview
     id="base"
     pagecolor="#ffffff"
     bordercolor="#666666"
     borderopacity="1.0"
     inkscape:pageopacity="0.0"
     inkscape:pageshadow="2"
     inkscape:zoom="1.9529253"
     inkscape:cx="66.938309"
     inkscape:cy="315.21743"
     inkscape:document-units="mm"
     inkscape:current-layer="layer1"
     showgrid="false"
     fit-margin-top="0"
     fit-margin-left="0"
     fit-margin-right="0"
     fit-margin-bottom="0"
     inkscape:window-width="3072"
     inkscape:window-height="1779"
     inkscape:window-x="0"
     inkscape:window-y="71"
     inkscape:window-maximized="1" />
  <metadata
     id="metadata1161">
    <rdf:RDF>
      <cc:Work
         rdf:about="">
        <dc:format>image/svg+xml</dc:format>
        <dc:type
           rdf:resource="http://purl.org/dc/dcmitype/StillImage" />
        <dc:title />
      </cc:Work>
    </rdf:RDF>
  </metadata>
  <g
     inkscape:groupmode="layer"
     id="layer2"
     inkscape:label="Background"
     transform="translate(0,101.59999)"
     style="display:inline">
    <g
       id="g9606"
       transform="rotate(-90,26.992348,27.129233)">
      <rect
         transform="translate(-52.966863,-302.49304)"
         y="302.84335"
         x="53.237797"
         height="53.598942"
         width="155.27548"
         id="rect9097"
         style="fill:#ffffff;fill-opacity:1;stroke:#fffafa;stroke-width:0.145;stroke-miterlimit:4;stroke-dasharray:none;stroke-opacity:1" />
    </g>
  </g>
  <g
     inkscape:label="Drawing"
     inkscape:groupmode="layer"
     id="layer1"
     transform="translate(-52.966864,-200.89306)">
    <g
       id="g4229"
       transform="matrix(0.16022757,0,0,0.16022757,20.367537,130.61)">
      <path
         inkscape:connector-curvature="0"
         style="fill:url(#linearGradient1478);fill-opacity:1"
         d="m 370.92011,470.72852 c -4.58366,0.0213 -8.96094,0.41222 -12.8125,1.09375 -11.34622,2.00451 -13.40625,6.2001 -13.40625,13.9375 v 10.21875 h 26.8125 v 3.40625 h -26.8125 -10.0625 c -7.79246,0 -14.61576,4.68372 -16.75001,13.59375 -2.46182,10.21297 -2.57101,16.58603 0,27.25 1.90593,7.93786 6.45755,13.59375 14.25001,13.59375 h 9.21875 v -12.25 c 0,-8.8499 7.65714,-16.65625 16.75,-16.65625 h 26.78125 c 7.45495,0 13.40625,-6.13816 13.40625,-13.625 v -25.53125 c 0,-7.26634 -6.12998,-12.72477 -13.40625,-13.9375 -4.60599,-0.76672 -9.3851,-1.11505 -13.96875,-1.09375 z m -14.5,8.21875 c 2.76954,0 5.03125,2.29865 5.03125,5.125 -1e-5,2.81634 -2.26171,5.09375 -5.03125,5.09375 -2.77948,0 -5.03125,-2.27741 -5.03125,-5.09375 -1e-5,-2.82635 2.25177,-5.125 5.03125,-5.125 z"
         id="path1948" />
      <path
         inkscape:connector-curvature="0"
         style="fill:url(#linearGradient1475);fill-opacity:1"
         d="m 402.56937,499.38477 v 11.90625 c 0,9.23076 -7.8259,17 -16.75,17 h -26.78125 c -7.33584,0 -13.40625,6.27849 -13.40625,13.625 v 25.53126 c 0,7.26634 6.31858,11.54032 13.40625,13.625 8.48733,2.49561 16.62623,2.94663 26.78125,0 6.75015,-1.95439 13.40625,-5.88761 13.40625,-13.625 v -10.21876 h -26.78125 v -3.40625 h 26.78125 13.40625 c 7.79246,0 10.69625,-5.43541 13.40624,-13.59375 2.79933,-8.39888 2.68022,-16.47577 0,-27.25 -1.92578,-7.75744 -5.60387,-13.59375 -13.40624,-13.59375 z m -15.0625,64.65625 c 2.77947,10e-6 5.03125,2.27742 5.03125,5.09376 -10e-6,2.82635 -2.25178,5.125 -5.03125,5.125 -2.76955,0 -5.03125,-2.29865 -5.03125,-5.125 0,-2.81634 2.26169,-5.09376 5.03125,-5.09376 z"
         id="path1950" />
      <path
         inkscape:connector-curvature="0"
         d="m 308.76154,489.7276 v 7 c 0,4.8785 -4.121,9 -9,9 h -4 c -4.8785,0 -9,-4.1215 -9,-9 v -7 h -4 v 7 c 0,7.047 5.953,13 13,13 v 7 h -8.5 v 4 h 21 v -4 h -8.5 v -7 c 7.047,0 13,-5.953 13,-13 v -7 z"
         id="path9980" />
      <path
         inkscape:connector-curvature="0"
         d="m 295.76154,502.7276 h 4 c 2.857,0 5.394,-2.2415 5.902,-5 h -5.9435 v -2 h 6.0415 v -2 h -6.0415 v -2 h 6.0415 v -2 h -6.0415 v -2 h 6.0415 v -2 h -6.0415 v -2 h 6.0415 v -2 h -6.0415 v -2 h 6.0415 v -2 h -6.0415 v -2 h 5.9435 c -0.508,-2.7585 -3.045,-5 -5.902,-5 h -4 c -3.1965,0 -6,2.8035 -6,6 v 20 c 0,3.1965 2.8035,6 6,6 z"
         id="path9982" />
      <path
         inkscape:connector-curvature="0"
         d="m 435.33295,564.11661 v -7 c 0,-4.8785 4.121,-9 9,-9 h 4 c 4.8785,0 9,4.1215 9,9 v 7 h 4 v -7 c 0,-7.047 -5.953,-13 -13,-13 v -7 h 8.5 v -4 h -21 v 4 h 8.5 v 7 c -7.047,0 -13,5.953 -13,13 v 7 z"
         id="path9980-7" />
      <path
         inkscape:connector-curvature="0"
         d="m 448.33295,551.11661 h -4 c -2.857,0 -5.394,2.2415 -5.902,5 h 5.9435 v 2 h -6.0415 v 2 h 6.0415 v 2 h -6.0415 v 2 h 6.0415 v 2 h -6.0415 v 2 h 6.0415 v 2 h -6.0415 v 2 h 6.0415 v 2 h -6.0415 v 2 h 6.0415 v 2 h -5.9435 c 0.508,2.7585 3.045,5 5.902,5 h 4 c 3.1965,0 6,-2.8035 6,-6 v -20 c 0,-3.1965 -2.8035,-6 -6,-6 z"
         id="path9982-8" />
      <g
         id="g4224">
        <g
           id="g4220">
          <path
             style="fill:none;fill-rule:evenodd;stroke:#000000;stroke-width:1px;stroke-linecap:butt;stroke-linejoin:miter;stroke-opacity:1"
             d="m 410.88323,562.75595 c 3.0786,3.38813 4.48422,7.67153 0,12.14286"
             id="path10015"
             inkscape:connector-curvature="0"
             sodipodi:nodetypes="cc" />
          <path
             style="fill:none;fill-rule:evenodd;stroke:#000000;stroke-width:1.35535014px;stroke-linecap:butt;stroke-linejoin:miter;stroke-opacity:1"
             d="m 414.26614,559.66641 c 3.74965,5.11006 5.46166,11.57038 0,18.31415"
             id="path10015-7"
             inkscape:connector-curvature="0"
             sodipodi:nodetypes="cc" />
        </g>
      </g>
      <path
         style="fill:none;fill-rule:evenodd;stroke:#000000;stroke-width:1.83304119px;stroke-linecap:butt;stroke-linejoin:miter;stroke-opacity:1"
         d="m 417.60218,555.02242 c 4.55214,7.69915 6.63054,17.4327 0,27.59331"
         id="path10015-7-8"
         inkscape:connector-curvature="0"
         sodipodi:nodetypes="cc" />
      <g
         id="g4216">
        <path
           sodipodi:nodetypes="cc"
           inkscape:connector-curvature="0"
           id="path10015-5"
           d="m 333.21122,491.08823 c -3.0786,-3.38813 -4.48422,-7.67153 0,-12.14286"
           style="fill:none;fill-rule:evenodd;stroke:#000000;stroke-width:1px;stroke-linecap:butt;stroke-linejoin:miter;stroke-opacity:1" />
        <path
           sodipodi:nodetypes="cc"
           inkscape:connector-curvature="0"
           id="path10015-7-3"
           d="m 329.82831,494.17777 c -3.74965,-5.11006 -5.46166,-11.57038 0,-18.31415"
           style="fill:none;fill-rule:evenodd;stroke:#000000;stroke-width:1.35535014px;stroke-linecap:butt;stroke-linejoin:miter;stroke-opacity:1" />
      </g>
      <path
         style="fill:none;fill-rule:evenodd;stroke:#000000;stroke-width:1.83304119px;stroke-linecap:butt;stroke-linejoin:miter;stroke-opacity:1"
         d="m 326.49227,498.82176 c -4.55214,-7.69915 -6.63054,-17.4327 0,-27.59331"
         id="path10015-7-8-3"
         inkscape:connector-curvature="0"
         sodipodi:nodetypes="cc" />
    </g>
    <g
       aria-label="Podcast.__init__"
       style="font-style:normal;font-variant:normal;font-weight:normal;font-stretch:normal;font-size:2.20031881px;line-height:0%;font-family:'Source Code Pro';-inkscape-font-specification:'Source Code Pro, Normal';text-align:start;letter-spacing:0px;word-spacing:0px;writing-mode:lr-tb;text-anchor:start;fill:#000000;fill-opacity:1;stroke:none;stroke-width:0.18335991px;stroke-linecap:butt;stroke-linejoin:miter;stroke-opacity:1"
       id="text4610">
      <path
         d="m 58.361306,230.56642 h 0.380471 v -1.19184 h 0.52716 c 0.660096,0 1.113912,-0.29796 1.113912,-0.93055 0,-0.6601 -0.449232,-0.88471 -1.113912,-0.88471 h -0.907631 z m 0.380471,-1.50355 v -1.19642 h 0.48132 c 0.517992,0 0.774696,0.1421 0.774696,0.57758 0,0.42631 -0.247536,0.61884 -0.774696,0.61884 z"
         style="font-size:4.58399773px;line-height:1;stroke-width:0.18335991px"
         id="path780" />
      <path
         d="m 62.019329,230.62143 c 0.586752,0 1.100159,-0.42631 1.100159,-1.16434 0,-0.74719 -0.513407,-1.1735 -1.100159,-1.1735 -0.586752,0 -1.10016,0.42631 -1.10016,1.1735 0,0.73803 0.513408,1.16434 1.10016,1.16434 z m 0,-0.31171 c -0.426312,0 -0.71052,-0.3438 -0.71052,-0.85263 0,-0.5134 0.284208,-0.86179 0.71052,-0.86179 0.426312,0 0.710519,0.34839 0.710519,0.86179 0,0.50883 -0.284207,0.85263 -0.710519,0.85263 z"
         style="font-size:4.58399773px;line-height:1;stroke-width:0.18335991px"
         id="path782" />
      <path
         d="m 64.636785,230.62143 c 0.275039,0 0.540911,-0.16044 0.724271,-0.34838 h 0.01375 l 0.03209,0.29337 h 0.311712 v -3.2638 H 65.34272 v 0.8572 l 0.01834,0.41256 h -0.01375 c -0.192528,-0.18336 -0.398808,-0.28879 -0.664679,-0.28879 -0.52716,0 -1.013064,0.44923 -1.013064,1.1735 0,0.74261 0.385056,1.16434 0.967224,1.16434 z m 0.07793,-0.3163 c -0.41256,0 -0.655512,-0.32088 -0.655512,-0.85262 0,-0.50882 0.311712,-0.85262 0.696768,-0.85262 0.192527,0 0.385055,0.0733 0.586751,0.26128 v 1.10933 c -0.197112,0.22003 -0.407976,0.33463 -0.628007,0.33463 z"
         style="font-size:4.58399773px;line-height:1;stroke-width:0.18335991px"
         id="path784" />
      <path
         d="m 67.730976,230.62143 c 0.330048,0 0.637176,-0.12835 0.884711,-0.34838 l -0.169607,-0.24296 c -0.18336,0.15586 -0.41256,0.27963 -0.6876,0.27963 -0.513408,0 -0.857208,-0.3438 -0.857208,-0.85263 0,-0.5134 0.352968,-0.86179 0.866376,-0.86179 0.233784,0 0.426312,0.0963 0.609672,0.25671 l 0.187944,-0.24296 c -0.18336,-0.17877 -0.449232,-0.32546 -0.811368,-0.32546 -0.673848,0 -1.242263,0.42631 -1.242263,1.1735 0,0.73803 0.522575,1.16434 1.219343,1.16434 z"
         style="font-size:4.58399773px;line-height:1;stroke-width:0.18335991px"
         id="path786" />
      <path
         d="m 70.022968,230.62143 c 0.316296,0 0.632592,-0.16502 0.880128,-0.35755 h 0.01375 l 0.03209,0.30254 h 0.307128 v -1.36603 c 0,-0.55466 -0.293376,-0.9168 -0.903048,-0.9168 -0.38964,0 -0.765528,0.17419 -0.990144,0.32088 l 0.146688,0.2567 c 0.20628,-0.12835 0.490488,-0.26587 0.77928,-0.26587 0.430896,0 0.582168,0.25671 0.591336,0.55925 -1.150584,0.0917 -1.613568,0.33463 -1.613568,0.83429 0,0.39881 0.339216,0.63259 0.75636,0.63259 z m 0.100848,-0.30254 c -0.256704,0 -0.490488,-0.10544 -0.490488,-0.35756 0,-0.29337 0.293376,-0.48132 1.246848,-0.55924 v 0.58675 c -0.25212,0.21086 -0.50424,0.33005 -0.75636,0.33005 z"
         style="font-size:4.58399773px;line-height:1;stroke-width:0.18335991px"
         id="path788" />
      <path
         d="m 73.066736,230.62143 c 0.637176,0 0.990143,-0.30254 0.990143,-0.66468 0,-0.33922 -0.178775,-0.52716 -0.921383,-0.6876 -0.453816,-0.0963 -0.646344,-0.17878 -0.646344,-0.3713 0,-0.16961 0.132936,-0.32088 0.513408,-0.32088 0.284208,0 0.540912,0.0917 0.747192,0.23378 l 0.18336,-0.24295 c -0.220032,-0.15127 -0.559248,-0.28421 -0.898464,-0.28421 -0.609672,0 -0.925968,0.27504 -0.925968,0.63259 0,0.33463 0.293376,0.53175 0.87096,0.65093 0.605088,0.12377 0.696768,0.24295 0.696768,0.41256 0,0.18794 -0.187944,0.34838 -0.563832,0.34838 -0.41256,0 -0.71052,-0.11918 -0.967224,-0.30254 l -0.174192,0.24754 c 0.270456,0.18794 0.660096,0.34838 1.095576,0.34838 z"
         style="font-size:4.58399773px;line-height:1;stroke-width:0.18335991px"
         id="path790" />
      <path
         d="m 76.202183,230.62143 c 0.279624,0 0.495072,-0.0596 0.696767,-0.13294 l -0.08251,-0.27504 c -0.160439,0.0596 -0.325463,0.10085 -0.536327,0.10085 -0.430896,0 -0.563832,-0.21086 -0.563832,-0.60967 v -1.0589 h 1.095575 v -0.30713 h -1.095575 v -0.71511 h -0.311712 l -0.05042,0.71511 -0.64176,0.0229 v 0.28421 h 0.628008 v 1.05432 c 0,0.55008 0.210864,0.92138 0.861792,0.92138 z"
         style="font-size:4.58399773px;line-height:1;stroke-width:0.18335991px"
         id="path792" />
      <path
         d="m 78.52168,230.62143 c 0.20628,0 0.371304,-0.15586 0.371304,-0.38506 0,-0.23378 -0.165024,-0.38964 -0.371304,-0.38964 -0.20628,0 -0.371304,0.15586 -0.371304,0.38964 0,0.2292 0.165024,0.38506 0.371304,0.38506 z"
         style="font-size:4.58399773px;line-height:1;stroke-width:0.18335991px"
         id="path794" />
      <path
         d="m 80.171911,231.20818 h 2.200319 v -0.32546 h -2.200319 z"
         style="font-size:4.58399773px;line-height:1;stroke-width:0.18335991px"
         id="path796" />
      <path
         d="m 82.922302,231.20818 h 2.200319 v -0.32546 h -2.200319 z"
         style="font-size:4.58399773px;line-height:1;stroke-width:0.18335991px"
         id="path798" />
      <path
         d="m 86.846199,230.56642 h 0.375888 v -2.22782 h -1.411872 v 0.30713 h 1.035984 z m 0.146688,-2.69539 c 0.169608,0 0.302544,-0.1146 0.302544,-0.29338 0,-0.17419 -0.132936,-0.29337 -0.302544,-0.29337 -0.169608,0 -0.302544,0.11918 -0.302544,0.29337 0,0.17878 0.132936,0.29338 0.302544,0.29338 z"
         style="font-size:4.58399773px;line-height:1;stroke-width:0.18335991px"
         id="path800" />
      <path
         d="m 88.574358,230.56642 h 0.375888 v -1.55397 c 0.261288,-0.27046 0.440064,-0.4034 0.705936,-0.4034 0.36672,0 0.513407,0.2017 0.513407,0.62343 v 1.33394 h 0.375888 v -1.38437 c 0,-0.58675 -0.242952,-0.89846 -0.770111,-0.89846 -0.348384,0 -0.605088,0.18794 -0.838872,0.43548 h -0.01834 l -0.03209,-0.38047 h -0.311712 z"
         style="font-size:4.58399773px;line-height:1;stroke-width:0.18335991px"
         id="path802" />
      <path
         d="m 92.346981,230.56642 h 0.375888 v -2.22782 h -1.411872 v 0.30713 h 1.035984 z m 0.146688,-2.69539 c 0.169608,0 0.302544,-0.1146 0.302544,-0.29338 0,-0.17419 -0.132936,-0.29337 -0.302544,-0.29337 -0.169608,0 -0.302544,0.11918 -0.302544,0.29337 0,0.17878 0.132936,0.29338 0.302544,0.29338 z"
         style="font-size:4.58399773px;line-height:1;stroke-width:0.18335991px"
         id="path804" />
      <path
         d="m 95.454926,230.62143 c 0.279623,0 0.495071,-0.0596 0.696767,-0.13294 l -0.08251,-0.27504 c -0.16044,0.0596 -0.325464,0.10085 -0.536328,0.10085 -0.430895,0 -0.563831,-0.21086 -0.563831,-0.60967 v -1.0589 h 1.095575 v -0.30713 h -1.095575 v -0.71511 H 94.65731 l -0.05042,0.71511 -0.64176,0.0229 v 0.28421 h 0.628008 v 1.05432 c 0,0.55008 0.210864,0.92138 0.861792,0.92138 z"
         style="font-size:4.58399773px;line-height:1;stroke-width:0.18335991px"
         id="path806" />
      <path
         d="m 96.674263,231.20818 h 2.200319 v -0.32546 h -2.200319 z"
         style="font-size:4.58399773px;line-height:1;stroke-width:0.18335991px"
         id="path808" />
      <path
         d="m 99.424652,231.20818 h 2.200318 v -0.32546 h -2.200318 z"
         style="font-size:4.58399773px;line-height:1;stroke-width:0.18335991px"
         id="path810" />
    </g>
    <g
       aria-label="The Podcast About Python And The People Who Make It Great"
       transform="matrix(0.18335991,0,0,0.18335991,0.98104424,286.74191)"
       style="font-style:normal;font-variant:normal;font-weight:normal;font-stretch:normal;line-height:0.01%;font-family:Inconsolata;-inkscape-font-specification:Inconsolata;text-align:center;letter-spacing:0px;word-spacing:0px;text-anchor:middle;fill:#306998;fill-opacity:1;stroke:none;stroke-width:1px;stroke-linecap:butt;stroke-linejoin:miter;stroke-opacity:1"
       id="flowRoot4634">
      <path
         d="m 344.25965,299.98531 h -2.655 v -0.945 h 6.48 v 0.945 h -2.76 v 8.415 h -1.065 z"
         style="font-style:normal;font-variant:normal;font-weight:normal;font-stretch:normal;font-size:15px;line-height:1.25;font-family:Inconsolata;-inkscape-font-specification:Inconsolata;text-align:center;text-anchor:middle;fill:#306998;fill-opacity:1"
         id="path1181"
         inkscape:connector-curvature="0" />
      <path
         d="m 349.73465,298.42531 h 1.185 v 0.105 q -0.09,0.09 -0.12,0.195 -0.015,0.105 -0.015,0.36 v 3.675 q 0.405,-0.63 1.005,-1.005 0.615,-0.375 1.245,-0.375 0.975,0 1.53,0.69 0.555,0.69 0.555,2.175 v 4.155 h -1.05 v -4.125 q 0,-1.02 -0.345,-1.485 -0.345,-0.465 -0.915,-0.465 -0.48,0 -0.945,0.27 -0.465,0.255 -0.78,0.75 -0.3,0.48 -0.3,1.11 v 3.945 h -1.05 z"
         style="font-style:normal;font-variant:normal;font-weight:normal;font-stretch:normal;font-size:15px;line-height:1.25;font-family:Inconsolata;-inkscape-font-specification:Inconsolata;text-align:center;text-anchor:middle;fill:#306998;fill-opacity:1"
         id="path1183"
         inkscape:connector-curvature="0" />
      <path
         d="m 360.21965,308.55031 q -1.53,0 -2.445,-0.93 -0.9,-0.93 -0.9,-2.625 0,-1.125 0.42,-1.935 0.42,-0.825 1.125,-1.245 0.72,-0.435 1.605,-0.435 1.245,0 2.01,0.825 0.78,0.825 0.78,2.43 0,0.165 -0.03,0.495 h -4.875 q 0.06,1.26 0.705,1.905 0.645,0.645 1.635,0.645 1.08,0 1.77,-0.765 l 0.6,0.585 q -0.87,1.05 -2.4,1.05 z m 1.5,-4.26 q 0,-0.96 -0.495,-1.515 -0.48,-0.57 -1.275,-0.57 -0.75,0 -1.305,0.525 -0.555,0.525 -0.69,1.56 z"
         style="font-style:normal;font-variant:normal;font-weight:normal;font-stretch:normal;font-size:15px;line-height:1.25;font-family:Inconsolata;-inkscape-font-specification:Inconsolata;text-align:center;text-anchor:middle;fill:#306998;fill-opacity:1"
         id="path1185"
         inkscape:connector-curvature="0" />
      <path
         d="m 372.02465,299.05531 h 3 q 1.485,0 2.22,0.735 0.735,0.735 0.735,1.905 0,1.155 -0.72,1.875 -0.72,0.705 -2.16,0.705 h -1.995 v 4.125 h -1.08 z m 2.955,4.29 q 0.99,0 1.455,-0.42 0.465,-0.435 0.465,-1.2 0,-0.735 -0.48,-1.2 -0.48,-0.48 -1.425,-0.48 h -1.89 v 3.3 z"
         style="font-style:normal;font-variant:normal;font-weight:normal;font-stretch:normal;font-size:15px;line-height:1.25;font-family:Inconsolata;-inkscape-font-specification:Inconsolata;text-align:center;text-anchor:middle;fill:#306998;fill-opacity:1"
         id="path1187"
         inkscape:connector-curvature="0" />
      <path
         d="m 382.38965,308.52031 q -0.915,0 -1.635,-0.45 -0.72,-0.45 -1.125,-1.26 -0.405,-0.81 -0.405,-1.845 0,-1.035 0.405,-1.845 0.405,-0.81 1.125,-1.26 0.72,-0.465 1.635,-0.465 0.915,0 1.635,0.465 0.72,0.45 1.125,1.26 0.405,0.81 0.405,1.845 0,1.035 -0.405,1.845 -0.405,0.81 -1.125,1.26 -0.72,0.45 -1.635,0.45 z m 0,-0.9 q 0.585,0 1.035,-0.345 0.465,-0.345 0.72,-0.945 0.27,-0.615 0.27,-1.38 0,-1.17 -0.57,-1.905 -0.57,-0.75 -1.455,-0.75 -0.885,0 -1.455,0.75 -0.57,0.735 -0.57,1.905 0,0.765 0.255,1.38 0.27,0.6 0.72,0.945 0.465,0.345 1.05,0.345 z"
         style="font-style:normal;font-variant:normal;font-weight:normal;font-stretch:normal;font-size:15px;line-height:1.25;font-family:Inconsolata;-inkscape-font-specification:Inconsolata;text-align:center;text-anchor:middle;fill:#306998;fill-opacity:1"
         id="path1189"
         inkscape:connector-curvature="0" />
      <path
         d="m 389.64965,308.55031 q -0.735,0 -1.38,-0.405 -0.645,-0.42 -1.05,-1.245 -0.405,-0.825 -0.405,-1.995 0,-1.185 0.42,-1.98 0.42,-0.795 1.08,-1.17 0.66,-0.39 1.395,-0.39 0.69,0 1.2,0.315 0.525,0.315 0.795,0.87 v -4.125 h 1.14 v 0.105 q -0.09,0.09 -0.12,0.195 -0.015,0.105 -0.015,0.36 l 0.015,8.25 q 0,0.36 0.015,0.6 0.03,0.225 0.135,0.465 h -1.065 q -0.105,-0.24 -0.135,-0.465 -0.015,-0.24 -0.015,-0.6 -0.33,0.57 -0.855,0.9 -0.51,0.315 -1.155,0.315 z m 0.165,-0.945 q 0.93,0 1.365,-0.735 0.435,-0.735 0.435,-1.935 0,-1.215 -0.48,-1.95 -0.465,-0.735 -1.41,-0.735 -0.9,0 -1.38,0.675 -0.48,0.66 -0.48,1.815 0,1.32 0.495,2.1 0.51,0.765 1.455,0.765 z"
         style="font-style:normal;font-variant:normal;font-weight:normal;font-stretch:normal;font-size:15px;line-height:1.25;font-family:Inconsolata;-inkscape-font-specification:Inconsolata;text-align:center;text-anchor:middle;fill:#306998;fill-opacity:1"
         id="path1191"
         inkscape:connector-curvature="0" />
      <path
         d="m 397.91465,308.56531 q -0.99,0 -1.77,-0.465 -0.78,-0.465 -1.23,-1.275 -0.435,-0.825 -0.435,-1.845 0,-1.02 0.435,-1.83 0.45,-0.81 1.23,-1.275 0.78,-0.465 1.755,-0.465 0.825,0 1.5,0.345 0.675,0.33 1.095,0.93 l -0.675,0.66 -0.105,0.105 -0.075,-0.075 q 0,-0.135 -0.06,-0.24 -0.045,-0.12 -0.225,-0.27 -0.315,-0.285 -0.69,-0.405 -0.375,-0.135 -0.885,-0.135 -0.585,0 -1.095,0.33 -0.495,0.315 -0.795,0.9 -0.3,0.585 -0.3,1.35 0,0.765 0.3,1.38 0.315,0.615 0.855,0.96 0.555,0.345 1.23,0.345 1.035,0 1.785,-0.84 l 0.63,0.735 q -1.005,1.08 -2.475,1.08 z"
         style="font-style:normal;font-variant:normal;font-weight:normal;font-stretch:normal;font-size:15px;line-height:1.25;font-family:Inconsolata;-inkscape-font-specification:Inconsolata;text-align:center;text-anchor:middle;fill:#306998;fill-opacity:1"
         id="path1193"
         inkscape:connector-curvature="0" />
      <path
         d="m 404.79965,301.39531 q 1.47,0 2.235,0.765 0.78,0.765 0.78,2.595 v 3.645 h -1.17 v -1.05 q -0.63,1.215 -2.34,1.215 -1.14,0 -1.785,-0.51 -0.645,-0.525 -0.645,-1.38 0,-0.72 0.465,-1.26 0.465,-0.54 1.245,-0.825 0.795,-0.3 1.74,-0.3 0.855,0 1.545,0.09 -0.09,-1.155 -0.615,-1.62 -0.51,-0.48 -1.53,-0.48 -0.51,0 -0.99,0.195 -0.465,0.195 -0.855,0.57 l -0.525,-0.69 q 0.96,-0.96 2.445,-0.96 z m -0.39,6.345 q 1.11,0 1.755,-0.645 0.645,-0.66 0.705,-1.89 -0.675,-0.105 -1.455,-0.105 -1.14,0 -1.8,0.375 -0.66,0.375 -0.66,1.14 0,1.125 1.455,1.125 z"
         style="font-style:normal;font-variant:normal;font-weight:normal;font-stretch:normal;font-size:15px;line-height:1.25;font-family:Inconsolata;-inkscape-font-specification:Inconsolata;text-align:center;text-anchor:middle;fill:#306998;fill-opacity:1"
         id="path1195"
         inkscape:connector-curvature="0" />
      <path
         d="m 412.40465,308.55031 q -1.74,0 -2.91,-1.08 l 0.6,-1.02 0.09,-0.135 0.09,0.06 q 0,0.03 0.015,0.135 0.03,0.105 0.09,0.21 0.06,0.105 0.165,0.21 0.345,0.345 0.78,0.54 0.45,0.18 1.11,0.18 0.81,0 1.275,-0.285 0.465,-0.3 0.465,-0.81 0,-0.435 -0.375,-0.72 -0.375,-0.285 -1.35,-0.6 -2.58,-0.735 -2.58,-2.13 0,-0.795 0.645,-1.26 0.66,-0.465 1.875,-0.465 0.93,0 1.56,0.27 0.645,0.255 1.17,0.81 l -0.615,0.75 -0.105,0.12 -0.075,-0.075 q -0.015,-0.165 -0.075,-0.27 -0.045,-0.105 -0.21,-0.24 -0.345,-0.27 -0.78,-0.405 -0.42,-0.15 -0.84,-0.15 -0.645,0 -1.065,0.225 -0.405,0.225 -0.405,0.63 0,0.375 0.42,0.69 0.42,0.315 1.515,0.63 1.29,0.39 1.815,0.855 0.54,0.45 0.54,1.185 0,0.93 -0.735,1.545 -0.72,0.6 -2.1,0.6 z"
         style="font-style:normal;font-variant:normal;font-weight:normal;font-stretch:normal;font-size:15px;line-height:1.25;font-family:Inconsolata;-inkscape-font-specification:Inconsolata;text-align:center;text-anchor:middle;fill:#306998;fill-opacity:1"
         id="path1197"
         inkscape:connector-curvature="0" />
      <path
         d="m 422.79965,307.77031 q -0.99,0.735 -2.175,0.735 -1.14,0 -1.62,-0.69 -0.465,-0.69 -0.465,-2.25 0,-0.255 0.03,-0.885 l 0.135,-2.25 h -1.515 v -0.885 h 1.575 l 0.105,-1.83 1.2,-0.195 0.15,-0.015 0.015,0.09 q -0.105,0.15 -0.165,0.255 -0.045,0.105 -0.06,0.33 l -0.165,1.365 h 2.28 v 0.885 h -2.34 l -0.135,2.325 q -0.03,0.6 -0.03,0.795 0,1.2 0.27,1.635 0.285,0.42 0.9,0.42 0.45,0 0.825,-0.165 0.375,-0.165 0.855,-0.525 z"
         style="font-style:normal;font-variant:normal;font-weight:normal;font-stretch:normal;font-size:15px;line-height:1.25;font-family:Inconsolata;-inkscape-font-specification:Inconsolata;text-align:center;text-anchor:middle;fill:#306998;fill-opacity:1"
         id="path1199"
         inkscape:connector-curvature="0" />
      <path
         d="m 436.37465,305.67031 h -3.015 l -0.945,2.73 h -1.035 l 3.45,-9.51 h 0.12 l 3.45,9.51 h -1.08 z m -0.27,-0.81 -1.23,-3.57 -1.23,3.57 z"
         style="font-style:normal;font-variant:normal;font-weight:normal;font-stretch:normal;font-size:15px;line-height:1.25;font-family:Inconsolata;-inkscape-font-specification:Inconsolata;text-align:center;text-anchor:middle;fill:#306998;fill-opacity:1"
         id="path1201"
         inkscape:connector-curvature="0" />
      <path
         d="m 442.62965,308.56531 q -0.615,0 -1.14,-0.27 -0.525,-0.285 -0.885,-0.795 l -0.375,0.9 h -0.69 v -9.975 h 1.23 v 0.105 q -0.09,0.09 -0.12,0.195 -0.015,0.105 -0.015,0.36 v 3.51 q 0.33,-0.555 0.885,-0.885 0.57,-0.33 1.155,-0.33 1.29,0 2.055,0.9 0.765,0.9 0.765,2.625 0,1.17 -0.405,2.01 -0.405,0.825 -1.065,1.245 -0.66,0.405 -1.395,0.405 z m -0.135,-0.96 q 0.81,0 1.35,-0.63 0.54,-0.645 0.54,-2.01 0,-1.32 -0.51,-1.98 -0.495,-0.675 -1.35,-0.675 -0.84,0 -1.365,0.75 -0.525,0.75 -0.525,1.935 0,2.61 1.86,2.61 z"
         style="font-style:normal;font-variant:normal;font-weight:normal;font-stretch:normal;font-size:15px;line-height:1.25;font-family:Inconsolata;-inkscape-font-specification:Inconsolata;text-align:center;text-anchor:middle;fill:#306998;fill-opacity:1"
         id="path1203"
         inkscape:connector-curvature="0" />
      <path
         d="m 449.88965,308.52031 q -0.915,0 -1.635,-0.45 -0.72,-0.45 -1.125,-1.26 -0.405,-0.81 -0.405,-1.845 0,-1.035 0.405,-1.845 0.405,-0.81 1.125,-1.26 0.72,-0.465 1.635,-0.465 0.915,0 1.635,0.465 0.72,0.45 1.125,1.26 0.405,0.81 0.405,1.845 0,1.035 -0.405,1.845 -0.405,0.81 -1.125,1.26 -0.72,0.45 -1.635,0.45 z m 0,-0.9 q 0.585,0 1.035,-0.345 0.465,-0.345 0.72,-0.945 0.27,-0.615 0.27,-1.38 0,-1.17 -0.57,-1.905 -0.57,-0.75 -1.455,-0.75 -0.885,0 -1.455,0.75 -0.57,0.735 -0.57,1.905 0,0.765 0.255,1.38 0.27,0.6 0.72,0.945 0.465,0.345 1.05,0.345 z"
         style="font-style:normal;font-variant:normal;font-weight:normal;font-stretch:normal;font-size:15px;line-height:1.25;font-family:Inconsolata;-inkscape-font-specification:Inconsolata;text-align:center;text-anchor:middle;fill:#306998;fill-opacity:1"
         id="path1205"
         inkscape:connector-curvature="0" />
      <path
         d="m 456.95465,308.56531 q -1.08,0 -1.725,-0.795 -0.645,-0.81 -0.63,-2.4 l 0.015,-3.825 h 1.05 v 3.825 q 0,1.23 0.42,1.785 0.435,0.54 1.14,0.54 0.78,0 1.305,-0.6 0.54,-0.615 0.54,-1.77 v -3.78 h 1.05 v 5.79 q 0,0.36 0.015,0.6 0.03,0.225 0.135,0.465 h -1.035 q -0.105,-0.225 -0.135,-0.465 -0.015,-0.24 -0.015,-0.585 -0.33,0.57 -0.9,0.9 -0.555,0.315 -1.23,0.315 z"
         style="font-style:normal;font-variant:normal;font-weight:normal;font-stretch:normal;font-size:15px;line-height:1.25;font-family:Inconsolata;-inkscape-font-specification:Inconsolata;text-align:center;text-anchor:middle;fill:#306998;fill-opacity:1"
         id="path1207"
         inkscape:connector-curvature="0" />
      <path
         d="m 467.79965,307.77031 q -0.99,0.735 -2.175,0.735 -1.14,0 -1.62,-0.69 -0.465,-0.69 -0.465,-2.25 0,-0.255 0.03,-0.885 l 0.135,-2.25 h -1.515 v -0.885 h 1.575 l 0.105,-1.83 1.2,-0.195 0.15,-0.015 0.015,0.09 q -0.105,0.15 -0.165,0.255 -0.045,0.105 -0.06,0.33 l -0.165,1.365 h 2.28 v 0.885 h -2.34 l -0.135,2.325 q -0.03,0.6 -0.03,0.795 0,1.2 0.27,1.635 0.285,0.42 0.9,0.42 0.45,0 0.825,-0.165 0.375,-0.165 0.855,-0.525 z"
         style="font-style:normal;font-variant:normal;font-weight:normal;font-stretch:normal;font-size:15px;line-height:1.25;font-family:Inconsolata;-inkscape-font-specification:Inconsolata;text-align:center;text-anchor:middle;fill:#306998;fill-opacity:1"
         id="path1209"
         inkscape:connector-curvature="0" />
      <path
         d="m 477.02465,299.05531 h 3 q 1.485,0 2.22,0.735 0.735,0.735 0.735,1.905 0,1.155 -0.72,1.875 -0.72,0.705 -2.16,0.705 h -1.995 v 4.125 h -1.08 z m 2.955,4.29 q 0.99,0 1.455,-0.42 0.465,-0.435 0.465,-1.2 0,-0.735 -0.48,-1.2 -0.48,-0.48 -1.425,-0.48 h -1.89 v 3.3 z"
         style="font-style:normal;font-variant:normal;font-weight:normal;font-stretch:normal;font-size:15px;line-height:1.25;font-family:Inconsolata;-inkscape-font-specification:Inconsolata;text-align:center;text-anchor:middle;fill:#306998;fill-opacity:1"
         id="path1211"
         inkscape:connector-curvature="0" />
      <path
         d="m 490.28465,301.54531 q -0.09,0.615 -0.285,1.215 -0.18,0.6 -0.525,1.59 l -1.71,4.83 q -0.345,0.96 -0.9,1.395 -0.555,0.435 -1.32,0.435 -0.96,0 -1.575,-0.585 l 0.465,-0.735 0.09,-0.135 0.09,0.06 q 0.03,0.15 0.105,0.24 0.075,0.105 0.285,0.18 0.27,0.09 0.6,0.09 0.555,0 0.885,-0.39 0.33,-0.39 0.645,-1.29 l -2.805,-6.9 h 1.125 l 2.13,5.49 0.9,-2.76 q 0.33,-1.035 0.48,-1.575 0.165,-0.555 0.24,-1.155 z"
         style="font-style:normal;font-variant:normal;font-weight:normal;font-stretch:normal;font-size:15px;line-height:1.25;font-family:Inconsolata;-inkscape-font-specification:Inconsolata;text-align:center;text-anchor:middle;fill:#306998;fill-opacity:1"
         id="path1213"
         inkscape:connector-curvature="0" />
      <path
         d="m 497.79965,307.77031 q -0.99,0.735 -2.175,0.735 -1.14,0 -1.62,-0.69 -0.465,-0.69 -0.465,-2.25 0,-0.255 0.03,-0.885 l 0.135,-2.25 h -1.515 v -0.885 h 1.575 l 0.105,-1.83 1.2,-0.195 0.15,-0.015 0.015,0.09 q -0.105,0.15 -0.165,0.255 -0.045,0.105 -0.06,0.33 l -0.165,1.365 h 2.28 v 0.885 h -2.34 l -0.135,2.325 q -0.03,0.6 -0.03,0.795 0,1.2 0.27,1.635 0.285,0.42 0.9,0.42 0.45,0 0.825,-0.165 0.375,-0.165 0.855,-0.525 z"
         style="font-style:normal;font-variant:normal;font-weight:normal;font-stretch:normal;font-size:15px;line-height:1.25;font-family:Inconsolata;-inkscape-font-specification:Inconsolata;text-align:center;text-anchor:middle;fill:#306998;fill-opacity:1"
         id="path1215"
         inkscape:connector-curvature="0" />
      <path
         d="m 499.73465,298.42531 h 1.185 v 0.105 q -0.09,0.09 -0.12,0.195 -0.015,0.105 -0.015,0.36 v 3.675 q 0.405,-0.63 1.005,-1.005 0.615,-0.375 1.245,-0.375 0.975,0 1.53,0.69 0.555,0.69 0.555,2.175 v 4.155 h -1.05 v -4.125 q 0,-1.02 -0.345,-1.485 -0.345,-0.465 -0.915,-0.465 -0.48,0 -0.945,0.27 -0.465,0.255 -0.78,0.75 -0.3,0.48 -0.3,1.11 v 3.945 h -1.05 z"
         style="font-style:normal;font-variant:normal;font-weight:normal;font-stretch:normal;font-size:15px;line-height:1.25;font-family:Inconsolata;-inkscape-font-specification:Inconsolata;text-align:center;text-anchor:middle;fill:#306998;fill-opacity:1"
         id="path1217"
         inkscape:connector-curvature="0" />
      <path
         d="m 509.88965,308.52031 q -0.915,0 -1.635,-0.45 -0.72,-0.45 -1.125,-1.26 -0.405,-0.81 -0.405,-1.845 0,-1.035 0.405,-1.845 0.405,-0.81 1.125,-1.26 0.72,-0.465 1.635,-0.465 0.915,0 1.635,0.465 0.72,0.45 1.125,1.26 0.405,0.81 0.405,1.845 0,1.035 -0.405,1.845 -0.405,0.81 -1.125,1.26 -0.72,0.45 -1.635,0.45 z m 0,-0.9 q 0.585,0 1.035,-0.345 0.465,-0.345 0.72,-0.945 0.27,-0.615 0.27,-1.38 0,-1.17 -0.57,-1.905 -0.57,-0.75 -1.455,-0.75 -0.885,0 -1.455,0.75 -0.57,0.735 -0.57,1.905 0,0.765 0.255,1.38 0.27,0.6 0.72,0.945 0.465,0.345 1.05,0.345 z"
         style="font-style:normal;font-variant:normal;font-weight:normal;font-stretch:normal;font-size:15px;line-height:1.25;font-family:Inconsolata;-inkscape-font-specification:Inconsolata;text-align:center;text-anchor:middle;fill:#306998;fill-opacity:1"
         id="path1219"
         inkscape:connector-curvature="0" />
      <path
         d="m 514.71965,301.54531 h 1.05 v 1.215 q 0.405,-0.63 1.02,-1.005 0.615,-0.375 1.305,-0.375 0.915,0 1.455,0.705 0.555,0.69 0.555,2.16 v 4.155 h -1.05 v -4.125 q 0,-1.02 -0.345,-1.485 -0.345,-0.465 -0.915,-0.465 -0.465,0 -0.945,0.27 -0.465,0.27 -0.78,0.765 -0.3,0.48 -0.3,1.095 v 3.945 h -1.05 z"
         style="font-style:normal;font-variant:normal;font-weight:normal;font-stretch:normal;font-size:15px;line-height:1.25;font-family:Inconsolata;-inkscape-font-specification:Inconsolata;text-align:center;text-anchor:middle;fill:#306998;fill-opacity:1"
         id="path1221"
         inkscape:connector-curvature="0" />
      <path
         d="m 316.37465,324.42031 h -3.015 l -0.945,2.73 h -1.035 l 3.45,-9.51 h 0.12 l 3.45,9.51 h -1.08 z m -0.27,-0.81 -1.23,-3.57 -1.23,3.57 z"
         style="font-style:normal;font-variant:normal;font-weight:normal;font-stretch:normal;font-size:15px;line-height:1.25;font-family:Inconsolata;-inkscape-font-specification:Inconsolata;text-align:center;text-anchor:middle;fill:#306998;fill-opacity:1"
         id="path1223"
         inkscape:connector-curvature="0" />
      <path
         d="m 319.71965,320.29531 h 1.05 v 1.215 q 0.405,-0.63 1.02,-1.005 0.615,-0.375 1.305,-0.375 0.915,0 1.455,0.705 0.555,0.69 0.555,2.16 v 4.155 h -1.05 v -4.125 q 0,-1.02 -0.345,-1.485 -0.345,-0.465 -0.915,-0.465 -0.465,0 -0.945,0.27 -0.465,0.27 -0.78,0.765 -0.3,0.48 -0.3,1.095 v 3.945 h -1.05 z"
         style="font-style:normal;font-variant:normal;font-weight:normal;font-stretch:normal;font-size:15px;line-height:1.25;font-family:Inconsolata;-inkscape-font-specification:Inconsolata;text-align:center;text-anchor:middle;fill:#306998;fill-opacity:1"
         id="path1225"
         inkscape:connector-curvature="0" />
      <path
         d="m 329.64965,327.30031 q -0.735,0 -1.38,-0.405 -0.645,-0.42 -1.05,-1.245 -0.405,-0.825 -0.405,-1.995 0,-1.185 0.42,-1.98 0.42,-0.795 1.08,-1.17 0.66,-0.39 1.395,-0.39 0.69,0 1.2,0.315 0.525,0.315 0.795,0.87 v -4.125 h 1.14 v 0.105 q -0.09,0.09 -0.12,0.195 -0.015,0.105 -0.015,0.36 l 0.015,8.25 q 0,0.36 0.015,0.6 0.03,0.225 0.135,0.465 h -1.065 q -0.105,-0.24 -0.135,-0.465 -0.015,-0.24 -0.015,-0.6 -0.33,0.57 -0.855,0.9 -0.51,0.315 -1.155,0.315 z m 0.165,-0.945 q 0.93,0 1.365,-0.735 0.435,-0.735 0.435,-1.935 0,-1.215 -0.48,-1.95 -0.465,-0.735 -1.41,-0.735 -0.9,0 -1.38,0.675 -0.48,0.66 -0.48,1.815 0,1.32 0.495,2.1 0.51,0.765 1.455,0.765 z"
         style="font-style:normal;font-variant:normal;font-weight:normal;font-stretch:normal;font-size:15px;line-height:1.25;font-family:Inconsolata;-inkscape-font-specification:Inconsolata;text-align:center;text-anchor:middle;fill:#306998;fill-opacity:1"
         id="path1227"
         inkscape:connector-curvature="0" />
      <path
         d="m 344.25965,318.73531 h -2.655 v -0.945 h 6.48 v 0.945 h -2.76 v 8.415 h -1.065 z"
         style="font-style:normal;font-variant:normal;font-weight:normal;font-stretch:normal;font-size:15px;line-height:1.25;font-family:Inconsolata;-inkscape-font-specification:Inconsolata;text-align:center;text-anchor:middle;fill:#306998;fill-opacity:1"
         id="path1229"
         inkscape:connector-curvature="0" />
      <path
         d="m 349.73465,317.17531 h 1.185 v 0.105 q -0.09,0.09 -0.12,0.195 -0.015,0.105 -0.015,0.36 v 3.675 q 0.405,-0.63 1.005,-1.005 0.615,-0.375 1.245,-0.375 0.975,0 1.53,0.69 0.555,0.69 0.555,2.175 v 4.155 h -1.05 v -4.125 q 0,-1.02 -0.345,-1.485 -0.345,-0.465 -0.915,-0.465 -0.48,0 -0.945,0.27 -0.465,0.255 -0.78,0.75 -0.3,0.48 -0.3,1.11 v 3.945 h -1.05 z"
         style="font-style:normal;font-variant:normal;font-weight:normal;font-stretch:normal;font-size:15px;line-height:1.25;font-family:Inconsolata;-inkscape-font-specification:Inconsolata;text-align:center;text-anchor:middle;fill:#306998;fill-opacity:1"
         id="path1231"
         inkscape:connector-curvature="0" />
      <path
         d="m 360.21965,327.30031 q -1.53,0 -2.445,-0.93 -0.9,-0.93 -0.9,-2.625 0,-1.125 0.42,-1.935 0.42,-0.825 1.125,-1.245 0.72,-0.435 1.605,-0.435 1.245,0 2.01,0.825 0.78,0.825 0.78,2.43 0,0.165 -0.03,0.495 h -4.875 q 0.06,1.26 0.705,1.905 0.645,0.645 1.635,0.645 1.08,0 1.77,-0.765 l 0.6,0.585 q -0.87,1.05 -2.4,1.05 z m 1.5,-4.26 q 0,-0.96 -0.495,-1.515 -0.48,-0.57 -1.275,-0.57 -0.75,0 -1.305,0.525 -0.555,0.525 -0.69,1.56 z"
         style="font-style:normal;font-variant:normal;font-weight:normal;font-stretch:normal;font-size:15px;line-height:1.25;font-family:Inconsolata;-inkscape-font-specification:Inconsolata;text-align:center;text-anchor:middle;fill:#306998;fill-opacity:1"
         id="path1233"
         inkscape:connector-curvature="0" />
      <path
         d="m 372.02465,317.80531 h 3 q 1.485,0 2.22,0.735 0.735,0.735 0.735,1.905 0,1.155 -0.72,1.875 -0.72,0.705 -2.16,0.705 h -1.995 v 4.125 h -1.08 z m 2.955,4.29 q 0.99,0 1.455,-0.42 0.465,-0.435 0.465,-1.2 0,-0.735 -0.48,-1.2 -0.48,-0.48 -1.425,-0.48 h -1.89 v 3.3 z"
         style="font-style:normal;font-variant:normal;font-weight:normal;font-stretch:normal;font-size:15px;line-height:1.25;font-family:Inconsolata;-inkscape-font-specification:Inconsolata;text-align:center;text-anchor:middle;fill:#306998;fill-opacity:1"
         id="path1235"
         inkscape:connector-curvature="0" />
      <path
         d="m 382.71965,327.30031 q -1.53,0 -2.445,-0.93 -0.9,-0.93 -0.9,-2.625 0,-1.125 0.42,-1.935 0.42,-0.825 1.125,-1.245 0.72,-0.435 1.605,-0.435 1.245,0 2.01,0.825 0.78,0.825 0.78,2.43 0,0.165 -0.03,0.495 h -4.875 q 0.06,1.26 0.705,1.905 0.645,0.645 1.635,0.645 1.08,0 1.77,-0.765 l 0.6,0.585 q -0.87,1.05 -2.4,1.05 z m 1.5,-4.26 q 0,-0.96 -0.495,-1.515 -0.48,-0.57 -1.275,-0.57 -0.75,0 -1.305,0.525 -0.555,0.525 -0.69,1.56 z"
         style="font-style:normal;font-variant:normal;font-weight:normal;font-stretch:normal;font-size:15px;line-height:1.25;font-family:Inconsolata;-inkscape-font-specification:Inconsolata;text-align:center;text-anchor:middle;fill:#306998;fill-opacity:1"
         id="path1237"
         inkscape:connector-curvature="0" />
      <path
         d="m 389.88965,327.27031 q -0.915,0 -1.635,-0.45 -0.72,-0.45 -1.125,-1.26 -0.405,-0.81 -0.405,-1.845 0,-1.035 0.405,-1.845 0.405,-0.81 1.125,-1.26 0.72,-0.465 1.635,-0.465 0.915,0 1.635,0.465 0.72,0.45 1.125,1.26 0.405,0.81 0.405,1.845 0,1.035 -0.405,1.845 -0.405,0.81 -1.125,1.26 -0.72,0.45 -1.635,0.45 z m 0,-0.9 q 0.585,0 1.035,-0.345 0.465,-0.345 0.72,-0.945 0.27,-0.615 0.27,-1.38 0,-1.17 -0.57,-1.905 -0.57,-0.75 -1.455,-0.75 -0.885,0 -1.455,0.75 -0.57,0.735 -0.57,1.905 0,0.765 0.255,1.38 0.27,0.6 0.72,0.945 0.465,0.345 1.05,0.345 z"
         style="font-style:normal;font-variant:normal;font-weight:normal;font-stretch:normal;font-size:15px;line-height:1.25;font-family:Inconsolata;-inkscape-font-specification:Inconsolata;text-align:center;text-anchor:middle;fill:#306998;fill-opacity:1"
         id="path1239"
         inkscape:connector-curvature="0" />
      <path
         d="m 394.53965,320.29531 h 1.095 v 1.35 q 0.225,-0.75 0.78,-1.125 0.555,-0.375 1.305,-0.375 0.78,0 1.425,0.405 0.66,0.39 1.05,1.185 0.39,0.795 0.39,1.935 0,1.155 -0.405,1.995 -0.405,0.825 -1.08,1.245 -0.66,0.42 -1.41,0.42 -0.615,0 -1.155,-0.285 -0.54,-0.285 -0.885,-0.795 v 3.405 h -1.11 z m 2.97,6.075 q 0.825,0 1.38,-0.615 0.57,-0.63 0.57,-2.04 0,-1.275 -0.495,-1.95 -0.495,-0.69 -1.41,-0.69 -0.855,0 -1.395,0.72 -0.525,0.705 -0.525,2.16 0.03,1.185 0.525,1.8 0.495,0.615 1.35,0.615 z"
         style="font-style:normal;font-variant:normal;font-weight:normal;font-stretch:normal;font-size:15px;line-height:1.25;font-family:Inconsolata;-inkscape-font-specification:Inconsolata;text-align:center;text-anchor:middle;fill:#306998;fill-opacity:1"
         id="path1241"
         inkscape:connector-curvature="0" />
      <path
         d="m 402.32465,326.28031 h 2.025 v -8.235 h -1.935 v -0.87 h 3.03 v 9.105 h 2.01 v 0.87 h -5.13 z"
         style="font-style:normal;font-variant:normal;font-weight:normal;font-stretch:normal;font-size:15px;line-height:1.25;font-family:Inconsolata;-inkscape-font-specification:Inconsolata;text-align:center;text-anchor:middle;fill:#306998;fill-opacity:1"
         id="path1243"
         inkscape:connector-curvature="0" />
      <path
         d="m 412.71965,327.30031 q -1.53,0 -2.445,-0.93 -0.9,-0.93 -0.9,-2.625 0,-1.125 0.42,-1.935 0.42,-0.825 1.125,-1.245 0.72,-0.435 1.605,-0.435 1.245,0 2.01,0.825 0.78,0.825 0.78,2.43 0,0.165 -0.03,0.495 h -4.875 q 0.06,1.26 0.705,1.905 0.645,0.645 1.635,0.645 1.08,0 1.77,-0.765 l 0.6,0.585 q -0.87,1.05 -2.4,1.05 z m 1.5,-4.26 q 0,-0.96 -0.495,-1.515 -0.48,-0.57 -1.275,-0.57 -0.75,0 -1.305,0.525 -0.555,0.525 -0.69,1.56 z"
         style="font-style:normal;font-variant:normal;font-weight:normal;font-stretch:normal;font-size:15px;line-height:1.25;font-family:Inconsolata;-inkscape-font-specification:Inconsolata;text-align:center;text-anchor:middle;fill:#306998;fill-opacity:1"
         id="path1245"
         inkscape:connector-curvature="0" />
      <path
         d="m 423.89465,317.80531 h 0.975 l 1.005,6.315 1.5,-5.625 h 0.33 l 1.515,5.655 0.855,-6.345 h 0.885 l -1.485,9.345 h -0.405 l -1.605,-6.105 -1.635,6.105 h -0.435 z"
         style="font-style:normal;font-variant:normal;font-weight:normal;font-stretch:normal;font-size:15px;line-height:1.25;font-family:Inconsolata;-inkscape-font-specification:Inconsolata;text-align:center;text-anchor:middle;fill:#306998;fill-opacity:1"
         id="path1247"
         inkscape:connector-curvature="0" />
      <path
         d="m 432.23465,317.17531 h 1.185 v 0.105 q -0.09,0.09 -0.12,0.195 -0.015,0.105 -0.015,0.36 v 3.675 q 0.405,-0.63 1.005,-1.005 0.615,-0.375 1.245,-0.375 0.975,0 1.53,0.69 0.555,0.69 0.555,2.175 v 4.155 h -1.05 v -4.125 q 0,-1.02 -0.345,-1.485 -0.345,-0.465 -0.915,-0.465 -0.48,0 -0.945,0.27 -0.465,0.255 -0.78,0.75 -0.3,0.48 -0.3,1.11 v 3.945 h -1.05 z"
         style="font-style:normal;font-variant:normal;font-weight:normal;font-stretch:normal;font-size:15px;line-height:1.25;font-family:Inconsolata;-inkscape-font-specification:Inconsolata;text-align:center;text-anchor:middle;fill:#306998;fill-opacity:1"
         id="path1249"
         inkscape:connector-curvature="0" />
      <path
         d="m 442.38965,327.27031 q -0.915,0 -1.635,-0.45 -0.72,-0.45 -1.125,-1.26 -0.405,-0.81 -0.405,-1.845 0,-1.035 0.405,-1.845 0.405,-0.81 1.125,-1.26 0.72,-0.465 1.635,-0.465 0.915,0 1.635,0.465 0.72,0.45 1.125,1.26 0.405,0.81 0.405,1.845 0,1.035 -0.405,1.845 -0.405,0.81 -1.125,1.26 -0.72,0.45 -1.635,0.45 z m 0,-0.9 q 0.585,0 1.035,-0.345 0.465,-0.345 0.72,-0.945 0.27,-0.615 0.27,-1.38 0,-1.17 -0.57,-1.905 -0.57,-0.75 -1.455,-0.75 -0.885,0 -1.455,0.75 -0.57,0.735 -0.57,1.905 0,0.765 0.255,1.38 0.27,0.6 0.72,0.945 0.465,0.345 1.05,0.345 z"
         style="font-style:normal;font-variant:normal;font-weight:normal;font-stretch:normal;font-size:15px;line-height:1.25;font-family:Inconsolata;-inkscape-font-specification:Inconsolata;text-align:center;text-anchor:middle;fill:#306998;fill-opacity:1"
         id="path1251"
         inkscape:connector-curvature="0" />
      <path
         d="m 454.25465,317.80531 h 0.825 l 2.31,4.575 2.355,-4.59 h 0.795 v 9.36 h -0.99 v -7.05 l -2.025,3.765 h -0.405 l -1.89,-3.72 v 7.005 h -0.975 z"
         style="font-style:normal;font-variant:normal;font-weight:normal;font-stretch:normal;font-size:15px;line-height:1.25;font-family:Inconsolata;-inkscape-font-specification:Inconsolata;text-align:center;text-anchor:middle;fill:#306998;fill-opacity:1"
         id="path1253"
         inkscape:connector-curvature="0" />
      <path
         d="m 464.79965,320.14531 q 1.47,0 2.235,0.765 0.78,0.765 0.78,2.595 v 3.645 h -1.17 v -1.05 q -0.63,1.215 -2.34,1.215 -1.14,0 -1.785,-0.51 -0.645,-0.525 -0.645,-1.38 0,-0.72 0.465,-1.26 0.465,-0.54 1.245,-0.825 0.795,-0.3 1.74,-0.3 0.855,0 1.545,0.09 -0.09,-1.155 -0.615,-1.62 -0.51,-0.48 -1.53,-0.48 -0.51,0 -0.99,0.195 -0.465,0.195 -0.855,0.57 l -0.525,-0.69 q 0.96,-0.96 2.445,-0.96 z m -0.39,6.345 q 1.11,0 1.755,-0.645 0.645,-0.66 0.705,-1.89 -0.675,-0.105 -1.455,-0.105 -1.14,0 -1.8,0.375 -0.66,0.375 -0.66,1.14 0,1.125 1.455,1.125 z"
         style="font-style:normal;font-variant:normal;font-weight:normal;font-stretch:normal;font-size:15px;line-height:1.25;font-family:Inconsolata;-inkscape-font-specification:Inconsolata;text-align:center;text-anchor:middle;fill:#306998;fill-opacity:1"
         id="path1255"
         inkscape:connector-curvature="0" />
      <path
         d="m 471.62465,323.71531 -0.9,0.84 v 2.595 h -1.095 v -9.975 h 1.23 v 0.105 q -0.09,0.09 -0.12,0.195 -0.015,0.105 -0.015,0.36 v 5.61 l 3.435,-3.18 q 0.375,0.075 0.795,0.075 h 0.39 l -2.88,2.715 3.36,4.095 -1.395,0.06 z"
         style="font-style:normal;font-variant:normal;font-weight:normal;font-stretch:normal;font-size:15px;line-height:1.25;font-family:Inconsolata;-inkscape-font-specification:Inconsolata;text-align:center;text-anchor:middle;fill:#306998;fill-opacity:1"
         id="path1257"
         inkscape:connector-curvature="0" />
      <path
         d="m 480.21965,327.30031 q -1.53,0 -2.445,-0.93 -0.9,-0.93 -0.9,-2.625 0,-1.125 0.42,-1.935 0.42,-0.825 1.125,-1.245 0.72,-0.435 1.605,-0.435 1.245,0 2.01,0.825 0.78,0.825 0.78,2.43 0,0.165 -0.03,0.495 h -4.875 q 0.06,1.26 0.705,1.905 0.645,0.645 1.635,0.645 1.08,0 1.77,-0.765 l 0.6,0.585 q -0.87,1.05 -2.4,1.05 z m 1.5,-4.26 q 0,-0.96 -0.495,-1.515 -0.48,-0.57 -1.275,-0.57 -0.75,0 -1.305,0.525 -0.555,0.525 -0.69,1.56 z"
         style="font-style:normal;font-variant:normal;font-weight:normal;font-stretch:normal;font-size:15px;line-height:1.25;font-family:Inconsolata;-inkscape-font-specification:Inconsolata;text-align:center;text-anchor:middle;fill:#306998;fill-opacity:1"
         id="path1259"
         inkscape:connector-curvature="0" />
      <path
         d="m 492.35465,326.26531 h 1.845 v -7.575 h -1.74 v -0.885 h 4.635 v 0.885 h -1.845 v 7.59 h 1.935 v 0.87 h -4.83 z"
         style="font-style:normal;font-variant:normal;font-weight:normal;font-stretch:normal;font-size:15px;line-height:1.25;font-family:Inconsolata;-inkscape-font-specification:Inconsolata;text-align:center;text-anchor:middle;fill:#306998;fill-opacity:1"
         id="path1261"
         inkscape:connector-curvature="0" />
      <path
         d="m 505.29965,326.52031 q -0.99,0.735 -2.175,0.735 -1.14,0 -1.62,-0.69 -0.465,-0.69 -0.465,-2.25 0,-0.255 0.03,-0.885 l 0.135,-2.25 h -1.515 v -0.885 h 1.575 l 0.105,-1.83 1.2,-0.195 0.15,-0.015 0.015,0.09 q -0.105,0.15 -0.165,0.255 -0.045,0.105 -0.06,0.33 l -0.165,1.365 h 2.28 v 0.885 h -2.34 l -0.135,2.325 q -0.03,0.6 -0.03,0.795 0,1.2 0.27,1.635 0.285,0.42 0.9,0.42 0.45,0 0.825,-0.165 0.375,-0.165 0.855,-0.525 z"
         style="font-style:normal;font-variant:normal;font-weight:normal;font-stretch:normal;font-size:15px;line-height:1.25;font-family:Inconsolata;-inkscape-font-specification:Inconsolata;text-align:center;text-anchor:middle;fill:#306998;fill-opacity:1"
         id="path1263"
         inkscape:connector-curvature="0" />
      <path
         d="m 517.79465,327.30031 q -1.11,0 -1.935,-0.585 -0.81,-0.585 -1.245,-1.65 -0.435,-1.065 -0.435,-2.475 -0.015,-1.86 0.54,-2.94 0.555,-1.095 1.365,-1.515 0.81,-0.435 1.635,-0.435 0.84,0 1.62,0.435 0.78,0.435 1.17,1.14 l -0.735,0.585 -0.12,0.105 -0.06,-0.09 q 0.015,-0.12 -0.045,-0.225 -0.045,-0.105 -0.21,-0.285 -0.36,-0.39 -0.735,-0.555 -0.36,-0.18 -0.87,-0.18 -1.125,0 -1.83,0.87 -0.69,0.87 -0.69,2.865 0,1.92 0.675,2.97 0.69,1.035 1.905,1.035 0.45,0 0.945,-0.135 0.495,-0.15 0.825,-0.435 v -2.22 h -1.695 v -0.915 h 2.67 v 3.66 q -1.335,0.975 -2.745,0.975 z"
         style="font-style:normal;font-variant:normal;font-weight:normal;font-stretch:normal;font-size:15px;line-height:1.25;font-family:Inconsolata;-inkscape-font-specification:Inconsolata;text-align:center;text-anchor:middle;fill:#306998;fill-opacity:1"
         id="path1265"
         inkscape:connector-curvature="0" />
      <path
         d="m 526.19465,320.13031 q 1.095,0 1.815,0.75 l -0.48,0.84 -0.06,0.135 -0.105,-0.06 q -0.045,-0.165 -0.105,-0.255 -0.06,-0.105 -0.255,-0.225 -0.39,-0.255 -0.885,-0.255 -0.54,0 -1.02,0.27 -0.48,0.27 -0.78,0.825 -0.3,0.54 -0.3,1.365 v 3.645 h -1.095 v -6.87 h 1.125 l -0.03,1.26 q 0.285,-0.675 0.87,-1.05 0.6,-0.375 1.305,-0.375 z"
         style="font-style:normal;font-variant:normal;font-weight:normal;font-stretch:normal;font-size:15px;line-height:1.25;font-family:Inconsolata;-inkscape-font-specification:Inconsolata;text-align:center;text-anchor:middle;fill:#306998;fill-opacity:1"
         id="path1267"
         inkscape:connector-curvature="0" />
      <path
         d="m 532.71965,327.30031 q -1.53,0 -2.445,-0.93 -0.9,-0.93 -0.9,-2.625 0,-1.125 0.42,-1.935 0.42,-0.825 1.125,-1.245 0.72,-0.435 1.605,-0.435 1.245,0 2.01,0.825 0.78,0.825 0.78,2.43 0,0.165 -0.03,0.495 h -4.875 q 0.06,1.26 0.705,1.905 0.645,0.645 1.635,0.645 1.08,0 1.77,-0.765 l 0.6,0.585 q -0.87,1.05 -2.4,1.05 z m 1.5,-4.26 q 0,-0.96 -0.495,-1.515 -0.48,-0.57 -1.275,-0.57 -0.75,0 -1.305,0.525 -0.555,0.525 -0.69,1.56 z"
         style="font-style:normal;font-variant:normal;font-weight:normal;font-stretch:normal;font-size:15px;line-height:1.25;font-family:Inconsolata;-inkscape-font-specification:Inconsolata;text-align:center;text-anchor:middle;fill:#306998;fill-opacity:1"
         id="path1269"
         inkscape:connector-curvature="0" />
      <path
         d="m 539.79965,320.14531 q 1.47,0 2.235,0.765 0.78,0.765 0.78,2.595 v 3.645 h -1.17 v -1.05 q -0.63,1.215 -2.34,1.215 -1.14,0 -1.785,-0.51 -0.645,-0.525 -0.645,-1.38 0,-0.72 0.465,-1.26 0.465,-0.54 1.245,-0.825 0.795,-0.3 1.74,-0.3 0.855,0 1.545,0.09 -0.09,-1.155 -0.615,-1.62 -0.51,-0.48 -1.53,-0.48 -0.51,0 -0.99,0.195 -0.465,0.195 -0.855,0.57 l -0.525,-0.69 q 0.96,-0.96 2.445,-0.96 z m -0.39,6.345 q 1.11,0 1.755,-0.645 0.645,-0.66 0.705,-1.89 -0.675,-0.105 -1.455,-0.105 -1.14,0 -1.8,0.375 -0.66,0.375 -0.66,1.14 0,1.125 1.455,1.125 z"
         style="font-style:normal;font-variant:normal;font-weight:normal;font-stretch:normal;font-size:15px;line-height:1.25;font-family:Inconsolata;-inkscape-font-specification:Inconsolata;text-align:center;text-anchor:middle;fill:#306998;fill-opacity:1"
         id="path1271"
         inkscape:connector-curvature="0" />
      <path
         d="m 550.29965,326.52031 q -0.99,0.735 -2.175,0.735 -1.14,0 -1.62,-0.69 -0.465,-0.69 -0.465,-2.25 0,-0.255 0.03,-0.885 l 0.135,-2.25 h -1.515 v -0.885 h 1.575 l 0.105,-1.83 1.2,-0.195 0.15,-0.015 0.015,0.09 q -0.105,0.15 -0.165,0.255 -0.045,0.105 -0.06,0.33 l -0.165,1.365 h 2.28 v 0.885 h -2.34 l -0.135,2.325 q -0.03,0.6 -0.03,0.795 0,1.2 0.27,1.635 0.285,0.42 0.9,0.42 0.45,0 0.825,-0.165 0.375,-0.165 0.855,-0.525 z"
         style="font-style:normal;font-variant:normal;font-weight:normal;font-stretch:normal;font-size:15px;line-height:1.25;font-family:Inconsolata;-inkscape-font-specification:Inconsolata;text-align:center;text-anchor:middle;fill:#306998;fill-opacity:1"
         id="path1273"
         inkscape:connector-curvature="0" />
    </g>
    <g
       aria-label="www.pythonpodcast.com"
       style="font-style:normal;font-variant:normal;font-weight:normal;font-stretch:normal;font-size:1.54571211px;line-height:0%;font-family:'Source Code Pro';-inkscape-font-specification:'Source Code Pro, Normal';text-align:start;letter-spacing:0px;word-spacing:0px;writing-mode:lr-tb;text-anchor:start;fill:#000000;fill-opacity:1;stroke:none;stroke-width:0.12880936px;stroke-linecap:butt;stroke-linejoin:miter;stroke-opacity:1"
       id="text4610-7">
      <path
         d="m 60.12672,350.70538 h 0.341344 l 0.173893,-0.74709 c 0.02576,-0.10949 0.05152,-0.26406 0.07729,-0.46371 h 0.01288 c 0.02576,0.19965 0.05152,0.35422 0.07729,0.46371 l 0.180333,0.74709 h 0.341345 l 0.334905,-1.56503 h -0.244738 l -0.186774,0.90811 c -0.02898,0.14813 -0.04508,0.28338 -0.07084,0.43151 h -0.01288 c -0.01932,-0.14813 -0.06118,-0.28338 -0.09661,-0.43151 l -0.186773,-0.8115 h -0.26406 l -0.193214,0.8115 c -0.03542,0.14491 -0.07084,0.28338 -0.09017,0.43151 h -0.01288 c -0.01932,-0.14813 -0.04186,-0.28338 -0.07085,-0.43151 l -0.186774,-0.90811 h -0.264059 z"
         style="font-size:3.22023392px;line-height:1;stroke-width:0.12880936px"
         id="path813" />
      <path
         d="M 62.058855,350.70538 H 62.4002 l 0.173893,-0.74709 c 0.02576,-0.10949 0.05152,-0.26406 0.07729,-0.46371 h 0.01288 c 0.02576,0.19965 0.05152,0.35422 0.07729,0.46371 l 0.180333,0.74709 h 0.341345 l 0.334904,-1.56503 h -0.244738 l -0.186773,0.90811 c -0.02898,0.14813 -0.04508,0.28338 -0.07085,0.43151 h -0.01288 c -0.01932,-0.14813 -0.06119,-0.28338 -0.09661,-0.43151 l -0.186774,-0.8115 H 62.53545 l -0.193214,0.8115 c -0.03542,0.14491 -0.07084,0.28338 -0.09017,0.43151 h -0.01288 c -0.01932,-0.14813 -0.04186,-0.28338 -0.07084,-0.43151 l -0.186773,-0.90811 h -0.26406 z"
         style="font-size:3.22023392px;line-height:1;stroke-width:0.12880936px"
         id="path815" />
      <path
         d="m 63.990991,350.70538 h 0.341344 l 0.173893,-0.74709 c 0.02576,-0.10949 0.05152,-0.26406 0.07729,-0.46371 h 0.01288 c 0.02576,0.19965 0.05152,0.35422 0.07729,0.46371 l 0.180333,0.74709 h 0.341345 l 0.334904,-1.56503 h -0.244737 l -0.186774,0.90811 c -0.02898,0.14813 -0.04508,0.28338 -0.07084,0.43151 h -0.01288 c -0.01932,-0.14813 -0.06118,-0.28338 -0.09661,-0.43151 l -0.186774,-0.8115 h -0.264059 l -0.193214,0.8115 c -0.03542,0.14491 -0.07085,0.28338 -0.09017,0.43151 h -0.01288 c -0.01932,-0.14813 -0.04186,-0.28338 -0.07084,-0.43151 l -0.186774,-0.90811 h -0.264059 z"
         style="font-size:3.22023392px;line-height:1;stroke-width:0.12880936px"
         id="path817" />
      <path
         d="m 66.522089,350.74403 c 0.144911,0 0.260839,-0.10949 0.260839,-0.2705 0,-0.16424 -0.115928,-0.27372 -0.260839,-0.27372 -0.14491,0 -0.260838,0.10948 -0.260838,0.27372 0,0.16101 0.115928,0.2705 0.260838,0.2705 z"
         style="font-size:3.22023392px;line-height:1;stroke-width:0.12880936px"
         id="path819" />
      <path
         d="m 67.787637,351.36553 h 0.264059 v -0.52812 l -0.01288,-0.29626 h 0.0097 c 0.13847,0.12881 0.322023,0.20288 0.466934,0.20288 0.376767,0 0.711671,-0.31237 0.711671,-0.84371 0,-0.48625 -0.225416,-0.79861 -0.647267,-0.79861 -0.193214,0 -0.396089,0.0998 -0.540999,0.23829 h -0.0097 l -0.02254,-0.19965 h -0.218976 z m 0.682689,-0.8437 c -0.106267,0 -0.270499,-0.0515 -0.41863,-0.18355 v -0.7793 c 0.161012,-0.16101 0.322023,-0.23508 0.460493,-0.23508 0.312363,0 0.441172,0.23186 0.441172,0.57642 0,0.38643 -0.202874,0.62151 -0.483035,0.62151 z"
         style="font-size:3.22023392px;line-height:1;stroke-width:0.12880936px"
         id="path821" />
      <path
         d="m 69.842141,351.37841 c 0.354225,0 0.547439,-0.23507 0.663368,-0.54422 l 0.68913,-1.69384 h -0.251178 l -0.341345,0.86624 c -0.05152,0.14169 -0.112708,0.30592 -0.167452,0.45406 h -0.01288 c -0.06441,-0.15136 -0.13203,-0.31559 -0.193214,-0.45406 l -0.383208,-0.86624 h -0.26728 l 0.730994,1.56825 -0.0483,0.11593 c -0.07729,0.19322 -0.209315,0.33491 -0.428291,0.33491 -0.0483,0 -0.09983,-0.01 -0.14169,-0.0226 l -0.05474,0.20932 c 0.05474,0.0193 0.132029,0.0322 0.206095,0.0322 z"
         style="font-size:3.22023392px;line-height:1;stroke-width:0.12880936px"
         id="path823" />
      <path
         d="m 72.621198,350.74403 c 0.196434,0 0.347785,-0.0419 0.489475,-0.0934 l -0.05796,-0.19321 c -0.112708,0.0419 -0.228637,0.0708 -0.376767,0.0708 -0.302702,0 -0.396089,-0.14813 -0.396089,-0.42829 v -0.74387 h 0.769636 v -0.21576 h -0.769636 v -0.50236 h -0.218976 l -0.03542,0.50236 -0.450832,0.0161 v 0.19966 h 0.441172 v 0.74065 c 0,0.38643 0.148131,0.64727 0.605404,0.64727 z"
         style="font-size:3.22023392px;line-height:1;stroke-width:0.12880936px"
         id="path825" />
      <path
         d="m 73.584043,350.70538 h 0.264059 v -1.09166 c 0.183553,-0.18999 0.309143,-0.28338 0.495916,-0.28338 0.257619,0 0.360666,0.14169 0.360666,0.43796 v 0.93708 h 0.264059 v -0.97251 c 0,-0.41219 -0.170672,-0.63116 -0.540999,-0.63116 -0.244738,0 -0.425071,0.13203 -0.586082,0.30592 h -0.0097 l 0.0161,-0.37033 v -0.62472 h -0.264059 z"
         style="font-size:3.22023392px;line-height:1;stroke-width:0.12880936px"
         id="path827" />
      <path
         d="m 76.182767,350.74403 c 0.41219,0 0.772856,-0.29949 0.772856,-0.81794 0,-0.5249 -0.360666,-0.82438 -0.772856,-0.82438 -0.41219,0 -0.772856,0.29948 -0.772856,0.82438 0,0.51845 0.360666,0.81794 0.772856,0.81794 z m 0,-0.21898 c -0.299482,0 -0.499136,-0.24152 -0.499136,-0.59896 0,-0.36067 0.199654,-0.60541 0.499136,-0.60541 0.299482,0 0.499136,0.24474 0.499136,0.60541 0,0.35744 -0.199654,0.59896 -0.499136,0.59896 z"
         style="font-size:3.22023392px;line-height:1;stroke-width:0.12880936px"
         id="path829" />
      <path
         d="m 77.448314,350.70538 h 0.264059 v -1.09166 c 0.183554,-0.18999 0.309143,-0.28338 0.495916,-0.28338 0.257619,0 0.360666,0.14169 0.360666,0.43796 v 0.93708 h 0.26406 v -0.97251 c 0,-0.41219 -0.170673,-0.63116 -0.541,-0.63116 -0.244737,0 -0.425071,0.13203 -0.589302,0.30592 h -0.01288 l -0.02254,-0.26728 h -0.218976 z"
         style="font-size:3.22023392px;line-height:1;stroke-width:0.12880936px"
         id="path831" />
      <path
         d="m 79.380449,351.36553 h 0.264059 v -0.52812 l -0.01288,-0.29626 h 0.0097 c 0.13847,0.12881 0.322023,0.20288 0.466934,0.20288 0.376767,0 0.711671,-0.31237 0.711671,-0.84371 0,-0.48625 -0.225416,-0.79861 -0.647267,-0.79861 -0.193214,0 -0.396089,0.0998 -0.540999,0.23829 h -0.0097 l -0.02254,-0.19965 h -0.218976 z m 0.682689,-0.8437 c -0.106267,0 -0.270499,-0.0515 -0.41863,-0.18355 v -0.7793 c 0.161012,-0.16101 0.322023,-0.23508 0.460493,-0.23508 0.312363,0 0.441172,0.23186 0.441172,0.57642 0,0.38643 -0.202874,0.62151 -0.483035,0.62151 z"
         style="font-size:3.22023392px;line-height:1;stroke-width:0.12880936px"
         id="path833" />
      <path
         d="m 81.979174,350.74403 c 0.41219,0 0.772856,-0.29949 0.772856,-0.81794 0,-0.5249 -0.360666,-0.82438 -0.772856,-0.82438 -0.41219,0 -0.772856,0.29948 -0.772856,0.82438 0,0.51845 0.360666,0.81794 0.772856,0.81794 z m 0,-0.21898 c -0.299482,0 -0.499137,-0.24152 -0.499137,-0.59896 0,-0.36067 0.199655,-0.60541 0.499137,-0.60541 0.299481,0 0.499136,0.24474 0.499136,0.60541 0,0.35744 -0.199655,0.59896 -0.499136,0.59896 z"
         style="font-size:3.22023392px;line-height:1;stroke-width:0.12880936px"
         id="path835" />
      <path
         d="m 83.817922,350.74403 c 0.193214,0 0.379987,-0.11271 0.508796,-0.24474 h 0.0097 l 0.02254,0.20609 h 0.218976 v -2.2928 h -0.264059 v 0.60218 l 0.01288,0.28982 h -0.0097 c -0.13525,-0.12881 -0.280161,-0.20287 -0.466934,-0.20287 -0.370327,0 -0.711672,0.31558 -0.711672,0.82438 0,0.52167 0.2705,0.81794 0.67947,0.81794 z m 0.05474,-0.2222 c -0.289821,0 -0.460493,-0.22542 -0.460493,-0.59896 0,-0.35745 0.218976,-0.59897 0.489476,-0.59897 0.135249,0 0.270499,0.0515 0.41219,0.18356 v 0.77929 c -0.138471,0.15457 -0.286601,0.23508 -0.441173,0.23508 z"
         style="font-size:3.22023392px;line-height:1;stroke-width:0.12880936px"
         id="path837" />
      <path
         d="m 85.991576,350.74403 c 0.231856,0 0.447612,-0.0902 0.621505,-0.24474 l -0.119149,-0.17067 c -0.128809,0.10948 -0.289821,0.19643 -0.483035,0.19643 -0.360666,0 -0.602184,-0.24152 -0.602184,-0.59896 0,-0.36067 0.247958,-0.60541 0.608624,-0.60541 0.164232,0 0.299482,0.0676 0.428292,0.18034 l 0.132029,-0.17068 c -0.128809,-0.12559 -0.315583,-0.22863 -0.569981,-0.22863 -0.473375,0 -0.872684,0.29948 -0.872684,0.82438 0,0.51845 0.367107,0.81794 0.856583,0.81794 z"
         style="font-size:3.22023392px;line-height:1;stroke-width:0.12880936px"
         id="path839" />
      <path
         d="m 87.601687,350.74403 c 0.222196,0 0.444392,-0.11593 0.618285,-0.25118 h 0.0097 l 0.02254,0.21253 h 0.215756 v -0.95963 c 0,-0.38964 -0.206095,-0.64404 -0.634386,-0.64404 -0.27372,0 -0.537779,0.12237 -0.695571,0.22541 l 0.103048,0.18034 c 0.14491,-0.0902 0.344565,-0.18678 0.547439,-0.18678 0.302702,0 0.40897,0.18034 0.415411,0.39287 -0.808279,0.0644 -1.133523,0.23508 -1.133523,0.58608 0,0.28016 0.238298,0.4444 0.531339,0.4444 z m 0.07085,-0.21254 c -0.180333,0 -0.344565,-0.0741 -0.344565,-0.25118 0,-0.20609 0.206095,-0.33812 0.875904,-0.39287 v 0.41219 c -0.177113,0.14813 -0.354226,0.23186 -0.531339,0.23186 z"
         style="font-size:3.22023392px;line-height:1;stroke-width:0.12880936px"
         id="path841" />
      <path
         d="m 89.739918,350.74403 c 0.447613,0 0.695571,-0.21254 0.695571,-0.46694 0,-0.2383 -0.125589,-0.37032 -0.647267,-0.48303 -0.318803,-0.0676 -0.454053,-0.12559 -0.454053,-0.26084 0,-0.11915 0.09339,-0.22542 0.360666,-0.22542 0.199655,0 0.379988,0.0644 0.524898,0.16423 l 0.12881,-0.17067 c -0.154572,-0.10627 -0.392869,-0.19965 -0.631166,-0.19965 -0.428291,0 -0.650488,0.19321 -0.650488,0.44439 0,0.23508 0.206095,0.37355 0.611845,0.45727 0.425071,0.087 0.489475,0.17067 0.489475,0.28982 0,0.13203 -0.132029,0.24474 -0.396088,0.24474 -0.289821,0 -0.499137,-0.0837 -0.67947,-0.21253 l -0.122369,0.17389 c 0.189994,0.13203 0.463714,0.24474 0.769636,0.24474 z"
         style="font-size:3.22023392px;line-height:1;stroke-width:0.12880936px"
         id="path843" />
      <path
         d="m 91.942553,350.74403 c 0.196434,0 0.347785,-0.0419 0.489475,-0.0934 l -0.05796,-0.19321 c -0.112708,0.0419 -0.228637,0.0708 -0.376767,0.0708 -0.302702,0 -0.396089,-0.14813 -0.396089,-0.42829 v -0.74387 h 0.769636 v -0.21576 h -0.769636 v -0.50236 h -0.218976 l -0.03542,0.50236 -0.450832,0.0161 v 0.19966 h 0.441172 v 0.74065 c 0,0.38643 0.14813,0.64727 0.605404,0.64727 z"
         style="font-size:3.22023392px;line-height:1;stroke-width:0.12880936px"
         id="path845" />
      <path
         d="m 93.571985,350.74403 c 0.144911,0 0.260839,-0.10949 0.260839,-0.2705 0,-0.16424 -0.115928,-0.27372 -0.260839,-0.27372 -0.14491,0 -0.260839,0.10948 -0.260839,0.27372 0,0.16101 0.115929,0.2705 0.260839,0.2705 z"
         style="font-size:3.22023392px;line-height:1;stroke-width:0.12880936px"
         id="path847" />
      <path
         d="m 95.652253,350.74403 c 0.231856,0 0.447612,-0.0902 0.621505,-0.24474 l -0.119149,-0.17067 c -0.128809,0.10948 -0.289821,0.19643 -0.483035,0.19643 -0.360666,0 -0.602184,-0.24152 -0.602184,-0.59896 0,-0.36067 0.247958,-0.60541 0.608624,-0.60541 0.164232,0 0.299482,0.0676 0.428292,0.18034 l 0.132029,-0.17068 c -0.128809,-0.12559 -0.315583,-0.22863 -0.569981,-0.22863 -0.473375,0 -0.872684,0.29948 -0.872684,0.82438 0,0.51845 0.367107,0.81794 0.856583,0.81794 z"
         style="font-size:3.22023392px;line-height:1;stroke-width:0.12880936px"
         id="path849" />
      <path
         d="m 97.436258,350.74403 c 0.41219,0 0.772856,-0.29949 0.772856,-0.81794 0,-0.5249 -0.360666,-0.82438 -0.772856,-0.82438 -0.41219,0 -0.772856,0.29948 -0.772856,0.82438 0,0.51845 0.360666,0.81794 0.772856,0.81794 z m 0,-0.21898 c -0.299481,0 -0.499136,-0.24152 -0.499136,-0.59896 0,-0.36067 0.199655,-0.60541 0.499136,-0.60541 0.299482,0 0.499137,0.24474 0.499137,0.60541 0,0.35744 -0.199655,0.59896 -0.499137,0.59896 z"
         style="font-size:3.22023392px;line-height:1;stroke-width:0.12880936px"
         id="path851" />
      <path
         d="m 98.589094,350.70538 h 0.26406 v -1.13352 c 0.07729,-0.16101 0.14813,-0.24152 0.257618,-0.24152 0.115929,0 0.161012,0.0934 0.161012,0.27372 v 1.10132 h 0.244738 v -1.13352 c 0.08373,-0.16101 0.14169,-0.24152 0.251178,-0.24152 0.115928,0 0.167452,0.0934 0.167452,0.27372 v 1.10132 h 0.264058 v -1.12064 c 0,-0.31236 -0.12881,-0.48303 -0.347784,-0.48303 -0.180333,0 -0.27694,0.10304 -0.367107,0.2705 -0.04508,-0.18034 -0.14169,-0.2705 -0.296261,-0.2705 -0.180333,0 -0.27694,0.0998 -0.357446,0.24473 h -0.0064 l -0.02254,-0.20609 h -0.212536 z"
         style="font-size:3.22023392px;line-height:1;stroke-width:0.12880936px"
         id="path853" />
    </g>
  </g>
  <g
     inkscape:groupmode="layer"
     id="layer3"
     inkscape:label="Guides"
     style="display:none"
     transform="translate(0,101.59999)">
    <g
       transform="rotate(90,255.47124,100.99645)"
       id="g9105">
      <path
         inkscape:connector-curvature="0"
         id="path3408"
         style="fill:none;stroke:#343596;stroke-width:0.35313058;stroke-linecap:butt;stroke-linejoin:miter;stroke-miterlimit:4;stroke-dasharray:1.25976942;stroke-dashoffset:0;stroke-opacity:1"
         d="M 206.84959,354.8548 H 54.474989 v -50.8 H 206.84959 Z" />
      <path
         inkscape:connector-curvature="0"
         id="path3424"
         style="fill:#4dbd38;fill-opacity:1;fill-rule:nonzero;stroke:none;stroke-width:0.35277778"
         d="M 208.51329,302.4673 H 52.862089 v 53.975 H 208.51329 Z m -0.37607,53.59929 H 53.237797 V 302.84336 H 208.13722 Z" />
      <path
         inkscape:connector-curvature="0"
         id="path3426"
         style="fill:#ee2736;fill-opacity:1;fill-rule:nonzero;stroke:none;stroke-width:0.35277778"
         d="M 205.28749,305.6423 H 56.037089 v 47.57102 H 205.28749 Z m -0.35278,47.21824 H 56.389867 V 305.99508 H 204.93471 Z" />
    </g>
  </g>
</svg>
