<?xml version="1.0" encoding="UTF-8" standalone="no"?>
<!-- Created with Inkscape (http://www.inkscape.org/) -->

<svg
   xmlns:dc="http://purl.org/dc/elements/1.1/"
   xmlns:cc="http://creativecommons.org/ns#"
   xmlns:rdf="http://www.w3.org/1999/02/22-rdf-syntax-ns#"
   xmlns:svg="http://www.w3.org/2000/svg"
   xmlns="http://www.w3.org/2000/svg"
   xmlns:xlink="http://www.w3.org/1999/xlink"
   xmlns:sodipodi="http://sodipodi.sourceforge.net/DTD/sodipodi-0.dtd"
   xmlns:inkscape="http://www.inkscape.org/namespaces/inkscape"
   width="3.45in"
   height="2.3199999in"
   viewBox="0 0 310.50001 208.8"
   id="svg2"
   version="1.1"
   inkscape:version="0.91 r13725"
   sodipodi:docname="business_card_text_to_path.svg">
  <defs
     id="defs4">
    <linearGradient
       id="linearGradient2795">
      <stop
         id="stop2797"
         offset="0"
         style="stop-color:#b8b8b8;stop-opacity:0.49803922;" />
      <stop
         id="stop2799"
         offset="1"
         style="stop-color:#7f7f7f;stop-opacity:0;" />
    </linearGradient>
    <linearGradient
       id="linearGradient2787">
      <stop
         id="stop2789"
         offset="0"
         style="stop-color:#7f7f7f;stop-opacity:0.5;" />
      <stop
         id="stop2791"
         offset="1"
         style="stop-color:#7f7f7f;stop-opacity:0;" />
    </linearGradient>
    <linearGradient
       id="linearGradient3676">
      <stop
         id="stop3678"
         offset="0"
         style="stop-color:#b2b2b2;stop-opacity:0.5;" />
      <stop
         id="stop3680"
         offset="1"
         style="stop-color:#b3b3b3;stop-opacity:0;" />
    </linearGradient>
    <linearGradient
       id="linearGradient3236">
      <stop
         id="stop3244"
         offset="0"
         style="stop-color:#f4f4f4;stop-opacity:1" />
      <stop
         id="stop3240"
         offset="1"
         style="stop-color:white;stop-opacity:1" />
    </linearGradient>
    <linearGradient
       id="linearGradient4671">
      <stop
         id="stop4673"
         offset="0"
         style="stop-color:#ffd43b;stop-opacity:1;" />
      <stop
         id="stop4675"
         offset="1"
         style="stop-color:#ffe873;stop-opacity:1" />
    </linearGradient>
    <linearGradient
       id="linearGradient4689">
      <stop
         id="stop4691"
         offset="0"
         style="stop-color:#5a9fd4;stop-opacity:1;" />
      <stop
         id="stop4693"
         offset="1"
         style="stop-color:#306998;stop-opacity:1;" />
    </linearGradient>
    <linearGradient
       gradientTransform="translate(100.2702,99.61116)"
       gradientUnits="userSpaceOnUse"
       xlink:href="#linearGradient4671"
       id="linearGradient2987"
       y2="144.75717"
       x2="-65.308502"
       y1="144.75717"
       x1="224.23996" />
    <linearGradient
       gradientTransform="translate(100.2702,99.61116)"
       gradientUnits="userSpaceOnUse"
       xlink:href="#linearGradient4689"
       id="linearGradient2990"
       y2="76.313133"
       x2="26.670298"
       y1="77.475983"
       x1="172.94208" />
    <linearGradient
       y2="144.75717"
       x2="-65.308502"
       y1="144.75717"
       x1="224.23996"
       gradientTransform="matrix(0.562541,0,0,0.567972,-11.5974,-7.60954)"
       gradientUnits="userSpaceOnUse"
       id="linearGradient2255"
       xlink:href="#linearGradient4671"
       inkscape:collect="always" />
    <linearGradient
       y2="76.313133"
       x2="26.670298"
       y1="76.176224"
       x1="172.94208"
       gradientTransform="matrix(0.562541,0,0,0.567972,-11.5974,-7.60954)"
       gradientUnits="userSpaceOnUse"
       id="linearGradient2258"
       xlink:href="#linearGradient4689"
       inkscape:collect="always" />
    <radialGradient
       gradientUnits="userSpaceOnUse"
       gradientTransform="matrix(1,0,0,0.177966,0,108.7434)"
       r="29.036913"
       fy="132.28575"
       fx="61.518883"
       cy="132.28575"
       cx="61.518883"
       id="radialGradient2801"
       xlink:href="#linearGradient2795"
       inkscape:collect="always" />
    <linearGradient
       id="linearGradient2399">
      <stop
         id="stop3708"
         stop-color="#fff"
         offset="0" />
      <stop
         id="stop3710"
         stop-opacity="0"
         stop-color="#fff"
         offset="1" />
    </linearGradient>
    <linearGradient
       id="linearGradient2355">
      <stop
         id="stop3713"
         offset="0" />
      <stop
         id="stop3715"
         stop-opacity="0"
         offset="1" />
    </linearGradient>
    <linearGradient
       y2="35.689548"
       y1="36.689548"
       x2="48.25"
       x1="41.25"
       id="linearGradient2258-6"
       gradientUnits="userSpaceOnUse">
      <stop
         id="stop3718"
         stop-color="#c6c6c6"
         offset="0" />
      <stop
         id="stop3720"
         stop-opacity="0"
         stop-color="#c6c6c6"
         offset="1" />
    </linearGradient>
    <linearGradient
       y2="14.04688"
       y1="15.32307"
       x2="14.40625"
       x1="18.32872"
       id="linearGradient2377"
       gradientUnits="userSpaceOnUse">
      <stop
         id="stop3723"
         offset="0" />
      <stop
         id="stop3725"
         stop-opacity=".48454"
         offset="1" />
    </linearGradient>
    <linearGradient
       y2="20.4375"
       y1="15.80366"
       xlink:href="#linearGradient2355"
       x2="33.96875"
       x1="25.160469"
       id="linearGradient2361"
       gradientUnits="userSpaceOnUse" />
    <linearGradient
       y2="43.420429"
       y1="49.11071"
       xlink:href="#linearGradient2399"
       x2="17.40238"
       x1="16.4375"
       id="linearGradient2405"
       gradientUnits="userSpaceOnUse" />
    <radialGradient
       r="11.1875"
       id="radialGradient2238"
       gradientUnits="userSpaceOnUse"
       gradientTransform="matrix(1,0,0,0.52514,0,22.02165)"
       cy="42.090431"
       cx="15.4375">
      <stop
         id="stop3730"
         stop-color="#b0b0b0"
         offset="0" />
      <stop
         id="stop3732"
         stop-color="#747474"
         offset="1" />
    </radialGradient>
    <radialGradient
       r="10.98921"
       id="radialGradient2351"
       gradientUnits="userSpaceOnUse"
       gradientTransform="matrix(1.49192,-0.08445108,-0.05874412,3.98672,-9.6468,-20.27595)"
       cy="6.6440701"
       cx="19.557501">
      <stop
         id="stop3735"
         stop-color="#d5d5d5"
         offset="0" />
      <stop
         id="stop3737"
         stop-color="#a0a0a0"
         offset="1" />
    </radialGradient>
    <radialGradient
       r="2.2697401"
       id="radialGradient2413"
       gradientUnits="userSpaceOnUse"
       gradientTransform="matrix(0.43533,0,0,0.43533,18.91658,12.49341)"
       cy="20.53817"
       cx="33.5">
      <stop
         id="stop3740"
         stop-color="#d5d5d5"
         offset="0" />
      <stop
         id="stop3742"
         stop-color="#747474"
         offset="1" />
    </radialGradient>
    <radialGradient
       xlink:href="#linearGradient2355"
       r="16.4375"
       id="radialGradient2248"
       gradientUnits="userSpaceOnUse"
       gradientTransform="matrix(1,0,0,0.42586,0,23.53992)"
       cy="41"
       cx="25.1875" />
    <radialGradient
       xlink:href="#linearGradient2399"
       r="12.49403"
       id="radialGradient2343"
       gradientUnits="userSpaceOnUse"
       gradientTransform="matrix(2.53075,0,0,2.29601,-31.03641,-6.69986)"
       cy="5.7119699"
       cx="20.27528" />
    <radialGradient
       xlink:href="#linearGradient2355"
       r="16.4375"
       id="radialGradient2248-4"
       gradientUnits="userSpaceOnUse"
       gradientTransform="matrix(1,0,0,0.42586,0,23.53992)"
       cy="41"
       cx="25.1875" />
    <radialGradient
       r="11.1875"
       id="radialGradient2238-6"
       gradientUnits="userSpaceOnUse"
       gradientTransform="matrix(1,0,0,0.52514,0,22.02165)"
       cy="42.090431"
       cx="15.4375">
      <stop
         id="stop3730-8"
         stop-color="#b0b0b0"
         offset="0" />
      <stop
         id="stop3732-8"
         stop-color="#747474"
         offset="1" />
    </radialGradient>
    <linearGradient
       y2="35.689548"
       y1="36.689548"
       x2="48.25"
       x1="41.25"
       id="linearGradient2258-6-5"
       gradientUnits="userSpaceOnUse">
      <stop
         id="stop3718-0"
         stop-color="#c6c6c6"
         offset="0" />
      <stop
         id="stop3720-3"
         stop-opacity="0"
         stop-color="#c6c6c6"
         offset="1" />
    </linearGradient>
    <radialGradient
       r="10.98921"
       id="radialGradient2351-9"
       gradientUnits="userSpaceOnUse"
       gradientTransform="matrix(1.49192,-0.08445108,-0.05874412,3.98672,-9.6468,-20.27595)"
       cy="6.6440701"
       cx="19.557501">
      <stop
         id="stop3735-9"
         stop-color="#d5d5d5"
         offset="0" />
      <stop
         id="stop3737-8"
         stop-color="#a0a0a0"
         offset="1" />
    </radialGradient>
    <radialGradient
       xlink:href="#linearGradient2399"
       r="12.49403"
       id="radialGradient2343-4"
       gradientUnits="userSpaceOnUse"
       gradientTransform="matrix(2.53075,0,0,2.29601,-31.03641,-6.69986)"
       cy="5.7119699"
       cx="20.27528" />
    <radialGradient
       r="2.2697401"
       id="radialGradient2413-4"
       gradientUnits="userSpaceOnUse"
       gradientTransform="matrix(0.43533,0,0,0.43533,18.91658,12.49341)"
       cy="20.53817"
       cx="33.5">
      <stop
         id="stop3740-6"
         stop-color="#d5d5d5"
         offset="0" />
      <stop
         id="stop3742-2"
         stop-color="#747474"
         offset="1" />
    </radialGradient>
    <linearGradient
       y2="20.4375"
       y1="15.80366"
       xlink:href="#linearGradient2355"
       x2="33.96875"
       x1="25.160469"
       id="linearGradient2361-4"
       gradientUnits="userSpaceOnUse" />
    <linearGradient
       y2="43.420429"
       y1="49.11071"
       xlink:href="#linearGradient2399"
       x2="17.40238"
       x1="16.4375"
       id="linearGradient2405-0"
       gradientUnits="userSpaceOnUse" />
    <radialGradient
       cx="25.1875"
       cy="41"
       gradientTransform="matrix(1,0,0,0.42586,0,23.53992)"
       gradientUnits="userSpaceOnUse"
       id="radialGradient2248-4-2"
       r="16.4375"
       xlink:href="#linearGradient2355" />
    <radialGradient
       cx="15.4375"
       cy="42.090431"
       gradientTransform="matrix(1,0,0,0.52514,0,22.02165)"
       gradientUnits="userSpaceOnUse"
       id="radialGradient2238-6-0"
       r="11.1875">
      <stop
         offset="0"
         stop-color="#b0b0b0"
         id="stop3730-8-8" />
      <stop
         offset="1"
         stop-color="#747474"
         id="stop3732-8-1" />
    </radialGradient>
    <radialGradient
       cx="19.557501"
       cy="6.6440701"
       gradientTransform="matrix(1.49192,-0.08445108,-0.05874412,3.98672,-9.6468,-20.27595)"
       gradientUnits="userSpaceOnUse"
       id="radialGradient2351-9-4"
       r="10.98921">
      <stop
         offset="0"
         stop-color="#d5d5d5"
         id="stop3735-9-3" />
      <stop
         offset="1"
         stop-color="#a0a0a0"
         id="stop3737-8-6" />
    </radialGradient>
    <radialGradient
       cx="20.27528"
       cy="5.7119699"
       gradientTransform="matrix(2.53075,0,0,2.29601,-31.03641,-6.69986)"
       gradientUnits="userSpaceOnUse"
       id="radialGradient2343-4-9"
       r="12.49403"
       xlink:href="#linearGradient2399" />
    <radialGradient
       cx="33.5"
       cy="20.53817"
       gradientTransform="matrix(0.43533,0,0,0.43533,18.91658,12.49341)"
       gradientUnits="userSpaceOnUse"
       id="radialGradient2413-4-3"
       r="2.2697401">
      <stop
         offset="0"
         stop-color="#d5d5d5"
         id="stop3740-6-3" />
      <stop
         offset="1"
         stop-color="#747474"
         id="stop3742-2-3" />
    </radialGradient>
    <linearGradient
       gradientUnits="userSpaceOnUse"
       id="linearGradient7219"
       x1="16.4375"
       x2="17.40238"
       xlink:href="#linearGradient2399"
       y1="49.11071"
       y2="43.420429" />
    <linearGradient
       inkscape:collect="always"
       xlink:href="#linearGradient4671"
       id="linearGradient1475"
       gradientUnits="userSpaceOnUse"
       gradientTransform="matrix(0.562541,0,0,0.567972,301.94071,459.02523)"
       x1="150.96111"
       y1="192.35176"
       x2="112.03144"
       y2="137.27299" />
    <linearGradient
       inkscape:collect="always"
       xlink:href="#linearGradient4689"
       id="linearGradient1478"
       gradientUnits="userSpaceOnUse"
       gradientTransform="matrix(0.562541,0,0,0.567972,301.0102,459.02523)"
       x1="26.648937"
       y1="20.603781"
       x2="135.66525"
       y2="114.39767" />
    <radialGradient
       cx="25.1875"
       cy="41"
       gradientTransform="matrix(1,0,0,0.42586,0,23.53992)"
       gradientUnits="userSpaceOnUse"
       id="radialGradient2248-6"
       r="16.4375"
       xlink:href="#linearGradient2355" />
    <radialGradient
       cx="15.4375"
       cy="42.090431"
       gradientTransform="matrix(1,0,0,0.52514,0,22.02165)"
       gradientUnits="userSpaceOnUse"
       id="radialGradient2238-3"
       r="11.1875">
      <stop
         offset="0"
         stop-color="#b0b0b0"
         id="stop3730-0" />
      <stop
         offset="1"
         stop-color="#747474"
         id="stop3732-5" />
    </radialGradient>
    <radialGradient
       cx="19.557501"
       cy="6.6440701"
       gradientTransform="matrix(1.49192,-0.08445108,-0.05874412,3.98672,-9.6468,-20.27595)"
       gradientUnits="userSpaceOnUse"
       id="radialGradient2351-5"
       r="10.98921">
      <stop
         offset="0"
         stop-color="#d5d5d5"
         id="stop3735-1" />
      <stop
         offset="1"
         stop-color="#a0a0a0"
         id="stop3737-4" />
    </radialGradient>
    <radialGradient
       cx="20.27528"
       cy="5.7119699"
       gradientTransform="matrix(2.53075,0,0,2.29601,-31.03641,-6.69986)"
       gradientUnits="userSpaceOnUse"
       id="radialGradient2343-6"
       r="12.49403"
       xlink:href="#linearGradient2399" />
    <radialGradient
       cx="33.5"
       cy="20.53817"
       gradientTransform="matrix(0.43533,0,0,0.43533,18.91658,12.49341)"
       gradientUnits="userSpaceOnUse"
       id="radialGradient2413-5"
       r="2.2697401">
      <stop
         offset="0"
         stop-color="#d5d5d5"
         id="stop3740-4" />
      <stop
         offset="1"
         stop-color="#747474"
         id="stop3742-0" />
    </radialGradient>
  </defs>
  <sodipodi:namedview
     id="base"
     pagecolor="#ffffff"
     bordercolor="#666666"
     borderopacity="1.0"
     inkscape:pageopacity="0.0"
     inkscape:pageshadow="2"
     inkscape:zoom="2.8284271"
     inkscape:cx="67.509984"
     inkscape:cy="100.13308"
     inkscape:document-units="px"
     inkscape:current-layer="layer1"
     showgrid="false"
     inkscape:window-width="1920"
     inkscape:window-height="1023"
     inkscape:window-x="0"
     inkscape:window-y="0"
     inkscape:window-maximized="1"
     units="in" />
  <metadata
     id="metadata7">
    <rdf:RDF>
      <cc:Work
         rdf:about="">
        <dc:format>image/svg+xml</dc:format>
        <dc:type
           rdf:resource="http://purl.org/dc/dcmitype/StillImage" />
        <dc:title></dc:title>
      </cc:Work>
    </rdf:RDF>
  </metadata>
  <g
     inkscape:groupmode="layer"
     id="layer2"
     inkscape:label="Layer 2"
     transform="translate(0,-843.56222)" />
  <g
     inkscape:label="Layer 1"
     inkscape:groupmode="layer"
     id="layer1"
     transform="translate(0,-843.56222)">
    <rect
       style="fill:#ffffff;fill-opacity:1;stroke:#666666;stroke-width:0;stroke-linecap:butt;stroke-linejoin:miter;stroke-miterlimit:4;stroke-dasharray:none;stroke-opacity:0.23391813"
       id="rect4671"
       width="287.15613"
       height="184.55612"
       x="12.121943"
       y="855.68414"
       inkscape:transform-center-x="-0.25335854"
       inkscape:transform-center-y="7.7244621" />
    <g
       id="g7251"
       transform="translate(4.9933963e-5,1.1667462e-6)">
      <g
         transform="scale(1.0000194,0.99998061)"
         style="font-style:normal;font-variant:normal;font-weight:normal;font-stretch:normal;font-size:13.58573437px;line-height:100%;font-family:'Source Code Pro';-inkscape-font-specification:'Source Code Pro, Normal';text-align:start;letter-spacing:0px;word-spacing:0px;writing-mode:lr-tb;text-anchor:start;fill:#000000;fill-opacity:1;stroke:none;stroke-width:1px;stroke-linecap:butt;stroke-linejoin:miter;stroke-opacity:1"
         id="text4610">
        <path
           d="m 91.625682,982.78143 1.127616,0 0,-3.53229 1.562359,0 c 1.956346,0 3.301334,-0.88307 3.301334,-2.7579 0,-1.95635 -1.331402,-2.62205 -3.301334,-2.62205 l -2.689975,0 0,8.91224 z m 1.127616,-4.45612 0,-3.54587 1.426502,0 c 1.535188,0 2.295989,0.42115 2.295989,1.7118 0,1.26347 -0.73363,1.83407 -2.295989,1.83407 l -1.426502,0 z"
           style=""
           id="path9138" />
        <path
           d="m 102.46179,982.94446 c 1.73897,0 3.26058,-1.26347 3.26058,-3.45077 0,-2.21448 -1.52161,-3.47795 -3.26058,-3.47795 -1.73897,0 -3.260576,1.26347 -3.260576,3.47795 0,2.1873 1.521606,3.45077 3.260576,3.45077 z m 0,-0.92383 c -1.26347,0 -2.10579,-1.01893 -2.10579,-2.52694 0,-1.52161 0.84232,-2.55412 2.10579,-2.55412 1.26347,0 2.10579,1.03251 2.10579,2.55412 0,1.50801 -0.84232,2.52694 -2.10579,2.52694 z"
           style=""
           id="path9140" />
        <path
           d="m 110.21394,982.94446 c 0.81514,0 1.60311,-0.4755 2.14654,-1.03251 l 0.0408,0 0.0951,0.86948 0.92383,0 0,-9.67304 -1.11403,0 0,2.54053 0.0543,1.22272 -0.0407,0 c -0.5706,-0.54343 -1.18196,-0.8559 -1.96993,-0.8559 -1.56236,0 -3.00245,1.3314 -3.00245,3.47795 0,2.20088 1.1412,3.45077 2.86659,3.45077 z m 0.23096,-0.93741 c -1.22272,0 -1.94276,-0.95101 -1.94276,-2.52695 0,-1.50802 0.92383,-2.52695 2.06503,-2.52695 0.5706,0 1.1412,0.21737 1.73897,0.77439 l 0,3.28775 c -0.58419,0.65211 -1.20913,0.99176 -1.86124,0.99176 z"
           style=""
           id="path9142" />
        <path
           d="m 119.379,982.94446 c 0.97817,0 1.88842,-0.3804 2.62205,-1.03251 l -0.50267,-0.72005 c -0.54343,0.46192 -1.22272,0.82873 -2.03786,0.82873 -1.52161,0 -2.54054,-1.01893 -2.54054,-2.52694 0,-1.52161 1.0461,-2.55412 2.56771,-2.55412 0.69287,0 1.26347,0.2853 1.8069,0.7608 l 0.55701,-0.72005 c -0.54342,-0.52984 -1.3314,-0.96458 -2.40467,-0.96458 -1.9971,0 -3.68173,1.26347 -3.68173,3.47795 0,2.1873 1.54877,3.45077 3.6138,3.45077 z"
           style=""
           id="path9144" />
        <path
           d="m 126.16656,982.94446 c 0.93742,0 1.87483,-0.48908 2.60846,-1.05969 l 0.0408,0 0.0951,0.89666 0.91024,0 0,-4.04855 c 0,-1.64387 -0.86948,-2.71714 -2.67639,-2.71714 -1.15478,0 -2.26881,0.51626 -2.93451,0.951 l 0.43474,0.7608 c 0.61136,-0.3804 1.45367,-0.78797 2.30957,-0.78797 1.27706,0 1.72539,0.7608 1.75256,1.65746 -3.41002,0.27171 -4.78217,0.99176 -4.78217,2.4726 0,1.18196 1.00534,1.87483 2.24164,1.87483 z m 0.29889,-0.89666 c -0.7608,0 -1.45368,-0.31247 -1.45368,-1.05968 0,-0.86949 0.86949,-1.42651 3.69532,-1.65746 l 0,1.73897 c -0.74721,0.62494 -1.49443,0.97817 -2.24164,0.97817 z"
           style=""
           id="path9146" />
        <path
           d="m 135.18218,982.94446 c 1.88842,0 2.93452,-0.89666 2.93452,-1.96993 0,-1.00534 -0.52984,-1.56236 -2.73073,-2.03786 -1.34499,-0.2853 -1.91559,-0.52984 -1.91559,-1.10044 0,-0.50268 0.39399,-0.95101 1.5216,-0.95101 0.84232,0 1.60312,0.27172 2.21448,0.69288 l 0.54343,-0.72005 c -0.65212,-0.44833 -1.65746,-0.84231 -2.66281,-0.84231 -1.8069,0 -2.74432,0.81514 -2.74432,1.87483 0,0.99176 0.86949,1.57594 2.58129,1.92917 1.79332,0.36682 2.06503,0.72005 2.06503,1.22272 0,0.55701 -0.55701,1.03251 -1.67104,1.03251 -1.22272,0 -2.10579,-0.35322 -2.86659,-0.89665 l -0.51626,0.73363 c 0.80156,0.55701 1.95635,1.03251 3.24699,1.03251 z"
           style=""
           id="path9148" />
        <path
           d="m 144.46952,982.94446 c 0.82873,0 1.46726,-0.17661 2.06503,-0.39398 l -0.24454,-0.81515 c -0.47551,0.17662 -0.96459,0.29889 -1.58954,0.29889 -1.27705,0 -1.67104,-0.62495 -1.67104,-1.8069 l 0,-3.13831 3.24699,0 0,-0.91024 -3.24699,0 0,-2.11938 -0.92383,0 -0.14944,2.11938 -1.90201,0.0679 0,0.84232 1.86125,0 0,3.12472 c 0,1.63029 0.62494,2.73073 2.55412,2.73073 z"
           style=""
           id="path9150" />
        <path
           d="m 151.33859,982.94446 c 0.61136,0 1.10045,-0.46191 1.10045,-1.1412 0,-0.69287 -0.48909,-1.15479 -1.10045,-1.15479 -0.61136,0 -1.10044,0.46192 -1.10044,1.15479 0,0.67929 0.48908,1.1412 1.10044,1.1412 z"
           style=""
           id="path9152" />
        <path
           d="m 156.22415,984.68344 6.52115,0 0,-0.96459 -6.52115,0 0,0.96459 z"
           style=""
           id="path9154" />
        <path
           d="m 164.37028,984.68344 6.52115,0 0,-0.96459 -6.52115,0 0,0.96459 z"
           style=""
           id="path9156" />
        <path
           d="m 175.99436,982.78143 1.11403,0 0,-6.60266 -4.1844,0 0,0.91024 3.07037,0 0,5.69242 z m 0.43475,-7.98841 c 0.50267,0 0.89666,-0.33964 0.89666,-0.86949 0,-0.51625 -0.39399,-0.86948 -0.89666,-0.86948 -0.50268,0 -0.89666,0.35323 -0.89666,0.86948 0,0.52985 0.39398,0.86949 0.89666,0.86949 z"
           style=""
           id="path9158" />
        <path
           d="m 181.11088,982.78143 1.11403,0 0,-4.60556 c 0.77438,-0.80156 1.30423,-1.19555 2.0922,-1.19555 1.08686,0 1.5216,0.59778 1.5216,1.84766 l 0,3.95345 1.11403,0 0,-4.10289 c 0,-1.73897 -0.72004,-2.6628 -2.2824,-2.6628 -1.03252,0 -1.79332,0.55701 -2.48619,1.29064 l -0.0543,0 -0.0951,-1.12761 -0.92383,0 0,6.60266 z"
           style=""
           id="path9160" />
        <path
           d="m 192.28663,982.78143 1.11403,0 0,-6.60266 -4.18441,0 0,0.91024 3.07038,0 0,5.69242 z m 0.43474,-7.98841 c 0.50268,0 0.89666,-0.33964 0.89666,-0.86949 0,-0.51625 -0.39398,-0.86948 -0.89666,-0.86948 -0.50267,0 -0.89666,0.35323 -0.89666,0.86948 0,0.52985 0.39399,0.86949 0.89666,0.86949 z"
           style=""
           id="path9162" />
        <path
           d="m 201.49245,982.94446 c 0.82873,0 1.46726,-0.17661 2.06503,-0.39398 l -0.24454,-0.81515 c -0.4755,0.17662 -0.96459,0.29889 -1.58953,0.29889 -1.27706,0 -1.67105,-0.62495 -1.67105,-1.8069 l 0,-3.13831 3.24699,0 0,-0.91024 -3.24699,0 0,-2.11938 -0.92383,0 -0.14944,2.11938 -1.902,0.0679 0,0.84232 1.86124,0 0,3.12472 c 0,1.63029 0.62495,2.73073 2.55412,2.73073 z"
           style=""
           id="path9164" />
        <path
           d="m 205.10095,984.68344 6.52115,0 0,-0.96459 -6.52115,0 0,0.96459 z"
           style=""
           id="path9166" />
        <path
           d="m 213.24708,984.68344 6.52115,0 0,-0.96459 -6.52115,0 0,0.96459 z"
           style=""
           id="path9168" />
      </g>
      <g
         transform="matrix(1.0462,0,0,1.0462,-9.0765202,-58.54307)"
         style="font-style:normal;font-variant:normal;font-weight:normal;font-stretch:normal;font-size:7.75564909px;line-height:125%;font-family:Inconsolata;-inkscape-font-specification:Inconsolata;text-align:center;letter-spacing:0px;word-spacing:0px;text-anchor:middle;fill:#306998;fill-opacity:1;stroke:none;stroke-width:1px;stroke-linecap:butt;stroke-linejoin:miter;stroke-opacity:1"
         id="flowRoot4634">
        <path
           d="m 48.061293,1004.2827 3.35044,0 0,0.4886 -1.427039,0 0,4.3509 -0.550651,0 0,-4.3509 -1.37275,0 0,-0.4886 z"
           style="font-style:normal;font-variant:normal;font-weight:normal;font-stretch:normal;font-size:7.75564909px;font-family:Inconsolata;-inkscape-font-specification:Inconsolata;text-align:center;text-anchor:middle;fill:#306998;fill-opacity:1"
           id="path9171" />
        <path
           d="m 52.241588,1009.1222 0,-5.1575 0.643719,0 q 0,0.01 0,0.01 0.0078,0 0.0078,0.01 0,0.023 -0.03878,0.07 -0.03102,0.039 -0.04653,0.1009 l 0,2.0552 q 0.209403,-0.3257 0.519629,-0.5196 0.317981,-0.1939 0.643718,-0.1939 0.240426,0 0.434317,0.085 0.201647,0.078 0.349004,0.2559 0.147357,0.1784 0.224914,0.4576 0.07756,0.2792 0.07756,0.6825 l 0,2.1483 -0.550651,0 0,-2.1328 q 0,-0.5584 -0.193891,-0.7833 -0.186136,-0.2249 -0.457583,-0.2249 -0.17838,0 -0.35676,0.078 -0.17838,0.078 -0.349004,0.2172 -0.162869,0.1396 -0.255937,0.3413 -0.08531,0.2016 -0.08531,0.4653 l 0,2.0397 -0.566162,0 z"
           style="font-style:normal;font-variant:normal;font-weight:normal;font-stretch:normal;font-size:7.75564909px;font-family:Inconsolata;-inkscape-font-specification:Inconsolata;text-align:center;text-anchor:middle;fill:#306998;fill-opacity:1"
           id="path9173" />
        <path
           d="m 57.58523,1005.4926 q 0.279203,0 0.542895,0.1008 0.263692,0.1008 0.457584,0.3102 0.201646,0.2017 0.317981,0.5197 0.124091,0.3179 0.124091,0.7523 0,0.062 -0.0078,0.1318 0,0.062 -0.0078,0.1241 l -2.520586,0 q 0.01551,0.3723 0.124091,0.6282 0.116334,0.2482 0.286959,0.4033 0.170624,0.1551 0.380027,0.2249 0.209402,0.062 0.418805,0.062 0.550651,0 0.915166,-0.3956 l 0.310226,0.3025 q -0.449827,0.5429 -1.240904,0.5429 -0.387782,0 -0.713519,-0.1163 -0.317982,-0.1241 -0.542896,-0.3568 -0.224914,-0.2327 -0.349004,-0.5739 -0.12409,-0.349 -0.12409,-0.7911 0,-0.4498 0.12409,-0.7988 0.131846,-0.349 0.349004,-0.5817 0.224914,-0.2404 0.519629,-0.3645 0.294714,-0.1241 0.635963,-0.1241 z m -1.07028,1.5046 1.946668,0 q 0,-0.031 0,-0.054 0.0078,-0.031 0.0078,-0.07 0,-0.1939 -0.07756,-0.3645 -0.0698,-0.1784 -0.193891,-0.3025 -0.12409,-0.1318 -0.294715,-0.2094 -0.162868,-0.078 -0.356759,-0.078 -0.364516,0 -0.659231,0.2637 -0.294714,0.256 -0.372271,0.8144 z"
           style="font-style:normal;font-variant:normal;font-weight:normal;font-stretch:normal;font-size:7.75564909px;font-family:Inconsolata;-inkscape-font-specification:Inconsolata;text-align:center;text-anchor:middle;fill:#306998;fill-opacity:1"
           id="path9175" />
        <path
           d="m 63.789749,1004.2905 1.55113,0 q 0.403294,0 0.682497,0.1085 0.286959,0.1009 0.465339,0.2948 0.186136,0.1861 0.271448,0.4343 0.09307,0.2482 0.108579,0.5274 -0.01551,0.2792 -0.108579,0.5273 -0.08531,0.2405 -0.263692,0.4188 -0.170625,0.1784 -0.449828,0.287 -0.271448,0.1008 -0.666986,0.1008 l -1.031501,0 0,2.1328 -0.558407,0 0,-4.8317 z m 0.558407,0.5118 0,1.7063 0.969456,0 q 0.527384,0 0.744542,-0.2249 0.224914,-0.2327 0.248181,-0.6127 -0.01551,-0.1784 -0.07756,-0.3335 -0.05429,-0.1629 -0.170625,-0.2792 -0.116334,-0.1164 -0.30247,-0.1862 -0.17838,-0.07 -0.434316,-0.07 l -0.977212,0 z"
           style="font-style:normal;font-variant:normal;font-weight:normal;font-stretch:normal;font-size:7.75564909px;font-family:Inconsolata;-inkscape-font-specification:Inconsolata;text-align:center;text-anchor:middle;fill:#306998;fill-opacity:1"
           id="path9177" />
        <path
           d="m 69.179925,1005.5003 q 0.325737,0 0.612696,0.1319 0.294714,0.1241 0.511873,0.3645 0.217158,0.2404 0.341248,0.5894 0.131846,0.3413 0.131846,0.7678 0,0.4344 -0.12409,0.7756 -0.124091,0.3413 -0.341249,0.5894 -0.217158,0.2405 -0.511873,0.3723 -0.294714,0.1241 -0.628207,0.1241 -0.341249,0 -0.643719,-0.1396 -0.294715,-0.1396 -0.519628,-0.38 -0.224914,-0.2482 -0.35676,-0.5895 -0.131846,-0.3412 -0.131846,-0.7367 0,-0.3956 0.131846,-0.7446 0.139601,-0.349 0.364515,-0.5894 0.23267,-0.2482 0.53514,-0.3878 0.30247,-0.1474 0.628208,-0.1474 z m 1.039257,1.8692 q 0,-0.3335 -0.09307,-0.5895 -0.08531,-0.2637 -0.23267,-0.442 -0.147357,-0.1784 -0.341248,-0.2715 -0.186136,-0.093 -0.395538,-0.093 -0.209403,0 -0.403294,0.093 -0.186136,0.093 -0.333493,0.2715 -0.139602,0.1783 -0.224914,0.4343 -0.08531,0.2481 -0.08531,0.5661 0,0.3103 0.08531,0.5662 0.08531,0.2559 0.224914,0.4421 0.147357,0.1861 0.341248,0.2869 0.193892,0.1008 0.41105,0.1008 0.217158,0 0.403294,-0.085 0.193891,-0.093 0.333493,-0.2637 0.147357,-0.1783 0.224913,-0.4343 0.08531,-0.2559 0.08531,-0.5816 z"
           style="font-style:normal;font-variant:normal;font-weight:normal;font-stretch:normal;font-size:7.75564909px;font-family:Inconsolata;-inkscape-font-specification:Inconsolata;text-align:center;text-anchor:middle;fill:#306998;fill-opacity:1"
           id="path9179" />
        <path
           d="m 73.96516,1006.0975 0,-2.1328 0.597185,0 q 0,0.047 -0.03878,0.1086 -0.03878,0.054 -0.03878,0.1086 l 0.0078,4.6146 q 0,0.1861 0.03878,0.3257 l -0.558407,0 q -0.03102,-0.093 -0.03102,-0.2637 l 0,-0.3024 q -0.170624,0.2947 -0.465339,0.4731 -0.294714,0.1706 -0.597185,0.1706 -0.294714,0 -0.558406,-0.1163 -0.255937,-0.1164 -0.457584,-0.3491 -0.193891,-0.2326 -0.310226,-0.5816 -0.116334,-0.3568 -0.116334,-0.8376 0,-0.4886 0.131846,-0.8299 0.131846,-0.349 0.341248,-0.5662 0.217158,-0.2249 0.48085,-0.3257 0.263693,-0.1086 0.53514,-0.1086 0.372271,0 0.635964,0.1707 0.271447,0.1628 0.403293,0.442 z m -1.651953,0.1086 q -0.333493,0.3025 -0.333493,1.0238 0,0.6669 0.255937,1.078 0.255936,0.4033 0.752297,0.4033 0.116335,0 0.248181,-0.039 0.131846,-0.047 0.248181,-0.1318 0.116335,-0.085 0.209403,-0.2017 0.09307,-0.1163 0.139601,-0.2637 0.08531,-0.2792 0.08531,-0.7445 0,-0.2947 -0.02327,-0.4886 -0.02327,-0.2017 -0.07756,-0.3413 -0.04653,-0.1396 -0.12409,-0.2249 -0.07756,-0.093 -0.193892,-0.1629 -0.139601,-0.085 -0.263692,-0.1241 -0.116334,-0.046 -0.224914,-0.046 -0.224913,0 -0.387782,0.062 -0.155113,0.062 -0.310226,0.2016 z"
           style="font-style:normal;font-variant:normal;font-weight:normal;font-stretch:normal;font-size:7.75564909px;font-family:Inconsolata;-inkscape-font-specification:Inconsolata;text-align:center;text-anchor:middle;fill:#306998;fill-opacity:1"
           id="path9181" />
        <path
           d="m 78.509971,1006.1673 -0.395538,0.4576 q -0.03878,-0.023 -0.03878,-0.047 0.0078,-0.031 -0.0078,-0.078 -0.0078,-0.047 -0.05429,-0.1163 -0.04653,-0.07 -0.186135,-0.1862 -0.263692,-0.2171 -0.721276,-0.2171 -0.224913,0 -0.434316,0.093 -0.201647,0.093 -0.35676,0.2714 -0.155113,0.1706 -0.248181,0.4188 -0.09307,0.2404 -0.09307,0.5429 0,0.3025 0.09307,0.5584 0.09307,0.256 0.255937,0.4421 0.162868,0.1861 0.387782,0.2947 0.224914,0.1008 0.496362,0.1008 0.53514,0 0.922922,-0.4343 l 0.325737,0.38 q -0.527384,0.5584 -1.295193,0.5584 -0.380027,0 -0.705764,-0.1396 -0.317982,-0.1396 -0.558407,-0.3877 -0.232669,-0.2482 -0.364515,-0.5817 -0.131846,-0.3413 -0.131846,-0.7446 0,-0.3955 0.131846,-0.7367 0.131846,-0.3413 0.364515,-0.5817 0.240425,-0.2482 0.566163,-0.3878 0.333492,-0.1396 0.721275,-0.1396 0.418805,0 0.760053,0.1784 0.349005,0.1706 0.566163,0.4808 z"
           style="font-style:normal;font-variant:normal;font-weight:normal;font-stretch:normal;font-size:7.75564909px;font-family:Inconsolata;-inkscape-font-specification:Inconsolata;text-align:center;text-anchor:middle;fill:#306998;fill-opacity:1"
           id="path9183" />
        <path
           d="m 79.549228,1005.9967 q 0.473095,-0.4964 1.264171,-0.4964 0.651474,0 1.023746,0.3335 0.380026,0.3258 0.380026,1.0936 l 0,2.1948 -0.527384,0 0,-0.3878 q -0.566162,0.4731 -1.271926,0.4731 -0.279204,0 -0.504117,-0.085 -0.217159,-0.085 -0.372272,-0.2249 -0.155113,-0.1396 -0.240425,-0.318 -0.07756,-0.1783 -0.07756,-0.3567 0,-0.5352 0.457583,-0.8454 0.465339,-0.3102 1.333972,-0.3412 l 0.666986,0 0,-0.1319 q 0,-0.5274 -0.224914,-0.7368 -0.217158,-0.2094 -0.682497,-0.2094 -0.573918,0 -0.953945,0.3956 l -0.271448,-0.3568 z m 2.156071,1.4658 -0.131847,0 q -0.108579,0 -0.209402,0 -0.09307,-0.01 -0.186136,-0.01 -0.42656,0 -0.698008,0.062 -0.271448,0.054 -0.426561,0.1551 -0.155113,0.1008 -0.217158,0.2327 -0.05429,0.1241 -0.05429,0.2714 0,0.2482 0.217158,0.4266 0.217158,0.1784 0.53514,0.1784 0.232669,0 0.418805,-0.07 0.186135,-0.078 0.325737,-0.1784 0.139602,-0.1086 0.224914,-0.2172 0.08531,-0.1163 0.12409,-0.2016 0.07756,-0.1551 0.07756,-0.4188 l 0,-0.2327 z"
           style="font-style:normal;font-variant:normal;font-weight:normal;font-stretch:normal;font-size:7.75564909px;font-family:Inconsolata;-inkscape-font-specification:Inconsolata;text-align:center;text-anchor:middle;fill:#306998;fill-opacity:1"
           id="path9185" />
        <path
           d="m 86.071729,1006.051 -0.325737,0.4886 q -0.03878,-0.01 -0.03878,-0.062 0,-0.054 -0.01551,-0.078 -0.139601,-0.1784 -0.395538,-0.3257 -0.255936,-0.1552 -0.581673,-0.1552 -0.147358,0 -0.286959,0.039 -0.131846,0.031 -0.240426,0.093 -0.100823,0.062 -0.162868,0.1629 -0.06204,0.093 -0.06204,0.2171 0,0.093 0.04653,0.1706 0.04653,0.07 0.147357,0.1396 0.100823,0.07 0.279203,0.1396 0.186136,0.07 0.48085,0.1552 0.666986,0.1783 0.938434,0.4265 0.279203,0.2404 0.279203,0.5972 0,0.2327 -0.100823,0.4421 -0.100823,0.2094 -0.294715,0.3645 -0.193891,0.1551 -0.465339,0.2482 -0.271447,0.085 -0.612696,0.085 -0.8919,0 -1.49684,-0.5584 l 0.317981,-0.5584 q 0.02327,0.023 0.03102,0.077 0.0078,0.047 0.05429,0.1164 0.04653,0.07 0.170624,0.1628 0.12409,0.085 0.380027,0.1939 0.116334,0.054 0.263692,0.078 0.147357,0.023 0.294714,0.023 0.155113,0 0.310226,-0.039 0.162869,-0.039 0.286959,-0.1086 0.131846,-0.078 0.209403,-0.1784 0.07756,-0.1086 0.07756,-0.2404 0,-0.2017 -0.186135,-0.3413 -0.186136,-0.1396 -0.682497,-0.2869 -0.341249,-0.1008 -0.449828,-0.1396 -0.279203,-0.1086 -0.403294,-0.1862 -0.12409,-0.085 -0.224914,-0.1939 -0.100823,-0.1163 -0.162868,-0.2559 -0.06205,-0.1473 -0.06205,-0.318 0,-0.1861 0.100823,-0.3567 0.100823,-0.1707 0.279203,-0.3025 0.186136,-0.1318 0.434317,-0.2094 0.255936,-0.085 0.550651,-0.085 0.814343,0 1.31846,0.5584 z"
           style="font-style:normal;font-variant:normal;font-weight:normal;font-stretch:normal;font-size:7.75564909px;font-family:Inconsolata;-inkscape-font-specification:Inconsolata;text-align:center;text-anchor:middle;fill:#306998;fill-opacity:1"
           id="path9187" />
        <path
           d="m 88.057174,1004.6317 0.612696,-0.1008 q 0,0.07 -0.02327,0.1241 -0.01551,0.054 -0.02327,0.085 l -0.09307,0.8376 1.163348,0 0,0.4576 -1.163348,0 q -0.0698,0.6902 -0.0698,1.2952 0,0.3722 0.01551,0.6282 0.01551,0.2559 0.07756,0.4033 0.0698,0.1473 0.193891,0.2326 0.124091,0.078 0.333493,0.078 0.35676,0 0.791077,-0.318 l 0.170624,0.4421 q -0.53514,0.3955 -1.101302,0.3955 -0.558407,0 -0.814343,-0.3335 -0.255937,-0.3412 -0.23267,-1.1013 0,-0.2792 0.01551,-0.7135 0.01551,-0.4343 0.06205,-1.0082 l -0.829855,0 0,-0.4576 0.853122,0 0.06204,-0.9462 z"
           style="font-style:normal;font-variant:normal;font-weight:normal;font-stretch:normal;font-size:7.75564909px;font-family:Inconsolata;-inkscape-font-specification:Inconsolata;text-align:center;text-anchor:middle;fill:#306998;fill-opacity:1"
           id="path9189" />
        <path
           d="m 94.471096,1009.1222 1.706243,-4.9171 0.06204,0 1.861356,4.9171 -0.558407,0 -0.53514,-1.4115 -1.535618,0 -0.465339,1.4115 -0.53514,0 z m 2.412007,-1.8303 -0.682497,-1.8458 -0.620452,1.8458 1.302949,0 z"
           style="font-style:normal;font-variant:normal;font-weight:normal;font-stretch:normal;font-size:7.75564909px;font-family:Inconsolata;-inkscape-font-specification:Inconsolata;text-align:center;text-anchor:middle;fill:#306998;fill-opacity:1"
           id="path9191" />
        <path
           d="m 98.697927,1003.9647 0.651474,0 0,0.015 q 0,0.039 -0.04653,0.078 -0.03878,0.031 -0.03878,0.077 l 0,1.9855 q 0.170625,-0.287 0.457584,-0.4576 0.294717,-0.1706 0.597187,-0.1706 0.29471,0 0.5584,0.1163 0.2637,0.1086 0.46534,0.3413 0.20165,0.2249 0.31798,0.5661 0.11634,0.3413 0.11634,0.7989 0,0.4808 -0.13185,0.8376 -0.12409,0.349 -0.33349,0.5894 -0.2094,0.2327 -0.47309,0.349 -0.2637,0.1163 -0.5429,0.1163 -0.325737,0 -0.597184,-0.1473 -0.271448,-0.1474 -0.449828,-0.4033 l -0.193891,0.4653 -0.35676,0 0,-5.1575 z m 0.969456,4.6146 q 0.147357,0.078 0.263692,0.1086 0.116335,0.023 0.217155,0.023 0.15512,0 0.34125,-0.054 0.18614,-0.062 0.34125,-0.2094 0.16287,-0.1474 0.26369,-0.3956 0.10858,-0.2481 0.10858,-0.6282 0,-0.7057 -0.28696,-1.078 -0.28696,-0.3723 -0.82985,-0.3723 -0.193893,0 -0.411051,0.1396 -0.217159,0.1396 -0.317982,0.3723 -0.09307,0.2327 -0.09307,0.7601 0,0.3257 0.01551,0.5506 0.01551,0.2249 0.06204,0.38 0.04653,0.1474 0.12409,0.2405 0.07756,0.093 0.201647,0.1628 z"
           style="font-style:normal;font-variant:normal;font-weight:normal;font-stretch:normal;font-size:7.75564909px;font-family:Inconsolata;-inkscape-font-specification:Inconsolata;text-align:center;text-anchor:middle;fill:#306998;fill-opacity:1"
           id="path9193" />
        <path
           d="m 104.08035,1005.5003 q 0.32573,0 0.61269,0.1319 0.29472,0.1241 0.51187,0.3645 0.21716,0.2404 0.34125,0.5894 0.13185,0.3413 0.13185,0.7678 0,0.4344 -0.12409,0.7756 -0.12409,0.3413 -0.34125,0.5894 -0.21716,0.2405 -0.51187,0.3723 -0.29472,0.1241 -0.62821,0.1241 -0.34125,0 -0.64372,-0.1396 -0.29471,-0.1396 -0.51963,-0.38 -0.22491,-0.2482 -0.35676,-0.5895 -0.13184,-0.3412 -0.13184,-0.7367 0,-0.3956 0.13184,-0.7446 0.1396,-0.349 0.36452,-0.5894 0.23267,-0.2482 0.53514,-0.3878 0.30247,-0.1474 0.62821,-0.1474 z m 1.03925,1.8692 q 0,-0.3335 -0.0931,-0.5895 -0.0853,-0.2637 -0.23266,-0.442 -0.14736,-0.1784 -0.34125,-0.2715 -0.18614,-0.093 -0.39554,-0.093 -0.2094,0 -0.4033,0.093 -0.18613,0.093 -0.33349,0.2715 -0.1396,0.1783 -0.22491,0.4343 -0.0853,0.2481 -0.0853,0.5661 0,0.3103 0.0853,0.5662 0.0853,0.2559 0.22491,0.4421 0.14736,0.1861 0.34125,0.2869 0.19389,0.1008 0.41105,0.1008 0.21716,0 0.40329,-0.085 0.1939,-0.093 0.3335,-0.2637 0.14735,-0.1783 0.22491,-0.4343 0.0853,-0.2559 0.0853,-0.5816 z"
           style="font-style:normal;font-variant:normal;font-weight:normal;font-stretch:normal;font-size:7.75564909px;font-family:Inconsolata;-inkscape-font-specification:Inconsolata;text-align:center;text-anchor:middle;fill:#306998;fill-opacity:1"
           id="path9195" />
        <path
           d="m 106.47684,1005.5779 0.55841,0 0,1.9777 q 0,0.3412 0.062,0.5739 0.062,0.2249 0.17062,0.3645 0.11633,0.1396 0.25594,0.2017 0.14735,0.062 0.31798,0.062 0.18613,-0.015 0.35676,-0.093 0.17062,-0.077 0.30247,-0.2171 0.1396,-0.1474 0.21716,-0.3723 0.0775,-0.2249 0.0775,-0.5429 l 0,-1.9544 0.56616,0 0,3.2263 q 0,0.1784 0.0388,0.318 l -0.58943,0 q -0.008,-0.054 -0.0155,-0.1163 -0.008,-0.07 0,-0.1551 l 0.008,-0.2715 q -0.17063,0.2947 -0.46534,0.4654 -0.28696,0.1628 -0.63596,0.1628 -0.27145,0 -0.48861,-0.093 -0.21716,-0.1009 -0.39554,-0.3025 -0.17062,-0.2016 -0.26369,-0.5119 -0.0853,-0.3102 -0.0853,-0.7445 l 0.008,-1.9777 z"
           style="font-style:normal;font-variant:normal;font-weight:normal;font-stretch:normal;font-size:7.75564909px;font-family:Inconsolata;-inkscape-font-specification:Inconsolata;text-align:center;text-anchor:middle;fill:#306998;fill-opacity:1"
           id="path9197" />
        <path
           d="m 111.32412,1004.6317 0.6127,-0.1008 q 0,0.07 -0.0233,0.1241 -0.0155,0.054 -0.0233,0.085 l -0.0931,0.8376 1.16334,0 0,0.4576 -1.16334,0 q -0.0698,0.6902 -0.0698,1.2952 0,0.3722 0.0155,0.6282 0.0155,0.2559 0.0776,0.4033 0.0698,0.1473 0.1939,0.2326 0.12409,0.078 0.33349,0.078 0.35676,0 0.79107,-0.318 l 0.17063,0.4421 q -0.53514,0.3955 -1.1013,0.3955 -0.55841,0 -0.81435,-0.3335 -0.25593,-0.3412 -0.23267,-1.1013 0,-0.2792 0.0155,-0.7135 0.0155,-0.4343 0.062,-1.0082 l -0.82985,0 0,-0.4576 0.85312,0 0.062,-0.9462 z"
           style="font-style:normal;font-variant:normal;font-weight:normal;font-stretch:normal;font-size:7.75564909px;font-family:Inconsolata;-inkscape-font-specification:Inconsolata;text-align:center;text-anchor:middle;fill:#306998;fill-opacity:1"
           id="path9199" />
        <path
           d="m 118.07929,1004.2905 1.55113,0 q 0.4033,0 0.6825,0.1085 0.28696,0.1009 0.46534,0.2948 0.18613,0.1861 0.27145,0.4343 0.0931,0.2482 0.10858,0.5274 -0.0155,0.2792 -0.10858,0.5273 -0.0853,0.2405 -0.2637,0.4188 -0.17062,0.1784 -0.44982,0.287 -0.27145,0.1008 -0.66699,0.1008 l -1.0315,0 0,2.1328 -0.55841,0 0,-4.8317 z m 0.55841,0.5118 0,1.7063 0.96946,0 q 0.52738,0 0.74454,-0.2249 0.22491,-0.2327 0.24818,-0.6127 -0.0155,-0.1784 -0.0776,-0.3335 -0.0543,-0.1629 -0.17062,-0.2792 -0.11634,-0.1164 -0.30247,-0.1862 -0.17838,-0.07 -0.43432,-0.07 l -0.97721,0 z"
           style="font-style:normal;font-variant:normal;font-weight:normal;font-stretch:normal;font-size:7.75564909px;font-family:Inconsolata;-inkscape-font-specification:Inconsolata;text-align:center;text-anchor:middle;fill:#306998;fill-opacity:1"
           id="path9201" />
        <path
           d="m 121.95712,1005.8261 -0.10083,-0.2482 0.69026,0 q 0,0.062 -0.0155,0.1086 -0.0155,0.039 -0.0155,0.077 0,0.031 0.0155,0.047 l 1.03926,2.6059 0.67474,-1.9002 q 0.10083,-0.2714 0.16287,-0.5041 0.062,-0.2404 0.10082,-0.4343 l 0.58168,0 q -0.0698,0.2016 -0.15511,0.4576 -0.0776,0.2559 -0.1939,0.5661 l -0.9617,2.5361 -0.14735,0.3878 q -0.18614,0.5197 -0.48085,0.7291 -0.28696,0.2171 -0.66699,0.2171 -0.50412,0 -0.81434,-0.3025 l 0.29471,-0.4963 q 0.0233,0.023 0.0388,0.07 0.0155,0.054 0.0233,0.07 0,0 0.031,0.031 0.031,0.039 0.0776,0.07 0.0543,0.039 0.13184,0.07 0.0776,0.031 0.17063,0.031 0.22491,0 0.39553,-0.1396 0.17838,-0.1396 0.34901,-0.5041 l 0.10858,-0.2637 -1.33397,-3.2806 z"
           style="font-style:normal;font-variant:normal;font-weight:normal;font-stretch:normal;font-size:7.75564909px;font-family:Inconsolata;-inkscape-font-specification:Inconsolata;text-align:center;text-anchor:middle;fill:#306998;fill-opacity:1"
           id="path9203" />
        <path
           d="m 126.83542,1004.6317 0.61269,-0.1008 q 0,0.07 -0.0233,0.1241 -0.0155,0.054 -0.0233,0.085 l -0.0931,0.8376 1.16335,0 0,0.4576 -1.16335,0 q -0.0698,0.6902 -0.0698,1.2952 0,0.3722 0.0155,0.6282 0.0155,0.2559 0.0776,0.4033 0.0698,0.1473 0.19389,0.2326 0.12409,0.078 0.33349,0.078 0.35676,0 0.79108,-0.318 l 0.17062,0.4421 q -0.53514,0.3955 -1.1013,0.3955 -0.55841,0 -0.81434,-0.3335 -0.25594,-0.3412 -0.23267,-1.1013 0,-0.2792 0.0155,-0.7135 0.0155,-0.4343 0.0621,-1.0082 l -0.82986,0 0,-0.4576 0.85312,0 0.062,-0.9462 z"
           style="font-style:normal;font-variant:normal;font-weight:normal;font-stretch:normal;font-size:7.75564909px;font-family:Inconsolata;-inkscape-font-specification:Inconsolata;text-align:center;text-anchor:middle;fill:#306998;fill-opacity:1"
           id="path9205" />
        <path
           d="m 129.79808,1009.1222 0,-5.1575 0.64372,0 q 0,0.01 0,0.01 0.008,0 0.008,0.01 0,0.023 -0.0388,0.07 -0.031,0.039 -0.0465,0.1009 l 0,2.0552 q 0.20941,-0.3257 0.51963,-0.5196 0.31798,-0.1939 0.64372,-0.1939 0.24043,0 0.43432,0.085 0.20164,0.078 0.349,0.2559 0.14736,0.1784 0.22492,0.4576 0.0776,0.2792 0.0776,0.6825 l 0,2.1483 -0.55065,0 0,-2.1328 q 0,-0.5584 -0.19389,-0.7833 -0.18614,-0.2249 -0.45758,-0.2249 -0.17838,0 -0.35676,0.078 -0.17838,0.078 -0.34901,0.2172 -0.16287,0.1396 -0.25593,0.3413 -0.0853,0.2016 -0.0853,0.4653 l 0,2.0397 -0.56616,0 z"
           style="font-style:normal;font-variant:normal;font-weight:normal;font-stretch:normal;font-size:7.75564909px;font-family:Inconsolata;-inkscape-font-specification:Inconsolata;text-align:center;text-anchor:middle;fill:#306998;fill-opacity:1"
           id="path9207" />
        <path
           d="m 135.10294,1005.5003 q 0.32574,0 0.6127,0.1319 0.29471,0.1241 0.51187,0.3645 0.21716,0.2404 0.34125,0.5894 0.13185,0.3413 0.13185,0.7678 0,0.4344 -0.12409,0.7756 -0.12409,0.3413 -0.34125,0.5894 -0.21716,0.2405 -0.51187,0.3723 -0.29472,0.1241 -0.62821,0.1241 -0.34125,0 -0.64372,-0.1396 -0.29472,-0.1396 -0.51963,-0.38 -0.22491,-0.2482 -0.35676,-0.5895 -0.13184,-0.3412 -0.13184,-0.7367 0,-0.3956 0.13184,-0.7446 0.1396,-0.349 0.36452,-0.5894 0.23267,-0.2482 0.53514,-0.3878 0.30247,-0.1474 0.6282,-0.1474 z m 1.03926,1.8692 q 0,-0.3335 -0.0931,-0.5895 -0.0853,-0.2637 -0.23267,-0.442 -0.14735,-0.1784 -0.34124,-0.2715 -0.18614,-0.093 -0.39554,-0.093 -0.20941,0 -0.4033,0.093 -0.18613,0.093 -0.33349,0.2715 -0.1396,0.1783 -0.22491,0.4343 -0.0853,0.2481 -0.0853,0.5661 0,0.3103 0.0853,0.5662 0.0853,0.2559 0.22491,0.4421 0.14736,0.1861 0.34125,0.2869 0.19389,0.1008 0.41105,0.1008 0.21716,0 0.40329,-0.085 0.19389,-0.093 0.33349,-0.2637 0.14736,-0.1783 0.22492,-0.4343 0.0853,-0.2559 0.0853,-0.5816 z"
           style="font-style:normal;font-variant:normal;font-weight:normal;font-stretch:normal;font-size:7.75564909px;font-family:Inconsolata;-inkscape-font-specification:Inconsolata;text-align:center;text-anchor:middle;fill:#306998;fill-opacity:1"
           id="path9209" />
        <path
           d="m 137.53822,1009.1222 0,-3.5443 0.57391,0 0,0.6282 q 0.20165,-0.3257 0.51188,-0.5196 0.31798,-0.1939 0.64372,-0.1939 0.23267,0 0.43431,0.085 0.20165,0.078 0.34901,0.2559 0.14735,0.1784 0.22491,0.4576 0.0853,0.2792 0.0853,0.6825 l 0,2.1483 -0.55065,0 0,-2.1328 q 0,-0.5584 -0.19389,-0.7833 -0.18614,-0.2249 -0.45758,-0.2249 -0.17838,0 -0.36452,0.078 -0.18613,0.078 -0.34125,0.225 -0.14735,0.1396 -0.24818,0.3412 -0.0931,0.2017 -0.0931,0.4576 l 0,2.0397 -0.57391,0 z"
           style="font-style:normal;font-variant:normal;font-weight:normal;font-stretch:normal;font-size:7.75564909px;font-family:Inconsolata;-inkscape-font-specification:Inconsolata;text-align:center;text-anchor:middle;fill:#306998;fill-opacity:1"
           id="path9211" />
        <path
           d="m 145.47224,1005.9967 q 0.4731,-0.4964 1.26417,-0.4964 0.65148,0 1.02375,0.3335 0.38003,0.3258 0.38003,1.0936 l 0,2.1948 -0.52739,0 0,-0.3878 q -0.56616,0.4731 -1.27193,0.4731 -0.2792,0 -0.50411,-0.085 -0.21716,-0.085 -0.37227,-0.2249 -0.15512,-0.1396 -0.24043,-0.318 -0.0776,-0.1783 -0.0776,-0.3567 0,-0.5352 0.45759,-0.8454 0.46534,-0.3102 1.33397,-0.3412 l 0.66699,0 0,-0.1319 q 0,-0.5274 -0.22492,-0.7368 -0.21716,-0.2094 -0.6825,-0.2094 -0.57391,0 -0.95394,0.3956 l -0.27145,-0.3568 z m 2.15607,1.4658 -0.13184,0 q -0.10858,0 -0.20941,0 -0.0931,-0.01 -0.18613,-0.01 -0.42656,0 -0.69801,0.062 -0.27145,0.054 -0.42656,0.1551 -0.15511,0.1008 -0.21716,0.2327 -0.0543,0.1241 -0.0543,0.2714 0,0.2482 0.21716,0.4266 0.21716,0.1784 0.53514,0.1784 0.23267,0 0.4188,-0.07 0.18614,-0.078 0.32574,-0.1784 0.1396,-0.1086 0.22492,-0.2172 0.0853,-0.1163 0.12409,-0.2016 0.0776,-0.1551 0.0776,-0.4188 l 0,-0.2327 z"
           style="font-style:normal;font-variant:normal;font-weight:normal;font-stretch:normal;font-size:7.75564909px;font-family:Inconsolata;-inkscape-font-specification:Inconsolata;text-align:center;text-anchor:middle;fill:#306998;fill-opacity:1"
           id="path9213" />
        <path
           d="m 149.17169,1009.1222 0,-3.5443 0.57392,0 0,0.6282 q 0.20165,-0.3257 0.51187,-0.5196 0.31798,-0.1939 0.64372,-0.1939 0.23267,0 0.43432,0.085 0.20165,0.078 0.349,0.2559 0.14736,0.1784 0.22492,0.4576 0.0853,0.2792 0.0853,0.6825 l 0,2.1483 -0.55065,0 0,-2.1328 q 0,-0.5584 -0.19389,-0.7833 -0.18614,-0.2249 -0.45759,-0.2249 -0.17838,0 -0.36451,0.078 -0.18614,0.078 -0.34125,0.225 -0.14736,0.1396 -0.24818,0.3412 -0.0931,0.2017 -0.0931,0.4576 l 0,2.0397 -0.57392,0 z"
           style="font-style:normal;font-variant:normal;font-weight:normal;font-stretch:normal;font-size:7.75564909px;font-family:Inconsolata;-inkscape-font-specification:Inconsolata;text-align:center;text-anchor:middle;fill:#306998;fill-opacity:1"
           id="path9215" />
        <path
           d="m 155.39948,1006.0975 0,-2.1328 0.59718,0 q 0,0.047 -0.0388,0.1086 -0.0388,0.054 -0.0388,0.1086 l 0.008,4.6146 q 0,0.1861 0.0388,0.3257 l -0.55841,0 q -0.031,-0.093 -0.031,-0.2637 l 0,-0.3024 q -0.17062,0.2947 -0.46534,0.4731 -0.29471,0.1706 -0.59718,0.1706 -0.29472,0 -0.55841,-0.1163 -0.25594,-0.1164 -0.45758,-0.3491 -0.1939,-0.2326 -0.31023,-0.5816 -0.11633,-0.3568 -0.11633,-0.8376 0,-0.4886 0.13184,-0.8299 0.13185,-0.349 0.34125,-0.5662 0.21716,-0.2249 0.48085,-0.3257 0.26369,-0.1086 0.53514,-0.1086 0.37227,0 0.63596,0.1707 0.27145,0.1628 0.4033,0.442 z m -1.65196,0.1086 q -0.33349,0.3025 -0.33349,1.0238 0,0.6669 0.25594,1.078 0.25593,0.4033 0.7523,0.4033 0.11633,0 0.24818,-0.039 0.13184,-0.047 0.24818,-0.1318 0.11633,-0.085 0.2094,-0.2017 0.0931,-0.1163 0.1396,-0.2637 0.0853,-0.2792 0.0853,-0.7445 0,-0.2947 -0.0233,-0.4886 -0.0233,-0.2017 -0.0776,-0.3413 -0.0465,-0.1396 -0.12409,-0.2249 -0.0776,-0.093 -0.19389,-0.1629 -0.1396,-0.085 -0.26369,-0.1241 -0.11634,-0.046 -0.22492,-0.046 -0.22491,0 -0.38778,0.062 -0.15511,0.062 -0.31023,0.2016 z"
           style="font-style:normal;font-variant:normal;font-weight:normal;font-stretch:normal;font-size:7.75564909px;font-family:Inconsolata;-inkscape-font-specification:Inconsolata;text-align:center;text-anchor:middle;fill:#306998;fill-opacity:1"
           id="path9217" />
        <path
           d="m 160.5182,1004.2827 3.35044,0 0,0.4886 -1.42704,0 0,4.3509 -0.55065,0 0,-4.3509 -1.37275,0 0,-0.4886 z"
           style="font-style:normal;font-variant:normal;font-weight:normal;font-stretch:normal;font-size:7.75564909px;font-family:Inconsolata;-inkscape-font-specification:Inconsolata;text-align:center;text-anchor:middle;fill:#306998;fill-opacity:1"
           id="path9219" />
        <path
           d="m 164.6985,1009.1222 0,-5.1575 0.64372,0 q 0,0.01 0,0.01 0.008,0 0.008,0.01 0,0.023 -0.0388,0.07 -0.031,0.039 -0.0465,0.1009 l 0,2.0552 q 0.2094,-0.3257 0.51962,-0.5196 0.31799,-0.1939 0.64372,-0.1939 0.24043,0 0.43432,0.085 0.20165,0.078 0.349,0.2559 0.14736,0.1784 0.22492,0.4576 0.0776,0.2792 0.0776,0.6825 l 0,2.1483 -0.55065,0 0,-2.1328 q 0,-0.5584 -0.19389,-0.7833 -0.18613,-0.2249 -0.45758,-0.2249 -0.17838,0 -0.35676,0.078 -0.17838,0.078 -0.34901,0.2172 -0.16286,0.1396 -0.25593,0.3413 -0.0853,0.2016 -0.0853,0.4653 l 0,2.0397 -0.56617,0 z"
           style="font-style:normal;font-variant:normal;font-weight:normal;font-stretch:normal;font-size:7.75564909px;font-family:Inconsolata;-inkscape-font-specification:Inconsolata;text-align:center;text-anchor:middle;fill:#306998;fill-opacity:1"
           id="path9221" />
        <path
           d="m 170.04214,1005.4926 q 0.27921,0 0.5429,0.1008 0.26369,0.1008 0.45758,0.3102 0.20165,0.2017 0.31798,0.5197 0.12409,0.3179 0.12409,0.7523 0,0.062 -0.008,0.1318 0,0.062 -0.008,0.1241 l -2.52058,0 q 0.0155,0.3723 0.12409,0.6282 0.11633,0.2482 0.28696,0.4033 0.17062,0.1551 0.38002,0.2249 0.20941,0.062 0.41881,0.062 0.55065,0 0.91516,-0.3956 l 0.31023,0.3025 q -0.44983,0.5429 -1.2409,0.5429 -0.38779,0 -0.71352,-0.1163 -0.31798,-0.1241 -0.5429,-0.3568 -0.22491,-0.2327 -0.349,-0.5739 -0.12409,-0.349 -0.12409,-0.7911 0,-0.4498 0.12409,-0.7988 0.13184,-0.349 0.349,-0.5817 0.22492,-0.2404 0.51963,-0.3645 0.29471,-0.1241 0.63596,-0.1241 z m -1.07028,1.5046 1.94667,0 q 0,-0.031 0,-0.054 0.008,-0.031 0.008,-0.07 0,-0.1939 -0.0776,-0.3645 -0.0698,-0.1784 -0.19389,-0.3025 -0.12409,-0.1318 -0.29472,-0.2094 -0.16286,-0.078 -0.35675,-0.078 -0.36452,0 -0.65924,0.2637 -0.29471,0.256 -0.37227,0.8144 z"
           style="font-style:normal;font-variant:normal;font-weight:normal;font-stretch:normal;font-size:7.75564909px;font-family:Inconsolata;-inkscape-font-specification:Inconsolata;text-align:center;text-anchor:middle;fill:#306998;fill-opacity:1"
           id="path9223" />
        <path
           d="m 176.24666,1004.2905 1.55113,0 q 0.40329,0 0.6825,0.1085 0.28696,0.1009 0.46534,0.2948 0.18613,0.1861 0.27144,0.4343 0.0931,0.2482 0.10858,0.5274 -0.0155,0.2792 -0.10858,0.5273 -0.0853,0.2405 -0.26369,0.4188 -0.17062,0.1784 -0.44983,0.287 -0.27144,0.1008 -0.66698,0.1008 l -1.0315,0 0,2.1328 -0.55841,0 0,-4.8317 z m 0.55841,0.5118 0,1.7063 0.96945,0 q 0.52739,0 0.74454,-0.2249 0.22492,-0.2327 0.24819,-0.6127 -0.0155,-0.1784 -0.0776,-0.3335 -0.0543,-0.1629 -0.17063,-0.2792 -0.11633,-0.1164 -0.30247,-0.1862 -0.17838,-0.07 -0.43431,-0.07 l -0.97721,0 z"
           style="font-style:normal;font-variant:normal;font-weight:normal;font-stretch:normal;font-size:7.75564909px;font-family:Inconsolata;-inkscape-font-specification:Inconsolata;text-align:center;text-anchor:middle;fill:#306998;fill-opacity:1"
           id="path9225" />
        <path
           d="m 181.67562,1005.4926 q 0.2792,0 0.5429,0.1008 0.26369,0.1008 0.45758,0.3102 0.20165,0.2017 0.31798,0.5197 0.12409,0.3179 0.12409,0.7523 0,0.062 -0.008,0.1318 0,0.062 -0.008,0.1241 l -2.52059,0 q 0.0155,0.3723 0.12409,0.6282 0.11634,0.2482 0.28696,0.4033 0.17063,0.1551 0.38003,0.2249 0.2094,0.062 0.4188,0.062 0.55066,0 0.91517,-0.3956 l 0.31023,0.3025 q -0.44983,0.5429 -1.24091,0.5429 -0.38778,0 -0.71352,-0.1163 -0.31798,-0.1241 -0.54289,-0.3568 -0.22492,-0.2327 -0.34901,-0.5739 -0.12409,-0.349 -0.12409,-0.7911 0,-0.4498 0.12409,-0.7988 0.13185,-0.349 0.34901,-0.5817 0.22491,-0.2404 0.51963,-0.3645 0.29471,-0.1241 0.63596,-0.1241 z m -1.07028,1.5046 1.94667,0 q 0,-0.031 0,-0.054 0.008,-0.031 0.008,-0.07 0,-0.1939 -0.0776,-0.3645 -0.0698,-0.1784 -0.19389,-0.3025 -0.12409,-0.1318 -0.29472,-0.2094 -0.16287,-0.078 -0.35676,-0.078 -0.36451,0 -0.65923,0.2637 -0.29471,0.256 -0.37227,0.8144 z"
           style="font-style:normal;font-variant:normal;font-weight:normal;font-stretch:normal;font-size:7.75564909px;font-family:Inconsolata;-inkscape-font-specification:Inconsolata;text-align:center;text-anchor:middle;fill:#306998;fill-opacity:1"
           id="path9227" />
        <path
           d="m 185.51466,1005.5003 q 0.32574,0 0.6127,0.1319 0.29472,0.1241 0.51187,0.3645 0.21716,0.2404 0.34125,0.5894 0.13185,0.3413 0.13185,0.7678 0,0.4344 -0.12409,0.7756 -0.12409,0.3413 -0.34125,0.5894 -0.21716,0.2405 -0.51187,0.3723 -0.29472,0.1241 -0.62821,0.1241 -0.34125,0 -0.64372,-0.1396 -0.29471,-0.1396 -0.51963,-0.38 -0.22491,-0.2482 -0.35676,-0.5895 -0.13184,-0.3412 -0.13184,-0.7367 0,-0.3956 0.13184,-0.7446 0.1396,-0.349 0.36452,-0.5894 0.23267,-0.2482 0.53514,-0.3878 0.30247,-0.1474 0.6282,-0.1474 z m 1.03926,1.8692 q 0,-0.3335 -0.0931,-0.5895 -0.0853,-0.2637 -0.23267,-0.442 -0.14735,-0.1784 -0.34124,-0.2715 -0.18614,-0.093 -0.39554,-0.093 -0.20941,0 -0.4033,0.093 -0.18613,0.093 -0.33349,0.2715 -0.1396,0.1783 -0.22491,0.4343 -0.0853,0.2481 -0.0853,0.5661 0,0.3103 0.0853,0.5662 0.0853,0.2559 0.22491,0.4421 0.14736,0.1861 0.34125,0.2869 0.19389,0.1008 0.41105,0.1008 0.21716,0 0.40329,-0.085 0.19389,-0.093 0.3335,-0.2637 0.14735,-0.1783 0.22491,-0.4343 0.0853,-0.2559 0.0853,-0.5816 z"
           style="font-style:normal;font-variant:normal;font-weight:normal;font-stretch:normal;font-size:7.75564909px;font-family:Inconsolata;-inkscape-font-specification:Inconsolata;text-align:center;text-anchor:middle;fill:#306998;fill-opacity:1"
           id="path9229" />
        <path
           d="m 187.88789,1005.5779 0.56616,0 0,0.5429 q 0.17838,-0.287 0.4731,-0.4498 0.30247,-0.1707 0.60494,-0.1707 0.29471,0 0.55841,0.1164 0.27144,0.1086 0.47309,0.3335 0.2094,0.2249 0.32574,0.5661 0.12409,0.3413 0.12409,0.8066 0,0.4654 -0.13185,0.8221 -0.12409,0.3568 -0.33349,0.5972 -0.2094,0.2327 -0.48085,0.3568 -0.26369,0.1163 -0.5429,0.1163 -0.32573,0 -0.60494,-0.1474 -0.2792,-0.1473 -0.45758,-0.411 l 0,1.7605 -0.57392,0 0,-4.8395 z m 0.56616,2.0708 q 0.0155,0.5739 0.2637,0.8221 0.24818,0.2481 0.61269,0.2481 0.19389,0 0.38778,-0.062 0.1939,-0.062 0.35676,-0.2094 0.16287,-0.1551 0.25594,-0.4033 0.10082,-0.2482 0.10082,-0.6205 0,-0.6825 -0.28695,-1.0547 -0.27921,-0.3801 -0.79108,-0.3956 -0.15511,0 -0.31798,0.054 -0.16287,0.054 -0.29472,0.1862 -0.12409,0.1318 -0.2094,0.3567 -0.0776,0.2172 -0.0776,0.5429 l 0,0.5352 z"
           style="font-style:normal;font-variant:normal;font-weight:normal;font-stretch:normal;font-size:7.75564909px;font-family:Inconsolata;-inkscape-font-specification:Inconsolata;text-align:center;text-anchor:middle;fill:#306998;fill-opacity:1"
           id="path9231" />
        <path
           d="m 191.95961,1003.9647 1.56664,0 0,4.7077 1.03925,0 0,0.4498 -2.65243,0 0,-0.4498 1.04701,0 0,-4.2579 -1.00047,0 0,-0.4498 z"
           style="font-style:normal;font-variant:normal;font-weight:normal;font-stretch:normal;font-size:7.75564909px;font-family:Inconsolata;-inkscape-font-specification:Inconsolata;text-align:center;text-anchor:middle;fill:#306998;fill-opacity:1"
           id="path9233" />
        <path
           d="m 197.18691,1005.4926 q 0.2792,0 0.5429,0.1008 0.26369,0.1008 0.45758,0.3102 0.20165,0.2017 0.31798,0.5197 0.12409,0.3179 0.12409,0.7523 0,0.062 -0.008,0.1318 0,0.062 -0.008,0.1241 l -2.52059,0 q 0.0155,0.3723 0.12409,0.6282 0.11634,0.2482 0.28696,0.4033 0.17063,0.1551 0.38003,0.2249 0.2094,0.062 0.41881,0.062 0.55065,0 0.91516,-0.3956 l 0.31023,0.3025 q -0.44983,0.5429 -1.24091,0.5429 -0.38778,0 -0.71352,-0.1163 -0.31798,-0.1241 -0.54289,-0.3568 -0.22491,-0.2327 -0.349,-0.5739 -0.1241,-0.349 -0.1241,-0.7911 0,-0.4498 0.1241,-0.7988 0.13184,-0.349 0.349,-0.5817 0.22491,-0.2404 0.51963,-0.3645 0.29471,-0.1241 0.63596,-0.1241 z m -1.07028,1.5046 1.94667,0 q 0,-0.031 0,-0.054 0.008,-0.031 0.008,-0.07 0,-0.1939 -0.0776,-0.3645 -0.0698,-0.1784 -0.19389,-0.3025 -0.12409,-0.1318 -0.29472,-0.2094 -0.16287,-0.078 -0.35676,-0.078 -0.36451,0 -0.65923,0.2637 -0.29471,0.256 -0.37227,0.8144 z"
           style="font-style:normal;font-variant:normal;font-weight:normal;font-stretch:normal;font-size:7.75564909px;font-family:Inconsolata;-inkscape-font-specification:Inconsolata;text-align:center;text-anchor:middle;fill:#306998;fill-opacity:1"
           id="path9235" />
        <path
           d="m 203.06569,1004.2905 0.50412,0 0.51963,3.2651 0.77556,-2.9084 0.17062,0 0.78333,2.9239 0.44207,-3.2806 0.45758,0 -0.76781,4.8628 -0.2094,0 -0.82986,-3.1876 -0.84536,3.1876 -0.22492,0 -0.77556,-4.8628 z"
           style="font-style:normal;font-variant:normal;font-weight:normal;font-stretch:normal;font-size:7.75564909px;font-family:Inconsolata;-inkscape-font-specification:Inconsolata;text-align:center;text-anchor:middle;fill:#306998;fill-opacity:1"
           id="path9237" />
        <path
           d="m 207.35456,1009.1222 0,-5.1575 0.64372,0 q 0,0.01 0,0.01 0.008,0 0.008,0.01 0,0.023 -0.0388,0.07 -0.031,0.039 -0.0465,0.1009 l 0,2.0552 q 0.20941,-0.3257 0.51963,-0.5196 0.31798,-0.1939 0.64372,-0.1939 0.24043,0 0.43432,0.085 0.20165,0.078 0.349,0.2559 0.14736,0.1784 0.22492,0.4576 0.0776,0.2792 0.0776,0.6825 l 0,2.1483 -0.55065,0 0,-2.1328 q 0,-0.5584 -0.19389,-0.7833 -0.18614,-0.2249 -0.45758,-0.2249 -0.17838,0 -0.35676,0.078 -0.17838,0.078 -0.34901,0.2172 -0.16287,0.1396 -0.25593,0.3413 -0.0853,0.2016 -0.0853,0.4653 l 0,2.0397 -0.56616,0 z"
           style="font-style:normal;font-variant:normal;font-weight:normal;font-stretch:normal;font-size:7.75564909px;font-family:Inconsolata;-inkscape-font-specification:Inconsolata;text-align:center;text-anchor:middle;fill:#306998;fill-opacity:1"
           id="path9239" />
        <path
           d="m 212.65944,1005.5003 q 0.32574,0 0.6127,0.1319 0.29471,0.1241 0.51187,0.3645 0.21716,0.2404 0.34125,0.5894 0.13184,0.3413 0.13184,0.7678 0,0.4344 -0.12409,0.7756 -0.12409,0.3413 -0.34125,0.5894 -0.21715,0.2405 -0.51187,0.3723 -0.29471,0.1241 -0.62821,0.1241 -0.34124,0 -0.64371,-0.1396 -0.29472,-0.1396 -0.51963,-0.38 -0.22492,-0.2482 -0.35676,-0.5895 -0.13185,-0.3412 -0.13185,-0.7367 0,-0.3956 0.13185,-0.7446 0.1396,-0.349 0.36451,-0.5894 0.23267,-0.2482 0.53514,-0.3878 0.30247,-0.1474 0.62821,-0.1474 z m 1.03926,1.8692 q 0,-0.3335 -0.0931,-0.5895 -0.0853,-0.2637 -0.23267,-0.442 -0.14736,-0.1784 -0.34125,-0.2715 -0.18613,-0.093 -0.39554,-0.093 -0.2094,0 -0.40329,0.093 -0.18614,0.093 -0.33349,0.2715 -0.13961,0.1783 -0.22492,0.4343 -0.0853,0.2481 -0.0853,0.5661 0,0.3103 0.0853,0.5662 0.0853,0.2559 0.22492,0.4421 0.14735,0.1861 0.34124,0.2869 0.1939,0.1008 0.41105,0.1008 0.21716,0 0.4033,-0.085 0.19389,-0.093 0.33349,-0.2637 0.14736,-0.1783 0.22491,-0.4343 0.0853,-0.2559 0.0853,-0.5816 z"
           style="font-style:normal;font-variant:normal;font-weight:normal;font-stretch:normal;font-size:7.75564909px;font-family:Inconsolata;-inkscape-font-specification:Inconsolata;text-align:center;text-anchor:middle;fill:#306998;fill-opacity:1"
           id="path9241" />
        <path
           d="m 218.76313,1004.2905 0.42656,0 1.19437,2.3654 1.21764,-2.3732 0.41105,0 0,4.8395 -0.51187,0 0,-3.6451 -1.04702,1.9466 -0.2094,0 -0.97721,-1.9234 0,3.6219 -0.50412,0 0,-4.8317 z"
           style="font-style:normal;font-variant:normal;font-weight:normal;font-stretch:normal;font-size:7.75564909px;font-family:Inconsolata;-inkscape-font-specification:Inconsolata;text-align:center;text-anchor:middle;fill:#306998;fill-opacity:1"
           id="path9243" />
        <path
           d="m 223.02874,1005.9967 q 0.47309,-0.4964 1.26417,-0.4964 0.65147,0 1.02374,0.3335 0.38003,0.3258 0.38003,1.0936 l 0,2.1948 -0.52738,0 0,-0.3878 q -0.56617,0.4731 -1.27193,0.4731 -0.2792,0 -0.50412,-0.085 -0.21716,-0.085 -0.37227,-0.2249 -0.15511,-0.1396 -0.24042,-0.318 -0.0776,-0.1783 -0.0776,-0.3567 0,-0.5352 0.45758,-0.8454 0.46534,-0.3102 1.33398,-0.3412 l 0.66698,0 0,-0.1319 q 0,-0.5274 -0.22491,-0.7368 -0.21716,-0.2094 -0.6825,-0.2094 -0.57392,0 -0.95394,0.3956 l -0.27145,-0.3568 z m 2.15607,1.4658 -0.13185,0 q -0.10858,0 -0.2094,0 -0.0931,-0.01 -0.18614,-0.01 -0.42656,0 -0.698,0.062 -0.27145,0.054 -0.42657,0.1551 -0.15511,0.1008 -0.21715,0.2327 -0.0543,0.1241 -0.0543,0.2714 0,0.2482 0.21716,0.4266 0.21715,0.1784 0.53513,0.1784 0.23267,0 0.41881,-0.07 0.18614,-0.078 0.32574,-0.1784 0.1396,-0.1086 0.22491,-0.2172 0.0853,-0.1163 0.12409,-0.2016 0.0776,-0.1551 0.0776,-0.4188 l 0,-0.2327 z"
           style="font-style:normal;font-variant:normal;font-weight:normal;font-stretch:normal;font-size:7.75564909px;font-family:Inconsolata;-inkscape-font-specification:Inconsolata;text-align:center;text-anchor:middle;fill:#306998;fill-opacity:1"
           id="path9245" />
        <path
           d="m 226.71267,1003.9647 0.63596,0 q 0,0.047 -0.0388,0.1008 -0.031,0.054 -0.031,0.1009 l 0,3.0402 1.77605,-1.6442 q 0.17838,0.039 0.41104,0.039 l 0.20165,0 -1.48908,1.4037 1.73726,2.1173 -0.72127,0.031 -1.45031,-1.8071 -0.46534,0.4343 0,1.3417 -0.56616,0 0,-5.1575 z"
           style="font-style:normal;font-variant:normal;font-weight:normal;font-stretch:normal;font-size:7.75564909px;font-family:Inconsolata;-inkscape-font-specification:Inconsolata;text-align:center;text-anchor:middle;fill:#306998;fill-opacity:1"
           id="path9247" />
        <path
           d="m 232.08733,1005.4926 q 0.27921,0 0.5429,0.1008 0.26369,0.1008 0.45758,0.3102 0.20165,0.2017 0.31798,0.5197 0.12409,0.3179 0.12409,0.7523 0,0.062 -0.008,0.1318 0,0.062 -0.008,0.1241 l -2.52058,0 q 0.0155,0.3723 0.12409,0.6282 0.11633,0.2482 0.28696,0.4033 0.17062,0.1551 0.38002,0.2249 0.2094,0.062 0.41881,0.062 0.55065,0 0.91516,-0.3956 l 0.31023,0.3025 q -0.44983,0.5429 -1.2409,0.5429 -0.38779,0 -0.71352,-0.1163 -0.31799,-0.1241 -0.5429,-0.3568 -0.22491,-0.2327 -0.349,-0.5739 -0.12409,-0.349 -0.12409,-0.7911 0,-0.4498 0.12409,-0.7988 0.13184,-0.349 0.349,-0.5817 0.22491,-0.2404 0.51963,-0.3645 0.29471,-0.1241 0.63596,-0.1241 z m -1.07028,1.5046 1.94667,0 q 0,-0.031 0,-0.054 0.008,-0.031 0.008,-0.07 0,-0.1939 -0.0776,-0.3645 -0.0698,-0.1784 -0.19389,-0.3025 -0.12409,-0.1318 -0.29472,-0.2094 -0.16286,-0.078 -0.35676,-0.078 -0.36451,0 -0.65923,0.2637 -0.29471,0.256 -0.37227,0.8144 z"
           style="font-style:normal;font-variant:normal;font-weight:normal;font-stretch:normal;font-size:7.75564909px;font-family:Inconsolata;-inkscape-font-specification:Inconsolata;text-align:center;text-anchor:middle;fill:#306998;fill-opacity:1"
           id="path9249" />
        <path
           d="m 238.51676,1004.2905 2.3965,0 0,0.4575 -0.95395,0 0,3.9322 1.00048,0 0,0.4498 -2.49732,0 0,-0.4576 0.95395,0 0,-3.9244 -0.89966,0 0,-0.4575 z"
           style="font-style:normal;font-variant:normal;font-weight:normal;font-stretch:normal;font-size:7.75564909px;font-family:Inconsolata;-inkscape-font-specification:Inconsolata;text-align:center;text-anchor:middle;fill:#306998;fill-opacity:1"
           id="path9251" />
        <path
           d="m 243.17015,1004.6317 0.6127,-0.1008 q 0,0.07 -0.0233,0.1241 -0.0155,0.054 -0.0233,0.085 l -0.0931,0.8376 1.16335,0 0,0.4576 -1.16335,0 q -0.0698,0.6902 -0.0698,1.2952 0,0.3722 0.0155,0.6282 0.0155,0.2559 0.0776,0.4033 0.0698,0.1473 0.19389,0.2326 0.12409,0.078 0.3335,0.078 0.35676,0 0.79107,-0.318 l 0.17063,0.4421 q -0.53514,0.3955 -1.10131,0.3955 -0.5584,0 -0.81434,-0.3335 -0.25594,-0.3412 -0.23267,-1.1013 0,-0.2792 0.0155,-0.7135 0.0155,-0.4343 0.0621,-1.0082 l -0.82986,0 0,-0.4576 0.85312,0 0.062,-0.9462 z"
           style="font-style:normal;font-variant:normal;font-weight:normal;font-stretch:normal;font-size:7.75564909px;font-family:Inconsolata;-inkscape-font-specification:Inconsolata;text-align:center;text-anchor:middle;fill:#306998;fill-opacity:1"
           id="path9253" />
        <path
           d="m 253.01984,1005.0505 -0.38003,0.3878 q -0.0465,-0.031 -0.10082,-0.1474 -0.11634,-0.2559 -0.36452,-0.411 -0.24042,-0.1629 -0.56616,-0.1629 -0.22492,0 -0.46534,0.093 -0.23267,0.093 -0.42656,0.318 -0.19389,0.2249 -0.31798,0.5972 -0.11634,0.3645 -0.11634,0.9229 0,0.5041 0.10083,0.8919 0.10082,0.3878 0.2792,0.6515 0.17838,0.2559 0.4188,0.3955 0.24818,0.1318 0.53514,0.1318 0.50412,0 0.91517,-0.2947 l 0,-1.1478 -0.87639,0 0,-0.4731 1.38051,0 0,1.8924 q -0.69026,0.5041 -1.41929,0.5041 -0.43431,0 -0.78332,-0.1706 -0.34125,-0.1784 -0.58943,-0.4964 -0.24042,-0.318 -0.37227,-0.7678 -0.12409,-0.4498 -0.12409,-1.0005 0,-0.76 0.18614,-1.2719 0.19389,-0.5119 0.49636,-0.7756 0.30247,-0.2714 0.6127,-0.3723 0.31798,-0.1008 0.57391,-0.1008 0.44208,0 0.8221,0.2249 0.38003,0.2172 0.58168,0.5817 z"
           style="font-style:normal;font-variant:normal;font-weight:normal;font-stretch:normal;font-size:7.75564909px;font-family:Inconsolata;-inkscape-font-specification:Inconsolata;text-align:center;text-anchor:middle;fill:#306998;fill-opacity:1"
           id="path9255" />
        <path
           d="m 254.11338,1005.5779 0.58167,0 -0.0155,0.6825 q 0.16287,-0.3723 0.51188,-0.5662 0.35676,-0.2016 0.76005,-0.2016 0.57392,0 0.94619,0.3878 l -0.25594,0.5351 q -0.0853,-0.1163 -0.15511,-0.1939 -0.0698,-0.077 -0.15511,-0.1318 -0.0776,-0.054 -0.17838,-0.085 -0.0931,-0.031 -0.23267,-0.031 -0.25594,0 -0.48085,0.1241 -0.22492,0.1164 -0.39554,0.318 -0.16287,0.1939 -0.26369,0.4498 -0.10083,0.256 -0.10083,0.5352 l 0,1.7295 -0.56616,0 0,-3.5521 z"
           style="font-style:normal;font-variant:normal;font-weight:normal;font-stretch:normal;font-size:7.75564909px;font-family:Inconsolata;-inkscape-font-specification:Inconsolata;text-align:center;text-anchor:middle;fill:#306998;fill-opacity:1"
           id="path9257" />
        <path
           d="m 259.23211,1005.4926 q 0.2792,0 0.54289,0.1008 0.2637,0.1008 0.45759,0.3102 0.20164,0.2017 0.31798,0.5197 0.12409,0.3179 0.12409,0.7523 0,0.062 -0.008,0.1318 0,0.062 -0.008,0.1241 l -2.52059,0 q 0.0155,0.3723 0.12409,0.6282 0.11634,0.2482 0.28696,0.4033 0.17062,0.1551 0.38003,0.2249 0.2094,0.062 0.4188,0.062 0.55065,0 0.91517,-0.3956 l 0.31022,0.3025 q -0.44982,0.5429 -1.2409,0.5429 -0.38778,0 -0.71352,-0.1163 -0.31798,-0.1241 -0.54289,-0.3568 -0.22492,-0.2327 -0.34901,-0.5739 -0.12409,-0.349 -0.12409,-0.7911 0,-0.4498 0.12409,-0.7988 0.13185,-0.349 0.34901,-0.5817 0.22491,-0.2404 0.51962,-0.3645 0.29472,-0.1241 0.63597,-0.1241 z m -1.07028,1.5046 1.94667,0 q 0,-0.031 0,-0.054 0.008,-0.031 0.008,-0.07 0,-0.1939 -0.0775,-0.3645 -0.0698,-0.1784 -0.1939,-0.3025 -0.12409,-0.1318 -0.29471,-0.2094 -0.16287,-0.078 -0.35676,-0.078 -0.36452,0 -0.65923,0.2637 -0.29472,0.256 -0.37227,0.8144 z"
           style="font-style:normal;font-variant:normal;font-weight:normal;font-stretch:normal;font-size:7.75564909px;font-family:Inconsolata;-inkscape-font-specification:Inconsolata;text-align:center;text-anchor:middle;fill:#306998;fill-opacity:1"
           id="path9259" />
        <path
           d="m 261.80698,1005.9967 q 0.4731,-0.4964 1.26417,-0.4964 0.65148,0 1.02375,0.3335 0.38002,0.3258 0.38002,1.0936 l 0,2.1948 -0.52738,0 0,-0.3878 q -0.56616,0.4731 -1.27193,0.4731 -0.2792,0 -0.50411,-0.085 -0.21716,-0.085 -0.37227,-0.2249 -0.15512,-0.1396 -0.24043,-0.318 -0.0776,-0.1783 -0.0776,-0.3567 0,-0.5352 0.45759,-0.8454 0.46534,-0.3102 1.33397,-0.3412 l 0.66698,0 0,-0.1319 q 0,-0.5274 -0.22491,-0.7368 -0.21716,-0.2094 -0.6825,-0.2094 -0.57391,0 -0.95394,0.3956 l -0.27145,-0.3568 z m 2.15607,1.4658 -0.13184,0 q -0.10858,0 -0.20941,0 -0.0931,-0.01 -0.18613,-0.01 -0.42656,0 -0.69801,0.062 -0.27145,0.054 -0.42656,0.1551 -0.15511,0.1008 -0.21716,0.2327 -0.0543,0.1241 -0.0543,0.2714 0,0.2482 0.21716,0.4266 0.21716,0.1784 0.53514,0.1784 0.23267,0 0.4188,-0.07 0.18614,-0.078 0.32574,-0.1784 0.1396,-0.1086 0.22492,-0.2172 0.0853,-0.1163 0.12409,-0.2016 0.0776,-0.1551 0.0776,-0.4188 l 0,-0.2327 z"
           style="font-style:normal;font-variant:normal;font-weight:normal;font-stretch:normal;font-size:7.75564909px;font-family:Inconsolata;-inkscape-font-specification:Inconsolata;text-align:center;text-anchor:middle;fill:#306998;fill-opacity:1"
           id="path9261" />
        <path
           d="m 266.4371,1004.6317 0.6127,-0.1008 q 0,0.07 -0.0233,0.1241 -0.0155,0.054 -0.0233,0.085 l -0.0931,0.8376 1.16334,0 0,0.4576 -1.16334,0 q -0.0698,0.6902 -0.0698,1.2952 0,0.3722 0.0155,0.6282 0.0155,0.2559 0.0776,0.4033 0.0698,0.1473 0.1939,0.2326 0.12409,0.078 0.33349,0.078 0.35676,0 0.79107,-0.318 l 0.17063,0.4421 q -0.53514,0.3955 -1.1013,0.3955 -0.55841,0 -0.81435,-0.3335 -0.25593,-0.3412 -0.23267,-1.1013 0,-0.2792 0.0155,-0.7135 0.0155,-0.4343 0.062,-1.0082 l -0.82985,0 0,-0.4576 0.85312,0 0.062,-0.9462 z"
           style="font-style:normal;font-variant:normal;font-weight:normal;font-stretch:normal;font-size:7.75564909px;font-family:Inconsolata;-inkscape-font-specification:Inconsolata;text-align:center;text-anchor:middle;fill:#306998;fill-opacity:1"
           id="path9263" />
      </g>
      <g
         style="font-style:normal;font-weight:normal;font-size:40.58158112px;line-height:125%;font-family:Sans;letter-spacing:0px;word-spacing:0px;fill:#000000;fill-opacity:1;stroke:none;stroke-width:1px;stroke-linecap:butt;stroke-linejoin:miter;stroke-opacity:1"
         id="text4349">
        <path
           d="m 109.95387,1011.0007 0.80656,0 0.41089,-1.7653 c 0.0609,-0.2587 0.12174,-0.624 0.18262,-1.0957 l 0.0304,0 c 0.0609,0.4717 0.12175,0.837 0.18262,1.0957 l 0.42611,1.7653 0.80656,0 0.79134,-3.698 -0.57829,0 -0.44133,2.1457 c -0.0685,0.35 -0.10652,0.6696 -0.16739,1.0196 l -0.0304,0 c -0.0456,-0.35 -0.14457,-0.6696 -0.22827,-1.0196 l -0.44133,-1.9175 -0.62394,0 -0.45654,1.9175 c -0.0837,0.3424 -0.1674,0.6696 -0.21305,1.0196 l -0.0304,0 c -0.0457,-0.35 -0.0989,-0.6696 -0.1674,-1.0196 l -0.44132,-2.1457 -0.62395,0 0.80656,3.698 z"
           style="font-style:normal;font-variant:normal;font-weight:normal;font-stretch:normal;font-size:7.60904694px;font-family:'Source Code Pro';-inkscape-font-specification:'Source Code Pro'"
           id="path9266" />
        <path
           d="m 114.51633,1011.0007 0.80656,0 0.41089,-1.7653 c 0.0609,-0.2587 0.12174,-0.624 0.18261,-1.0957 l 0.0304,0 c 0.0609,0.4717 0.12174,0.837 0.18262,1.0957 l 0.4261,1.7653 0.80656,0 0.79134,-3.698 -0.57829,0 -0.44132,2.1457 c -0.0685,0.35 -0.10653,0.6696 -0.1674,1.0196 l -0.0304,0 c -0.0457,-0.35 -0.14457,-0.6696 -0.22827,-1.0196 l -0.44132,-1.9175 -0.62394,0 -0.45655,1.9175 c -0.0837,0.3424 -0.16739,0.6696 -0.21305,1.0196 l -0.0304,0 c -0.0456,-0.35 -0.0989,-0.6696 -0.16739,-1.0196 l -0.44133,-2.1457 -0.62394,0 0.80656,3.698 z"
           style="font-style:normal;font-variant:normal;font-weight:normal;font-stretch:normal;font-size:7.60904694px;font-family:'Source Code Pro';-inkscape-font-specification:'Source Code Pro'"
           id="path9268" />
        <path
           d="m 119.07878,1011.0007 0.80656,0 0.41089,-1.7653 c 0.0609,-0.2587 0.12175,-0.624 0.18262,-1.0957 l 0.0304,0 c 0.0609,0.4717 0.12175,0.837 0.18262,1.0957 l 0.42611,1.7653 0.80656,0 0.79134,-3.698 -0.57829,0 -0.44132,2.1457 c -0.0685,0.35 -0.10653,0.6696 -0.1674,1.0196 l -0.0304,0 c -0.0456,-0.35 -0.14457,-0.6696 -0.22827,-1.0196 l -0.44133,-1.9175 -0.62394,0 -0.45654,1.9175 c -0.0837,0.3424 -0.1674,0.6696 -0.21305,1.0196 l -0.0304,0 c -0.0457,-0.35 -0.0989,-0.6696 -0.1674,-1.0196 l -0.44132,-2.1457 -0.62395,0 0.80656,3.698 z"
           style="font-style:normal;font-variant:normal;font-weight:normal;font-stretch:normal;font-size:7.60904694px;font-family:'Source Code Pro';-inkscape-font-specification:'Source Code Pro'"
           id="path9270" />
        <path
           d="m 125.05652,1011.092 c 0.34241,0 0.61633,-0.2587 0.61633,-0.6392 0,-0.388 -0.27392,-0.6467 -0.61633,-0.6467 -0.34241,0 -0.61633,0.2587 -0.61633,0.6467 0,0.3805 0.27392,0.6392 0.61633,0.6392 z"
           style="font-style:normal;font-variant:normal;font-weight:normal;font-stretch:normal;font-size:7.60904694px;font-family:'Source Code Pro';-inkscape-font-specification:'Source Code Pro'"
           id="path9272" />
        <path
           d="m 128.04391,1012.5605 0.62394,0 0,-1.2479 -0.0304,-0.7 0.0228,0 c 0.32719,0.3044 0.7609,0.4794 1.10331,0.4794 0.89026,0 1.6816,-0.7381 1.6816,-1.9936 0,-1.149 -0.53263,-1.887 -1.52942,-1.887 -0.45654,0 -0.93591,0.2358 -1.27832,0.563 l -0.0228,0 -0.0533,-0.4717 -0.51741,0 0,5.2578 z m 1.61311,-1.9935 c -0.2511,0 -0.63916,-0.1218 -0.98917,-0.4338 l 0,-1.8413 c 0.38045,-0.3805 0.7609,-0.5555 1.08809,-0.5555 0.73808,0 1.04244,0.5478 1.04244,1.362 0,0.9131 -0.47937,1.4686 -1.14136,1.4686 z"
           style="font-style:normal;font-variant:normal;font-weight:normal;font-stretch:normal;font-size:7.60904694px;font-family:'Source Code Pro';-inkscape-font-specification:'Source Code Pro'"
           id="path9274" />
        <path
           d="m 134.18143,1011.092 c 0.97396,0 1.82618,-0.7077 1.82618,-1.9327 0,-1.2403 -0.85222,-1.9479 -1.82618,-1.9479 -0.97395,0 -1.82617,0.7076 -1.82617,1.9479 0,1.225 0.85222,1.9327 1.82617,1.9327 z m 0,-0.5174 c -0.70764,0 -1.1794,-0.5707 -1.1794,-1.4153 0,-0.8522 0.47176,-1.4305 1.1794,-1.4305 0.70765,0 1.17941,0.5783 1.17941,1.4305 0,0.8446 -0.47176,1.4153 -1.17941,1.4153 z"
           style="font-style:normal;font-variant:normal;font-weight:normal;font-stretch:normal;font-size:7.60904694px;font-family:'Source Code Pro';-inkscape-font-specification:'Source Code Pro'"
           id="path9276" />
        <path
           d="m 138.52323,1011.092 c 0.45654,0 0.89786,-0.2663 1.20223,-0.5783 l 0.0228,0 0.0533,0.487 0.51741,0 0,-5.4177 -0.62394,0 0,1.4229 0.0304,0.6848 -0.0228,0 c -0.31958,-0.3043 -0.66199,-0.4793 -1.10331,-0.4793 -0.87504,0 -1.6816,0.7457 -1.6816,1.9479 0,1.2326 0.63916,1.9327 1.60551,1.9327 z m 0.12935,-0.525 c -0.68481,0 -1.08809,-0.5327 -1.08809,-1.4153 0,-0.8446 0.51741,-1.4153 1.15657,-1.4153 0.31958,0 0.63916,0.1217 0.97396,0.4337 l 0,1.8414 c -0.32719,0.3652 -0.67721,0.5555 -1.04244,0.5555 z"
           style="font-style:normal;font-variant:normal;font-weight:normal;font-stretch:normal;font-size:7.60904694px;font-family:'Source Code Pro';-inkscape-font-specification:'Source Code Pro'"
           id="path9278" />
        <path
           d="m 143.65636,1011.092 c 0.54785,0 1.05766,-0.2131 1.46855,-0.5783 l -0.28154,-0.4033 c -0.30436,0.2587 -0.68481,0.4642 -1.14136,0.4642 -0.85221,0 -1.42289,-0.5707 -1.42289,-1.4153 0,-0.8522 0.5859,-1.4305 1.43811,-1.4305 0.38806,0 0.70764,0.1598 1.01201,0.4261 l 0.31197,-0.4033 c -0.30436,-0.2967 -0.74569,-0.5402 -1.3468,-0.5402 -1.11853,0 -2.06206,0.7076 -2.06206,1.9479 0,1.225 0.86744,1.9327 2.02401,1.9327 z"
           style="font-style:normal;font-variant:normal;font-weight:normal;font-stretch:normal;font-size:7.60904694px;font-family:'Source Code Pro';-inkscape-font-specification:'Source Code Pro'"
           id="path9280" />
        <path
           d="m 147.45791,1011.092 c 0.52503,0 1.05005,-0.2739 1.46094,-0.5935 l 0.0228,0 0.0533,0.5022 0.50981,0 0,-2.2675 c 0,-0.9207 -0.48698,-1.5218 -1.49899,-1.5218 -0.64677,0 -1.27071,0.2891 -1.64355,0.5326 l 0.24349,0.4261 c 0.34241,-0.213 0.81417,-0.4413 1.29354,-0.4413 0.71525,0 0.96635,0.4261 0.98156,0.9283 -1.90987,0.1522 -2.67838,0.5554 -2.67838,1.3848 0,0.662 0.56307,1.0501 1.25549,1.0501 z m 0.1674,-0.5022 c -0.42611,0 -0.81417,-0.175 -0.81417,-0.5935 0,-0.487 0.48698,-0.799 2.06966,-0.9283 l 0,0.9739 c -0.41849,0.35 -0.83699,0.5479 -1.25549,0.5479 z"
           style="font-style:normal;font-variant:normal;font-weight:normal;font-stretch:normal;font-size:7.60904694px;font-family:'Source Code Pro';-inkscape-font-specification:'Source Code Pro'"
           id="path9282" />
        <path
           d="m 152.50735,1011.092 c 1.05765,0 1.64355,-0.5022 1.64355,-1.1033 0,-0.5631 -0.29675,-0.8751 -1.52942,-1.1414 -0.75329,-0.1598 -1.07287,-0.2967 -1.07287,-0.6163 0,-0.2816 0.22066,-0.5327 0.85221,-0.5327 0.47176,0 0.89787,0.1522 1.24027,0.3881 l 0.30436,-0.4033 c -0.36523,-0.2511 -0.9283,-0.4717 -1.49137,-0.4717 -1.012,0 -1.53703,0.4565 -1.53703,1.05 0,0.5555 0.48698,0.8827 1.44572,1.0805 1.0044,0.2054 1.15658,0.4033 1.15658,0.6848 0,0.312 -0.31197,0.5783 -0.93591,0.5783 -0.68482,0 -1.17941,-0.1978 -1.60551,-0.5022 l -0.28915,0.4109 c 0.44894,0.312 1.09571,0.5783 1.81857,0.5783 z"
           style="font-style:normal;font-variant:normal;font-weight:normal;font-stretch:normal;font-size:7.60904694px;font-family:'Source Code Pro';-inkscape-font-specification:'Source Code Pro'"
           id="path9284" />
        <path
           d="m 157.70896,1011.092 c 0.46415,0 0.82178,-0.099 1.15658,-0.2207 l -0.13696,-0.4565 c -0.26632,0.099 -0.54025,0.1674 -0.89026,0.1674 -0.71525,0 -0.93592,-0.35 -0.93592,-1.012 l 0,-1.7577 1.81857,0 0,-0.5098 -1.81857,0 0,-1.187 -0.51741,0 -0.0837,1.187 -1.06527,0.038 0,0.4718 1.04244,0 0,1.7501 c 0,0.913 0.35002,1.5294 1.4305,1.5294 z"
           style="font-style:normal;font-variant:normal;font-weight:normal;font-stretch:normal;font-size:7.60904694px;font-family:'Source Code Pro';-inkscape-font-specification:'Source Code Pro'"
           id="path9286" />
        <path
           d="m 161.67791,1011.0007 0.62394,0 0,-3.698 -2.34358,0 0,0.5098 1.71964,0 0,3.1882 z m 0.24349,-4.4741 c 0.28154,0 0.5022,-0.1903 0.5022,-0.487 0,-0.2892 -0.22066,-0.487 -0.5022,-0.487 -0.28153,0 -0.5022,0.1978 -0.5022,0.487 0,0.2967 0.22067,0.487 0.5022,0.487 z"
           style="font-style:normal;font-variant:normal;font-weight:normal;font-stretch:normal;font-size:7.60904694px;font-family:'Source Code Pro';-inkscape-font-specification:'Source Code Pro'"
           id="path9288" />
        <path
           d="m 164.54355,1011.0007 0.62394,0 0,-2.5795 c 0.43372,-0.4489 0.73047,-0.6696 1.17179,-0.6696 0.60873,0 0.85222,0.3348 0.85222,1.0348 l 0,2.2143 0.62394,0 0,-2.298 c 0,-0.9739 -0.40328,-1.4913 -1.27832,-1.4913 -0.57829,0 -1.0044,0.3119 -1.39246,0.7228 l -0.0304,0 -0.0533,-0.6315 -0.51741,0 0,3.698 z"
           style="font-style:normal;font-variant:normal;font-weight:normal;font-stretch:normal;font-size:7.60904694px;font-family:'Source Code Pro';-inkscape-font-specification:'Source Code Pro'"
           id="path9290" />
        <path
           d="m 170.80282,1011.0007 0.62395,0 0,-3.698 -2.34359,0 0,0.5098 1.71964,0 0,3.1882 z m 0.24349,-4.4741 c 0.28154,0 0.5022,-0.1903 0.5022,-0.487 0,-0.2892 -0.22066,-0.487 -0.5022,-0.487 -0.28153,0 -0.50219,0.1978 -0.50219,0.487 0,0.2967 0.22066,0.487 0.50219,0.487 z"
           style="font-style:normal;font-variant:normal;font-weight:normal;font-stretch:normal;font-size:7.60904694px;font-family:'Source Code Pro';-inkscape-font-specification:'Source Code Pro'"
           id="path9292" />
        <path
           d="m 175.95878,1011.092 c 0.46416,0 0.82178,-0.099 1.15658,-0.2207 l -0.13696,-0.4565 c -0.26632,0.099 -0.54025,0.1674 -0.89026,0.1674 -0.71525,0 -0.93592,-0.35 -0.93592,-1.012 l 0,-1.7577 1.81857,0 0,-0.5098 -1.81857,0 0,-1.187 -0.51741,0 -0.0837,1.187 -1.06527,0.038 0,0.4718 1.04244,0 0,1.7501 c 0,0.913 0.35002,1.5294 1.4305,1.5294 z"
           style="font-style:normal;font-variant:normal;font-weight:normal;font-stretch:normal;font-size:7.60904694px;font-family:'Source Code Pro';-inkscape-font-specification:'Source Code Pro'"
           id="path9294" />
        <path
           d="m 179.80599,1011.092 c 0.34241,0 0.61633,-0.2587 0.61633,-0.6392 0,-0.388 -0.27392,-0.6467 -0.61633,-0.6467 -0.34241,0 -0.61633,0.2587 -0.61633,0.6467 0,0.3805 0.27392,0.6392 0.61633,0.6392 z"
           style="font-style:normal;font-variant:normal;font-weight:normal;font-stretch:normal;font-size:7.60904694px;font-family:'Source Code Pro';-inkscape-font-specification:'Source Code Pro'"
           id="path9296" />
        <path
           d="m 184.71846,1011.092 c 0.54785,0 1.05766,-0.2131 1.46855,-0.5783 l -0.28154,-0.4033 c -0.30436,0.2587 -0.68481,0.4642 -1.14135,0.4642 -0.85222,0 -1.4229,-0.5707 -1.4229,-1.4153 0,-0.8522 0.5859,-1.4305 1.43811,-1.4305 0.38807,0 0.70765,0.1598 1.01201,0.4261 l 0.31197,-0.4033 c -0.30436,-0.2967 -0.74569,-0.5402 -1.3468,-0.5402 -1.11853,0 -2.06205,0.7076 -2.06205,1.9479 0,1.225 0.86743,1.9327 2.024,1.9327 z"
           style="font-style:normal;font-variant:normal;font-weight:normal;font-stretch:normal;font-size:7.60904694px;font-family:'Source Code Pro';-inkscape-font-specification:'Source Code Pro'"
           id="path9298" />
        <path
           d="m 188.9309,1011.092 c 0.97396,0 1.82617,-0.7077 1.82617,-1.9327 0,-1.2403 -0.85221,-1.9479 -1.82617,-1.9479 -0.97396,0 -1.82617,0.7076 -1.82617,1.9479 0,1.225 0.85221,1.9327 1.82617,1.9327 z m 0,-0.5174 c -0.70764,0 -1.1794,-0.5707 -1.1794,-1.4153 0,-0.8522 0.47176,-1.4305 1.1794,-1.4305 0.70764,0 1.1794,0.5783 1.1794,1.4305 0,0.8446 -0.47176,1.4153 -1.1794,1.4153 z"
           style="font-style:normal;font-variant:normal;font-weight:normal;font-stretch:normal;font-size:7.60904694px;font-family:'Source Code Pro';-inkscape-font-specification:'Source Code Pro'"
           id="path9300" />
        <path
           d="m 191.65196,1011.0007 0.62395,0 0,-2.6784 c 0.18261,-0.3805 0.35001,-0.5707 0.60872,-0.5707 0.27393,0 0.38045,0.2207 0.38045,0.6468 l 0,2.6023 0.57829,0 0,-2.6784 c 0.19784,-0.3805 0.3348,-0.5707 0.59351,-0.5707 0.27392,0 0.39567,0.2207 0.39567,0.6468 l 0,2.6023 0.62394,0 0,-2.648 c 0,-0.7381 -0.30436,-1.1413 -0.82178,-1.1413 -0.42611,0 -0.65438,0.2435 -0.86743,0.6391 -0.10653,-0.4261 -0.3348,-0.6391 -0.70003,-0.6391 -0.42611,0 -0.65438,0.2358 -0.84461,0.5783 l -0.0152,0 -0.0533,-0.487 -0.5022,0 0,3.698 z"
           style="font-style:normal;font-variant:normal;font-weight:normal;font-stretch:normal;font-size:7.60904694px;font-family:'Source Code Pro';-inkscape-font-specification:'Source Code Pro'"
           id="path9302" />
      </g>
    </g>
    <g
       transform="matrix(0.71761767,0,0,0.71761767,-111.73767,542.67018)"
       id="layer1-2"
       inkscape:label="Layer 1">
      <g
         id="g4229">
        <path
           inkscape:connector-curvature="0"
           style="fill:url(#linearGradient1478);fill-opacity:1"
           d="m 370.92011,470.72852 c -4.58366,0.0213 -8.96094,0.41222 -12.8125,1.09375 -11.34622,2.00451 -13.40625,6.2001 -13.40625,13.9375 l 0,10.21875 26.8125,0 0,3.40625 -26.8125,0 -10.0625,0 c -7.79246,0 -14.61576,4.68372 -16.75001,13.59375 -2.46182,10.21297 -2.57101,16.58603 0,27.25 1.90593,7.93786 6.45755,13.59375 14.25001,13.59375 l 9.21875,0 0,-12.25 c 0,-8.8499 7.65714,-16.65625 16.75,-16.65625 l 26.78125,0 c 7.45495,0 13.40625,-6.13816 13.40625,-13.625 l 0,-25.53125 c 0,-7.26634 -6.12998,-12.72477 -13.40625,-13.9375 -4.60599,-0.76672 -9.3851,-1.11505 -13.96875,-1.09375 z m -14.5,8.21875 c 2.76954,0 5.03125,2.29865 5.03125,5.125 -1e-5,2.81634 -2.26171,5.09375 -5.03125,5.09375 -2.77948,0 -5.03125,-2.27741 -5.03125,-5.09375 -1e-5,-2.82635 2.25177,-5.125 5.03125,-5.125 z"
           id="path1948" />
        <path
           inkscape:connector-curvature="0"
           style="fill:url(#linearGradient1475);fill-opacity:1"
           d="m 402.56937,499.38477 0,11.90625 c 0,9.23076 -7.8259,17 -16.75,17 l -26.78125,0 c -7.33584,0 -13.40625,6.27849 -13.40625,13.625 l 0,25.53126 c 0,7.26634 6.31858,11.54032 13.40625,13.625 8.48733,2.49561 16.62623,2.94663 26.78125,0 6.75015,-1.95439 13.40625,-5.88761 13.40625,-13.625 l 0,-10.21876 -26.78125,0 0,-3.40625 26.78125,0 13.40625,0 c 7.79246,0 10.69625,-5.43541 13.40624,-13.59375 2.79933,-8.39888 2.68022,-16.47577 0,-27.25 -1.92578,-7.75744 -5.60387,-13.59375 -13.40624,-13.59375 l -10.0625,0 z m -15.0625,64.65625 c 2.77947,10e-6 5.03125,2.27742 5.03125,5.09376 -10e-6,2.82635 -2.25178,5.125 -5.03125,5.125 -2.76955,0 -5.03125,-2.29865 -5.03125,-5.125 0,-2.81634 2.26169,-5.09376 5.03125,-5.09376 z"
           id="path1950" />
        <path
           inkscape:connector-curvature="0"
           d="m 308.76154,489.7276 0,7 c 0,4.8785 -4.121,9 -9,9 l -4,0 c -4.8785,0 -9,-4.1215 -9,-9 l 0,-7 -4,0 0,7 c 0,7.047 5.953,13 13,13 l 0,7 -8.5,0 0,4 21,0 0,-4 -8.5,0 0,-7 c 7.047,0 13,-5.953 13,-13 l 0,-7 -4,0 z"
           id="path9980" />
        <path
           inkscape:connector-curvature="0"
           d="m 295.76154,502.7276 4,0 c 2.857,0 5.394,-2.2415 5.902,-5 l -5.9435,0 0,-2 6.0415,0 0,-2 -6.0415,0 0,-2 6.0415,0 0,-2 -6.0415,0 0,-2 6.0415,0 0,-2 -6.0415,0 0,-2 6.0415,0 0,-2 -6.0415,0 0,-2 6.0415,0 0,-2 -6.0415,0 0,-2 5.9435,0 c -0.508,-2.7585 -3.045,-5 -5.902,-5 l -4,0 c -3.1965,0 -6,2.8035 -6,6 l 0,20 c 0,3.1965 2.8035,6 6,6 z"
           id="path9982" />
        <path
           inkscape:connector-curvature="0"
           d="m 435.33295,564.11661 0,-7 c 0,-4.8785 4.121,-9 9,-9 l 4,0 c 4.8785,0 9,4.1215 9,9 l 0,7 4,0 0,-7 c 0,-7.047 -5.953,-13 -13,-13 l 0,-7 8.5,0 0,-4 -21,0 0,4 8.5,0 0,7 c -7.047,0 -13,5.953 -13,13 l 0,7 4,0 z"
           id="path9980-7" />
        <path
           inkscape:connector-curvature="0"
           d="m 448.33295,551.11661 -4,0 c -2.857,0 -5.394,2.2415 -5.902,5 l 5.9435,0 0,2 -6.0415,0 0,2 6.0415,0 0,2 -6.0415,0 0,2 6.0415,0 0,2 -6.0415,0 0,2 6.0415,0 0,2 -6.0415,0 0,2 6.0415,0 0,2 -6.0415,0 0,2 6.0415,0 0,2 -5.9435,0 c 0.508,2.7585 3.045,5 5.902,5 l 4,0 c 3.1965,0 6,-2.8035 6,-6 l 0,-20 c 0,-3.1965 -2.8035,-6 -6,-6 z"
           id="path9982-8" />
        <g
           id="g4224">
          <g
             id="g4220">
            <path
               style="fill:none;fill-rule:evenodd;stroke:#000000;stroke-width:1px;stroke-linecap:butt;stroke-linejoin:miter;stroke-opacity:1"
               d="m 410.88323,562.75595 c 3.0786,3.38813 4.48422,7.67153 0,12.14286"
               id="path10015"
               inkscape:connector-curvature="0"
               sodipodi:nodetypes="cc" />
            <path
               style="fill:none;fill-rule:evenodd;stroke:#000000;stroke-width:1.35535014px;stroke-linecap:butt;stroke-linejoin:miter;stroke-opacity:1"
               d="m 414.26614,559.66641 c 3.74965,5.11006 5.46166,11.57038 0,18.31415"
               id="path10015-7"
               inkscape:connector-curvature="0"
               sodipodi:nodetypes="cc" />
          </g>
        </g>
        <path
           style="fill:none;fill-rule:evenodd;stroke:#000000;stroke-width:1.83304119px;stroke-linecap:butt;stroke-linejoin:miter;stroke-opacity:1"
           d="m 417.60218,555.02242 c 4.55214,7.69915 6.63054,17.4327 0,27.59331"
           id="path10015-7-8"
           inkscape:connector-curvature="0"
           sodipodi:nodetypes="cc" />
        <g
           id="g4216">
          <path
             sodipodi:nodetypes="cc"
             inkscape:connector-curvature="0"
             id="path10015-5"
             d="m 333.21122,491.08823 c -3.0786,-3.38813 -4.48422,-7.67153 0,-12.14286"
             style="fill:none;fill-rule:evenodd;stroke:#000000;stroke-width:1px;stroke-linecap:butt;stroke-linejoin:miter;stroke-opacity:1" />
          <path
             sodipodi:nodetypes="cc"
             inkscape:connector-curvature="0"
             id="path10015-7-3"
             d="m 329.82831,494.17777 c -3.74965,-5.11006 -5.46166,-11.57038 0,-18.31415"
             style="fill:none;fill-rule:evenodd;stroke:#000000;stroke-width:1.35535014px;stroke-linecap:butt;stroke-linejoin:miter;stroke-opacity:1" />
        </g>
        <path
           style="fill:none;fill-rule:evenodd;stroke:#000000;stroke-width:1.83304119px;stroke-linecap:butt;stroke-linejoin:miter;stroke-opacity:1"
           d="m 326.49227,498.82176 c -4.55214,-7.69915 -6.63054,-17.4327 0,-27.59331"
           id="path10015-7-8-3"
           inkscape:connector-curvature="0"
           sodipodi:nodetypes="cc" />
      </g>
    </g>
  </g>
</svg>
