<?xml version="1.0" encoding="UTF-8" standalone="no"?>
<!-- Created with Inkscape (http://www.inkscape.org/) -->

<svg
   xmlns:dc="http://purl.org/dc/elements/1.1/"
   xmlns:cc="http://creativecommons.org/ns#"
   xmlns:rdf="http://www.w3.org/1999/02/22-rdf-syntax-ns#"
   xmlns:svg="http://www.w3.org/2000/svg"
   xmlns="http://www.w3.org/2000/svg"
   xmlns:xlink="http://www.w3.org/1999/xlink"
   xmlns:sodipodi="http://sodipodi.sourceforge.net/DTD/sodipodi-0.dtd"
   xmlns:inkscape="http://www.inkscape.org/namespaces/inkscape"
   width="44.170593mm"
   height="51.003674mm"
   viewBox="0 0 44.170593 51.003674"
   version="1.1"
   id="svg8"
   inkscape:version="0.92.4 5da689c313, 2019-01-14"
   sodipodi:docname="hex_sticker.svg">
  <defs
     id="defs2">
    <clipPath
       id="clipPath860"
       clipPathUnits="userSpaceOnUse">
      <path
         inkscape:connector-curvature="0"
         id="path858"
         d="M 0,792 H 612 V 0 H 0 Z" />
    </clipPath>
    <radialGradient
       cx="25.1875"
       cy="41"
       gradientTransform="matrix(1,0,0,0.42586,0,23.53992)"
       gradientUnits="userSpaceOnUse"
       id="radialGradient2248-4"
       r="16.4375"
       xlink:href="#linearGradient2355" />
    <linearGradient
       id="linearGradient2355">
      <stop
         offset="0"
         id="stop3713" />
      <stop
         offset="1"
         stop-opacity="0"
         id="stop3715" />
    </linearGradient>
    <radialGradient
       cx="15.4375"
       cy="42.090431"
       gradientTransform="matrix(1,0,0,0.52514,0,22.02165)"
       gradientUnits="userSpaceOnUse"
       id="radialGradient2238-6"
       r="11.1875">
      <stop
         offset="0"
         stop-color="#b0b0b0"
         id="stop3730-8" />
      <stop
         offset="1"
         stop-color="#747474"
         id="stop3732-8" />
    </radialGradient>
    <linearGradient
       gradientUnits="userSpaceOnUse"
       id="linearGradient2258-6-5"
       x1="41.25"
       x2="48.25"
       y1="36.689548"
       y2="35.689548">
      <stop
         offset="0"
         stop-color="#c6c6c6"
         id="stop3718-0" />
      <stop
         offset="1"
         stop-color="#c6c6c6"
         stop-opacity="0"
         id="stop3720-3" />
    </linearGradient>
    <radialGradient
       cx="19.557501"
       cy="6.6440701"
       gradientTransform="matrix(1.49192,-0.08445108,-0.05874412,3.98672,-9.6468,-20.27595)"
       gradientUnits="userSpaceOnUse"
       id="radialGradient2351-9"
       r="10.98921">
      <stop
         offset="0"
         stop-color="#d5d5d5"
         id="stop3735-9" />
      <stop
         offset="1"
         stop-color="#a0a0a0"
         id="stop3737-8" />
    </radialGradient>
    <radialGradient
       cx="20.27528"
       cy="5.7119699"
       gradientTransform="matrix(2.53075,0,0,2.29601,-31.03641,-6.69986)"
       gradientUnits="userSpaceOnUse"
       id="radialGradient2343-4"
       r="12.49403"
       xlink:href="#linearGradient2399" />
    <linearGradient
       id="linearGradient2399">
      <stop
         offset="0"
         stop-color="#fff"
         id="stop3708" />
      <stop
         offset="1"
         stop-color="#fff"
         stop-opacity="0"
         id="stop3710" />
    </linearGradient>
    <radialGradient
       cx="33.5"
       cy="20.53817"
       gradientTransform="matrix(0.43533,0,0,0.43533,18.91658,12.49341)"
       gradientUnits="userSpaceOnUse"
       id="radialGradient2413-4"
       r="2.2697401">
      <stop
         offset="0"
         stop-color="#d5d5d5"
         id="stop3740-6" />
      <stop
         offset="1"
         stop-color="#747474"
         id="stop3742-2" />
    </radialGradient>
    <linearGradient
       gradientUnits="userSpaceOnUse"
       id="linearGradient2377"
       x1="18.32872"
       x2="14.40625"
       y1="15.32307"
       y2="14.04688">
      <stop
         offset="0"
         id="stop3723" />
      <stop
         offset="1"
         stop-opacity=".48454"
         id="stop3725" />
    </linearGradient>
    <linearGradient
       gradientUnits="userSpaceOnUse"
       id="linearGradient2405-0"
       x1="16.4375"
       x2="17.40238"
       xlink:href="#linearGradient2399"
       y1="49.11071"
       y2="43.420429" />
    <linearGradient
       inkscape:collect="always"
       xlink:href="#linearGradient4671"
       id="linearGradient1475"
       gradientUnits="userSpaceOnUse"
       gradientTransform="matrix(0.562541,0,0,0.567972,301.94071,459.02523)"
       x1="150.96111"
       y1="192.35176"
       x2="112.03144"
       y2="137.27299" />
    <linearGradient
       id="linearGradient4671">
      <stop
         style="stop-color:#ffd43b;stop-opacity:1;"
         offset="0"
         id="stop4673" />
      <stop
         style="stop-color:#ffe873;stop-opacity:1"
         offset="1"
         id="stop4675" />
    </linearGradient>
    <linearGradient
       inkscape:collect="always"
       xlink:href="#linearGradient4689"
       id="linearGradient1478"
       gradientUnits="userSpaceOnUse"
       gradientTransform="matrix(0.562541,0,0,0.567972,301.0102,459.02523)"
       x1="26.648937"
       y1="20.603781"
       x2="135.66525"
       y2="114.39767" />
    <linearGradient
       id="linearGradient4689">
      <stop
         style="stop-color:#5a9fd4;stop-opacity:1;"
         offset="0"
         id="stop4691" />
      <stop
         style="stop-color:#306998;stop-opacity:1;"
         offset="1"
         id="stop4693" />
    </linearGradient>
    <radialGradient
       cx="25.1875"
       cy="41"
       gradientTransform="matrix(1,0,0,0.42586,0,23.53992)"
       gradientUnits="userSpaceOnUse"
       id="radialGradient2248"
       r="16.4375"
       xlink:href="#linearGradient2355" />
    <radialGradient
       cx="15.4375"
       cy="42.090431"
       gradientTransform="matrix(1,0,0,0.52514,0,22.02165)"
       gradientUnits="userSpaceOnUse"
       id="radialGradient2238"
       r="11.1875">
      <stop
         offset="0"
         stop-color="#b0b0b0"
         id="stop3730" />
      <stop
         offset="1"
         stop-color="#747474"
         id="stop3732" />
    </radialGradient>
    <radialGradient
       cx="19.557501"
       cy="6.6440701"
       gradientTransform="matrix(1.49192,-0.08445108,-0.05874412,3.98672,-9.6468,-20.27595)"
       gradientUnits="userSpaceOnUse"
       id="radialGradient2351"
       r="10.98921">
      <stop
         offset="0"
         stop-color="#d5d5d5"
         id="stop3735" />
      <stop
         offset="1"
         stop-color="#a0a0a0"
         id="stop3737" />
    </radialGradient>
    <radialGradient
       cx="20.27528"
       cy="5.7119699"
       gradientTransform="matrix(2.53075,0,0,2.29601,-31.03641,-6.69986)"
       gradientUnits="userSpaceOnUse"
       id="radialGradient2343"
       r="12.49403"
       xlink:href="#linearGradient2399" />
    <radialGradient
       cx="33.5"
       cy="20.53817"
       gradientTransform="matrix(0.43533,0,0,0.43533,18.91658,12.49341)"
       gradientUnits="userSpaceOnUse"
       id="radialGradient2413"
       r="2.2697401">
      <stop
         offset="0"
         stop-color="#d5d5d5"
         id="stop3740" />
      <stop
         offset="1"
         stop-color="#747474"
         id="stop3742" />
    </radialGradient>
    <linearGradient
       id="linearGradient2795">
      <stop
         id="stop2797"
         offset="0"
         style="stop-color:#b8b8b8;stop-opacity:0.49803922;" />
      <stop
         id="stop2799"
         offset="1"
         style="stop-color:#7f7f7f;stop-opacity:0;" />
    </linearGradient>
    <linearGradient
       id="linearGradient2787">
      <stop
         id="stop2789"
         offset="0"
         style="stop-color:#7f7f7f;stop-opacity:0.5;" />
      <stop
         id="stop2791"
         offset="1"
         style="stop-color:#7f7f7f;stop-opacity:0;" />
    </linearGradient>
    <linearGradient
       id="linearGradient3676">
      <stop
         id="stop3678"
         offset="0"
         style="stop-color:#b2b2b2;stop-opacity:0.5;" />
      <stop
         id="stop3680"
         offset="1"
         style="stop-color:#b3b3b3;stop-opacity:0;" />
    </linearGradient>
    <linearGradient
       id="linearGradient3236">
      <stop
         id="stop3244"
         offset="0"
         style="stop-color:#f4f4f4;stop-opacity:1" />
      <stop
         id="stop3240"
         offset="1"
         style="stop-color:white;stop-opacity:1" />
    </linearGradient>
    <linearGradient
       gradientTransform="translate(100.2702,99.61116)"
       gradientUnits="userSpaceOnUse"
       xlink:href="#linearGradient4671"
       id="linearGradient2987"
       y2="144.75717"
       x2="-65.308502"
       y1="144.75717"
       x1="224.23996" />
    <linearGradient
       gradientTransform="translate(100.2702,99.61116)"
       gradientUnits="userSpaceOnUse"
       xlink:href="#linearGradient4689"
       id="linearGradient2990"
       y2="76.313133"
       x2="26.670298"
       y1="77.475983"
       x1="172.94208" />
    <linearGradient
       y2="144.75717"
       x2="-65.308502"
       y1="144.75717"
       x1="224.23996"
       gradientTransform="matrix(0.562541,0,0,0.567972,-11.5974,-7.60954)"
       gradientUnits="userSpaceOnUse"
       id="linearGradient2255"
       xlink:href="#linearGradient4671"
       inkscape:collect="always" />
    <linearGradient
       y2="76.313133"
       x2="26.670298"
       y1="76.176224"
       x1="172.94208"
       gradientTransform="matrix(0.562541,0,0,0.567972,-11.5974,-7.60954)"
       gradientUnits="userSpaceOnUse"
       id="linearGradient2258"
       xlink:href="#linearGradient4689"
       inkscape:collect="always" />
    <radialGradient
       gradientUnits="userSpaceOnUse"
       gradientTransform="matrix(1,0,0,0.177966,0,108.7434)"
       r="29.036913"
       fy="132.28575"
       fx="61.518883"
       cy="132.28575"
       cx="61.518883"
       id="radialGradient2801"
       xlink:href="#linearGradient2795"
       inkscape:collect="always" />
    <linearGradient
       y2="20.4375"
       y1="15.80366"
       xlink:href="#linearGradient2355"
       x2="33.96875"
       x1="25.160469"
       id="linearGradient2361"
       gradientUnits="userSpaceOnUse" />
    <radialGradient
       r="11.1875"
       id="radialGradient2238-2"
       gradientUnits="userSpaceOnUse"
       gradientTransform="matrix(1,0,0,0.52514,0,22.02165)"
       cy="42.090431"
       cx="15.4375">
      <stop
         id="stop3730-1"
         stop-color="#b0b0b0"
         offset="0" />
      <stop
         id="stop3732-0"
         stop-color="#747474"
         offset="1" />
    </radialGradient>
    <radialGradient
       r="10.98921"
       id="radialGradient2351-5"
       gradientUnits="userSpaceOnUse"
       gradientTransform="matrix(1.49192,-0.08445108,-0.05874412,3.98672,-9.6468,-20.27595)"
       cy="6.6440701"
       cx="19.557501">
      <stop
         id="stop3735-1"
         stop-color="#d5d5d5"
         offset="0" />
      <stop
         id="stop3737-1"
         stop-color="#a0a0a0"
         offset="1" />
    </radialGradient>
    <radialGradient
       r="2.2697401"
       id="radialGradient2413-0"
       gradientUnits="userSpaceOnUse"
       gradientTransform="matrix(0.43533,0,0,0.43533,18.91658,12.49341)"
       cy="20.53817"
       cx="33.5">
      <stop
         id="stop3740-8"
         stop-color="#d5d5d5"
         offset="0" />
      <stop
         id="stop3742-5"
         stop-color="#747474"
         offset="1" />
    </radialGradient>
    <radialGradient
       xlink:href="#linearGradient2355"
       r="16.4375"
       id="radialGradient2248-0"
       gradientUnits="userSpaceOnUse"
       gradientTransform="matrix(1,0,0,0.42586,0,23.53992)"
       cy="41"
       cx="25.1875" />
    <radialGradient
       xlink:href="#linearGradient2399"
       r="12.49403"
       id="radialGradient2343-6"
       gradientUnits="userSpaceOnUse"
       gradientTransform="matrix(2.53075,0,0,2.29601,-31.03641,-6.69986)"
       cy="5.7119699"
       cx="20.27528" />
    <radialGradient
       xlink:href="#linearGradient2355"
       r="16.4375"
       id="radialGradient2248-4-4"
       gradientUnits="userSpaceOnUse"
       gradientTransform="matrix(1,0,0,0.42586,0,23.53992)"
       cy="41"
       cx="25.1875" />
    <radialGradient
       r="11.1875"
       id="radialGradient2238-6-6"
       gradientUnits="userSpaceOnUse"
       gradientTransform="matrix(1,0,0,0.52514,0,22.02165)"
       cy="42.090431"
       cx="15.4375">
      <stop
         id="stop3730-8-2"
         stop-color="#b0b0b0"
         offset="0" />
      <stop
         id="stop3732-8-5"
         stop-color="#747474"
         offset="1" />
    </radialGradient>
    <radialGradient
       r="10.98921"
       id="radialGradient2351-9-2"
       gradientUnits="userSpaceOnUse"
       gradientTransform="matrix(1.49192,-0.08445108,-0.05874412,3.98672,-9.6468,-20.27595)"
       cy="6.6440701"
       cx="19.557501">
      <stop
         id="stop3735-9-8"
         stop-color="#d5d5d5"
         offset="0" />
      <stop
         id="stop3737-8-4"
         stop-color="#a0a0a0"
         offset="1" />
    </radialGradient>
    <radialGradient
       xlink:href="#linearGradient2399"
       r="12.49403"
       id="radialGradient2343-4-7"
       gradientUnits="userSpaceOnUse"
       gradientTransform="matrix(2.53075,0,0,2.29601,-31.03641,-6.69986)"
       cy="5.7119699"
       cx="20.27528" />
    <radialGradient
       r="2.2697401"
       id="radialGradient2413-4-2"
       gradientUnits="userSpaceOnUse"
       gradientTransform="matrix(0.43533,0,0,0.43533,18.91658,12.49341)"
       cy="20.53817"
       cx="33.5">
      <stop
         id="stop3740-6-4"
         stop-color="#d5d5d5"
         offset="0" />
      <stop
         id="stop3742-2-0"
         stop-color="#747474"
         offset="1" />
    </radialGradient>
  </defs>
  <sodipodi:namedview
     id="base"
     pagecolor="#ffffff"
     bordercolor="#666666"
     borderopacity="1.0"
     inkscape:pageopacity="0.0"
     inkscape:pageshadow="2"
     inkscape:zoom="2.8"
     inkscape:cx="-9.0220685"
     inkscape:cy="118.46897"
     inkscape:document-units="mm"
     inkscape:current-layer="layer1"
     showgrid="false"
     inkscape:window-width="1920"
     inkscape:window-height="1043"
     inkscape:window-x="0"
     inkscape:window-y="0"
     inkscape:window-maximized="1"
     fit-margin-top="0"
     fit-margin-left="0"
     fit-margin-right="0"
     fit-margin-bottom="0" />
  <metadata
     id="metadata5">
    <rdf:RDF>
      <cc:Work
         rdf:about="">
        <dc:format>image/svg+xml</dc:format>
        <dc:type
           rdf:resource="http://purl.org/dc/dcmitype/StillImage" />
        <dc:title />
      </cc:Work>
    </rdf:RDF>
  </metadata>
  <g
     inkscape:label="Layer 1"
     inkscape:groupmode="layer"
     id="layer1"
     transform="translate(-64.564861,-28.778713)">
    <path
       inkscape:connector-curvature="0"
       id="path846"
       style="fill:#ffffff;fill-opacity:1;stroke:#2e3092;stroke-width:0.17638889;stroke-linecap:butt;stroke-linejoin:miter;stroke-miterlimit:10;stroke-dasharray:none;stroke-opacity:1"
       d="m 108.64726,66.98055 -21.997105,12.7 -21.9971,-12.7 v -25.4 l 21.9971,-12.699999 21.997105,12.699999 z" />
    <g
       transform="matrix(0.16660401,0,0,0.16660401,77.621871,-47.985512)"
       id="g5790">
      <g
         id="g4229"
         transform="translate(-317.85715,53.571429)">
        <path
           id="path1948"
           d="m 370.92011,470.72852 c -4.58366,0.0213 -8.96094,0.41222 -12.8125,1.09375 -11.34622,2.00451 -13.40625,6.2001 -13.40625,13.9375 v 10.21875 h 26.8125 v 3.40625 h -26.8125 -10.0625 c -7.79246,0 -14.61576,4.68372 -16.75001,13.59375 -2.46182,10.21297 -2.57101,16.58603 0,27.25 1.90593,7.93786 6.45755,13.59375 14.25001,13.59375 h 9.21875 v -12.25 c 0,-8.8499 7.65714,-16.65625 16.75,-16.65625 h 26.78125 c 7.45495,0 13.40625,-6.13816 13.40625,-13.625 v -25.53125 c 0,-7.26634 -6.12998,-12.72477 -13.40625,-13.9375 -4.60599,-0.76672 -9.3851,-1.11505 -13.96875,-1.09375 z m -14.5,8.21875 c 2.76954,0 5.03125,2.29865 5.03125,5.125 -1e-5,2.81634 -2.26171,5.09375 -5.03125,5.09375 -2.77948,0 -5.03125,-2.27741 -5.03125,-5.09375 -1e-5,-2.82635 2.25177,-5.125 5.03125,-5.125 z"
           style="fill:url(#linearGradient1478);fill-opacity:1"
           inkscape:connector-curvature="0" />
        <path
           id="path1950"
           d="m 402.56937,499.38477 v 11.90625 c 0,9.23076 -7.8259,17 -16.75,17 h -26.78125 c -7.33584,0 -13.40625,6.27849 -13.40625,13.625 v 25.53126 c 0,7.26634 6.31858,11.54032 13.40625,13.625 8.48733,2.49561 16.62623,2.94663 26.78125,0 6.75015,-1.95439 13.40625,-5.88761 13.40625,-13.625 v -10.21876 h -26.78125 v -3.40625 h 26.78125 13.40625 c 7.79246,0 10.69625,-5.43541 13.40624,-13.59375 2.79933,-8.39888 2.68022,-16.47577 0,-27.25 -1.92578,-7.75744 -5.60387,-13.59375 -13.40624,-13.59375 z m -15.0625,64.65625 c 2.77947,10e-6 5.03125,2.27742 5.03125,5.09376 -10e-6,2.82635 -2.25178,5.125 -5.03125,5.125 -2.76955,0 -5.03125,-2.29865 -5.03125,-5.125 0,-2.81634 2.26169,-5.09376 5.03125,-5.09376 z"
           style="fill:url(#linearGradient1475);fill-opacity:1"
           inkscape:connector-curvature="0" />
        <path
           id="path9980"
           d="m 308.76154,489.7276 v 7 c 0,4.8785 -4.121,9 -9,9 h -4 c -4.8785,0 -9,-4.1215 -9,-9 v -7 h -4 v 7 c 0,7.047 5.953,13 13,13 v 7 h -8.5 v 4 h 21 v -4 h -8.5 v -7 c 7.047,0 13,-5.953 13,-13 v -7 z"
           inkscape:connector-curvature="0" />
        <path
           id="path9982"
           d="m 295.76154,502.7276 h 4 c 2.857,0 5.394,-2.2415 5.902,-5 h -5.9435 v -2 h 6.0415 v -2 h -6.0415 v -2 h 6.0415 v -2 h -6.0415 v -2 h 6.0415 v -2 h -6.0415 v -2 h 6.0415 v -2 h -6.0415 v -2 h 6.0415 v -2 h -6.0415 v -2 h 5.9435 c -0.508,-2.7585 -3.045,-5 -5.902,-5 h -4 c -3.1965,0 -6,2.8035 -6,6 v 20 c 0,3.1965 2.8035,6 6,6 z"
           inkscape:connector-curvature="0" />
        <path
           id="path9980-7"
           d="m 435.33295,564.11661 v -7 c 0,-4.8785 4.121,-9 9,-9 h 4 c 4.8785,0 9,4.1215 9,9 v 7 h 4 v -7 c 0,-7.047 -5.953,-13 -13,-13 v -7 h 8.5 v -4 h -21 v 4 h 8.5 v 7 c -7.047,0 -13,5.953 -13,13 v 7 z"
           inkscape:connector-curvature="0" />
        <path
           id="path9982-8"
           d="m 448.33295,551.11661 h -4 c -2.857,0 -5.394,2.2415 -5.902,5 h 5.9435 v 2 h -6.0415 v 2 h 6.0415 v 2 h -6.0415 v 2 h 6.0415 v 2 h -6.0415 v 2 h 6.0415 v 2 h -6.0415 v 2 h 6.0415 v 2 h -6.0415 v 2 h 6.0415 v 2 h -5.9435 c 0.508,2.7585 3.045,5 5.902,5 h 4 c 3.1965,0 6,-2.8035 6,-6 v -20 c 0,-3.1965 -2.8035,-6 -6,-6 z"
           inkscape:connector-curvature="0" />
        <g
           id="g4224">
          <g
             id="g4220">
            <path
               sodipodi:nodetypes="cc"
               inkscape:connector-curvature="0"
               id="path10015"
               d="m 410.88323,562.75595 c 3.0786,3.38813 4.48422,7.67153 0,12.14286"
               style="fill:none;fill-rule:evenodd;stroke:#000000;stroke-width:1px;stroke-linecap:butt;stroke-linejoin:miter;stroke-opacity:1" />
            <path
               sodipodi:nodetypes="cc"
               inkscape:connector-curvature="0"
               id="path10015-7"
               d="m 414.26614,559.66641 c 3.74965,5.11006 5.46166,11.57038 0,18.31415"
               style="fill:none;fill-rule:evenodd;stroke:#000000;stroke-width:1.35535014px;stroke-linecap:butt;stroke-linejoin:miter;stroke-opacity:1" />
          </g>
        </g>
        <path
           sodipodi:nodetypes="cc"
           inkscape:connector-curvature="0"
           id="path10015-7-8"
           d="m 417.60218,555.02242 c 4.55214,7.69915 6.63054,17.4327 0,27.59331"
           style="fill:none;fill-rule:evenodd;stroke:#000000;stroke-width:1.83304119px;stroke-linecap:butt;stroke-linejoin:miter;stroke-opacity:1" />
        <g
           id="g4216">
          <path
             style="fill:none;fill-rule:evenodd;stroke:#000000;stroke-width:1px;stroke-linecap:butt;stroke-linejoin:miter;stroke-opacity:1"
             d="m 333.21122,491.08823 c -3.0786,-3.38813 -4.48422,-7.67153 0,-12.14286"
             id="path10015-5"
             inkscape:connector-curvature="0"
             sodipodi:nodetypes="cc" />
          <path
             style="fill:none;fill-rule:evenodd;stroke:#000000;stroke-width:1.35535014px;stroke-linecap:butt;stroke-linejoin:miter;stroke-opacity:1"
             d="m 329.82831,494.17777 c -3.74965,-5.11006 -5.46166,-11.57038 0,-18.31415"
             id="path10015-7-3"
             inkscape:connector-curvature="0"
             sodipodi:nodetypes="cc" />
        </g>
        <path
           sodipodi:nodetypes="cc"
           inkscape:connector-curvature="0"
           id="path10015-7-8-3"
           d="m 326.49227,498.82176 c -4.55214,-7.69915 -6.63054,-17.4327 0,-27.59331"
           style="fill:none;fill-rule:evenodd;stroke:#000000;stroke-width:1.83304119px;stroke-linecap:butt;stroke-linejoin:miter;stroke-opacity:1" />
      </g>
    </g>
    <g
       aria-label="Podcast.__init__"
       style="font-style:normal;font-variant:normal;font-weight:normal;font-stretch:normal;font-size:1.99924827px;line-height:0%;font-family:'Source Code Pro';-inkscape-font-specification:'Source Code Pro, Normal';text-align:start;letter-spacing:0px;word-spacing:0px;writing-mode:lr-tb;text-anchor:start;fill:#000000;fill-opacity:1;stroke:none;stroke-width:0.16660401px;stroke-linecap:butt;stroke-linejoin:miter;stroke-opacity:1"
       id="text4610">
      <path
         d="m 67.007253,62.348061 h 0.345703 v -1.082926 h 0.478987 c 0.599774,0 1.012119,-0.270732 1.012119,-0.845516 0,-0.599774 -0.40818,-0.803864 -1.012119,-0.803864 h -0.82469 z m 0.345703,-1.366153 v -1.087091 h 0.437336 c 0.470656,0 0.703902,0.129118 0.703902,0.524802 0,0.387355 -0.224916,0.562289 -0.703902,0.562289 z"
         style="font-size:4.1651001px;line-height:1;stroke-width:0.16660401px"
         id="path1093" />
      <path
         d="m 70.329376,62.398042 c 0.533133,0 0.999624,-0.387354 0.999624,-1.057936 0,-0.678911 -0.466491,-1.066265 -0.999624,-1.066265 -0.533133,0 -0.999624,0.387354 -0.999624,1.066265 0,0.670582 0.466491,1.057936 0.999624,1.057936 z m 0,-0.283227 c -0.387354,0 -0.645591,-0.312383 -0.645591,-0.774709 0,-0.466491 0.258237,-0.783038 0.645591,-0.783038 0.387354,0 0.64559,0.316547 0.64559,0.783038 0,0.462326 -0.258236,0.774709 -0.64559,0.774709 z"
         style="font-size:4.1651001px;line-height:1;stroke-width:0.16660401px"
         id="path1095" />
      <path
         d="m 72.706021,62.398042 c 0.249906,0 0.491482,-0.145779 0.658086,-0.316548 h 0.0125 l 0.02916,0.266567 h 0.283227 v -2.965552 h -0.341538 v 0.778874 l 0.01666,0.374859 h -0.0125 c -0.174934,-0.166604 -0.362364,-0.262401 -0.60394,-0.262401 -0.478986,0 -0.920487,0.40818 -0.920487,1.066265 0,0.674747 0.349869,1.057936 0.878836,1.057936 z m 0.07081,-0.287392 c -0.374859,0 -0.595609,-0.291557 -0.595609,-0.774709 0,-0.462326 0.283226,-0.774708 0.633095,-0.774708 0.174934,0 0.349868,0.06664 0.533133,0.23741 v 1.007955 c -0.1791,0.199924 -0.370694,0.304052 -0.570619,0.304052 z"
         style="font-size:4.1651001px;line-height:1;stroke-width:0.16660401px"
         id="path1097" />
      <path
         d="m 75.515837,62.398042 c 0.299887,0 0.578949,-0.116623 0.803864,-0.316548 l -0.154108,-0.22075 c -0.166604,0.141613 -0.374859,0.254071 -0.624765,0.254071 -0.466492,0 -0.778874,-0.312383 -0.778874,-0.774709 0,-0.466491 0.320713,-0.783038 0.787204,-0.783038 0.21242,0 0.387354,0.08747 0.553958,0.233245 l 0.170769,-0.22075 c -0.166604,-0.162439 -0.40818,-0.295722 -0.737223,-0.295722 -0.612269,0 -1.128742,0.387354 -1.128742,1.066265 0,0.670582 0.474822,1.057936 1.107917,1.057936 z"
         style="font-size:4.1651001px;line-height:1;stroke-width:0.16660401px"
         id="path1099" />
      <path
         d="m 77.59676,62.398042 c 0.287392,0 0.574784,-0.149944 0.799699,-0.324878 h 0.0125 l 0.02915,0.274897 h 0.279062 v -1.2412 c 0,-0.503977 -0.266566,-0.83302 -0.820525,-0.83302 -0.354033,0 -0.695571,0.158274 -0.899661,0.291557 l 0.133283,0.233245 c 0.187429,-0.116622 0.445666,-0.241575 0.708067,-0.241575 0.391519,0 0.528968,0.233245 0.537298,0.508142 -1.04544,0.0833 -1.466115,0.304052 -1.466115,0.758048 0,0.362364 0.308217,0.574784 0.687241,0.574784 z m 0.09163,-0.274897 c -0.233245,0 -0.445665,-0.0958 -0.445665,-0.324878 0,-0.266566 0.266566,-0.437335 1.132907,-0.508142 v 0.533133 c -0.229081,0.191595 -0.458161,0.299887 -0.687242,0.299887 z"
         style="font-size:4.1651001px;line-height:1;stroke-width:0.16660401px"
         id="path1101" />
      <path
         d="m 80.360759,62.398042 c 0.578949,0 0.899662,-0.274897 0.899662,-0.60394 0,-0.308217 -0.162439,-0.478986 -0.837185,-0.624765 -0.412345,-0.08747 -0.587279,-0.162439 -0.587279,-0.337373 0,-0.154109 0.120787,-0.291557 0.466491,-0.291557 0.258236,0 0.491482,0.0833 0.678911,0.21242 l 0.166604,-0.22075 c -0.199925,-0.137448 -0.508142,-0.258236 -0.816359,-0.258236 -0.553959,0 -0.841351,0.249906 -0.841351,0.574784 0,0.304052 0.266567,0.483151 0.791369,0.591444 0.549794,0.112457 0.633096,0.22075 0.633096,0.374859 0,0.170769 -0.17077,0.316547 -0.512308,0.316547 -0.374859,0 -0.64559,-0.108292 -0.878836,-0.274896 L 79.3653,62.081494 c 0.245741,0.170769 0.599775,0.316548 0.995459,0.316548 z"
         style="font-size:4.1651001px;line-height:1;stroke-width:0.16660401px"
         id="path1103" />
      <path
         d="m 83.208061,62.398042 c 0.254071,0 0.449831,-0.05415 0.633095,-0.120788 l -0.07497,-0.249906 c -0.145779,0.05415 -0.295722,0.09163 -0.487317,0.09163 -0.391519,0 -0.512307,-0.191595 -0.512307,-0.553958 v -0.962138 h 0.995459 v -0.279062 h -0.995459 v -0.649756 h -0.283227 l -0.04582,0.649756 -0.583114,0.02083 v 0.258237 h 0.570618 v 0.957973 c 0,0.499812 0.191595,0.837185 0.783039,0.837185 z"
         style="font-size:4.1651001px;line-height:1;stroke-width:0.16660401px"
         id="path1105" />
      <path
         d="m 85.313976,62.398042 c 0.187429,0 0.337373,-0.141614 0.337373,-0.349869 0,-0.21242 -0.149944,-0.354033 -0.337373,-0.354033 -0.18743,0 -0.337374,0.141613 -0.337374,0.354033 0,0.208255 0.149944,0.349869 0.337374,0.349869 z"
         style="font-size:4.1651001px;line-height:1;stroke-width:0.16660401px"
         id="path1107" />
      <path
         d="m 86.811784,62.931175 h 1.999248 v -0.295722 h -1.999248 z"
         style="font-size:4.1651001px;line-height:1;stroke-width:0.16660401px"
         id="path1109" />
      <path
         d="m 89.309217,62.931175 h 1.999248 v -0.295722 h -1.999248 z"
         style="font-size:4.1651001px;line-height:1;stroke-width:0.16660401px"
         id="path1111" />
      <path
         d="m 92.872915,62.348061 h 0.341538 v -2.024239 h -1.28285 v 0.279062 h 0.941312 z m 0.133283,-2.449079 c 0.154109,0 0.274897,-0.104128 0.274897,-0.266567 0,-0.158273 -0.120788,-0.266566 -0.274897,-0.266566 -0.154108,0 -0.274896,0.108293 -0.274896,0.266566 0,0.162439 0.120788,0.266567 0.274896,0.266567 z"
         style="font-size:4.1651001px;line-height:1;stroke-width:0.16660401px"
         id="path1113" />
      <path
         d="m 94.441533,62.348061 h 0.341538 v -1.411969 c 0.23741,-0.245741 0.399849,-0.366529 0.641425,-0.366529 0.333208,0 0.466491,0.183264 0.466491,0.566453 v 1.212045 h 0.341539 V 61.0902 c 0,-0.533132 -0.220751,-0.816359 -0.699737,-0.816359 -0.316548,0 -0.549793,0.170769 -0.762214,0.395684 h -0.01666 l -0.02916,-0.345703 h -0.283226 z"
         style="font-size:4.1651001px;line-height:1;stroke-width:0.16660401px"
         id="path1115" />
      <path
         d="m 97.867783,62.348061 h 0.341538 V 60.323822 H 96.92647 v 0.279062 h 0.941313 z m 0.133283,-2.449079 c 0.154108,0 0.274896,-0.104128 0.274896,-0.266567 0,-0.158273 -0.120788,-0.266566 -0.274896,-0.266566 -0.154109,0 -0.274897,0.108293 -0.274897,0.266566 0,0.162439 0.120788,0.266567 0.274897,0.266567 z"
         style="font-size:4.1651001px;line-height:1;stroke-width:0.16660401px"
         id="path1117" />
      <path
         d="m 100.6901,62.398042 c 0.25407,0 0.44983,-0.05415 0.63309,-0.120788 l -0.075,-0.249906 c -0.14578,0.05415 -0.29572,0.09163 -0.48732,0.09163 -0.39152,0 -0.51231,-0.191595 -0.51231,-0.553958 v -0.962138 h 0.99546 v -0.279062 h -0.99546 v -0.649756 h -0.283222 l -0.04582,0.649756 -0.583114,0.02083 v 0.258237 h 0.570619 v 0.957973 c 0,0.499812 0.191594,0.837185 0.783044,0.837185 z"
         style="font-size:4.1651001px;line-height:1;stroke-width:0.16660401px"
         id="path1119" />
      <path
         d="m 101.79638,62.931175 h 1.99925 v -0.295722 h -1.99925 z"
         style="font-size:4.1651001px;line-height:1;stroke-width:0.16660401px"
         id="path1121" />
      <path
         d="m 104.29382,62.931175 h 1.99925 v -0.295722 h -1.99925 z"
         style="font-size:4.1651001px;line-height:1;stroke-width:0.16660401px"
         id="path1123" />
    </g>
    <g
       aria-label="www.pythonpodcast.com"
       style="font-style:normal;font-weight:normal;font-size:6.24765015px;line-height:125%;font-family:sans-serif;letter-spacing:0px;word-spacing:0px;fill:#000000;fill-opacity:1;stroke:none;stroke-width:0.15619124px;stroke-linecap:butt;stroke-linejoin:miter;stroke-opacity:1"
       id="text4065">
      <path
         d="M 69.250894,66.333755 H 69.55005 L 69.70245,65.679 c 0.02258,-0.09596 0.04516,-0.231422 0.06773,-0.4064 h 0.01129 c 0.02258,0.174978 0.04516,0.310444 0.06773,0.4064 l 0.158044,0.654755 h 0.299156 l 0.293511,-1.3716 h -0.214489 l -0.163689,0.795867 c -0.0254,0.129822 -0.03951,0.248356 -0.06209,0.378178 h -0.01129 c -0.01693,-0.129822 -0.05362,-0.248356 -0.08467,-0.378178 l -0.163688,-0.7112 h -0.231423 l -0.169333,0.7112 c -0.03104,0.127 -0.06209,0.248356 -0.07902,0.378178 h -0.01129 c -0.01693,-0.129822 -0.03669,-0.248356 -0.06209,-0.378178 l -0.163689,-0.795867 h -0.231422 z"
         style="font-style:normal;font-variant:normal;font-weight:normal;font-stretch:normal;font-size:2.82222223px;font-family:'Source Code Pro';-inkscape-font-specification:'Source Code Pro, Normal';font-variant-ligatures:normal;font-variant-caps:normal;font-variant-numeric:normal;font-feature-settings:normal;text-align:start;writing-mode:lr-tb;text-anchor:start;stroke-width:0.15619124px"
         id="path1126" />
      <path
         d="m 70.943125,66.333755 h 0.299156 l 0.1524,-0.654755 c 0.02258,-0.09596 0.04515,-0.231422 0.06773,-0.4064 h 0.01129 c 0.02258,0.174978 0.04516,0.310444 0.06773,0.4064 l 0.158045,0.654755 h 0.299155 l 0.293512,-1.3716 h -0.214489 l -0.163689,0.795867 c -0.0254,0.129822 -0.03951,0.248356 -0.06209,0.378178 h -0.01129 c -0.01693,-0.129822 -0.05362,-0.248356 -0.08467,-0.378178 l -0.163689,-0.7112 h -0.231422 l -0.169333,0.7112 c -0.03104,0.127 -0.06209,0.248356 -0.07902,0.378178 h -0.01129 c -0.01693,-0.129822 -0.03669,-0.248356 -0.06209,-0.378178 L 70.875392,64.962155 H 70.64397 Z"
         style="font-style:normal;font-variant:normal;font-weight:normal;font-stretch:normal;font-size:2.82222223px;font-family:'Source Code Pro';-inkscape-font-specification:'Source Code Pro, Normal';font-variant-ligatures:normal;font-variant-caps:normal;font-variant-numeric:normal;font-feature-settings:normal;text-align:start;writing-mode:lr-tb;text-anchor:start;stroke-width:0.15619124px"
         id="path1128" />
      <path
         d="m 72.635356,66.333755 h 0.299156 l 0.1524,-0.654755 c 0.02258,-0.09596 0.04516,-0.231422 0.06773,-0.4064 h 0.01129 c 0.02258,0.174978 0.04516,0.310444 0.06773,0.4064 l 0.158045,0.654755 h 0.299155 l 0.293512,-1.3716 H 73.76989 l -0.163689,0.795867 c -0.0254,0.129822 -0.03951,0.248356 -0.06209,0.378178 h -0.01129 c -0.01693,-0.129822 -0.05362,-0.248356 -0.08467,-0.378178 l -0.163689,-0.7112 h -0.231422 l -0.169333,0.7112 c -0.03105,0.127 -0.06209,0.248356 -0.07902,0.378178 h -0.01129 c -0.01693,-0.129822 -0.03669,-0.248356 -0.06209,-0.378178 l -0.163689,-0.795867 h -0.231422 z"
         style="font-style:normal;font-variant:normal;font-weight:normal;font-stretch:normal;font-size:2.82222223px;font-family:'Source Code Pro';-inkscape-font-specification:'Source Code Pro, Normal';font-variant-ligatures:normal;font-variant-caps:normal;font-variant-numeric:normal;font-feature-settings:normal;text-align:start;writing-mode:lr-tb;text-anchor:start;stroke-width:0.15619124px"
         id="path1130" />
      <path
         d="m 74.85252,66.367622 c 0.127,0 0.2286,-0.09596 0.2286,-0.237067 0,-0.143933 -0.1016,-0.239888 -0.2286,-0.239888 -0.127,0 -0.2286,0.09596 -0.2286,0.239888 0,0.141112 0.1016,0.237067 0.2286,0.237067 z"
         style="font-style:normal;font-variant:normal;font-weight:normal;font-stretch:normal;font-size:2.82222223px;font-family:'Source Code Pro';-inkscape-font-specification:'Source Code Pro, Normal';font-variant-ligatures:normal;font-variant-caps:normal;font-variant-numeric:normal;font-feature-settings:normal;text-align:start;writing-mode:lr-tb;text-anchor:start;stroke-width:0.15619124px"
         id="path1132" />
      <path
         d="m 75.960551,66.912311 h 0.231423 v -0.462844 l -0.01129,-0.259645 h 0.0085 c 0.121356,0.112889 0.282223,0.1778 0.409223,0.1778 0.3302,0 0.623711,-0.273755 0.623711,-0.739422 0,-0.426156 -0.197556,-0.699911 -0.567267,-0.699911 -0.169333,0 -0.347133,0.08749 -0.474133,0.208844 h -0.0085 l -0.01976,-0.174978 h -0.191912 z m 0.598312,-0.739422 c -0.09313,0 -0.237067,-0.04516 -0.366889,-0.160867 v -0.682978 c 0.141111,-0.141111 0.282222,-0.206022 0.403578,-0.206022 0.273755,0 0.386644,0.2032 0.386644,0.505178 0,0.338667 -0.1778,0.544689 -0.423333,0.544689 z"
         style="font-style:normal;font-variant:normal;font-weight:normal;font-stretch:normal;font-size:2.82222223px;font-family:'Source Code Pro';-inkscape-font-specification:'Source Code Pro, Normal';font-variant-ligatures:normal;font-variant-caps:normal;font-variant-numeric:normal;font-feature-settings:normal;text-align:start;writing-mode:lr-tb;text-anchor:start;stroke-width:0.15619124px"
         id="path1134" />
      <path
         d="m 77.760027,66.9236 c 0.310445,0 0.479778,-0.206022 0.581378,-0.476956 l 0.603955,-1.484489 h -0.220133 l -0.299155,0.759178 c -0.04516,0.124178 -0.09878,0.268111 -0.146756,0.397934 h -0.01129 c -0.05644,-0.132645 -0.115711,-0.276578 -0.169333,-0.397934 l -0.335845,-0.759178 h -0.234244 l 0.640644,1.374423 -0.04233,0.1016 c -0.06773,0.169333 -0.183444,0.293511 -0.375356,0.293511 -0.04233,0 -0.08749,-0.0085 -0.124177,-0.01976 l -0.04798,0.183445 c 0.04798,0.01693 0.115711,0.02822 0.180622,0.02822 z"
         style="font-style:normal;font-variant:normal;font-weight:normal;font-stretch:normal;font-size:2.82222223px;font-family:'Source Code Pro';-inkscape-font-specification:'Source Code Pro, Normal';font-variant-ligatures:normal;font-variant-caps:normal;font-variant-numeric:normal;font-feature-settings:normal;text-align:start;writing-mode:lr-tb;text-anchor:start;stroke-width:0.15619124px"
         id="path1136" />
      <path
         d="m 80.194502,66.367622 c 0.172155,0 0.3048,-0.03669 0.428978,-0.08184 l -0.0508,-0.169334 c -0.09878,0.03669 -0.200378,0.06209 -0.3302,0.06209 -0.265289,0 -0.347134,-0.129822 -0.347134,-0.375355 v -0.651934 h 0.674511 v -0.189089 h -0.674511 v -0.440266 h -0.191911 l -0.03104,0.440266 -0.395111,0.01411 v 0.174977 h 0.386644 v 0.649111 c 0,0.338667 0.129822,0.567267 0.530578,0.567267 z"
         style="font-style:normal;font-variant:normal;font-weight:normal;font-stretch:normal;font-size:2.82222223px;font-family:'Source Code Pro';-inkscape-font-specification:'Source Code Pro, Normal';font-variant-ligatures:normal;font-variant-caps:normal;font-variant-numeric:normal;font-feature-settings:normal;text-align:start;writing-mode:lr-tb;text-anchor:start;stroke-width:0.15619124px"
         id="path1138" />
      <path
         d="m 81.037244,66.333755 h 0.231422 v -0.956733 c 0.160867,-0.166511 0.270934,-0.248355 0.434623,-0.248355 0.225777,0 0.316088,0.124177 0.316088,0.383822 v 0.821266 H 82.2508 v -0.852311 c 0,-0.361244 -0.149578,-0.553155 -0.474134,-0.553155 -0.214489,0 -0.372533,0.115711 -0.513644,0.268111 h -0.0085 l 0.01411,-0.324556 v -0.547511 h -0.231422 z"
         style="font-style:normal;font-variant:normal;font-weight:normal;font-stretch:normal;font-size:2.82222223px;font-family:'Source Code Pro';-inkscape-font-specification:'Source Code Pro, Normal';font-variant-ligatures:normal;font-variant-caps:normal;font-variant-numeric:normal;font-feature-settings:normal;text-align:start;writing-mode:lr-tb;text-anchor:start;stroke-width:0.15619124px"
         id="path1140" />
      <path
         d="m 83.313675,66.367622 c 0.361245,0 0.677334,-0.262467 0.677334,-0.716844 0,-0.460023 -0.316089,-0.722489 -0.677334,-0.722489 -0.361244,0 -0.677333,0.262466 -0.677333,0.722489 0,0.454377 0.316089,0.716844 0.677333,0.716844 z m 0,-0.191911 c -0.262466,0 -0.437444,-0.211667 -0.437444,-0.524933 0,-0.316089 0.174978,-0.530578 0.437444,-0.530578 0.262467,0 0.437445,0.214489 0.437445,0.530578 0,0.313266 -0.174978,0.524933 -0.437445,0.524933 z"
         style="font-style:normal;font-variant:normal;font-weight:normal;font-stretch:normal;font-size:2.82222223px;font-family:'Source Code Pro';-inkscape-font-specification:'Source Code Pro, Normal';font-variant-ligatures:normal;font-variant-caps:normal;font-variant-numeric:normal;font-feature-settings:normal;text-align:start;writing-mode:lr-tb;text-anchor:start;stroke-width:0.15619124px"
         id="path1142" />
      <path
         d="m 84.421706,66.333755 h 0.231423 v -0.956733 c 0.160866,-0.166511 0.270933,-0.248355 0.434622,-0.248355 0.225778,0 0.316089,0.124177 0.316089,0.383822 v 0.821266 h 0.231422 v -0.852311 c 0,-0.361244 -0.149578,-0.553155 -0.474133,-0.553155 -0.214489,0 -0.372534,0.115711 -0.516467,0.268111 h -0.01129 l -0.01976,-0.234245 h -0.191912 z"
         style="font-style:normal;font-variant:normal;font-weight:normal;font-stretch:normal;font-size:2.82222223px;font-family:'Source Code Pro';-inkscape-font-specification:'Source Code Pro, Normal';font-variant-ligatures:normal;font-variant-caps:normal;font-variant-numeric:normal;font-feature-settings:normal;text-align:start;writing-mode:lr-tb;text-anchor:start;stroke-width:0.15619124px"
         id="path1144" />
      <path
         d="m 86.113938,66.912311 h 0.231422 v -0.462844 l -0.01129,-0.259645 h 0.0085 c 0.121355,0.112889 0.282222,0.1778 0.409222,0.1778 0.3302,0 0.623711,-0.273755 0.623711,-0.739422 0,-0.426156 -0.197556,-0.699911 -0.567267,-0.699911 -0.169333,0 -0.347133,0.08749 -0.474133,0.208844 h -0.0085 l -0.01976,-0.174978 h -0.191911 z m 0.598311,-0.739422 c -0.09313,0 -0.237067,-0.04516 -0.366889,-0.160867 v -0.682978 c 0.141111,-0.141111 0.282222,-0.206022 0.403578,-0.206022 0.273755,0 0.386644,0.2032 0.386644,0.505178 0,0.338667 -0.1778,0.544689 -0.423333,0.544689 z"
         style="font-style:normal;font-variant:normal;font-weight:normal;font-stretch:normal;font-size:2.82222223px;font-family:'Source Code Pro';-inkscape-font-specification:'Source Code Pro, Normal';font-variant-ligatures:normal;font-variant-caps:normal;font-variant-numeric:normal;font-feature-settings:normal;text-align:start;writing-mode:lr-tb;text-anchor:start;stroke-width:0.15619124px"
         id="path1146" />
      <path
         d="m 88.390368,66.367622 c 0.361244,0 0.677333,-0.262467 0.677333,-0.716844 0,-0.460023 -0.316089,-0.722489 -0.677333,-0.722489 -0.361245,0 -0.677333,0.262466 -0.677333,0.722489 0,0.454377 0.316088,0.716844 0.677333,0.716844 z m 0,-0.191911 c -0.262467,0 -0.437445,-0.211667 -0.437445,-0.524933 0,-0.316089 0.174978,-0.530578 0.437445,-0.530578 0.262467,0 0.437444,0.214489 0.437444,0.530578 0,0.313266 -0.174977,0.524933 -0.437444,0.524933 z"
         style="font-style:normal;font-variant:normal;font-weight:normal;font-stretch:normal;font-size:2.82222223px;font-family:'Source Code Pro';-inkscape-font-specification:'Source Code Pro, Normal';font-variant-ligatures:normal;font-variant-caps:normal;font-variant-numeric:normal;font-feature-settings:normal;text-align:start;writing-mode:lr-tb;text-anchor:start;stroke-width:0.15619124px"
         id="path1148" />
      <path
         d="m 90.000754,66.367622 c 0.169333,0 0.333022,-0.09878 0.445911,-0.214489 h 0.0085 l 0.01976,0.180622 h 0.191911 v -2.009422 h -0.231422 v 0.527756 l 0.01129,0.254 h -0.0085 c -0.118533,-0.112889 -0.245533,-0.1778 -0.409222,-0.1778 -0.324556,0 -0.623711,0.276578 -0.623711,0.722489 0,0.4572 0.237066,0.716844 0.595489,0.716844 z m 0.04798,-0.194733 c -0.254,0 -0.403577,-0.197556 -0.403577,-0.524934 0,-0.313266 0.191911,-0.524933 0.428977,-0.524933 0.118534,0 0.237067,0.04516 0.361245,0.160867 v 0.682978 c -0.121356,0.135466 -0.251178,0.206022 -0.386645,0.206022 z"
         style="font-style:normal;font-variant:normal;font-weight:normal;font-stretch:normal;font-size:2.82222223px;font-family:'Source Code Pro';-inkscape-font-specification:'Source Code Pro, Normal';font-variant-ligatures:normal;font-variant-caps:normal;font-variant-numeric:normal;font-feature-settings:normal;text-align:start;writing-mode:lr-tb;text-anchor:start;stroke-width:0.15619124px"
         id="path1150" />
      <path
         d="m 91.904652,66.367622 c 0.2032,0 0.392289,-0.07902 0.544689,-0.214489 l -0.104422,-0.149578 c -0.112889,0.09596 -0.254,0.172156 -0.423333,0.172156 -0.316089,0 -0.527756,-0.211667 -0.527756,-0.524933 0,-0.316089 0.217311,-0.530578 0.5334,-0.530578 0.143934,0 0.262467,0.05927 0.375356,0.158044 l 0.115711,-0.149577 c -0.112889,-0.110067 -0.276578,-0.200378 -0.499533,-0.200378 -0.414867,0 -0.764823,0.262466 -0.764823,0.722489 0,0.454377 0.321734,0.716844 0.750711,0.716844 z"
         style="font-style:normal;font-variant:normal;font-weight:normal;font-stretch:normal;font-size:2.82222223px;font-family:'Source Code Pro';-inkscape-font-specification:'Source Code Pro, Normal';font-variant-ligatures:normal;font-variant-caps:normal;font-variant-numeric:normal;font-feature-settings:normal;text-align:start;writing-mode:lr-tb;text-anchor:start;stroke-width:0.15619124px"
         id="path1152" />
      <path
         d="m 93.31466,66.367622 c 0.194734,0 0.389467,-0.1016 0.541867,-0.220133 h 0.0085 l 0.01976,0.186266 h 0.189089 v -0.841022 c 0,-0.341489 -0.180622,-0.564444 -0.555978,-0.564444 -0.239888,0 -0.471311,0.107244 -0.6096,0.197555 l 0.09031,0.158045 c 0.127,-0.07902 0.301977,-0.163689 0.479777,-0.163689 0.265289,0 0.358423,0.158044 0.364067,0.344311 -0.708378,0.05644 -0.993422,0.206022 -0.993422,0.513644 0,0.245534 0.208844,0.389467 0.465666,0.389467 z m 0.06209,-0.186267 c -0.158044,0 -0.301977,-0.06491 -0.301977,-0.220133 0,-0.180622 0.180622,-0.296333 0.767644,-0.344311 v 0.361244 c -0.155222,0.129823 -0.310444,0.2032 -0.465667,0.2032 z"
         style="font-style:normal;font-variant:normal;font-weight:normal;font-stretch:normal;font-size:2.82222223px;font-family:'Source Code Pro';-inkscape-font-specification:'Source Code Pro, Normal';font-variant-ligatures:normal;font-variant-caps:normal;font-variant-numeric:normal;font-feature-settings:normal;text-align:start;writing-mode:lr-tb;text-anchor:start;stroke-width:0.15619124px"
         id="path1154" />
      <path
         d="m 95.187515,66.367622 c 0.392289,0 0.6096,-0.186267 0.6096,-0.409222 0,-0.208845 -0.110067,-0.324556 -0.567267,-0.423333 -0.2794,-0.05927 -0.397933,-0.110067 -0.397933,-0.2286 0,-0.104423 0.08184,-0.197556 0.316089,-0.197556 0.174977,0 0.333022,0.05644 0.460022,0.143933 l 0.112889,-0.149577 c -0.135467,-0.09313 -0.344311,-0.174978 -0.553156,-0.174978 -0.375355,0 -0.570089,0.169333 -0.570089,0.389466 0,0.206023 0.180623,0.327378 0.536223,0.400756 0.372533,0.0762 0.428977,0.149578 0.428977,0.254 0,0.115711 -0.115711,0.214489 -0.347133,0.214489 -0.254,0 -0.437444,-0.07338 -0.595489,-0.186267 l -0.107244,0.1524 c 0.166511,0.115711 0.4064,0.214489 0.674511,0.214489 z"
         style="font-style:normal;font-variant:normal;font-weight:normal;font-stretch:normal;font-size:2.82222223px;font-family:'Source Code Pro';-inkscape-font-specification:'Source Code Pro, Normal';font-variant-ligatures:normal;font-variant-caps:normal;font-variant-numeric:normal;font-feature-settings:normal;text-align:start;writing-mode:lr-tb;text-anchor:start;stroke-width:0.15619124px"
         id="path1156" />
      <path
         d="m 97.116812,66.367622 c 0.172155,0 0.3048,-0.03669 0.428977,-0.08184 l -0.0508,-0.169334 c -0.09878,0.03669 -0.200377,0.06209 -0.3302,0.06209 -0.265288,0 -0.347133,-0.129822 -0.347133,-0.375355 v -0.651934 h 0.674511 v -0.189089 h -0.674511 v -0.440266 h -0.191911 l -0.03104,0.440266 -0.395112,0.01411 v 0.174977 h 0.386645 v 0.649111 c 0,0.338667 0.129822,0.567267 0.530578,0.567267 z"
         style="font-style:normal;font-variant:normal;font-weight:normal;font-stretch:normal;font-size:2.82222223px;font-family:'Source Code Pro';-inkscape-font-specification:'Source Code Pro, Normal';font-variant-ligatures:normal;font-variant-caps:normal;font-variant-numeric:normal;font-feature-settings:normal;text-align:start;writing-mode:lr-tb;text-anchor:start;stroke-width:0.15619124px"
         id="path1158" />
      <path
         d="m 98.543753,66.367622 c 0.127,0 0.2286,-0.09596 0.2286,-0.237067 0,-0.143933 -0.1016,-0.239888 -0.2286,-0.239888 -0.127,0 -0.2286,0.09596 -0.2286,0.239888 0,0.141112 0.1016,0.237067 0.2286,0.237067 z"
         style="font-style:normal;font-variant:normal;font-weight:normal;font-stretch:normal;font-size:2.82222223px;font-family:'Source Code Pro';-inkscape-font-specification:'Source Code Pro, Normal';font-variant-ligatures:normal;font-variant-caps:normal;font-variant-numeric:normal;font-feature-settings:normal;text-align:start;writing-mode:lr-tb;text-anchor:start;stroke-width:0.15619124px"
         id="path1160" />
      <path
         d="m 100.36581,66.367622 c 0.2032,0 0.39229,-0.07902 0.54469,-0.214489 l -0.10443,-0.149578 c -0.11288,0.09596 -0.254,0.172156 -0.42333,0.172156 -0.31609,0 -0.527755,-0.211667 -0.527755,-0.524933 0,-0.316089 0.217315,-0.530578 0.533405,-0.530578 0.14393,0 0.26246,0.05927 0.37535,0.158044 l 0.11571,-0.149577 c -0.11289,-0.110067 -0.27658,-0.200378 -0.49953,-0.200378 -0.414868,0 -0.764824,0.262466 -0.764824,0.722489 0,0.454377 0.321734,0.716844 0.750714,0.716844 z"
         style="font-style:normal;font-variant:normal;font-weight:normal;font-stretch:normal;font-size:2.82222223px;font-family:'Source Code Pro';-inkscape-font-specification:'Source Code Pro, Normal';font-variant-ligatures:normal;font-variant-caps:normal;font-variant-numeric:normal;font-feature-settings:normal;text-align:start;writing-mode:lr-tb;text-anchor:start;stroke-width:0.15619124px"
         id="path1162" />
      <path
         d="m 101.92822,66.367622 c 0.36124,0 0.67733,-0.262467 0.67733,-0.716844 0,-0.460023 -0.31609,-0.722489 -0.67733,-0.722489 -0.36125,0 -0.67734,0.262466 -0.67734,0.722489 0,0.454377 0.31609,0.716844 0.67734,0.716844 z m 0,-0.191911 c -0.26247,0 -0.43745,-0.211667 -0.43745,-0.524933 0,-0.316089 0.17498,-0.530578 0.43745,-0.530578 0.26246,0 0.43744,0.214489 0.43744,0.530578 0,0.313266 -0.17498,0.524933 -0.43744,0.524933 z"
         style="font-style:normal;font-variant:normal;font-weight:normal;font-stretch:normal;font-size:2.82222223px;font-family:'Source Code Pro';-inkscape-font-specification:'Source Code Pro, Normal';font-variant-ligatures:normal;font-variant-caps:normal;font-variant-numeric:normal;font-feature-settings:normal;text-align:start;writing-mode:lr-tb;text-anchor:start;stroke-width:0.15619124px"
         id="path1164" />
      <path
         d="m 102.93747,66.333755 h 0.23142 v -0.993422 c 0.0677,-0.141111 0.12982,-0.211666 0.22578,-0.211666 0.1016,0 0.14111,0.08184 0.14111,0.239888 v 0.9652 h 0.21449 v -0.993422 c 0.0734,-0.141111 0.12418,-0.211666 0.22013,-0.211666 0.1016,0 0.14676,0.08184 0.14676,0.239888 v 0.9652 h 0.23142 v -0.982133 c 0,-0.273755 -0.11289,-0.423333 -0.3048,-0.423333 -0.15804,0 -0.24271,0.09031 -0.32173,0.237066 -0.0395,-0.158044 -0.12418,-0.237066 -0.25965,-0.237066 -0.15804,0 -0.24271,0.08749 -0.31326,0.214489 h -0.006 l -0.0198,-0.180623 h -0.18627 z"
         style="font-style:normal;font-variant:normal;font-weight:normal;font-stretch:normal;font-size:2.82222223px;font-family:'Source Code Pro';-inkscape-font-specification:'Source Code Pro, Normal';font-variant-ligatures:normal;font-variant-caps:normal;font-variant-numeric:normal;font-feature-settings:normal;text-align:start;writing-mode:lr-tb;text-anchor:start;stroke-width:0.15619124px"
         id="path1166" />
    </g>
  </g>
</svg>
