<?xml version="1.0" encoding="UTF-8" standalone="no"?>
<!-- Created with Inkscape (http://www.inkscape.org/) -->

<svg
   xmlns:dc="http://purl.org/dc/elements/1.1/"
   xmlns:cc="http://creativecommons.org/ns#"
   xmlns:rdf="http://www.w3.org/1999/02/22-rdf-syntax-ns#"
   xmlns:svg="http://www.w3.org/2000/svg"
   xmlns="http://www.w3.org/2000/svg"
   xmlns:xlink="http://www.w3.org/1999/xlink"
   xmlns:sodipodi="http://sodipodi.sourceforge.net/DTD/sodipodi-0.dtd"
   xmlns:inkscape="http://www.inkscape.org/namespaces/inkscape"
   width="210mm"
   height="297mm"
   viewBox="0 0 210 297"
   version="1.1"
   id="svg7417"
   inkscape:version="0.92.4 5da689c313, 2019-01-14"
   sodipodi:docname="hexagon_sticker.svg">
  <defs
     id="defs7411">
    <linearGradient
       inkscape:collect="always"
       xlink:href="#linearGradient4689"
       id="linearGradient1478"
       gradientUnits="userSpaceOnUse"
       gradientTransform="matrix(0.562541,0,0,0.567972,301.0102,459.02523)"
       x1="26.648937"
       y1="20.603781"
       x2="135.66525"
       y2="114.39767" />
    <linearGradient
       id="linearGradient4689">
      <stop
         style="stop-color:#5a9fd4;stop-opacity:1;"
         offset="0"
         id="stop4691" />
      <stop
         style="stop-color:#306998;stop-opacity:1;"
         offset="1"
         id="stop4693" />
    </linearGradient>
    <linearGradient
       inkscape:collect="always"
       xlink:href="#linearGradient4671"
       id="linearGradient1475"
       gradientUnits="userSpaceOnUse"
       gradientTransform="matrix(0.562541,0,0,0.567972,301.94071,459.02523)"
       x1="150.96111"
       y1="192.35176"
       x2="112.03144"
       y2="137.27299" />
    <linearGradient
       id="linearGradient4671">
      <stop
         style="stop-color:#ffd43b;stop-opacity:1;"
         offset="0"
         id="stop4673" />
      <stop
         style="stop-color:#ffe873;stop-opacity:1"
         offset="1"
         id="stop4675" />
    </linearGradient>
  </defs>
  <sodipodi:namedview
     id="base"
     pagecolor="#ffffff"
     bordercolor="#666666"
     borderopacity="1.0"
     inkscape:pageopacity="0.0"
     inkscape:pageshadow="2"
     inkscape:zoom="0.35"
     inkscape:cx="400"
     inkscape:cy="560"
     inkscape:document-units="mm"
     inkscape:current-layer="layer1"
     showgrid="false"
     inkscape:window-width="1920"
     inkscape:window-height="1043"
     inkscape:window-x="0"
     inkscape:window-y="0"
     inkscape:window-maximized="1" />
  <metadata
     id="metadata7414">
    <rdf:RDF>
      <cc:Work
         rdf:about="">
        <dc:format>image/svg+xml</dc:format>
        <dc:type
           rdf:resource="http://purl.org/dc/dcmitype/StillImage" />
        <dc:title></dc:title>
      </cc:Work>
    </rdf:RDF>
  </metadata>
  <g
     inkscape:label="Layer 1"
     inkscape:groupmode="layer"
     id="layer1">
    <g
       id="g4547"
       transform="matrix(0.23224131,0,0,-0.23224131,126.63956,142.29787)">
      <path
         d="M 0,0 -109.119,-63 -218.238,0 V 126 L -109.119,189 0,126 Z"
         style="fill:none;stroke:#2e3092;stroke-width:0.5;stroke-linecap:butt;stroke-linejoin:miter;stroke-miterlimit:10;stroke-dasharray:none;stroke-opacity:1"
         id="path4549"
         inkscape:connector-curvature="0" />
    </g>
    <g
       id="g7369"
       transform="matrix(0.65832183,0,0,0.65832183,31.127539,53.637431)">
      <g
         id="g5790"
         transform="matrix(0.28222225,0,0,0.28222225,91.295672,-60.923788)">
        <g
           transform="translate(-317.85715,53.571429)"
           id="g4229">
          <path
             inkscape:connector-curvature="0"
             style="fill:url(#linearGradient1478);fill-opacity:1"
             d="m 370.92011,470.72852 c -4.58366,0.0213 -8.96094,0.41222 -12.8125,1.09375 -11.34622,2.00451 -13.40625,6.2001 -13.40625,13.9375 v 10.21875 h 26.8125 v 3.40625 h -26.8125 -10.0625 c -7.79246,0 -14.61576,4.68372 -16.75001,13.59375 -2.46182,10.21297 -2.57101,16.58603 0,27.25 1.90593,7.93786 6.45755,13.59375 14.25001,13.59375 h 9.21875 v -12.25 c 0,-8.8499 7.65714,-16.65625 16.75,-16.65625 h 26.78125 c 7.45495,0 13.40625,-6.13816 13.40625,-13.625 v -25.53125 c 0,-7.26634 -6.12998,-12.72477 -13.40625,-13.9375 -4.60599,-0.76672 -9.3851,-1.11505 -13.96875,-1.09375 z m -14.5,8.21875 c 2.76954,0 5.03125,2.29865 5.03125,5.125 -1e-5,2.81634 -2.26171,5.09375 -5.03125,5.09375 -2.77948,0 -5.03125,-2.27741 -5.03125,-5.09375 -1e-5,-2.82635 2.25177,-5.125 5.03125,-5.125 z"
             id="path1948" />
          <path
             inkscape:connector-curvature="0"
             style="fill:url(#linearGradient1475);fill-opacity:1"
             d="m 402.56937,499.38477 v 11.90625 c 0,9.23076 -7.8259,17 -16.75,17 h -26.78125 c -7.33584,0 -13.40625,6.27849 -13.40625,13.625 v 25.53126 c 0,7.26634 6.31858,11.54032 13.40625,13.625 8.48733,2.49561 16.62623,2.94663 26.78125,0 6.75015,-1.95439 13.40625,-5.88761 13.40625,-13.625 v -10.21876 h -26.78125 v -3.40625 h 26.78125 13.40625 c 7.79246,0 10.69625,-5.43541 13.40624,-13.59375 2.79933,-8.39888 2.68022,-16.47577 0,-27.25 -1.92578,-7.75744 -5.60387,-13.59375 -13.40624,-13.59375 z m -15.0625,64.65625 c 2.77947,10e-6 5.03125,2.27742 5.03125,5.09376 -10e-6,2.82635 -2.25178,5.125 -5.03125,5.125 -2.76955,0 -5.03125,-2.29865 -5.03125,-5.125 0,-2.81634 2.26169,-5.09376 5.03125,-5.09376 z"
             id="path1950" />
          <path
             inkscape:connector-curvature="0"
             d="m 308.76154,489.7276 v 7 c 0,4.8785 -4.121,9 -9,9 h -4 c -4.8785,0 -9,-4.1215 -9,-9 v -7 h -4 v 7 c 0,7.047 5.953,13 13,13 v 7 h -8.5 v 4 h 21 v -4 h -8.5 v -7 c 7.047,0 13,-5.953 13,-13 v -7 z"
             id="path9980" />
          <path
             inkscape:connector-curvature="0"
             d="m 295.76154,502.7276 h 4 c 2.857,0 5.394,-2.2415 5.902,-5 h -5.9435 v -2 h 6.0415 v -2 h -6.0415 v -2 h 6.0415 v -2 h -6.0415 v -2 h 6.0415 v -2 h -6.0415 v -2 h 6.0415 v -2 h -6.0415 v -2 h 6.0415 v -2 h -6.0415 v -2 h 5.9435 c -0.508,-2.7585 -3.045,-5 -5.902,-5 h -4 c -3.1965,0 -6,2.8035 -6,6 v 20 c 0,3.1965 2.8035,6 6,6 z"
             id="path9982" />
          <path
             inkscape:connector-curvature="0"
             d="m 435.33295,564.11661 v -7 c 0,-4.8785 4.121,-9 9,-9 h 4 c 4.8785,0 9,4.1215 9,9 v 7 h 4 v -7 c 0,-7.047 -5.953,-13 -13,-13 v -7 h 8.5 v -4 h -21 v 4 h 8.5 v 7 c -7.047,0 -13,5.953 -13,13 v 7 z"
             id="path9980-7" />
          <path
             inkscape:connector-curvature="0"
             d="m 448.33295,551.11661 h -4 c -2.857,0 -5.394,2.2415 -5.902,5 h 5.9435 v 2 h -6.0415 v 2 h 6.0415 v 2 h -6.0415 v 2 h 6.0415 v 2 h -6.0415 v 2 h 6.0415 v 2 h -6.0415 v 2 h 6.0415 v 2 h -6.0415 v 2 h 6.0415 v 2 h -5.9435 c 0.508,2.7585 3.045,5 5.902,5 h 4 c 3.1965,0 6,-2.8035 6,-6 v -20 c 0,-3.1965 -2.8035,-6 -6,-6 z"
             id="path9982-8" />
          <g
             id="g4224">
            <g
               id="g4220">
              <path
                 style="fill:none;fill-rule:evenodd;stroke:#000000;stroke-width:1px;stroke-linecap:butt;stroke-linejoin:miter;stroke-opacity:1"
                 d="m 410.88323,562.75595 c 3.0786,3.38813 4.48422,7.67153 0,12.14286"
                 id="path10015"
                 inkscape:connector-curvature="0"
                 sodipodi:nodetypes="cc" />
              <path
                 style="fill:none;fill-rule:evenodd;stroke:#000000;stroke-width:1.35535014px;stroke-linecap:butt;stroke-linejoin:miter;stroke-opacity:1"
                 d="m 414.26614,559.66641 c 3.74965,5.11006 5.46166,11.57038 0,18.31415"
                 id="path10015-7"
                 inkscape:connector-curvature="0"
                 sodipodi:nodetypes="cc" />
            </g>
          </g>
          <path
             style="fill:none;fill-rule:evenodd;stroke:#000000;stroke-width:1.83304119px;stroke-linecap:butt;stroke-linejoin:miter;stroke-opacity:1"
             d="m 417.60218,555.02242 c 4.55214,7.69915 6.63054,17.4327 0,27.59331"
             id="path10015-7-8"
             inkscape:connector-curvature="0"
             sodipodi:nodetypes="cc" />
          <g
             id="g4216">
            <path
               sodipodi:nodetypes="cc"
               inkscape:connector-curvature="0"
               id="path10015-5"
               d="m 333.21122,491.08823 c -3.0786,-3.38813 -4.48422,-7.67153 0,-12.14286"
               style="fill:none;fill-rule:evenodd;stroke:#000000;stroke-width:1px;stroke-linecap:butt;stroke-linejoin:miter;stroke-opacity:1" />
            <path
               sodipodi:nodetypes="cc"
               inkscape:connector-curvature="0"
               id="path10015-7-3"
               d="m 329.82831,494.17777 c -3.74965,-5.11006 -5.46166,-11.57038 0,-18.31415"
               style="fill:none;fill-rule:evenodd;stroke:#000000;stroke-width:1.35535014px;stroke-linecap:butt;stroke-linejoin:miter;stroke-opacity:1" />
          </g>
          <path
             style="fill:none;fill-rule:evenodd;stroke:#000000;stroke-width:1.83304119px;stroke-linecap:butt;stroke-linejoin:miter;stroke-opacity:1"
             d="m 326.49227,498.82176 c -4.55214,-7.69915 -6.63054,-17.4327 0,-27.59331"
             id="path10015-7-8-3"
             inkscape:connector-curvature="0"
             sodipodi:nodetypes="cc" />
        </g>
      </g>
      <text
         id="text4610"
         y="130.47597"
         x="72.595154"
         style="font-style:normal;font-variant:normal;font-weight:normal;font-stretch:normal;font-size:3.38666701px;line-height:0%;font-family:'Source Code Pro';-inkscape-font-specification:'Source Code Pro, Normal';text-align:start;letter-spacing:0px;word-spacing:0px;writing-mode:lr-tb;text-anchor:start;fill:#000000;fill-opacity:1;stroke:none;stroke-width:0.28222224px;stroke-linecap:butt;stroke-linejoin:miter;stroke-opacity:1"
         xml:space="preserve"><tspan
           style="font-size:7.0555563px;line-height:1;stroke-width:0.28222224px"
           y="130.47597"
           x="72.595154"
           id="tspan4612"
           sodipodi:role="line">Podcast.__init__</tspan></text>
      <text
         xml:space="preserve"
         style="font-style:normal;font-weight:normal;font-size:10.58333302px;line-height:125%;font-family:sans-serif;letter-spacing:0px;word-spacing:0px;fill:#000000;fill-opacity:1;stroke:none;stroke-width:0.26458335px;stroke-linecap:butt;stroke-linejoin:miter;stroke-opacity:1"
         x="80.007828"
         y="137.02754"
         id="text4065"><tspan
           sodipodi:role="line"
           id="tspan4063"
           x="80.007828"
           y="137.02754"
           style="font-style:normal;font-variant:normal;font-weight:normal;font-stretch:normal;font-size:4.23333311px;font-family:'Source Code Pro';-inkscape-font-specification:'Source Code Pro, Normal';font-variant-ligatures:normal;font-variant-caps:normal;font-variant-numeric:normal;font-feature-settings:normal;text-align:start;writing-mode:lr-tb;text-anchor:start;stroke-width:0.26458335px">www.pythonpodcast.com</tspan></text>
    </g>
  </g>
</svg>
