<?xml version="1.0" encoding="UTF-8" standalone="no"?>
<!-- Created with Inkscape (http://www.inkscape.org/) -->

<svg
   xmlns:dc="http://purl.org/dc/elements/1.1/"
   xmlns:cc="http://creativecommons.org/ns#"
   xmlns:rdf="http://www.w3.org/1999/02/22-rdf-syntax-ns#"
   xmlns:svg="http://www.w3.org/2000/svg"
   xmlns="http://www.w3.org/2000/svg"
   xmlns:xlink="http://www.w3.org/1999/xlink"
   xmlns:sodipodi="http://sodipodi.sourceforge.net/DTD/sodipodi-0.dtd"
   xmlns:inkscape="http://www.inkscape.org/namespaces/inkscape"
   width="3.5333333in"
   height="3.5333333in"
   viewBox="0 0 317.99999 317.99998"
   id="svg8806"
   version="1.1"
   inkscape:version="0.92.4 5da689c313, 2019-01-14"
   sodipodi:docname="logo_with_title_and_url_and_border.svg"
   inkscape:export-filename="/home/tmacey/code/personal/podcast_designs/logo_with_title_and_url_and_border.png"
   inkscape:export-xdpi="96"
   inkscape:export-ydpi="96">
  <defs
     id="defs8808">
    <radialGradient
       xlink:href="#linearGradient2355"
       r="16.4375"
       id="radialGradient2248-4"
       gradientUnits="userSpaceOnUse"
       gradientTransform="matrix(1,0,0,0.42586,0,23.53992)"
       cy="41"
       cx="25.1875" />
    <linearGradient
       id="linearGradient2355">
      <stop
         id="stop3713"
         offset="0" />
      <stop
         id="stop3715"
         stop-opacity="0"
         offset="1" />
    </linearGradient>
    <radialGradient
       r="11.1875"
       id="radialGradient2238-6"
       gradientUnits="userSpaceOnUse"
       gradientTransform="matrix(1,0,0,0.52514,0,22.02165)"
       cy="42.090431"
       cx="15.4375">
      <stop
         id="stop3730-8"
         stop-color="#b0b0b0"
         offset="0" />
      <stop
         id="stop3732-8"
         stop-color="#747474"
         offset="1" />
    </radialGradient>
    <linearGradient
       y2="35.689548"
       y1="36.689548"
       x2="48.25"
       x1="41.25"
       id="linearGradient2258-6-5"
       gradientUnits="userSpaceOnUse">
      <stop
         id="stop3718-0"
         stop-color="#c6c6c6"
         offset="0" />
      <stop
         id="stop3720-3"
         stop-opacity="0"
         stop-color="#c6c6c6"
         offset="1" />
    </linearGradient>
    <radialGradient
       r="10.98921"
       id="radialGradient2351-9"
       gradientUnits="userSpaceOnUse"
       gradientTransform="matrix(1.49192,-0.08445108,-0.05874412,3.98672,-9.6468,-20.27595)"
       cy="6.6440701"
       cx="19.557501">
      <stop
         id="stop3735-9"
         stop-color="#d5d5d5"
         offset="0" />
      <stop
         id="stop3737-8"
         stop-color="#a0a0a0"
         offset="1" />
    </radialGradient>
    <radialGradient
       xlink:href="#linearGradient2399"
       r="12.49403"
       id="radialGradient2343-4"
       gradientUnits="userSpaceOnUse"
       gradientTransform="matrix(2.53075,0,0,2.29601,-31.03641,-6.69986)"
       cy="5.7119699"
       cx="20.27528" />
    <linearGradient
       id="linearGradient2399">
      <stop
         id="stop3708"
         stop-color="#fff"
         offset="0" />
      <stop
         id="stop3710"
         stop-opacity="0"
         stop-color="#fff"
         offset="1" />
    </linearGradient>
    <radialGradient
       r="2.2697401"
       id="radialGradient2413-4"
       gradientUnits="userSpaceOnUse"
       gradientTransform="matrix(0.43533,0,0,0.43533,18.91658,12.49341)"
       cy="20.53817"
       cx="33.5">
      <stop
         id="stop3740-6"
         stop-color="#d5d5d5"
         offset="0" />
      <stop
         id="stop3742-2"
         stop-color="#747474"
         offset="1" />
    </radialGradient>
    <linearGradient
       y2="14.04688"
       y1="15.32307"
       x2="14.40625"
       x1="18.32872"
       id="linearGradient2377"
       gradientUnits="userSpaceOnUse">
      <stop
         id="stop3723"
         offset="0" />
      <stop
         id="stop3725"
         stop-opacity=".48454"
         offset="1" />
    </linearGradient>
    <linearGradient
       y2="43.420429"
       y1="49.11071"
       xlink:href="#linearGradient2399"
       x2="17.40238"
       x1="16.4375"
       id="linearGradient2405-0"
       gradientUnits="userSpaceOnUse" />
    <linearGradient
       y2="137.27299"
       x2="112.03144"
       y1="192.35176"
       x1="150.96111"
       gradientTransform="matrix(0.562541,0,0,0.567972,301.94071,459.02523)"
       gradientUnits="userSpaceOnUse"
       id="linearGradient1475"
       xlink:href="#linearGradient4671"
       inkscape:collect="always" />
    <linearGradient
       id="linearGradient4671">
      <stop
         id="stop4673"
         offset="0"
         style="stop-color:#ffd43b;stop-opacity:1;" />
      <stop
         id="stop4675"
         offset="1"
         style="stop-color:#ffe873;stop-opacity:1" />
    </linearGradient>
    <linearGradient
       y2="114.39767"
       x2="135.66525"
       y1="20.603781"
       x1="26.648937"
       gradientTransform="matrix(0.562541,0,0,0.567972,301.0102,459.02523)"
       gradientUnits="userSpaceOnUse"
       id="linearGradient1478"
       xlink:href="#linearGradient4689"
       inkscape:collect="always" />
    <linearGradient
       id="linearGradient4689">
      <stop
         id="stop4691"
         offset="0"
         style="stop-color:#5a9fd4;stop-opacity:1;" />
      <stop
         id="stop4693"
         offset="1"
         style="stop-color:#306998;stop-opacity:1;" />
    </linearGradient>
    <radialGradient
       xlink:href="#linearGradient2355"
       r="16.4375"
       id="radialGradient2248"
       gradientUnits="userSpaceOnUse"
       gradientTransform="matrix(1,0,0,0.42586,0,23.53992)"
       cy="41"
       cx="25.1875" />
    <radialGradient
       r="11.1875"
       id="radialGradient2238"
       gradientUnits="userSpaceOnUse"
       gradientTransform="matrix(1,0,0,0.52514,0,22.02165)"
       cy="42.090431"
       cx="15.4375">
      <stop
         id="stop3730"
         stop-color="#b0b0b0"
         offset="0" />
      <stop
         id="stop3732"
         stop-color="#747474"
         offset="1" />
    </radialGradient>
    <radialGradient
       r="10.98921"
       id="radialGradient2351"
       gradientUnits="userSpaceOnUse"
       gradientTransform="matrix(1.49192,-0.08445108,-0.05874412,3.98672,-9.6468,-20.27595)"
       cy="6.6440701"
       cx="19.557501">
      <stop
         id="stop3735"
         stop-color="#d5d5d5"
         offset="0" />
      <stop
         id="stop3737"
         stop-color="#a0a0a0"
         offset="1" />
    </radialGradient>
    <radialGradient
       xlink:href="#linearGradient2399"
       r="12.49403"
       id="radialGradient2343"
       gradientUnits="userSpaceOnUse"
       gradientTransform="matrix(2.53075,0,0,2.29601,-31.03641,-6.69986)"
       cy="5.7119699"
       cx="20.27528" />
    <radialGradient
       r="2.2697401"
       id="radialGradient2413"
       gradientUnits="userSpaceOnUse"
       gradientTransform="matrix(0.43533,0,0,0.43533,18.91658,12.49341)"
       cy="20.53817"
       cx="33.5">
      <stop
         id="stop3740"
         stop-color="#d5d5d5"
         offset="0" />
      <stop
         id="stop3742"
         stop-color="#747474"
         offset="1" />
    </radialGradient>
    <linearGradient
       id="linearGradient2795">
      <stop
         style="stop-color:#b8b8b8;stop-opacity:0.49803922;"
         offset="0"
         id="stop2797" />
      <stop
         style="stop-color:#7f7f7f;stop-opacity:0;"
         offset="1"
         id="stop2799" />
    </linearGradient>
    <linearGradient
       id="linearGradient2787">
      <stop
         style="stop-color:#7f7f7f;stop-opacity:0.5;"
         offset="0"
         id="stop2789" />
      <stop
         style="stop-color:#7f7f7f;stop-opacity:0;"
         offset="1"
         id="stop2791" />
    </linearGradient>
    <linearGradient
       id="linearGradient3676">
      <stop
         style="stop-color:#b2b2b2;stop-opacity:0.5;"
         offset="0"
         id="stop3678" />
      <stop
         style="stop-color:#b3b3b3;stop-opacity:0;"
         offset="1"
         id="stop3680" />
    </linearGradient>
    <linearGradient
       id="linearGradient3236">
      <stop
         style="stop-color:#f4f4f4;stop-opacity:1"
         offset="0"
         id="stop3244" />
      <stop
         style="stop-color:white;stop-opacity:1"
         offset="1"
         id="stop3240" />
    </linearGradient>
    <linearGradient
       x1="224.23996"
       y1="144.75717"
       x2="-65.308502"
       y2="144.75717"
       id="linearGradient2987"
       xlink:href="#linearGradient4671"
       gradientUnits="userSpaceOnUse"
       gradientTransform="translate(100.2702,99.61116)" />
    <linearGradient
       x1="172.94208"
       y1="77.475983"
       x2="26.670298"
       y2="76.313133"
       id="linearGradient2990"
       xlink:href="#linearGradient4689"
       gradientUnits="userSpaceOnUse"
       gradientTransform="translate(100.2702,99.61116)" />
    <linearGradient
       inkscape:collect="always"
       xlink:href="#linearGradient4671"
       id="linearGradient2255"
       gradientUnits="userSpaceOnUse"
       gradientTransform="matrix(0.562541,0,0,0.567972,-11.5974,-7.60954)"
       x1="224.23996"
       y1="144.75717"
       x2="-65.308502"
       y2="144.75717" />
    <linearGradient
       inkscape:collect="always"
       xlink:href="#linearGradient4689"
       id="linearGradient2258"
       gradientUnits="userSpaceOnUse"
       gradientTransform="matrix(0.562541,0,0,0.567972,-11.5974,-7.60954)"
       x1="172.94208"
       y1="76.176224"
       x2="26.670298"
       y2="76.313133" />
    <radialGradient
       inkscape:collect="always"
       xlink:href="#linearGradient2795"
       id="radialGradient2801"
       cx="61.518883"
       cy="132.28575"
       fx="61.518883"
       fy="132.28575"
       r="29.036913"
       gradientTransform="matrix(1,0,0,0.177966,0,108.7434)"
       gradientUnits="userSpaceOnUse" />
    <linearGradient
       gradientUnits="userSpaceOnUse"
       id="linearGradient2361"
       x1="25.160469"
       x2="33.96875"
       xlink:href="#linearGradient2355"
       y1="15.80366"
       y2="20.4375" />
    <linearGradient
       gradientUnits="userSpaceOnUse"
       id="linearGradient2405"
       x1="16.4375"
       x2="17.40238"
       xlink:href="#linearGradient2399"
       y1="49.11071"
       y2="43.420429" />
    <radialGradient
       cx="15.4375"
       cy="42.090431"
       gradientTransform="matrix(1,0,0,0.52514,0,22.02165)"
       gradientUnits="userSpaceOnUse"
       id="radialGradient2238-2"
       r="11.1875">
      <stop
         offset="0"
         stop-color="#b0b0b0"
         id="stop3730-1" />
      <stop
         offset="1"
         stop-color="#747474"
         id="stop3732-0" />
    </radialGradient>
    <radialGradient
       cx="19.557501"
       cy="6.6440701"
       gradientTransform="matrix(1.49192,-0.08445108,-0.05874412,3.98672,-9.6468,-20.27595)"
       gradientUnits="userSpaceOnUse"
       id="radialGradient2351-5"
       r="10.98921">
      <stop
         offset="0"
         stop-color="#d5d5d5"
         id="stop3735-1" />
      <stop
         offset="1"
         stop-color="#a0a0a0"
         id="stop3737-1" />
    </radialGradient>
    <radialGradient
       cx="33.5"
       cy="20.53817"
       gradientTransform="matrix(0.43533,0,0,0.43533,18.91658,12.49341)"
       gradientUnits="userSpaceOnUse"
       id="radialGradient2413-0"
       r="2.2697401">
      <stop
         offset="0"
         stop-color="#d5d5d5"
         id="stop3740-8" />
      <stop
         offset="1"
         stop-color="#747474"
         id="stop3742-5" />
    </radialGradient>
    <radialGradient
       cx="25.1875"
       cy="41"
       gradientTransform="matrix(1,0,0,0.42586,0,23.53992)"
       gradientUnits="userSpaceOnUse"
       id="radialGradient2248-0"
       r="16.4375"
       xlink:href="#linearGradient2355" />
    <radialGradient
       cx="20.27528"
       cy="5.7119699"
       gradientTransform="matrix(2.53075,0,0,2.29601,-31.03641,-6.69986)"
       gradientUnits="userSpaceOnUse"
       id="radialGradient2343-6"
       r="12.49403"
       xlink:href="#linearGradient2399" />
    <radialGradient
       cx="25.1875"
       cy="41"
       gradientTransform="matrix(1,0,0,0.42586,0,23.53992)"
       gradientUnits="userSpaceOnUse"
       id="radialGradient2248-4-4"
       r="16.4375"
       xlink:href="#linearGradient2355" />
    <radialGradient
       cx="15.4375"
       cy="42.090431"
       gradientTransform="matrix(1,0,0,0.52514,0,22.02165)"
       gradientUnits="userSpaceOnUse"
       id="radialGradient2238-6-6"
       r="11.1875">
      <stop
         offset="0"
         stop-color="#b0b0b0"
         id="stop3730-8-2" />
      <stop
         offset="1"
         stop-color="#747474"
         id="stop3732-8-5" />
    </radialGradient>
    <radialGradient
       cx="19.557501"
       cy="6.6440701"
       gradientTransform="matrix(1.49192,-0.08445108,-0.05874412,3.98672,-9.6468,-20.27595)"
       gradientUnits="userSpaceOnUse"
       id="radialGradient2351-9-2"
       r="10.98921">
      <stop
         offset="0"
         stop-color="#d5d5d5"
         id="stop3735-9-8" />
      <stop
         offset="1"
         stop-color="#a0a0a0"
         id="stop3737-8-4" />
    </radialGradient>
    <radialGradient
       cx="20.27528"
       cy="5.7119699"
       gradientTransform="matrix(2.53075,0,0,2.29601,-31.03641,-6.69986)"
       gradientUnits="userSpaceOnUse"
       id="radialGradient2343-4-7"
       r="12.49403"
       xlink:href="#linearGradient2399" />
    <radialGradient
       cx="33.5"
       cy="20.53817"
       gradientTransform="matrix(0.43533,0,0,0.43533,18.91658,12.49341)"
       gradientUnits="userSpaceOnUse"
       id="radialGradient2413-4-2"
       r="2.2697401">
      <stop
         offset="0"
         stop-color="#d5d5d5"
         id="stop3740-6-4" />
      <stop
         offset="1"
         stop-color="#747474"
         id="stop3742-2-0" />
    </radialGradient>
    <linearGradient
       gradientUnits="userSpaceOnUse"
       id="linearGradient2361-4"
       x1="25.160469"
       x2="33.96875"
       xlink:href="#linearGradient2355"
       y1="15.80366"
       y2="20.4375" />
    <linearGradient
       gradientUnits="userSpaceOnUse"
       id="linearGradient5176"
       x1="16.4375"
       x2="17.40238"
       xlink:href="#linearGradient2399"
       y1="49.11071"
       y2="43.420429" />
  </defs>
  <sodipodi:namedview
     id="base"
     pagecolor="#ffffff"
     bordercolor="#666666"
     borderopacity="1.0"
     inkscape:pageopacity="0.0"
     inkscape:pageshadow="2"
     inkscape:zoom="0.175"
     inkscape:cx="235.52929"
     inkscape:cy="1581.1441"
     inkscape:document-units="px"
     inkscape:current-layer="layer1"
     showgrid="false"
     inkscape:window-width="2560"
     inkscape:window-height="1366"
     inkscape:window-x="0"
     inkscape:window-y="0"
     inkscape:window-maximized="1"
     fit-margin-top="0.1"
     fit-margin-left="0.1"
     fit-margin-right="0.1"
     fit-margin-bottom="0.1"
     units="in"
     showborder="false" />
  <metadata
     id="metadata8811">
    <rdf:RDF>
      <cc:Work
         rdf:about="">
        <dc:format>image/svg+xml</dc:format>
        <dc:type
           rdf:resource="http://purl.org/dc/dcmitype/StillImage" />
        <dc:title />
      </cc:Work>
    </rdf:RDF>
  </metadata>
  <g
     inkscape:groupmode="layer"
     id="layer2"
     inkscape:label="Layer 2"
     transform="translate(9,178.61095)" />
  <g
     inkscape:label="Layer 1"
     inkscape:groupmode="layer"
     id="layer1"
     transform="translate(-264.76155,-283.11662)">
    <rect
       y="-2185.4194"
       x="308.72537"
       height="2742.5723"
       width="2742.5723"
       id="rect4671"
       style="fill:#ffffff;fill-opacity:1;stroke:#666666;stroke-width:69.92758179;stroke-linecap:butt;stroke-linejoin:miter;stroke-miterlimit:4;stroke-dasharray:none;stroke-opacity:0.23391813" />
    <g
       id="g5790"
       transform="matrix(9.3749996,0,0,9.3749996,1171.9794,-6501.8335)">
      <g
         transform="translate(-317.85715,53.571429)"
         id="g4229">
        <path
           inkscape:connector-curvature="0"
           style="fill:url(#linearGradient1478);fill-opacity:1"
           d="m 370.92011,470.72852 c -4.58366,0.0213 -8.96094,0.41222 -12.8125,1.09375 -11.34622,2.00451 -13.40625,6.2001 -13.40625,13.9375 v 10.21875 h 26.8125 v 3.40625 h -26.8125 -10.0625 c -7.79246,0 -14.61576,4.68372 -16.75001,13.59375 -2.46182,10.21297 -2.57101,16.58603 0,27.25 1.90593,7.93786 6.45755,13.59375 14.25001,13.59375 h 9.21875 v -12.25 c 0,-8.8499 7.65714,-16.65625 16.75,-16.65625 h 26.78125 c 7.45495,0 13.40625,-6.13816 13.40625,-13.625 v -25.53125 c 0,-7.26634 -6.12998,-12.72477 -13.40625,-13.9375 -4.60599,-0.76672 -9.3851,-1.11505 -13.96875,-1.09375 z m -14.5,8.21875 c 2.76954,0 5.03125,2.29865 5.03125,5.125 -1e-5,2.81634 -2.26171,5.09375 -5.03125,5.09375 -2.77948,0 -5.03125,-2.27741 -5.03125,-5.09375 -1e-5,-2.82635 2.25177,-5.125 5.03125,-5.125 z"
           id="path1948" />
        <path
           inkscape:connector-curvature="0"
           style="fill:url(#linearGradient1475);fill-opacity:1"
           d="m 402.56937,499.38477 v 11.90625 c 0,9.23076 -7.8259,17 -16.75,17 h -26.78125 c -7.33584,0 -13.40625,6.27849 -13.40625,13.625 v 25.53126 c 0,7.26634 6.31858,11.54032 13.40625,13.625 8.48733,2.49561 16.62623,2.94663 26.78125,0 6.75015,-1.95439 13.40625,-5.88761 13.40625,-13.625 v -10.21876 h -26.78125 v -3.40625 h 26.78125 13.40625 c 7.79246,0 10.69625,-5.43541 13.40624,-13.59375 2.79933,-8.39888 2.68022,-16.47577 0,-27.25 -1.92578,-7.75744 -5.60387,-13.59375 -13.40624,-13.59375 z m -15.0625,64.65625 c 2.77947,10e-6 5.03125,2.27742 5.03125,5.09376 -10e-6,2.82635 -2.25178,5.125 -5.03125,5.125 -2.76955,0 -5.03125,-2.29865 -5.03125,-5.125 0,-2.81634 2.26169,-5.09376 5.03125,-5.09376 z"
           id="path1950" />
        <path
           inkscape:connector-curvature="0"
           d="m 308.76154,489.7276 v 7 c 0,4.8785 -4.121,9 -9,9 h -4 c -4.8785,0 -9,-4.1215 -9,-9 v -7 h -4 v 7 c 0,7.047 5.953,13 13,13 v 7 h -8.5 v 4 h 21 v -4 h -8.5 v -7 c 7.047,0 13,-5.953 13,-13 v -7 z"
           id="path9980" />
        <path
           inkscape:connector-curvature="0"
           d="m 295.76154,502.7276 h 4 c 2.857,0 5.394,-2.2415 5.902,-5 h -5.9435 v -2 h 6.0415 v -2 h -6.0415 v -2 h 6.0415 v -2 h -6.0415 v -2 h 6.0415 v -2 h -6.0415 v -2 h 6.0415 v -2 h -6.0415 v -2 h 6.0415 v -2 h -6.0415 v -2 h 5.9435 c -0.508,-2.7585 -3.045,-5 -5.902,-5 h -4 c -3.1965,0 -6,2.8035 -6,6 v 20 c 0,3.1965 2.8035,6 6,6 z"
           id="path9982" />
        <path
           inkscape:connector-curvature="0"
           d="m 435.33295,564.11661 v -7 c 0,-4.8785 4.121,-9 9,-9 h 4 c 4.8785,0 9,4.1215 9,9 v 7 h 4 v -7 c 0,-7.047 -5.953,-13 -13,-13 v -7 h 8.5 v -4 h -21 v 4 h 8.5 v 7 c -7.047,0 -13,5.953 -13,13 v 7 z"
           id="path9980-7" />
        <path
           inkscape:connector-curvature="0"
           d="m 448.33295,551.11661 h -4 c -2.857,0 -5.394,2.2415 -5.902,5 h 5.9435 v 2 h -6.0415 v 2 h 6.0415 v 2 h -6.0415 v 2 h 6.0415 v 2 h -6.0415 v 2 h 6.0415 v 2 h -6.0415 v 2 h 6.0415 v 2 h -6.0415 v 2 h 6.0415 v 2 h -5.9435 c 0.508,2.7585 3.045,5 5.902,5 h 4 c 3.1965,0 6,-2.8035 6,-6 v -20 c 0,-3.1965 -2.8035,-6 -6,-6 z"
           id="path9982-8" />
        <g
           id="g4224">
          <g
             id="g4220">
            <path
               style="fill:none;fill-rule:evenodd;stroke:#000000;stroke-width:1px;stroke-linecap:butt;stroke-linejoin:miter;stroke-opacity:1"
               d="m 410.88323,562.75595 c 3.0786,3.38813 4.48422,7.67153 0,12.14286"
               id="path10015"
               inkscape:connector-curvature="0"
               sodipodi:nodetypes="cc" />
            <path
               style="fill:none;fill-rule:evenodd;stroke:#000000;stroke-width:1.35535014px;stroke-linecap:butt;stroke-linejoin:miter;stroke-opacity:1"
               d="m 414.26614,559.66641 c 3.74965,5.11006 5.46166,11.57038 0,18.31415"
               id="path10015-7"
               inkscape:connector-curvature="0"
               sodipodi:nodetypes="cc" />
          </g>
        </g>
        <path
           style="fill:none;fill-rule:evenodd;stroke:#000000;stroke-width:1.83304119px;stroke-linecap:butt;stroke-linejoin:miter;stroke-opacity:1"
           d="m 417.60218,555.02242 c 4.55214,7.69915 6.63054,17.4327 0,27.59331"
           id="path10015-7-8"
           inkscape:connector-curvature="0"
           sodipodi:nodetypes="cc" />
        <g
           id="g4216">
          <path
             sodipodi:nodetypes="cc"
             inkscape:connector-curvature="0"
             id="path10015-5"
             d="m 333.21122,491.08823 c -3.0786,-3.38813 -4.48422,-7.67153 0,-12.14286"
             style="fill:none;fill-rule:evenodd;stroke:#000000;stroke-width:1px;stroke-linecap:butt;stroke-linejoin:miter;stroke-opacity:1" />
          <path
             sodipodi:nodetypes="cc"
             inkscape:connector-curvature="0"
             id="path10015-7-3"
             d="m 329.82831,494.17777 c -3.74965,-5.11006 -5.46166,-11.57038 0,-18.31415"
             style="fill:none;fill-rule:evenodd;stroke:#000000;stroke-width:1.35535014px;stroke-linecap:butt;stroke-linejoin:miter;stroke-opacity:1" />
        </g>
        <path
           style="fill:none;fill-rule:evenodd;stroke:#000000;stroke-width:1.83304119px;stroke-linecap:butt;stroke-linejoin:miter;stroke-opacity:1"
           d="m 326.49227,498.82176 c -4.55214,-7.69915 -6.63054,-17.4327 0,-27.59331"
           id="path10015-7-8-3"
           inkscape:connector-curvature="0"
           sodipodi:nodetypes="cc" />
      </g>
    </g>
    <g
       aria-label="Podcast.__init__"
       style="font-style:normal;font-variant:normal;font-weight:normal;font-stretch:normal;font-size:112.49999237px;line-height:0%;font-family:'Source Code Pro';-inkscape-font-specification:'Source Code Pro, Normal';text-align:start;letter-spacing:0px;word-spacing:0px;writing-mode:lr-tb;text-anchor:start;fill:#000000;fill-opacity:1;stroke:none;stroke-width:9.375px;stroke-linecap:butt;stroke-linejoin:miter;stroke-opacity:1"
       id="text4610">
      <path
         inkscape:connector-curvature="0"
         d="m 573.99859,-143.82062 h 19.45313 v -60.93749 h 26.95312 c 33.75,0 56.95312,-15.23438 56.95312,-47.57813 0,-33.74999 -22.96875,-45.23437 -56.95312,-45.23437 h -46.40625 z m 19.45313,-76.87499 v -61.17187 h 24.60937 c 26.48438,0 39.60937,7.26562 39.60937,29.53124 0,21.79688 -12.65624,31.64063 -39.60937,31.64063 z"
         style="font-size:234.37498474px;line-height:1;stroke-width:9.375px"
         id="path1080" />
      <path
         inkscape:connector-curvature="0"
         d="m 761.02948,-141.00812 c 29.99999,0 56.24999,-21.79687 56.24999,-59.53124 0,-38.20313 -26.25,-60 -56.24999,-60 -30,0 -56.25,21.79687 -56.25,60 0,37.73437 26.25,59.53124 56.25,59.53124 z m 0,-15.9375 c -21.79688,0 -36.32813,-17.57812 -36.32813,-43.59374 0,-26.25 14.53125,-44.0625 36.32813,-44.0625 21.79687,0 36.32812,17.8125 36.32812,44.0625 0,26.01562 -14.53125,43.59374 -36.32812,43.59374 z"
         style="font-size:234.37498474px;line-height:1;stroke-width:9.375px"
         id="path1082" />
      <path
         inkscape:connector-curvature="0"
         d="m 894.85723,-141.00812 c 14.0625,0 27.65625,-8.20312 37.03125,-17.8125 h 0.70313 l 1.64062,15 h 15.9375 v -166.87499 h -19.21875 v 43.82813 l 0.9375,21.09374 h -0.70312 c -9.84375,-9.375 -20.39063,-14.76562 -33.98438,-14.76562 -26.95312,0 -51.79687,22.96875 -51.79687,60 0,37.96874 19.6875,59.53124 49.45312,59.53124 z m 3.98438,-16.17187 c -21.09375,0 -33.51562,-16.40625 -33.51562,-43.59375 0,-26.01562 15.9375,-43.59375 35.62499,-43.59375 9.84375,0 19.6875,3.75 30,13.35938 v 56.71874 c -10.07812,11.25 -20.85937,17.10938 -32.10937,17.10938 z"
         style="font-size:234.37498474px;line-height:1;stroke-width:9.375px"
         id="path1084" />
      <path
         inkscape:connector-curvature="0"
         d="m 1053.06,-141.00812 c 16.875,0 32.5781,-6.5625 45.2344,-17.8125 l -8.6719,-12.42187 c -9.375,7.96875 -21.0938,14.29687 -35.1563,14.29687 -26.25,0 -43.8281,-17.57812 -43.8281,-43.59374 0,-26.25 18.0469,-44.0625 44.2969,-44.0625 11.9531,0 21.7969,4.92187 31.1719,13.125 l 9.6093,-12.42188 c -9.375,-9.14062 -22.9687,-16.64062 -41.4843,-16.64062 -34.4532,0 -63.51565,21.79687 -63.51565,60 0,37.73437 26.71875,59.53124 62.34375,59.53124 z"
         style="font-size:234.37498474px;line-height:1;stroke-width:9.375px"
         id="path1086" />
      <path
         inkscape:connector-curvature="0"
         d="m 1170.2471,-141.00812 c 16.1719,0 32.3438,-8.4375 45,-18.28125 h 0.7031 l 1.6407,15.46875 h 15.7031 v -69.84374 c 0,-28.35938 -15,-46.875 -46.1719,-46.875 -19.9218,0 -39.1406,8.90625 -50.625,16.40625 l 7.5,13.125 c 10.5469,-6.5625 25.0782,-13.59375 39.8438,-13.59375 22.0312,0 29.7656,13.125 30.2343,28.59375 -58.8281,4.6875 -82.4999,17.10937 -82.4999,42.65624 0,20.39063 17.3437,32.34375 38.6718,32.34375 z m 5.1563,-15.46875 c -13.125,0 -25.0781,-5.39062 -25.0781,-18.28125 0,-14.99999 15,-24.60937 63.7499,-28.59374 v 29.99999 c -12.8906,10.78125 -25.7812,16.875 -38.6718,16.875 z"
         style="font-size:234.37498474px;line-height:1;stroke-width:9.375px"
         id="path1088" />
      <path
         inkscape:connector-curvature="0"
         d="m 1325.8718,-141.00812 c 32.5781,0 50.625,-15.46875 50.625,-33.98437 0,-17.34375 -9.1407,-26.95312 -47.1094,-35.15625 -23.2031,-4.92187 -33.0469,-9.14062 -33.0469,-18.98437 0,-8.67188 6.7969,-16.40625 26.25,-16.40625 14.5313,0 27.6563,4.6875 38.2031,11.95312 l 9.375,-12.42187 c -11.25,-7.73438 -28.5937,-14.53125 -45.9375,-14.53125 -31.1718,0 -47.3437,14.0625 -47.3437,32.34375 0,17.10937 15,27.1875 44.5312,33.28125 30.9375,6.32812 35.625,12.42187 35.625,21.09374 0,9.60938 -9.6093,17.8125 -28.8281,17.8125 -21.0937,0 -36.3281,-6.09375 -49.4531,-15.46875 l -8.9063,12.65625 c 13.8282,9.60938 33.75,17.8125 56.0157,17.8125 z"
         style="font-size:234.37498474px;line-height:1;stroke-width:9.375px"
         id="path1090" />
      <path
         inkscape:connector-curvature="0"
         d="m 1486.1839,-141.00812 c 14.2969,0 25.3125,-3.04687 35.625,-6.79687 l -4.2188,-14.0625 c -8.2031,3.04687 -16.6406,5.15625 -27.4218,5.15625 -22.0313,0 -28.8282,-10.78125 -28.8282,-31.17187 v -54.14063 h 56.0157 v -15.70312 h -56.0157 v -36.5625 h -15.9375 l -2.5781,36.5625 -32.8125,1.17187 v 14.53125 h 32.1094 v 53.90625 c 0,28.125 10.7812,47.10937 44.0625,47.10937 z"
         style="font-size:234.37498474px;line-height:1;stroke-width:9.375px"
         id="path1092" />
      <path
         inkscape:connector-curvature="0"
         d="m 1604.7773,-141.00812 c 10.5469,0 18.9844,-7.96875 18.9844,-19.6875 0,-11.95312 -8.4375,-19.92187 -18.9844,-19.92187 -10.5469,0 -18.9844,7.96875 -18.9844,19.92187 0,11.71875 8.4375,19.6875 18.9844,19.6875 z"
         style="font-size:234.37498474px;line-height:1;stroke-width:9.375px"
         id="path1094" />
      <path
         inkscape:connector-curvature="0"
         d="m 1689.1519,-111.00812 h 112.5 v -16.64062 h -112.5 z"
         style="font-size:234.37498474px;line-height:1;stroke-width:9.375px"
         id="path1096" />
      <path
         inkscape:connector-curvature="0"
         d="m 1829.7765,-111.00812 h 112.5 v -16.64062 h -112.5 z"
         style="font-size:234.37498474px;line-height:1;stroke-width:9.375px"
         id="path1098" />
      <path
         inkscape:connector-curvature="0"
         d="m 2030.4012,-143.82062 h 19.2187 v -113.90624 h -72.1875 v 15.70312 h 52.9688 z m 7.5,-137.81249 c 8.6719,0 15.4687,-5.85937 15.4687,-15 0,-8.90625 -6.7968,-15 -15.4687,-15 -8.6719,0 -15.4688,6.09375 -15.4688,15 0,9.14063 6.7969,15 15.4688,15 z"
         style="font-size:234.37498474px;line-height:1;stroke-width:9.375px"
         id="path1100" />
      <path
         inkscape:connector-curvature="0"
         d="m 2118.7602,-143.82062 h 19.2187 v -79.45312 c 13.3594,-13.82812 22.5,-20.625 36.0938,-20.625 18.75,0 26.25,10.3125 26.25,31.875 v 68.20312 h 19.2187 v -70.78124 c 0,-30 -12.4218,-45.9375 -39.375,-45.9375 -17.8125,0 -30.9375,9.60937 -42.8906,22.26562 h -0.9375 l -1.6406,-19.45312 h -15.9375 z"
         style="font-size:234.37498474px;line-height:1;stroke-width:9.375px"
         id="path1102" />
      <path
         inkscape:connector-curvature="0"
         d="m 2311.6504,-143.82062 h 19.2188 v -113.90624 h -72.1875 v 15.70312 h 52.9687 z m 7.5,-137.81249 c 8.6719,0 15.4688,-5.85937 15.4688,-15 0,-8.90625 -6.7969,-15 -15.4688,-15 -8.6718,0 -15.4687,6.09375 -15.4687,15 0,9.14063 6.7969,15 15.4687,15 z"
         style="font-size:234.37498474px;line-height:1;stroke-width:9.375px"
         id="path1104" />
      <path
         inkscape:connector-curvature="0"
         d="m 2470.5563,-141.00812 c 14.2969,0 25.3125,-3.04687 35.625,-6.79687 l -4.2187,-14.0625 c -8.2031,3.04687 -16.6406,5.15625 -27.4219,5.15625 -22.0312,0 -28.8281,-10.78125 -28.8281,-31.17187 v -54.14063 h 56.0156 v -15.70312 h -56.0156 v -36.5625 h -15.9375 l -2.5781,36.5625 -32.8125,1.17187 v 14.53125 h 32.1093 v 53.90625 c 0,28.125 10.7813,47.10937 44.0625,47.10937 z"
         style="font-size:234.37498474px;line-height:1;stroke-width:9.375px"
         id="path1106" />
      <path
         inkscape:connector-curvature="0"
         d="m 2532.8997,-111.00812 h 112.5 v -16.64062 h -112.5 z"
         style="font-size:234.37498474px;line-height:1;stroke-width:9.375px"
         id="path1108" />
      <path
         inkscape:connector-curvature="0"
         d="m 2673.5245,-111.00812 h 112.5 v -16.64062 h -112.5 z"
         style="font-size:234.37498474px;line-height:1;stroke-width:9.375px"
         id="path1110" />
    </g>
    <flowRoot
       xml:space="preserve"
       id="flowRoot3908"
       style="fill:black;fill-opacity:1;stroke:none;font-family:sans-serif;font-style:normal;font-weight:normal;font-size:40px;line-height:1.25;letter-spacing:0px;word-spacing:0px"><flowRegion
         id="flowRegion3910"><rect
           id="rect3912"
           width="1942.8572"
           height="217.14285"
           x="617.14288"
           y="-197.94286" /></flowRegion><flowPara
         id="flowPara3914"></flowPara></flowRoot>    <g
       aria-label="www.pythonpodcast.com"
       transform="matrix(0.93749992,0,0,0.93749992,508.92505,202.75948)"
       style="font-style:normal;font-variant:normal;font-weight:normal;font-stretch:normal;font-size:133.33332825px;line-height:1.25;font-family:'Source Code Pro';-inkscape-font-specification:'Source Code Pro, Normal';font-variant-ligatures:normal;font-variant-caps:normal;font-variant-numeric:normal;font-feature-settings:normal;text-align:start;letter-spacing:0px;word-spacing:0px;writing-mode:lr-tb;text-anchor:start;fill:#000000;fill-opacity:1;stroke:none"
       id="flowRoot3916">
      <path
         d="m 426.62773,-75.561853 h 14.13334 l 7.2,-30.933337 c 1.06666,-4.53333 2.13333,-10.93333 3.2,-19.19999 h 0.53333 c 1.06667,8.26666 2.13333,14.66666 3.2,19.19999 l 7.46667,30.933337 h 14.13333 l 13.86666,-64.799997 h -10.13333 l -7.73333,37.6 c -1.2,6.133331 -1.86667,11.733331 -2.93333,17.866664 h -0.53334 c -0.8,-6.133333 -2.53333,-11.733333 -4,-17.866664 l -7.73333,-33.6 h -10.93333 l -8,33.6 c -1.46667,5.999997 -2.93334,11.733331 -3.73334,17.866664 h -0.53333 c -0.8,-6.133333 -1.73333,-11.733333 -2.93333,-17.866664 l -7.73334,-37.6 H 412.4944 Z"
         style=""
         id="path3928" />
      <path
         d="m 506.62753,-75.561853 h 14.13333 l 7.2,-30.933337 c 1.06667,-4.53333 2.13333,-10.93333 3.2,-19.19999 h 0.53333 c 1.06667,8.26666 2.13334,14.66666 3.2,19.19999 l 7.46667,30.933337 h 14.13333 l 13.86667,-64.799997 h -10.13333 l -7.73334,37.6 c -1.2,6.133331 -1.86666,11.733331 -2.93333,17.866664 h -0.53333 c -0.8,-6.133333 -2.53334,-11.733333 -4,-17.866664 l -7.73334,-33.6 h -10.93333 l -8,33.6 c -1.46667,5.999997 -2.93333,11.733331 -3.73333,17.866664 h -0.53334 c -0.8,-6.133333 -1.73333,-11.733333 -2.93333,-17.866664 l -7.73333,-37.6 H 492.4942 Z"
         style=""
         id="path3930" />
      <path
         d="m 586.62732,-75.561853 h 14.13333 l 7.2,-30.933337 c 1.06667,-4.53333 2.13334,-10.93333 3.2,-19.19999 h 0.53334 c 1.06666,8.26666 2.13333,14.66666 3.2,19.19999 l 7.46666,30.933337 h 14.13334 l 13.86666,-64.799997 h -10.13333 l -7.73333,37.6 c -1.2,6.133331 -1.86667,11.733331 -2.93334,17.866664 h -0.53333 c -0.8,-6.133333 -2.53333,-11.733333 -4,-17.866664 l -7.73333,-33.6 h -10.93334 l -8,33.6 c -1.46666,5.999997 -2.93333,11.733331 -3.73333,17.866664 h -0.53333 c -0.8,-6.133333 -1.73334,-11.733333 -2.93334,-17.866664 l -7.73333,-37.6 h -10.93333 z"
         style=""
         id="path3932" />
      <path
         d="m 691.42712,-73.961853 c 6,0 10.8,-4.533334 10.8,-11.2 0,-6.8 -4.8,-11.333333 -10.8,-11.333333 -6,0 -10.8,4.533333 -10.8,11.333333 0,6.666666 4.8,11.2 10.8,11.2 z"
         style=""
         id="path3934" />
      <path
         d="m 743.82691,-48.228521 h 10.93333 v -21.866666 l -0.53333,-12.266666 h 0.4 c 5.73333,5.333333 13.33333,8.4 19.33333,8.4 15.6,0 29.46667,-12.933333 29.46667,-34.933337 0,-20.13333 -9.33334,-33.06666 -26.8,-33.06666 -8,0 -16.4,4.13333 -22.4,9.86667 h -0.4 l -0.93333,-8.26667 h -9.06667 z m 28.26667,-34.933332 c -4.4,0 -11.2,-2.133333 -17.33334,-7.6 v -32.266667 c 6.66667,-6.66666 13.33334,-9.73333 19.06667,-9.73333 12.93333,0 18.26666,9.6 18.26666,23.86666 0,16.000004 -8.39999,25.733337 -19.99999,25.733337 z"
         style=""
         id="path3936" />
      <path
         d="m 828.89336,-47.695188 c 14.66667,0 22.66667,-9.733333 27.46667,-22.533332 l 28.53333,-70.13333 h -10.4 l -14.13333,35.86666 c -2.13334,5.866671 -4.66667,12.666671 -6.93333,18.800004 h -0.53334 c -2.66666,-6.266667 -5.46666,-13.066667 -8,-18.800004 l -15.86666,-35.86666 h -11.06667 l 30.26667,64.93333 -2,4.8 c -3.2,7.999999 -8.66667,13.866666 -17.73334,13.866666 -2,0 -4.13333,-0.4 -5.86666,-0.933333 l -2.26667,8.666666 c 2.26667,0.8 5.46667,1.333333 8.53333,1.333333 z"
         style=""
         id="path3938" />
      <path
         d="m 943.95985,-73.961853 c 8.13333,0 14.39999,-1.733334 20.26666,-3.866667 l -2.4,-8 c -4.66667,1.733334 -9.46667,2.933334 -15.6,2.933334 -12.53333,0 -16.4,-6.133334 -16.4,-17.733334 v -30.8 h 31.86667 v -8.93333 h -31.86667 v -20.8 h -9.06666 l -1.46667,20.8 -18.66667,0.66667 v 8.26666 h 18.26667 v 30.66667 c 0,15.999997 6.13333,26.799997 25.06667,26.799997 z"
         style=""
         id="path3940" />
      <path
         d="m 983.82627,-75.561853 h 10.93333 v -45.199997 c 7.6,-7.86667 12.8,-11.73333 20.5333,-11.73333 10.6667,0 14.9334,5.86666 14.9334,18.13333 v 38.799997 h 10.9333 v -40.266667 c 0,-17.06666 -7.0667,-26.13333 -22.4,-26.13333 -10.1333,0 -17.6,5.46667 -24.26666,12.66667 h -0.4 l 0.66666,-15.33334 v -25.86666 h -10.93333 z"
         style=""
         id="path3942" />
      <path
         d="m 1091.4261,-73.961853 c 17.0667,0 32,-12.4 32,-33.866667 0,-21.73333 -14.9333,-34.13333 -32,-34.13333 -17.0667,0 -32,12.4 -32,34.13333 0,21.466667 14.9333,33.866667 32,33.866667 z m 0,-9.066667 c -12.4,0 -20.6667,-9.999999 -20.6667,-24.8 0,-14.93333 8.2667,-25.06666 20.6667,-25.06666 12.4,0 20.6667,10.13333 20.6667,25.06666 0,14.800001 -8.2667,24.8 -20.6667,24.8 z"
         style=""
         id="path3944" />
      <path
         d="m 1143.8259,-75.561853 h 10.9333 v -45.199997 c 7.6,-7.86667 12.8,-11.73333 20.5334,-11.73333 10.6666,0 14.9333,5.86666 14.9333,18.13333 v 38.799997 h 10.9333 v -40.266667 c 0,-17.06666 -7.0666,-26.13333 -22.4,-26.13333 -10.1333,0 -17.6,5.46667 -24.4,12.66667 h -0.5333 l -0.9333,-11.06667 h -9.0667 z"
         style=""
         id="path3946" />
      <path
         d="m 1223.8257,-48.228521 h 10.9333 v -21.866666 l -0.5333,-12.266666 h 0.4 c 5.7333,5.333333 13.3333,8.4 19.3333,8.4 15.6,0 29.4667,-12.933333 29.4667,-34.933337 0,-20.13333 -9.3334,-33.06666 -26.8,-33.06666 -8,0 -16.4,4.13333 -22.4,9.86667 h -0.4 l -0.9334,-8.26667 h -9.0666 z m 28.2666,-34.933332 c -4.4,0 -11.2,-2.133333 -17.3333,-7.6 v -32.266667 c 6.6667,-6.66666 13.3333,-9.73333 19.0667,-9.73333 12.9333,0 18.2666,9.6 18.2666,23.86666 0,16.000004 -8.4,25.733337 -20,25.733337 z"
         style=""
         id="path3948" />
      <path
         d="m 1331.4255,-73.961853 c 17.0666,0 32,-12.4 32,-33.866667 0,-21.73333 -14.9334,-34.13333 -32,-34.13333 -17.0667,0 -32,12.4 -32,34.13333 0,21.466667 14.9333,33.866667 32,33.866667 z m 0,-9.066667 c -12.4,0 -20.6667,-9.999999 -20.6667,-24.8 0,-14.93333 8.2667,-25.06666 20.6667,-25.06666 12.4,0 20.6666,10.13333 20.6666,25.06666 0,14.800001 -8.2666,24.8 -20.6666,24.8 z"
         style=""
         id="path3950" />
      <path
         d="m 1407.5586,-73.961853 c 8,0 15.7334,-4.666667 21.0667,-10.133333 h 0.4 l 0.9333,8.533333 h 9.0667 v -94.933327 h -10.9333 v 24.93333 l 0.5333,12 h -0.4 c -5.6,-5.33333 -11.6,-8.4 -19.3333,-8.4 -15.3334,0 -29.4667,13.06667 -29.4667,34.13333 0,21.6 11.2,33.866667 28.1333,33.866667 z m 2.2667,-9.2 c -12,0 -19.0667,-9.333333 -19.0667,-24.799997 0,-14.8 9.0667,-24.8 20.2667,-24.8 5.6,0 11.2,2.13333 17.0667,7.6 v 32.266664 c -5.7334,6.4 -11.8667,9.733333 -18.2667,9.733333 z"
         style=""
         id="path3952" />
      <path
         d="m 1497.5584,-73.961853 c 9.6,0 18.5333,-3.733334 25.7333,-10.133333 l -4.9333,-7.066667 c -5.3334,4.533333 -12,8.133333 -20,8.133333 -14.9334,0 -24.9334,-9.999999 -24.9334,-24.8 0,-14.93333 10.2667,-25.06666 25.2,-25.06666 6.8,0 12.4,2.8 17.7334,7.46666 l 5.4666,-7.06666 c -5.3333,-5.2 -13.0666,-9.46667 -23.6,-9.46667 -19.6,0 -36.1333,12.4 -36.1333,34.13333 0,21.466667 15.2,33.866667 35.4667,33.866667 z"
         style=""
         id="path3954" />
      <path
         d="m 1564.2248,-73.961853 c 9.2,0 18.4,-4.8 25.6,-10.4 h 0.4 l 0.9333,8.8 h 8.9334 v -39.733337 c 0,-16.13333 -8.5334,-26.66666 -26.2667,-26.66666 -11.3333,0 -22.2667,5.06667 -28.8,9.33333 l 4.2667,7.46667 c 6,-3.73333 14.2666,-7.73333 22.6666,-7.73333 12.5334,0 16.9334,7.46666 17.2,16.26666 -33.4666,2.66667 -46.9333,9.73333 -46.9333,24.266667 0,11.6 9.8667,18.4 22,18.4 z m 2.9333,-8.8 c -7.4666,0 -14.2666,-3.066667 -14.2666,-10.4 0,-8.533337 8.5333,-13.999997 36.2666,-16.266667 v 17.066667 c -7.3333,6.133333 -14.6666,9.6 -22,9.6 z"
         style=""
         id="path3956" />
      <path
         d="m 1652.758,-73.961853 c 18.5333,0 28.8,-8.8 28.8,-19.333333 0,-9.866664 -5.2,-15.333334 -26.8,-20.000004 -13.2,-2.8 -18.8,-5.2 -18.8,-10.79999 0,-4.93334 3.8667,-9.33334 14.9333,-9.33334 8.2667,0 15.7334,2.66667 21.7334,6.8 l 5.3333,-7.06666 c -6.4,-4.4 -16.2667,-8.26667 -26.1333,-8.26667 -17.7334,0 -26.9334,8 -26.9334,18.4 0,9.73333 8.5334,15.46666 25.3334,18.93333 17.6,3.6 20.2666,7.066667 20.2666,12.000001 0,5.466666 -5.4666,10.133333 -16.4,10.133333 -12,0 -20.6666,-3.466667 -28.1333,-8.8 l -5.0667,7.2 c 7.8667,5.466666 19.2,10.133333 31.8667,10.133333 z"
         style=""
         id="path3958" />
      <path
         d="m 1743.9578,-73.961853 c 8.1333,0 14.4,-1.733334 20.2666,-3.866667 l -2.4,-8 c -4.6666,1.733334 -9.4666,2.933334 -15.6,2.933334 -12.5333,0 -16.4,-6.133334 -16.4,-17.733334 v -30.8 h 31.8667 v -8.93333 h -31.8667 v -20.8 h -9.0666 l -1.4667,20.8 -18.6667,0.66667 v 8.26666 h 18.2667 v 30.66667 c 0,15.999997 6.1333,26.799997 25.0667,26.799997 z"
         style=""
         id="path3960" />
      <path
         d="m 1811.4242,-73.961853 c 6,0 10.8,-4.533334 10.8,-11.2 0,-6.8 -4.8,-11.333333 -10.8,-11.333333 -6,0 -10.8,4.533333 -10.8,11.333333 0,6.666666 4.8,11.2 10.8,11.2 z"
         style=""
         id="path3962" />
      <path
         d="m 1897.5574,-73.961853 c 9.6,0 18.5333,-3.733334 25.7333,-10.133333 l -4.9333,-7.066667 c -5.3333,4.533333 -12,8.133333 -20,8.133333 -14.9333,0 -24.9333,-9.999999 -24.9333,-24.8 0,-14.93333 10.2666,-25.06666 25.2,-25.06666 6.8,0 12.4,2.8 17.7333,7.46666 l 5.4667,-7.06666 c -5.3334,-5.2 -13.0667,-9.46667 -23.6,-9.46667 -19.6,0 -36.1334,12.4 -36.1334,34.13333 0,21.466667 15.2,33.866667 35.4667,33.866667 z"
         style=""
         id="path3964" />
      <path
         d="m 1971.4238,-73.961853 c 17.0667,0 32,-12.4 32,-33.866667 0,-21.73333 -14.9333,-34.13333 -32,-34.13333 -17.0666,0 -32,12.4 -32,34.13333 0,21.466667 14.9334,33.866667 32,33.866667 z m 0,-9.066667 c -12.4,0 -20.6666,-9.999999 -20.6666,-24.8 0,-14.93333 8.2666,-25.06666 20.6666,-25.06666 12.4,0 20.6667,10.13333 20.6667,25.06666 0,14.800001 -8.2667,24.8 -20.6667,24.8 z"
         style=""
         id="path3966" />
      <path
         d="m 2019.1569,-75.561853 h 10.9333 v -46.933327 c 3.2,-6.66667 6.1334,-10 10.6667,-10 4.8,0 6.6667,3.86666 6.6667,11.33333 v 45.599997 h 10.1333 v -46.933327 c 3.4667,-6.66667 5.8667,-10 10.4,-10 4.8,0 6.9333,3.86666 6.9333,11.33333 v 45.599997 h 10.9334 v -46.399997 c 0,-12.93333 -5.3334,-20 -14.4,-20 -7.4667,0 -11.4667,4.26667 -15.2,11.2 -1.8667,-7.46667 -5.8667,-11.2 -12.2667,-11.2 -7.4667,0 -11.4667,4.13333 -14.8,10.13333 h -0.2667 l -0.9333,-8.53333 h -8.8 z"
         style=""
         id="path3968" />
    </g>
  </g>
</svg>
