<?xml version="1.0" encoding="UTF-8" standalone="no"?>
<svg viewBox="0 0 48 48" xmlns="http://www.w3.org/2000/svg" xmlns:xlink="http://www.w3.org/1999/xlink">
<defs>
<linearGradient id="linearGradient2399">
<stop offset="0" stop-color="#fff"/>
<stop offset="1" stop-color="#fff" stop-opacity="0"/>
</linearGradient>
<linearGradient id="linearGradient2355">
<stop offset="0"/>
<stop offset="1" stop-opacity="0"/>
</linearGradient>
<linearGradient gradientUnits="userSpaceOnUse" id="linearGradient2258" x1="41.25" x2="48.25" y1="36.68955" y2="35.68955">
<stop offset="0" stop-color="#c6c6c6"/>
<stop offset="1" stop-color="#c6c6c6" stop-opacity="0"/>
</linearGradient>
<linearGradient gradientUnits="userSpaceOnUse" id="linearGradient2377" x1="18.32872" x2="14.40625" y1="15.32307" y2="14.04688">
<stop offset="0"/>
<stop offset="1" stop-opacity=".48454"/>
</linearGradient>
<linearGradient gradientUnits="userSpaceOnUse" id="linearGradient2361" x1="25.16047" x2="33.96875" xlink:href="#linearGradient2355" y1="15.80366" y2="20.4375"/>
<linearGradient gradientUnits="userSpaceOnUse" id="linearGradient2405" x1="16.4375" x2="17.40238" xlink:href="#linearGradient2399" y1="49.11071" y2="43.42043"/>
<radialGradient cx="15.4375" cy="42.09043" gradientTransform="matrix(1,0,0,.52514,0,22.02165)" gradientUnits="userSpaceOnUse" id="radialGradient2238" r="11.1875">
<stop offset="0" stop-color="#b0b0b0"/>
<stop offset="1" stop-color="#747474"/>
</radialGradient>
<radialGradient cx="19.5575" cy="6.64407" gradientTransform="matrix(1.49192,-8.445108e-2,-5.874412e-2,3.98672,-9.6468,-20.27595)" gradientUnits="userSpaceOnUse" id="radialGradient2351" r="10.98921">
<stop offset="0" stop-color="#d5d5d5"/>
<stop offset="1" stop-color="#a0a0a0"/>
</radialGradient>
<radialGradient cx="33.5" cy="20.53817" gradientTransform="matrix(.43533,1.140794e-15,-1.140794e-15,.43533,18.91658,12.49341)" gradientUnits="userSpaceOnUse" id="radialGradient2413" r="2.26974">
<stop offset="0" stop-color="#d5d5d5"/>
<stop offset="1" stop-color="#747474"/>
</radialGradient>
<radialGradient cx="25.1875" cy="41" gradientTransform="matrix(1,0,0,.42586,-1.940722e-16,23.53992)" gradientUnits="userSpaceOnUse" id="radialGradient2248" r="16.4375" xlink:href="#linearGradient2355"/>
<radialGradient cx="20.27528" cy="5.71197" gradientTransform="matrix(2.53075,-5.687060e-16,5.159545e-16,2.29601,-31.03641,-6.69986)" gradientUnits="userSpaceOnUse" id="radialGradient2343" r="12.49403" xlink:href="#linearGradient2399"/>
</defs>
<path d="m41.625,41a16.4375,7 0 1,1 -32.875,0 16.4375,7 0 1,1 32.875,0z" fill="url(#radialGradient2248)" fill-rule="evenodd" opacity=".49432" transform="matrix(1.10646,0,0,1.04464,-2.68156,-2.51786)"/>
<path d="m27.625,46.375a11.1875,5.875 0 1,1 -22.375,0 11.1875,5.875 0 1,1 22.375,0z" fill="url(#radialGradient2238)" fill-rule="evenodd" stroke="#424242" transform="translate(8.75,-7)"/>
<path d="m35.375,22.125a1.875,1.875 0 1,1 -3.75,0 1.875,1.875 0 1,1 3.75,0z" fill="#424242" fill-rule="evenodd" transform="matrix(2.06667,0,0,1.26667,-43.98333,9.475)"/>
<path d="m20.25,31.375c0,0 .73588,3.40224 3,3.125 6.125-.75 5.47136-.48951 9.875.875 4.4375,1.375 2.09375,3.59375 6.625,4s4.125-3.625 8-3.875" fill="none" stroke="url(#linearGradient2258)"/>
<path d="m22.72262-4.01426h8.7494a6.6937,6.6937 0 0,1 6.6937,6.6937v17.30463a6.6937,6.6937 0 0,1 -6.6937,6.6937h-8.7494a6.6937,6.6937 0 0,1 -6.6937-6.6937v-17.30463a6.6937,6.6937 0 0,1 6.6937-6.6937" fill="url(#radialGradient2351)" fill-rule="evenodd" stroke="#7c7c7c" stroke-width="1.00015" transform="matrix(.97073,.24016,-.26401,.96452,0,0)"/>
<path d="m22.62993-3.00614h9.02235a5.41986,5.41986 0 0,1 5.41986,5.41986v17.68468a5.41986,5.41986 0 0,1 -5.41986,5.41986h-9.02235a5.41986,5.41986 0 0,1 -5.41986-5.41986v-17.68468a5.41986,5.41986 0 0,1 5.41986-5.41986" fill="none" opacity=".30682" stroke="#fff" stroke-width="1.00015" transform="matrix(.97073,.24016,-.26401,.96452,0,0)"/>
<path d="m20.09375,1.96875c-2.22109.35245-4.15052,2.03951-4.78125,4.34375l-4.84375,17.84375c2.85695,1.40411 6.63761.46875 10.21875.46875 .49001,0 .98807-.00153 1.46875-.03125l-2.3125-.5625c-.21986-.05954-.42118-.13519-.5625-.25l-.03125-.03125-.0625-.0625-.03125-.03125-.03125-.0625c-.00967-.02434-.02473-.07193-.03125-.09375 .0002-.0031-6e-005-.02851 0-.03125l-.03125-.0625c7e-005-.00614 5e-005-.02725 0-.03125 .00023-.01787-3e-005-.05098 0-.0625s-.00032-.02762 0-.03125 1e-005-.02848 0-.03125c.00812-.03623.02466-.09348.03125-.125l.03125-.0625c0-.00286.00026-.02817 0-.03125l.03125-.09375 .03125-.0625c.02476-.04515.06326-.11768.09375-.15625l.03125-.03125 .0625-.03125c.02856-.01715.08934-.0477.125-.0625h.0625c-.00018-.00175-5e-005-.02423 0-.03125h.03125c.17483-.03267.39648-.00684.625.03125l5.9375,1.375c1.19029-.29114 2.32723-.69023 3.40625-1.15625-.1524-.08613-.31746-.14085-.46875-.1875l-.125-.03125-8.21875-2c-.21986-.05954-.44421-.13519-.59375-.25-.005-.00406-.0264-.02708-.03125-.03125l-.03125-.03125-.03125-.03125-.03125-.0625-.03125-.03125c.00031-.00319-9e-005-.02849 0-.03125l-.03125-.0625c.00017-.0031-6e-005-.02851 0-.03125-3e-005-.01078-.00022-.05156 0-.0625-.00073-.02153-.00167-.0707 0-.09375 4e-005-.00353.00014-.02729 0-.03125-.00071-.01301-.00085-.05144 0-.0625-.00014-.00343 2e-005-.02842 0-.03125l.03125-.0625c.00879-.02783.02164-.06835.03125-.09375l.03125-.0625c.01712-.03633.04438-.09357.0625-.125l.0625-.09375 .03125-.03125 .03125-.03125 .0625-.03125c.01589-.00826.04993-.02514.0625-.03125l.0625-.03125h.03125l.03125-.03125h.03125l.03125-.03125h.03125 .03125c.14415-.00579.32202.03284.5.0625l8.3125,1.9375c.61939.17285 1.18732.6088 1.625,1.03125 .51376-.27325.99128-.59488 1.46875-.90625-.14565-.195-1.33045-1.69949-2.40625-2.03125l-.125-.03125-8.21875-2c-.21986-.05954-.44421-.13519-.59375-.25-.005-.00406-.0264-.02708-.03125-.03125l-.03125-.03125-.03125-.03125-.03125-.0625-.03125-.03125c.00031-.00319-9e-005-.02849 0-.03125l-.03125-.0625c.00017-.0031-6e-005-.02851 0-.03125-3e-005-.01078-.00022-.05156 0-.0625-.00073-.02153-.00167-.0707 0-.09375 4e-005-.00353.00014-.02729 0-.03125-.00071-.01301-.00085-.05144 0-.0625-.00014-.00343 2e-005-.02842 0-.03125l.03125-.0625c.00879-.02783.02164-.06835.03125-.09375l.03125-.0625c.01712-.03633.04438-.09357.0625-.125l.0625-.09375 .03125-.03125 .03125-.03125 .0625-.03125c.01589-.00826.04993-.02514.0625-.03125l.03125-.03125h.0625l.03125-.03125h.03125l.03125-.03125h.03125 .03125c.14415-.0058.32202.03284.5.0625l8.3125,1.9375c1.34375.375 2.46875,2 2.46875,2l-.40625,1.5625c.18417-.1201.38407-.21825.5625-.34375l2.59375-9.53125c.84141-3.07392-.96037-6.1465-4.03125-6.90625l-9.28125-2.3125c-.59978-.14839-1.19325-.19744-1.78125-.15625h-.03125-.0625-.03125-.03125-.125-.0625-.03125-.0625-.0625zm-4.5,5.21875 4.90625.96875c.19043.05859.39146.14519.53125.28125l.03125.03125 .03125.03125 .03125.0625 .03125.03125c.01009.02462.02353.07139.03125.09375 .00877.02855.02484.08956.03125.125-8e-005,.00612-5e-005,.02725 0,.03125-.00025.01773 4e-005,.05075 0,.0625 .00035.02836.002.09522 0,.125 .00014.00343-2e-005,.02842 0,.03125l-.03125.0625c-.00724.02751-.02266.06848-.03125.09375 .00028.00308-3e-005,.02837 0,.03125l-.03125.0625-.03125.0625-.03125.03125-.03125.0625c-.00454.00544-.0266.02602-.03125.03125s-.02639.02644-.03125.03125l-.03125.03125-.0625.03125-.03125.03125-.09375.03125c-.02423.0087-.06855.02522-.09375.03125-.16524.03505-.35352.01953-.53125-.03125l-4.9375-1.0625 .40625-1.40625zm7.8125,1.59375h.03125 .03125c.14415-.0058.32202.03284.5.0625l8.3125,1.9375c1.34375.375 2.21875,1.75 2.21875,1.75l-.34375,1.53125c-.14565-.195-1.14294-1.41824-2.21875-1.75l-.125-.03125-8.21875-2c-.21986-.05954-.44421-.13519-.59375-.25-.005-.00406-.0264-.02708-.03125-.03125l-.03125-.03125-.03125-.03125-.03125-.0625-.03125-.03125c.00031-.00319-9e-005-.02849 0-.03125l-.03125-.0625c.00017-.0031-6e-005-.02851 0-.03125-3e-005-.01078-.00022-.05156 0-.0625-.00073-.02153-.00167-.0707 0-.09375 4e-005-.00354.00014-.02729 0-.03125-.00071-.01301-.00085-.05144 0-.0625-.00014-.00343 2e-005-.02842 0-.03125l.03125-.0625c.00879-.02783.02164-.06834.03125-.09375l.03125-.0625c.01712-.03633.04438-.09357.0625-.125l.0625-.09375 .03125-.03125 .03125-.03125 .0625-.03125c.01589-.00826.04993-.02514.0625-.03125l.03125-.03125h.0625l.03125-.03125h.03125l.03125-.03125zm-8.71875,1.78125 4.90625.96875c.19043.05859.39146.14519.53125.28125l.03125.03125 .03125.03125 .03125.0625 .03125.03125c-.00018.00158-6e-005,.02418 0,.03125l.03125.0625 .03125.09375c.00017.00346-4e-005,.02725 0,.03125-.00043.01784-.00033.05098 0,.0625-8e-005,.0235.00236.06885 0,.09375-.00526.04229-.01904.10986-.03125.15625 9e-005,.00266-.00031.02847 0,.03125l-.0625.125-.03125.0625-.03125.0625-.03125.03125c-.03543.04525-.08293.09292-.125.125l-.03125.03125-.0625.03125-.0625.03125h-.03125l-.0625.03125c-.16524.03505-.35352.01953-.53125-.03125l-4.9375-1.0625 .40625-1.40625zm7.8125,1.65625h.03125 .03125c.14415-.0058.32202.03284.5.0625l8.3125,1.9375c1.34375.375 2.09375,1.65625 2.09375,1.65625l-.3125,1.4375c-.14565-.195-1.04919-1.23074-2.125-1.5625l-.125-.03125-8.21875-2c-.21986-.05954-.44421-.13519-.59375-.25-.005-.00406-.0264-.02708-.03125-.03125l-.03125-.03125-.03125-.03125-.03125-.0625-.03125-.03125c.00031-.00319-9e-005-.02849 0-.03125l-.03125-.0625c.00017-.0031-6e-005-.02851 0-.03125-3e-005-.01078-.00022-.05156 0-.0625-.00073-.02153-.00167-.0707 0-.09375 4e-005-.00353.00014-.02729 0-.03125-.00071-.01301-.00085-.05144 0-.0625-.00014-.00343 2e-005-.02842 0-.03125l.03125-.0625c.00879-.02783.02164-.06835.03125-.09375l.03125-.0625c.01712-.03633.04438-.09357.0625-.125l.0625-.09375 .03125-.03125 .03125-.03125 .0625-.03125c.01589-.00826.04993-.02514.0625-.03125l.0625-.03125h.03125l.03125-.03125h.03125l.03125-.03125zm-8.75,1.71875 4.90625,1c.13885.04272.28463.10955.40625.1875l.0625.03125 .03125.03125c.00532.00469.02608.02642.03125.03125l.0625.0625 .03125.03125c-.00018.00344 6e-005,.0284 0,.03125l.03125.0625 .03125.03125c.01103.03195.0255.08954.03125.125 3e-005,.01072.0002.05163 0,.0625 .00066.02305.00159.06932 0,.09375 8e-005,.00321 0,.02845 0,.03125-.00781.03657-.02418.09511-.03125.125 .00023.00313-3e-005,.02849 0,.03125l-.0625.125-.03125.0625-.03125.0625-.03125.0625-.09375.09375-.03125.03125-.03125.03125-.0625.03125-.0625.03125h-.03125c-.17933.05325-.39551.05664-.59375,0l-4.9375-1.125 .40625-1.375zm-.875,3.34375 4.90625,1.0625c.22217.06836.45511.19609.59375.375l.03125.03125 .03125.0625c.00988.02477.02423.07091.03125.09375l.03125.0625c0,.01074.00023.05161 0,.0625s-6e-005,.02726 0,.03125c-7e-005,.01762.00041.05052 0,.0625 7e-005,.00322 1e-005,.02844 0,.03125s-2e-005,.02851 0,.03125l-.03125.0625c-.00133.00381.00101.02788 0,.03125s-5e-005,.0286 0,.03125c-.00844.03209-.02122.09194-.03125.125-.03151.07936-.08071.16218-.125.21875-.00454.00544-.0266.02602-.03125.03125s-.02639.02644-.03125.03125l-.03125.03125-.03125.03125-.0625.03125-.03125.03125-.09375.03125h-.0625c-.16524.03505-.35352.01953-.53125-.03125l-4.9375-1.15625 .40625-1.40625zm-.96875,3.375 4.90625,1.0625c.19043.05859.39146.14519.53125.28125l.03125.03125 .03125.03125 .03125.0625 .03125.03125c.01009.02462.02353.07139.03125.09375 .00877.02855.02484.08956.03125.125 .00052.00554-.0001.02326 0,.03125-.00025.01773 4e-005,.05075 0,.0625 .00035.02836.002.09522 0,.125-.00099.00366.00129.02733 0,.03125-.00473.0125-.02755.05111-.03125.0625-.00724.02751-.02266.06848-.03125.09375l-.03125.09375-.03125.0625-.03125.03125-.03125.0625c-.00454.00544-.0266.02602-.03125.03125s-.02639.02644-.03125.03125l-.03125.03125-.0625.03125-.03125.03125-.09375.03125c-.02423.0087-.06855.02522-.09375.03125-.16524.03505-.35352.01953-.53125-.03125l-4.9375-1.15625 .40625-1.40625z" fill="url(#radialGradient2343)" fill-rule="evenodd" opacity=".44318"/>
<path d="m22.28125,15.84375 8.3125,1.9375c1.34375.375 2.46875,2 2.46875,2l-.40625,1.59375c0,0-1.34375-1.84375-2.53125-2.09375l-8.21875-2c-.48521-.13141-.93488-.32078-.75-.90625 .1875-.59375.5625-.625 1.125-.53125z" fill="url(#linearGradient2361)" fill-rule="evenodd"/>
<path d="m31.5,19-.125,15.375v.03125 .03125c.0877,1.40324-1.09577,2.6371-2.25,2.40625l-10.46875-2.15625c-.46875-.125-1.71875-.625-1.3125-2.0625l-1.9375-.5c-.67876,2.43669 1.25,4.15625 2.6875,4.46875l10.65625,2.1875c2.57461.51492 4.74794-1.83397 4.625-4.40625-.00101-.02114.00132-.04134 0-.0625l.125-15.3125h-2z" fill="#747474" fill-rule="evenodd" stroke="#424242"/>
<path d="m21.25,19.28125 8.3125,1.9375c1.34375.375 2.46875,2 2.46875,2l-.40625,1.59375c0,0-1.34375-1.84375-2.53125-2.09375l-8.21875-2c-.48521-.13141-.93488-.32078-.75-.90625 .1875-.59375.5625-.625 1.125-.53125z" fill="url(#linearGradient2361)" fill-rule="evenodd"/>
<path d="m24.09375,8.96875 8.3125,1.9375c1.34375.375 2.0625,1.5 2.0625,1.5l-.40625,1.59375c0,0-.9375-1.34375-2.125-1.59375l-8.21875-2c-.48521-.13141-.93488-.32078-.75-.90625 .1875-.59375.5625-.625 1.125-.53125z" fill="url(#linearGradient2361)" fill-rule="evenodd"/>
<path d="m23.1875,12.40625 8.3125,1.9375c1.34375.375 2.0625,1.5625 2.0625,1.5625l-.4375,1.5c0,0-.90625-1.3125-2.09375-1.5625l-8.21875-2c-.48521-.13141-.93488-.32078-.75-.90625 .1875-.59375.5625-.625 1.125-.53125z" fill="url(#linearGradient2361)" fill-rule="evenodd"/>
<path d="m35.375,22.125a1.875,1.875 0 1,1 -3.75,0 1.875,1.875 0 1,1 3.75,0z" fill="url(#radialGradient2413)" fill-rule="evenodd" stroke="#424242" stroke-width=".78947" transform="matrix(1.26667,0,0,1.26667,-10.30833,-8.15)"/>
<path d="m20.34375,22.71875 8.3125,1.9375c1.34375.375 2.46875,2 2.46875,2l-.40625,1.59375c0,0-1.34375-1.84375-2.53125-2.09375l-8.21875-2c-.48521-.13141-.87238-.32078-.75-.90625s.5625-.625 1.125-.53125z" fill="url(#linearGradient2361)" fill-rule="evenodd"/>
<path d="m16.5625,23.34375-4.9375-1.15625 .40625-1.40625 4.90625,1.0625c.40625.125.84375.375.6875.96875-.15442.58679-.625.65625-1.0625.53125z" fill="url(#linearGradient2377)" fill-rule="evenodd"/>
<path d="m17.53125,19.97656-4.9375-1.15625 .40625-1.40625 4.90625,1.0625c.40625.125.84375.375.6875.96875-.15442.58679-.625.65625-1.0625.53125z" fill="url(#linearGradient2377)" fill-rule="evenodd"/>
<path d="m18.40625,16.54688-4.9375-1.09375 .40625-1.40625 4.90625,1c.40625.125.84375.375.6875.96875-.15442.58679-.625.65625-1.0625.53125z" fill="url(#linearGradient2377)" fill-rule="evenodd"/>
<path d="m19.34375,13.14844-4.9375-1.0625 .40625-1.40625 4.90625.96875c.40625.125.84375.375.6875.96875-.15442.58679-.625.65625-1.0625.53125z" fill="url(#linearGradient2377)" fill-rule="evenodd"/>
<path d="m20.25,9.78125-4.9375-1.0625 .40625-1.40625 4.90625.96875c.40625.125.84375.375.6875.96875-.15442.58679-.625.65625-1.0625.53125z" fill="url(#linearGradient2377)" fill-rule="evenodd"/>
<path d="m27.625,46.375a11.1875,5.875 0 1,1 -22.375,0 11.1875,5.875 0 1,1 22.375,0z" fill="none" opacity=".29545" stroke="url(#linearGradient2405)" stroke-width="1.16239" transform="matrix(.9163,0,0,.80773,10.12589,1.91671)"/>
</svg>
