<?xml version="1.0" encoding="UTF-8" standalone="no"?>
<!-- Created with Inkscape (http://www.inkscape.org/) -->

<svg
   xmlns:dc="http://purl.org/dc/elements/1.1/"
   xmlns:cc="http://creativecommons.org/ns#"
   xmlns:rdf="http://www.w3.org/1999/02/22-rdf-syntax-ns#"
   xmlns:svg="http://www.w3.org/2000/svg"
   xmlns="http://www.w3.org/2000/svg"
   xmlns:xlink="http://www.w3.org/1999/xlink"
   xmlns:sodipodi="http://sodipodi.sourceforge.net/DTD/sodipodi-0.dtd"
   xmlns:inkscape="http://www.inkscape.org/namespaces/inkscape"
   width="210mm"
   height="297mm"
   viewBox="0 0 744.09448819 1052.3622047"
   id="svg2"
   version="1.1"
   inkscape:version="0.91 r13725"
   sodipodi:docname="amateur_logo_rectangle.svg">
  <defs
     id="defs4">
    <linearGradient
       id="linearGradient2795">
      <stop
         id="stop2797"
         offset="0"
         style="stop-color:#b8b8b8;stop-opacity:0.49803922;" />
      <stop
         id="stop2799"
         offset="1"
         style="stop-color:#7f7f7f;stop-opacity:0;" />
    </linearGradient>
    <linearGradient
       id="linearGradient2787">
      <stop
         id="stop2789"
         offset="0"
         style="stop-color:#7f7f7f;stop-opacity:0.5;" />
      <stop
         id="stop2791"
         offset="1"
         style="stop-color:#7f7f7f;stop-opacity:0;" />
    </linearGradient>
    <linearGradient
       id="linearGradient3676">
      <stop
         id="stop3678"
         offset="0"
         style="stop-color:#b2b2b2;stop-opacity:0.5;" />
      <stop
         id="stop3680"
         offset="1"
         style="stop-color:#b3b3b3;stop-opacity:0;" />
    </linearGradient>
    <linearGradient
       id="linearGradient3236">
      <stop
         id="stop3244"
         offset="0"
         style="stop-color:#f4f4f4;stop-opacity:1" />
      <stop
         id="stop3240"
         offset="1"
         style="stop-color:white;stop-opacity:1" />
    </linearGradient>
    <linearGradient
       id="linearGradient4671">
      <stop
         id="stop4673"
         offset="0"
         style="stop-color:#ffd43b;stop-opacity:1;" />
      <stop
         id="stop4675"
         offset="1"
         style="stop-color:#ffe873;stop-opacity:1" />
    </linearGradient>
    <linearGradient
       id="linearGradient4689">
      <stop
         id="stop4691"
         offset="0"
         style="stop-color:#5a9fd4;stop-opacity:1;" />
      <stop
         id="stop4693"
         offset="1"
         style="stop-color:#306998;stop-opacity:1;" />
    </linearGradient>
    <linearGradient
       gradientTransform="translate(100.2702,99.61116)"
       gradientUnits="userSpaceOnUse"
       xlink:href="#linearGradient4671"
       id="linearGradient2987"
       y2="144.75717"
       x2="-65.308502"
       y1="144.75717"
       x1="224.23996" />
    <linearGradient
       gradientTransform="translate(100.2702,99.61116)"
       gradientUnits="userSpaceOnUse"
       xlink:href="#linearGradient4689"
       id="linearGradient2990"
       y2="76.313133"
       x2="26.670298"
       y1="77.475983"
       x1="172.94208" />
    <linearGradient
       y2="144.75717"
       x2="-65.308502"
       y1="144.75717"
       x1="224.23996"
       gradientTransform="matrix(0.562541,0,0,0.567972,-11.5974,-7.60954)"
       gradientUnits="userSpaceOnUse"
       id="linearGradient2255"
       xlink:href="#linearGradient4671"
       inkscape:collect="always" />
    <linearGradient
       y2="76.313133"
       x2="26.670298"
       y1="76.176224"
       x1="172.94208"
       gradientTransform="matrix(0.562541,0,0,0.567972,-11.5974,-7.60954)"
       gradientUnits="userSpaceOnUse"
       id="linearGradient2258"
       xlink:href="#linearGradient4689"
       inkscape:collect="always" />
    <radialGradient
       gradientUnits="userSpaceOnUse"
       gradientTransform="matrix(1,0,0,0.177966,0,108.7434)"
       r="29.036913"
       fy="132.28575"
       fx="61.518883"
       cy="132.28575"
       cx="61.518883"
       id="radialGradient2801"
       xlink:href="#linearGradient2795"
       inkscape:collect="always" />
    <linearGradient
       id="linearGradient2399">
      <stop
         id="stop3708"
         stop-color="#fff"
         offset="0" />
      <stop
         id="stop3710"
         stop-opacity="0"
         stop-color="#fff"
         offset="1" />
    </linearGradient>
    <linearGradient
       id="linearGradient2355">
      <stop
         id="stop3713"
         offset="0" />
      <stop
         id="stop3715"
         stop-opacity="0"
         offset="1" />
    </linearGradient>
    <linearGradient
       y2="35.68955"
       y1="36.68955"
       x2="48.25"
       x1="41.25"
       id="linearGradient2258-6"
       gradientUnits="userSpaceOnUse">
      <stop
         id="stop3718"
         stop-color="#c6c6c6"
         offset="0" />
      <stop
         id="stop3720"
         stop-opacity="0"
         stop-color="#c6c6c6"
         offset="1" />
    </linearGradient>
    <linearGradient
       y2="14.04688"
       y1="15.32307"
       x2="14.40625"
       x1="18.32872"
       id="linearGradient2377"
       gradientUnits="userSpaceOnUse">
      <stop
         id="stop3723"
         offset="0" />
      <stop
         id="stop3725"
         stop-opacity=".48454"
         offset="1" />
    </linearGradient>
    <linearGradient
       y2="20.4375"
       y1="15.80366"
       xlink:href="#linearGradient2355"
       x2="33.96875"
       x1="25.16047"
       id="linearGradient2361"
       gradientUnits="userSpaceOnUse" />
    <linearGradient
       y2="43.42043"
       y1="49.11071"
       xlink:href="#linearGradient2399"
       x2="17.40238"
       x1="16.4375"
       id="linearGradient2405"
       gradientUnits="userSpaceOnUse" />
    <radialGradient
       r="11.1875"
       id="radialGradient2238"
       gradientUnits="userSpaceOnUse"
       gradientTransform="matrix(1,0,0,0.52514,0,22.02165)"
       cy="42.09043"
       cx="15.4375">
      <stop
         id="stop3730"
         stop-color="#b0b0b0"
         offset="0" />
      <stop
         id="stop3732"
         stop-color="#747474"
         offset="1" />
    </radialGradient>
    <radialGradient
       r="10.98921"
       id="radialGradient2351"
       gradientUnits="userSpaceOnUse"
       gradientTransform="matrix(1.49192,-0.08445108,-0.05874412,3.98672,-9.6468,-20.27595)"
       cy="6.64407"
       cx="19.5575">
      <stop
         id="stop3735"
         stop-color="#d5d5d5"
         offset="0" />
      <stop
         id="stop3737"
         stop-color="#a0a0a0"
         offset="1" />
    </radialGradient>
    <radialGradient
       r="2.26974"
       id="radialGradient2413"
       gradientUnits="userSpaceOnUse"
       gradientTransform="matrix(0.43533,0,0,0.43533,18.91658,12.49341)"
       cy="20.53817"
       cx="33.5">
      <stop
         id="stop3740"
         stop-color="#d5d5d5"
         offset="0" />
      <stop
         id="stop3742"
         stop-color="#747474"
         offset="1" />
    </radialGradient>
    <radialGradient
       xlink:href="#linearGradient2355"
       r="16.4375"
       id="radialGradient2248"
       gradientUnits="userSpaceOnUse"
       gradientTransform="matrix(1,0,0,0.42586,0,23.53992)"
       cy="41"
       cx="25.1875" />
    <radialGradient
       xlink:href="#linearGradient2399"
       r="12.49403"
       id="radialGradient2343"
       gradientUnits="userSpaceOnUse"
       gradientTransform="matrix(2.53075,0,0,2.29601,-31.03641,-6.69986)"
       cy="5.71197"
       cx="20.27528" />
    <radialGradient
       xlink:href="#linearGradient2355"
       r="16.4375"
       id="radialGradient2248-4"
       gradientUnits="userSpaceOnUse"
       gradientTransform="matrix(1,0,0,0.42586,0,23.53992)"
       cy="41"
       cx="25.1875" />
    <radialGradient
       r="11.1875"
       id="radialGradient2238-6"
       gradientUnits="userSpaceOnUse"
       gradientTransform="matrix(1,0,0,0.52514,0,22.02165)"
       cy="42.090431"
       cx="15.4375">
      <stop
         id="stop3730-8"
         stop-color="#b0b0b0"
         offset="0" />
      <stop
         id="stop3732-8"
         stop-color="#747474"
         offset="1" />
    </radialGradient>
    <linearGradient
       y2="35.689548"
       y1="36.689548"
       x2="48.25"
       x1="41.25"
       id="linearGradient2258-6-5"
       gradientUnits="userSpaceOnUse">
      <stop
         id="stop3718-0"
         stop-color="#c6c6c6"
         offset="0" />
      <stop
         id="stop3720-3"
         stop-opacity="0"
         stop-color="#c6c6c6"
         offset="1" />
    </linearGradient>
    <radialGradient
       r="10.98921"
       id="radialGradient2351-9"
       gradientUnits="userSpaceOnUse"
       gradientTransform="matrix(1.49192,-0.08445108,-0.05874412,3.98672,-9.6468,-20.27595)"
       cy="6.6440701"
       cx="19.557501">
      <stop
         id="stop3735-9"
         stop-color="#d5d5d5"
         offset="0" />
      <stop
         id="stop3737-8"
         stop-color="#a0a0a0"
         offset="1" />
    </radialGradient>
    <radialGradient
       xlink:href="#linearGradient2399"
       r="12.49403"
       id="radialGradient2343-4"
       gradientUnits="userSpaceOnUse"
       gradientTransform="matrix(2.53075,0,0,2.29601,-31.03641,-6.69986)"
       cy="5.7119699"
       cx="20.27528" />
    <radialGradient
       r="2.2697401"
       id="radialGradient2413-4"
       gradientUnits="userSpaceOnUse"
       gradientTransform="matrix(0.43533,0,0,0.43533,18.91658,12.49341)"
       cy="20.53817"
       cx="33.5">
      <stop
         id="stop3740-6"
         stop-color="#d5d5d5"
         offset="0" />
      <stop
         id="stop3742-2"
         stop-color="#747474"
         offset="1" />
    </radialGradient>
    <linearGradient
       y2="20.4375"
       y1="15.80366"
       xlink:href="#linearGradient2355"
       x2="33.96875"
       x1="25.160469"
       id="linearGradient2361-4"
       gradientUnits="userSpaceOnUse" />
    <linearGradient
       y2="43.420429"
       y1="49.11071"
       xlink:href="#linearGradient2399"
       x2="17.40238"
       x1="16.4375"
       id="linearGradient2405-0"
       gradientUnits="userSpaceOnUse" />
    <radialGradient
       cx="25.1875"
       cy="41"
       gradientTransform="matrix(1,0,0,0.42586,0,23.53992)"
       gradientUnits="userSpaceOnUse"
       id="radialGradient2248-4-4"
       r="16.4375"
       xlink:href="#linearGradient2355" />
    <radialGradient
       cx="15.4375"
       cy="42.090431"
       gradientTransform="matrix(1,0,0,0.52514,0,22.02165)"
       gradientUnits="userSpaceOnUse"
       id="radialGradient2238-6-1"
       r="11.1875">
      <stop
         offset="0"
         stop-color="#b0b0b0"
         id="stop3730-8-5" />
      <stop
         offset="1"
         stop-color="#747474"
         id="stop3732-8-0" />
    </radialGradient>
    <linearGradient
       gradientUnits="userSpaceOnUse"
       id="linearGradient2258-6-5-8"
       x1="41.25"
       x2="48.25"
       y1="36.689548"
       y2="35.689548">
      <stop
         offset="0"
         stop-color="#c6c6c6"
         id="stop3718-0-3" />
      <stop
         offset="1"
         stop-color="#c6c6c6"
         stop-opacity="0"
         id="stop3720-3-9" />
    </linearGradient>
    <radialGradient
       cx="19.557501"
       cy="6.6440701"
       gradientTransform="matrix(1.49192,-0.08445108,-0.05874412,3.98672,-9.6468,-20.27595)"
       gradientUnits="userSpaceOnUse"
       id="radialGradient2351-9-2"
       r="10.98921">
      <stop
         offset="0"
         stop-color="#d5d5d5"
         id="stop3735-9-6" />
      <stop
         offset="1"
         stop-color="#a0a0a0"
         id="stop3737-8-8" />
    </radialGradient>
    <radialGradient
       cx="20.27528"
       cy="5.7119699"
       gradientTransform="matrix(2.53075,0,0,2.29601,-31.03641,-6.69986)"
       gradientUnits="userSpaceOnUse"
       id="radialGradient2343-4-8"
       r="12.49403"
       xlink:href="#linearGradient2399" />
    <radialGradient
       cx="33.5"
       cy="20.53817"
       gradientTransform="matrix(0.43533,0,0,0.43533,18.91658,12.49341)"
       gradientUnits="userSpaceOnUse"
       id="radialGradient2413-4-3"
       r="2.2697401">
      <stop
         offset="0"
         stop-color="#d5d5d5"
         id="stop3740-6-3" />
      <stop
         offset="1"
         stop-color="#747474"
         id="stop3742-2-1" />
    </radialGradient>
    <linearGradient
       gradientUnits="userSpaceOnUse"
       id="linearGradient2405-0-5"
       x1="16.4375"
       x2="17.40238"
       xlink:href="#linearGradient2399"
       y1="49.11071"
       y2="43.420429" />
    <linearGradient
       inkscape:collect="always"
       xlink:href="#linearGradient4671"
       id="linearGradient1475"
       gradientUnits="userSpaceOnUse"
       gradientTransform="matrix(0.562541,0,0,0.567972,301.94071,459.02523)"
       x1="150.96111"
       y1="192.35176"
       x2="112.03144"
       y2="137.27299" />
    <linearGradient
       inkscape:collect="always"
       xlink:href="#linearGradient4689"
       id="linearGradient1478"
       gradientUnits="userSpaceOnUse"
       gradientTransform="matrix(0.562541,0,0,0.567972,301.0102,459.02523)"
       x1="26.648937"
       y1="20.603781"
       x2="135.66525"
       y2="114.39767" />
    <radialGradient
       cx="25.1875"
       cy="41"
       gradientTransform="matrix(1,0,0,0.42586,0,23.53992)"
       gradientUnits="userSpaceOnUse"
       id="radialGradient2248-6"
       r="16.4375"
       xlink:href="#linearGradient2355" />
    <radialGradient
       cx="15.4375"
       cy="42.090431"
       gradientTransform="matrix(1,0,0,0.52514,0,22.02165)"
       gradientUnits="userSpaceOnUse"
       id="radialGradient2238-5"
       r="11.1875">
      <stop
         offset="0"
         stop-color="#b0b0b0"
         id="stop3730-9" />
      <stop
         offset="1"
         stop-color="#747474"
         id="stop3732-3" />
    </radialGradient>
    <radialGradient
       cx="19.557501"
       cy="6.6440701"
       gradientTransform="matrix(1.49192,-0.08445108,-0.05874412,3.98672,-9.6468,-20.27595)"
       gradientUnits="userSpaceOnUse"
       id="radialGradient2351-6"
       r="10.98921">
      <stop
         offset="0"
         stop-color="#d5d5d5"
         id="stop3735-5" />
      <stop
         offset="1"
         stop-color="#a0a0a0"
         id="stop3737-9" />
    </radialGradient>
    <radialGradient
       cx="20.27528"
       cy="5.7119699"
       gradientTransform="matrix(2.53075,0,0,2.29601,-31.03641,-6.69986)"
       gradientUnits="userSpaceOnUse"
       id="radialGradient2343-2"
       r="12.49403"
       xlink:href="#linearGradient2399" />
    <radialGradient
       cx="33.5"
       cy="20.53817"
       gradientTransform="matrix(0.43533,0,0,0.43533,18.91658,12.49341)"
       gradientUnits="userSpaceOnUse"
       id="radialGradient2413-7"
       r="2.2697401">
      <stop
         offset="0"
         stop-color="#d5d5d5"
         id="stop3740-0" />
      <stop
         offset="1"
         stop-color="#747474"
         id="stop3742-9" />
    </radialGradient>
  </defs>
  <sodipodi:namedview
     id="base"
     pagecolor="#ffffff"
     bordercolor="#666666"
     borderopacity="1.0"
     inkscape:pageopacity="0.0"
     inkscape:pageshadow="2"
     inkscape:zoom="1.9621164"
     inkscape:cx="273.42924"
     inkscape:cy="686.03606"
     inkscape:document-units="px"
     inkscape:current-layer="layer1"
     showgrid="false"
     inkscape:window-width="1920"
     inkscape:window-height="1023"
     inkscape:window-x="0"
     inkscape:window-y="0"
     inkscape:window-maximized="1" />
  <metadata
     id="metadata7">
    <rdf:RDF>
      <cc:Work
         rdf:about="">
        <dc:format>image/svg+xml</dc:format>
        <dc:type
           rdf:resource="http://purl.org/dc/dcmitype/StillImage" />
        <dc:title />
      </cc:Work>
    </rdf:RDF>
  </metadata>
  <g
     inkscape:groupmode="layer"
     id="layer2"
     inkscape:label="Layer 2" />
  <g
     inkscape:label="Layer 1"
     inkscape:groupmode="layer"
     id="layer1">
    <rect
       style="fill:#ffffff;fill-opacity:1;stroke:#666666;stroke-width:9.75815678;stroke-linecap:butt;stroke-linejoin:miter;stroke-miterlimit:4;stroke-dasharray:none;stroke-opacity:0.23391813"
       id="rect4671"
       width="573.08453"
       height="255.58537"
       x="22.082129"
       y="172.83754"
       inkscape:transform-center-x="-0.50562276"
       inkscape:transform-center-y="10.69741" />
    <g
       id="g6004"
       transform="translate(-0.87891005,1.0351715)">
      <g
         id="g5995">
        <text
           xml:space="preserve"
           style="font-style:normal;font-variant:normal;font-weight:normal;font-stretch:normal;font-size:25px;line-height:100%;font-family:'Source Code Pro';-inkscape-font-specification:'Source Code Pro, Normal';text-align:start;letter-spacing:0px;word-spacing:0px;writing-mode:lr-tb;text-anchor:start;fill:#000000;fill-opacity:1;stroke:none;stroke-width:1px;stroke-linecap:butt;stroke-linejoin:miter;stroke-opacity:1"
           x="303.83511"
           y="274.51697"
           id="text4610"
           sodipodi:linespacing="100%"><tspan
             sodipodi:role="line"
             id="tspan4612"
             x="303.83511"
             y="274.51697">Podcast.__init__</tspan></text>
        <flowRoot
           xml:space="preserve"
           id="flowRoot4634"
           style="font-style:normal;font-variant:normal;font-weight:normal;font-stretch:normal;font-size:15px;line-height:125%;font-family:Inconsolata;-inkscape-font-specification:Inconsolata;text-align:center;letter-spacing:0px;word-spacing:0px;text-anchor:middle;fill:#4483b5;fill-opacity:1;stroke:none;stroke-width:1px;stroke-linecap:butt;stroke-linejoin:miter;stroke-opacity:1"
           transform="translate(-2.5482688,11.722036)"><flowRegion
             id="flowRegion4636"><rect
               id="rect4638"
               width="252.14751"
               height="47.30323"
               x="305.06607"
               y="294.24274"
               style="font-style:normal;font-variant:normal;font-weight:normal;font-stretch:normal;font-size:15px;font-family:Inconsolata;-inkscape-font-specification:Inconsolata;text-align:center;text-anchor:middle;fill:#4483b5;fill-opacity:1" /></flowRegion><flowPara
             id="flowPara4640"
             style="font-style:normal;font-variant:normal;font-weight:normal;font-stretch:normal;font-size:15px;font-family:Inconsolata;-inkscape-font-specification:Inconsolata;text-align:center;text-anchor:middle;fill:#4483b5;fill-opacity:1">The Podcast About Python</flowPara><flowPara
             style="font-style:normal;font-variant:normal;font-weight:normal;font-stretch:normal;font-size:15px;font-family:Inconsolata;-inkscape-font-specification:Inconsolata;text-align:center;text-anchor:middle;fill:#4483b5;fill-opacity:1"
             id="flowPara4642">And The People Who Make It Great</flowPara></flowRoot>      </g>
      <g
         inkscape:label="Layer 1"
         id="layer1-1"
         transform="matrix(1.0823849,0,0,1.0823849,-234.80159,-270.73746)">
        <g
           id="g4229">
          <path
             id="path1948"
             d="m 370.92011,470.72852 c -4.58366,0.0213 -8.96094,0.41222 -12.8125,1.09375 -11.34622,2.00451 -13.40625,6.2001 -13.40625,13.9375 l 0,10.21875 26.8125,0 0,3.40625 -26.8125,0 -10.0625,0 c -7.79246,0 -14.61576,4.68372 -16.75001,13.59375 -2.46182,10.21297 -2.57101,16.58603 0,27.25 1.90593,7.93786 6.45755,13.59375 14.25001,13.59375 l 9.21875,0 0,-12.25 c 0,-8.8499 7.65714,-16.65625 16.75,-16.65625 l 26.78125,0 c 7.45495,0 13.40625,-6.13816 13.40625,-13.625 l 0,-25.53125 c 0,-7.26634 -6.12998,-12.72477 -13.40625,-13.9375 -4.60599,-0.76672 -9.3851,-1.11505 -13.96875,-1.09375 z m -14.5,8.21875 c 2.76954,0 5.03125,2.29865 5.03125,5.125 -1e-5,2.81634 -2.26171,5.09375 -5.03125,5.09375 -2.77948,0 -5.03125,-2.27741 -5.03125,-5.09375 -1e-5,-2.82635 2.25177,-5.125 5.03125,-5.125 z"
             style="fill:url(#linearGradient1478);fill-opacity:1"
             inkscape:connector-curvature="0" />
          <path
             id="path1950"
             d="m 402.56937,499.38477 0,11.90625 c 0,9.23076 -7.8259,17 -16.75,17 l -26.78125,0 c -7.33584,0 -13.40625,6.27849 -13.40625,13.625 l 0,25.53126 c 0,7.26634 6.31858,11.54032 13.40625,13.625 8.48733,2.49561 16.62623,2.94663 26.78125,0 6.75015,-1.95439 13.40625,-5.88761 13.40625,-13.625 l 0,-10.21876 -26.78125,0 0,-3.40625 26.78125,0 13.40625,0 c 7.79246,0 10.69625,-5.43541 13.40624,-13.59375 2.79933,-8.39888 2.68022,-16.47577 0,-27.25 -1.92578,-7.75744 -5.60387,-13.59375 -13.40624,-13.59375 l -10.0625,0 z m -15.0625,64.65625 c 2.77947,10e-6 5.03125,2.27742 5.03125,5.09376 -10e-6,2.82635 -2.25178,5.125 -5.03125,5.125 -2.76955,0 -5.03125,-2.29865 -5.03125,-5.125 0,-2.81634 2.26169,-5.09376 5.03125,-5.09376 z"
             style="fill:url(#linearGradient1475);fill-opacity:1"
             inkscape:connector-curvature="0" />
          <path
             id="path9980"
             d="m 308.76154,489.7276 0,7 c 0,4.8785 -4.121,9 -9,9 l -4,0 c -4.8785,0 -9,-4.1215 -9,-9 l 0,-7 -4,0 0,7 c 0,7.047 5.953,13 13,13 l 0,7 -8.5,0 0,4 21,0 0,-4 -8.5,0 0,-7 c 7.047,0 13,-5.953 13,-13 l 0,-7 -4,0 z"
             inkscape:connector-curvature="0" />
          <path
             id="path9982"
             d="m 295.76154,502.7276 4,0 c 2.857,0 5.394,-2.2415 5.902,-5 l -5.9435,0 0,-2 6.0415,0 0,-2 -6.0415,0 0,-2 6.0415,0 0,-2 -6.0415,0 0,-2 6.0415,0 0,-2 -6.0415,0 0,-2 6.0415,0 0,-2 -6.0415,0 0,-2 6.0415,0 0,-2 -6.0415,0 0,-2 5.9435,0 c -0.508,-2.7585 -3.045,-5 -5.902,-5 l -4,0 c -3.1965,0 -6,2.8035 -6,6 l 0,20 c 0,3.1965 2.8035,6 6,6 z"
             inkscape:connector-curvature="0" />
          <path
             id="path9980-7"
             d="m 435.33295,564.11661 0,-7 c 0,-4.8785 4.121,-9 9,-9 l 4,0 c 4.8785,0 9,4.1215 9,9 l 0,7 4,0 0,-7 c 0,-7.047 -5.953,-13 -13,-13 l 0,-7 8.5,0 0,-4 -21,0 0,4 8.5,0 0,7 c -7.047,0 -13,5.953 -13,13 l 0,7 4,0 z"
             inkscape:connector-curvature="0" />
          <path
             id="path9982-8"
             d="m 448.33295,551.11661 -4,0 c -2.857,0 -5.394,2.2415 -5.902,5 l 5.9435,0 0,2 -6.0415,0 0,2 6.0415,0 0,2 -6.0415,0 0,2 6.0415,0 0,2 -6.0415,0 0,2 6.0415,0 0,2 -6.0415,0 0,2 6.0415,0 0,2 -6.0415,0 0,2 6.0415,0 0,2 -5.9435,0 c 0.508,2.7585 3.045,5 5.902,5 l 4,0 c 3.1965,0 6,-2.8035 6,-6 l 0,-20 c 0,-3.1965 -2.8035,-6 -6,-6 z"
             inkscape:connector-curvature="0" />
          <g
             id="g4224">
            <g
               id="g4220">
              <path
                 sodipodi:nodetypes="cc"
                 inkscape:connector-curvature="0"
                 id="path10015"
                 d="m 410.88323,562.75595 c 3.0786,3.38813 4.48422,7.67153 0,12.14286"
                 style="fill:none;fill-rule:evenodd;stroke:#000000;stroke-width:1px;stroke-linecap:butt;stroke-linejoin:miter;stroke-opacity:1" />
              <path
                 sodipodi:nodetypes="cc"
                 inkscape:connector-curvature="0"
                 id="path10015-7"
                 d="m 414.26614,559.66641 c 3.74965,5.11006 5.46166,11.57038 0,18.31415"
                 style="fill:none;fill-rule:evenodd;stroke:#000000;stroke-width:1.35535014px;stroke-linecap:butt;stroke-linejoin:miter;stroke-opacity:1" />
            </g>
          </g>
          <path
             sodipodi:nodetypes="cc"
             inkscape:connector-curvature="0"
             id="path10015-7-8"
             d="m 417.60218,555.02242 c 4.55214,7.69915 6.63054,17.4327 0,27.59331"
             style="fill:none;fill-rule:evenodd;stroke:#000000;stroke-width:1.83304119px;stroke-linecap:butt;stroke-linejoin:miter;stroke-opacity:1" />
          <g
             id="g4216">
            <path
               style="fill:none;fill-rule:evenodd;stroke:#000000;stroke-width:1px;stroke-linecap:butt;stroke-linejoin:miter;stroke-opacity:1"
               d="m 333.21122,491.08823 c -3.0786,-3.38813 -4.48422,-7.67153 0,-12.14286"
               id="path10015-5"
               inkscape:connector-curvature="0"
               sodipodi:nodetypes="cc" />
            <path
               style="fill:none;fill-rule:evenodd;stroke:#000000;stroke-width:1.35535014px;stroke-linecap:butt;stroke-linejoin:miter;stroke-opacity:1"
               d="m 329.82831,494.17777 c -3.74965,-5.11006 -5.46166,-11.57038 0,-18.31415"
               id="path10015-7-3"
               inkscape:connector-curvature="0"
               sodipodi:nodetypes="cc" />
          </g>
          <path
             sodipodi:nodetypes="cc"
             inkscape:connector-curvature="0"
             id="path10015-7-8-3"
             d="m 326.49227,498.82176 c -4.55214,-7.69915 -6.63054,-17.4327 0,-27.59331"
             style="fill:none;fill-rule:evenodd;stroke:#000000;stroke-width:1.83304119px;stroke-linecap:butt;stroke-linejoin:miter;stroke-opacity:1" />
        </g>
      </g>
    </g>
  </g>
</svg>
