<?xml version="1.0" encoding="UTF-8" standalone="no"?>
<!-- Created with Inkscape (http://www.inkscape.org/) -->

<svg
   xmlns:dc="http://purl.org/dc/elements/1.1/"
   xmlns:cc="http://creativecommons.org/ns#"
   xmlns:rdf="http://www.w3.org/1999/02/22-rdf-syntax-ns#"
   xmlns:svg="http://www.w3.org/2000/svg"
   xmlns="http://www.w3.org/2000/svg"
   xmlns:sodipodi="http://sodipodi.sourceforge.net/DTD/sodipodi-0.dtd"
   xmlns:inkscape="http://www.inkscape.org/namespaces/inkscape"
   width="7.2164326cm"
   height="1.3293262cm"
   viewBox="0 0 255.70038 47.102108"
   id="svg4673"
   version="1.1"
   inkscape:version="0.91 r13725"
   sodipodi:docname="title_slogan_url.svg"
   inkscape:export-filename="/home/tmacey/code/personal/podcast_designs/title_slogan_url.png"
   inkscape:export-xdpi="289.60999"
   inkscape:export-ydpi="289.60999">
  <defs
     id="defs4675">
    <linearGradient
       id="linearGradient4689">
      <stop
         id="stop4691"
         offset="0"
         style="stop-color:#5a9fd4;stop-opacity:1;" />
      <stop
         id="stop4693"
         offset="1"
         style="stop-color:#306998;stop-opacity:1;" />
    </linearGradient>
    <linearGradient
       id="linearGradient4671">
      <stop
         id="stop4673"
         offset="0"
         style="stop-color:#ffd43b;stop-opacity:1;" />
      <stop
         id="stop4675"
         offset="1"
         style="stop-color:#ffe873;stop-opacity:1" />
    </linearGradient>
  </defs>
  <sodipodi:namedview
     id="base"
     pagecolor="#ffffff"
     bordercolor="#666666"
     borderopacity="1.0"
     inkscape:pageopacity="0.0"
     inkscape:pageshadow="2"
     inkscape:zoom="2.8"
     inkscape:cx="140.31327"
     inkscape:cy="-54.274808"
     inkscape:document-units="px"
     inkscape:current-layer="text4610"
     showgrid="false"
     fit-margin-top="0.1"
     fit-margin-left="0.1"
     fit-margin-right="0.1"
     fit-margin-bottom="0.1"
     units="cm"
     inkscape:window-width="1920"
     inkscape:window-height="1023"
     inkscape:window-x="0"
     inkscape:window-y="0"
     inkscape:window-maximized="1" />
  <metadata
     id="metadata4678">
    <rdf:RDF>
      <cc:Work
         rdf:about="">
        <dc:format>image/svg+xml</dc:format>
        <dc:type
           rdf:resource="http://purl.org/dc/dcmitype/StillImage" />
        <dc:title></dc:title>
      </cc:Work>
    </rdf:RDF>
  </metadata>
  <g
     inkscape:label="Layer 1"
     inkscape:groupmode="layer"
     id="layer1"
     transform="translate(-115.37822,-225.68886)">
    <g
       id="g4258"
       transform="translate(87.978405,-743.80301)">
      <g
         transform="scale(1.0000194,0.99998061)"
         style="font-style:normal;font-variant:normal;font-weight:normal;font-stretch:normal;font-size:13.58573437px;line-height:100%;font-family:'Source Code Pro';-inkscape-font-specification:'Source Code Pro, Normal';text-align:start;letter-spacing:0px;word-spacing:0px;writing-mode:lr-tb;text-anchor:start;fill:#000000;fill-opacity:1;stroke:none;stroke-width:1px;stroke-linecap:butt;stroke-linejoin:miter;stroke-opacity:1"
         id="text4610">
        <path
           d="m 91.175715,982.78143 1.127616,0 0,-3.53229 1.56236,0 c 1.956345,0 3.301333,-0.88307 3.301333,-2.7579 0,-1.95635 -1.331402,-2.62205 -3.301333,-2.62205 l -2.689976,0 0,8.91224 z m 1.127616,-4.45612 0,-3.54587 1.426502,0 c 1.535188,0 2.295989,0.42115 2.295989,1.7118 0,1.26347 -0.733629,1.83407 -2.295989,1.83407 l -1.426502,0 z"
           style=""
           id="path6165" />
        <path
           d="m 102.01182,982.94446 c 1.73898,0 3.26058,-1.26347 3.26058,-3.45077 0,-2.21448 -1.5216,-3.47795 -3.26058,-3.47795 -1.73897,0 -3.260572,1.26347 -3.260572,3.47795 0,2.1873 1.521602,3.45077 3.260572,3.45077 z m 0,-0.92383 c -1.26347,0 -2.105785,-1.01893 -2.105785,-2.52694 0,-1.52161 0.842315,-2.55412 2.105785,-2.55412 1.26348,0 2.10579,1.03251 2.10579,2.55412 0,1.50801 -0.84231,2.52694 -2.10579,2.52694 z"
           style=""
           id="path6167" />
        <path
           d="m 109.76397,982.94446 c 0.81515,0 1.60312,-0.4755 2.14655,-1.03251 l 0.0407,0 0.0951,0.86948 0.92383,0 0,-9.67304 -1.11403,0 0,2.54053 0.0543,1.22272 -0.0408,0 c -0.5706,-0.54343 -1.18196,-0.8559 -1.96993,-0.8559 -1.56236,0 -3.00245,1.3314 -3.00245,3.47795 0,2.20088 1.1412,3.45077 2.86659,3.45077 z m 0.23096,-0.93741 c -1.22272,0 -1.94276,-0.95101 -1.94276,-2.52695 0,-1.50802 0.92383,-2.52695 2.06503,-2.52695 0.5706,0 1.1412,0.21737 1.73897,0.77439 l 0,3.28775 c -0.58418,0.65211 -1.20913,0.99176 -1.86124,0.99176 z"
           style=""
           id="path6169" />
        <path
           d="m 118.92903,982.94446 c 0.97818,0 1.88842,-0.3804 2.62205,-1.03251 l -0.50267,-0.72005 c -0.54343,0.46192 -1.22272,0.82873 -2.03786,0.82873 -1.5216,0 -2.54053,-1.01893 -2.54053,-2.52694 0,-1.52161 1.0461,-2.55412 2.5677,-2.55412 0.69287,0 1.26347,0.2853 1.8069,0.7608 l 0.55702,-0.72005 c -0.54343,-0.52984 -1.3314,-0.96458 -2.40468,-0.96458 -1.9971,0 -3.68173,1.26347 -3.68173,3.47795 0,2.1873 1.54877,3.45077 3.6138,3.45077 z"
           style=""
           id="path6171" />
        <path
           d="m 125.71659,982.94446 c 0.93742,0 1.87484,-0.48908 2.60847,-1.05969 l 0.0408,0 0.0951,0.89666 0.91025,0 0,-4.04855 c 0,-1.64387 -0.86949,-2.71714 -2.67639,-2.71714 -1.15479,0 -2.26882,0.51626 -2.93452,0.951 l 0.43474,0.7608 c 0.61136,-0.3804 1.45368,-0.78797 2.30958,-0.78797 1.27706,0 1.72539,0.7608 1.75256,1.65746 -3.41002,0.27171 -4.78218,0.99176 -4.78218,2.4726 0,1.18196 1.00534,1.87483 2.24164,1.87483 z m 0.29889,-0.89666 c -0.7608,0 -1.45367,-0.31247 -1.45367,-1.05968 0,-0.86949 0.86948,-1.42651 3.69532,-1.65746 l 0,1.73897 c -0.74722,0.62494 -1.49443,0.97817 -2.24165,0.97817 z"
           style=""
           id="path6173" />
        <path
           d="m 134.73222,982.94446 c 1.88841,0 2.93451,-0.89666 2.93451,-1.96993 0,-1.00534 -0.52984,-1.56236 -2.73073,-2.03786 -1.34499,-0.2853 -1.91559,-0.52984 -1.91559,-1.10044 0,-0.50268 0.39399,-0.95101 1.5216,-0.95101 0.84232,0 1.60312,0.27172 2.21448,0.69288 l 0.54343,-0.72005 c -0.65212,-0.44833 -1.65746,-0.84231 -2.6628,-0.84231 -1.80691,0 -2.74432,0.81514 -2.74432,1.87483 0,0.99176 0.86948,1.57594 2.58129,1.92917 1.79331,0.36682 2.06503,0.72005 2.06503,1.22272 0,0.55701 -0.55702,1.03251 -1.67105,1.03251 -1.22271,0 -2.10579,-0.35322 -2.86659,-0.89665 l -0.51626,0.73363 c 0.80156,0.55701 1.95635,1.03251 3.247,1.03251 z"
           style=""
           id="path6175" />
        <path
           d="m 144.01955,982.94446 c 0.82873,0 1.46726,-0.17661 2.06503,-0.39398 l -0.24454,-0.81515 c -0.4755,0.17662 -0.96459,0.29889 -1.58953,0.29889 -1.27706,0 -1.67105,-0.62495 -1.67105,-1.8069 l 0,-3.13831 3.24699,0 0,-0.91024 -3.24699,0 0,-2.11938 -0.92383,0 -0.14944,2.11938 -1.902,0.0679 0,0.84232 1.86124,0 0,3.12472 c 0,1.63029 0.62495,2.73073 2.55412,2.73073 z"
           style=""
           id="path6177" />
        <path
           d="m 150.88862,982.94446 c 0.61136,0 1.10045,-0.46191 1.10045,-1.1412 0,-0.69287 -0.48909,-1.15479 -1.10045,-1.15479 -0.61135,0 -1.10044,0.46192 -1.10044,1.15479 0,0.67929 0.48909,1.1412 1.10044,1.1412 z"
           style=""
           id="path6179" />
        <path
           d="m 155.77418,984.68344 6.52115,0 0,-0.96459 -6.52115,0 0,0.96459 z"
           style=""
           id="path6181" />
        <path
           d="m 163.92032,984.68344 6.52115,0 0,-0.96459 -6.52115,0 0,0.96459 z"
           style=""
           id="path6183" />
        <path
           d="m 175.5444,982.78143 1.11403,0 0,-6.60266 -4.18441,0 0,0.91024 3.07038,0 0,5.69242 z m 0.43474,-7.98841 c 0.50267,0 0.89666,-0.33964 0.89666,-0.86949 0,-0.51625 -0.39399,-0.86948 -0.89666,-0.86948 -0.50267,0 -0.89666,0.35323 -0.89666,0.86948 0,0.52985 0.39399,0.86949 0.89666,0.86949 z"
           style=""
           id="path6185" />
        <path
           d="m 180.66091,982.78143 1.11403,0 0,-4.60556 c 0.77439,-0.80156 1.30423,-1.19555 2.0922,-1.19555 1.08686,0 1.52161,0.59778 1.52161,1.84766 l 0,3.95345 1.11403,0 0,-4.10289 c 0,-1.73897 -0.72005,-2.6628 -2.28241,-2.6628 -1.03251,0 -1.79331,0.55701 -2.48619,1.29064 l -0.0543,0 -0.0951,-1.12761 -0.92383,0 0,6.60266 z"
           style=""
           id="path6187" />
        <path
           d="m 191.83666,982.78143 1.11403,0 0,-6.60266 -4.1844,0 0,0.91024 3.07037,0 0,5.69242 z m 0.43475,-7.98841 c 0.50267,0 0.89666,-0.33964 0.89666,-0.86949 0,-0.51625 -0.39399,-0.86948 -0.89666,-0.86948 -0.50268,0 -0.89666,0.35323 -0.89666,0.86948 0,0.52985 0.39398,0.86949 0.89666,0.86949 z"
           style=""
           id="path6189" />
        <path
           d="m 201.04248,982.94446 c 0.82873,0 1.46726,-0.17661 2.06504,-0.39398 l -0.24455,-0.81515 c -0.4755,0.17662 -0.96458,0.29889 -1.58953,0.29889 -1.27706,0 -1.67104,-0.62495 -1.67104,-1.8069 l 0,-3.13831 3.24699,0 0,-0.91024 -3.24699,0 0,-2.11938 -0.92383,0 -0.14945,2.11938 -1.902,0.0679 0,0.84232 1.86125,0 0,3.12472 c 0,1.63029 0.62494,2.73073 2.55411,2.73073 z"
           style=""
           id="path6191" />
        <path
           d="m 204.65098,984.68344 6.52115,0 0,-0.96459 -6.52115,0 0,0.96459 z"
           style=""
           id="path6193" />
        <path
           d="m 212.79712,984.68344 6.52115,0 0,-0.96459 -6.52115,0 0,0.96459 z"
           style=""
           id="path6195" />
      </g>
      <g
         style="font-style:normal;font-variant:normal;font-weight:normal;font-stretch:normal;font-size:8.11396027px;line-height:125%;font-family:Inconsolata;-inkscape-font-specification:Inconsolata;text-align:center;letter-spacing:0px;word-spacing:0px;text-anchor:middle;fill:#306998;fill-opacity:1;stroke:none;stroke-width:1px;stroke-linecap:butt;stroke-linejoin:miter;stroke-opacity:1"
         id="flowRoot4634">
        <path
           d="m 30.943125,992.39098 3.78,0 0,0.55125 -1.61,0 0,4.90875 -0.62125,0 0,-4.90875 -1.54875,0 0,-0.55125 z"
           style="font-style:normal;font-variant:normal;font-weight:normal;font-stretch:normal;font-size:8.75px;line-height:125%;font-family:Inconsolata;-inkscape-font-specification:'Inconsolata, Normal';text-align:center;writing-mode:lr-tb;text-anchor:middle;fill:#306998;fill-opacity:1"
           id="path6198" />
        <path
           d="m 35.659375,997.85098 0,-5.81875 0.72625,0 q 0,0.009 0,0.009 0.0087,0 0.0087,0.009 0,0.0263 -0.04375,0.0788 -0.035,0.0438 -0.0525,0.11375 l 0,2.31875 q 0.23625,-0.3675 0.58625,-0.58625 0.35875,-0.21875 0.72625,-0.21875 0.27125,0 0.49,0.0962 0.2275,0.0875 0.39375,0.28875 0.16625,0.20125 0.25375,0.51625 0.0875,0.315 0.0875,0.77 l 0,2.42375 -0.62125,0 0,-2.40625 q 0,-0.63 -0.21875,-0.88375 -0.21,-0.25375 -0.51625,-0.25375 -0.20125,0 -0.4025,0.0875 -0.20125,0.0875 -0.39375,0.245 -0.18375,0.1575 -0.28875,0.385 -0.09625,0.2275 -0.09625,0.525 l 0,2.30125 -0.63875,0 z"
           style="font-style:normal;font-variant:normal;font-weight:normal;font-stretch:normal;font-size:8.75px;line-height:125%;font-family:Inconsolata;-inkscape-font-specification:'Inconsolata, Normal';text-align:center;writing-mode:lr-tb;text-anchor:middle;fill:#306998;fill-opacity:1"
           id="path6200" />
        <path
           d="m 41.688125,993.75598 q 0.315,0 0.6125,0.11375 0.2975,0.11375 0.51625,0.35 0.2275,0.2275 0.35875,0.58625 0.14,0.35875 0.14,0.84875 0,0.07 -0.0087,0.14875 0,0.07 -0.0087,0.14 l -2.84375,0 q 0.0175,0.42 0.14,0.70875 0.13125,0.28 0.32375,0.455 0.1925,0.175 0.42875,0.25375 0.23625,0.07 0.4725,0.07 0.62125,0 1.0325,-0.44625 l 0.35,0.34125 q -0.5075,0.6125 -1.4,0.6125 -0.4375,0 -0.805,-0.13125 -0.35875,-0.14 -0.6125,-0.4025 -0.25375,-0.2625 -0.39375,-0.6475 -0.14,-0.39375 -0.14,-0.8925 0,-0.5075 0.14,-0.90125 0.14875,-0.39375 0.39375,-0.65625 0.25375,-0.27125 0.58625,-0.41125 0.3325,-0.14 0.7175,-0.14 z m -1.2075,1.6975 2.19625,0 q 0,-0.035 0,-0.0612 0.0087,-0.035 0.0087,-0.0788 0,-0.21875 -0.0875,-0.41125 -0.07875,-0.20125 -0.21875,-0.34125 -0.14,-0.14875 -0.3325,-0.23625 -0.18375,-0.0875 -0.4025,-0.0875 -0.41125,0 -0.74375,0.2975 -0.3325,0.28875 -0.42,0.91875 z"
           style="font-style:normal;font-variant:normal;font-weight:normal;font-stretch:normal;font-size:8.75px;line-height:125%;font-family:Inconsolata;-inkscape-font-specification:'Inconsolata, Normal';text-align:center;writing-mode:lr-tb;text-anchor:middle;fill:#306998;fill-opacity:1"
           id="path6202" />
        <path
           d="m 48.688125,992.39973 1.75,0 q 0.455,0 0.77,0.1225 0.32375,0.11375 0.525,0.3325 0.21,0.21 0.30625,0.49 0.105,0.28 0.1225,0.595 -0.0175,0.315 -0.1225,0.595 -0.09625,0.27125 -0.2975,0.4725 -0.1925,0.20125 -0.5075,0.32375 -0.30625,0.11375 -0.7525,0.11375 l -1.16375,0 0,2.40625 -0.63,0 0,-5.45125 z m 0.63,0.5775 0,1.925 1.09375,0 q 0.595,0 0.84,-0.25375 0.25375,-0.2625 0.28,-0.69125 -0.0175,-0.20125 -0.0875,-0.37625 -0.06125,-0.18375 -0.1925,-0.315 -0.13125,-0.13125 -0.34125,-0.21 -0.20125,-0.0788 -0.49,-0.0788 l -1.1025,0 z"
           style="font-style:normal;font-variant:normal;font-weight:normal;font-stretch:normal;font-size:8.75px;line-height:125%;font-family:Inconsolata;-inkscape-font-specification:'Inconsolata, Normal';text-align:center;writing-mode:lr-tb;text-anchor:middle;fill:#306998;fill-opacity:1"
           id="path6204" />
        <path
           d="m 54.769375,993.76473 q 0.3675,0 0.69125,0.14875 0.3325,0.14 0.5775,0.41125 0.245,0.27125 0.385,0.665 0.14875,0.385 0.14875,0.86625 0,0.49 -0.14,0.875 -0.14,0.385 -0.385,0.665 -0.245,0.27125 -0.5775,0.42 -0.3325,0.14 -0.70875,0.14 -0.385,0 -0.72625,-0.1575 -0.3325,-0.1575 -0.58625,-0.42875 -0.25375,-0.28 -0.4025,-0.665 -0.14875,-0.385 -0.14875,-0.83125 0,-0.44625 0.14875,-0.84 0.1575,-0.39375 0.41125,-0.665 0.2625,-0.28 0.60375,-0.4375 0.34125,-0.16625 0.70875,-0.16625 z m 1.1725,2.10875 q 0,-0.37625 -0.105,-0.665 -0.09625,-0.2975 -0.2625,-0.49875 -0.16625,-0.20125 -0.385,-0.30625 -0.21,-0.105 -0.44625,-0.105 -0.23625,0 -0.455,0.105 -0.21,0.105 -0.37625,0.30625 -0.1575,0.20125 -0.25375,0.49 -0.09625,0.28 -0.09625,0.63875 0,0.35 0.09625,0.63875 0.09625,0.28875 0.25375,0.49875 0.16625,0.21 0.385,0.32375 0.21875,0.11375 0.46375,0.11375 0.245,0 0.455,-0.0963 0.21875,-0.105 0.37625,-0.2975 0.16625,-0.20125 0.25375,-0.49 0.09625,-0.28875 0.09625,-0.65625 z"
           style="font-style:normal;font-variant:normal;font-weight:normal;font-stretch:normal;font-size:8.75px;line-height:125%;font-family:Inconsolata;-inkscape-font-specification:'Inconsolata, Normal';text-align:center;writing-mode:lr-tb;text-anchor:middle;fill:#306998;fill-opacity:1"
           id="path6206" />
        <path
           d="m 60.168125,994.43848 0,-2.40625 0.67375,0 q 0,0.0525 -0.04375,0.1225 -0.04375,0.0612 -0.04375,0.1225 l 0.0087,5.20625 q 0,0.21 0.04375,0.3675 l -0.63,0 q -0.035,-0.105 -0.035,-0.2975 l 0,-0.34125 q -0.1925,0.3325 -0.525,0.53375 -0.3325,0.1925 -0.67375,0.1925 -0.3325,0 -0.63,-0.13125 -0.28875,-0.13125 -0.51625,-0.39375 -0.21875,-0.2625 -0.35,-0.65625 -0.13125,-0.4025 -0.13125,-0.945 0,-0.55125 0.14875,-0.93625 0.14875,-0.39375 0.385,-0.63875 0.245,-0.25375 0.5425,-0.3675 0.2975,-0.1225 0.60375,-0.1225 0.42,0 0.7175,0.1925 0.30625,0.18375 0.455,0.49875 z m -1.86375,0.1225 q -0.37625,0.34125 -0.37625,1.155 0,0.7525 0.28875,1.21625 0.28875,0.455 0.84875,0.455 0.13125,0 0.28,-0.0438 0.14875,-0.0525 0.28,-0.14875 0.13125,-0.0963 0.23625,-0.2275 0.105,-0.13125 0.1575,-0.2975 0.09625,-0.315 0.09625,-0.84 0,-0.3325 -0.02625,-0.55125 -0.02625,-0.2275 -0.0875,-0.385 -0.0525,-0.1575 -0.14,-0.25375 -0.0875,-0.105 -0.21875,-0.18375 -0.1575,-0.0962 -0.2975,-0.14 -0.13125,-0.0525 -0.25375,-0.0525 -0.25375,0 -0.4375,0.07 -0.175,0.07 -0.35,0.2275 z"
           style="font-style:normal;font-variant:normal;font-weight:normal;font-stretch:normal;font-size:8.75px;line-height:125%;font-family:Inconsolata;-inkscape-font-specification:'Inconsolata, Normal';text-align:center;writing-mode:lr-tb;text-anchor:middle;fill:#306998;fill-opacity:1"
           id="path6208" />
        <path
           d="m 65.295625,994.51723 -0.44625,0.51625 q -0.04375,-0.0263 -0.04375,-0.0525 0.0087,-0.035 -0.0088,-0.0875 -0.0088,-0.0525 -0.06125,-0.13125 -0.0525,-0.0788 -0.21,-0.21 -0.2975,-0.245 -0.81375,-0.245 -0.25375,0 -0.49,0.105 -0.2275,0.105 -0.4025,0.30625 -0.175,0.1925 -0.28,0.4725 -0.105,0.27125 -0.105,0.6125 0,0.34125 0.105,0.63 0.105,0.28875 0.28875,0.49875 0.18375,0.21 0.4375,0.3325 0.25375,0.11375 0.56,0.11375 0.60375,0 1.04125,-0.49 l 0.3675,0.42875 q -0.595,0.63 -1.46125,0.63 -0.42875,0 -0.79625,-0.1575 -0.35875,-0.1575 -0.63,-0.4375 -0.2625,-0.28 -0.41125,-0.65625 -0.14875,-0.385 -0.14875,-0.84 0,-0.44625 0.14875,-0.83125 0.14875,-0.385 0.41125,-0.65625 0.27125,-0.28 0.63875,-0.4375 0.37625,-0.1575 0.81375,-0.1575 0.4725,0 0.8575,0.20125 0.39375,0.1925 0.63875,0.5425 z"
           style="font-style:normal;font-variant:normal;font-weight:normal;font-stretch:normal;font-size:8.75px;line-height:125%;font-family:Inconsolata;-inkscape-font-specification:'Inconsolata, Normal';text-align:center;writing-mode:lr-tb;text-anchor:middle;fill:#306998;fill-opacity:1"
           id="path6210" />
        <path
           d="m 66.468125,994.32473 q 0.53375,-0.56 1.42625,-0.56 0.735,0 1.155,0.37625 0.42875,0.3675 0.42875,1.23375 l 0,2.47625 -0.595,0 0,-0.4375 q -0.63875,0.53375 -1.435,0.53375 -0.315,0 -0.56875,-0.0962 -0.245,-0.0963 -0.42,-0.25375 -0.175,-0.1575 -0.27125,-0.35875 -0.0875,-0.20125 -0.0875,-0.4025 0,-0.60375 0.51625,-0.95375 0.525,-0.35 1.505,-0.385 l 0.7525,0 0,-0.14875 q 0,-0.595 -0.25375,-0.83125 -0.245,-0.23625 -0.77,-0.23625 -0.6475,0 -1.07625,0.44625 l -0.30625,-0.4025 z m 2.4325,1.65375 -0.14875,0 q -0.1225,0 -0.23625,0 -0.105,-0.009 -0.21,-0.009 -0.48125,0 -0.7875,0.07 -0.30625,0.0613 -0.48125,0.175 -0.175,0.11375 -0.245,0.2625 -0.06125,0.14 -0.06125,0.30625 0,0.28 0.245,0.48125 0.245,0.20125 0.60375,0.20125 0.2625,0 0.4725,-0.0787 0.21,-0.0875 0.3675,-0.20125 0.1575,-0.1225 0.25375,-0.245 0.09625,-0.13125 0.14,-0.2275 0.0875,-0.175 0.0875,-0.4725 l 0,-0.2625 z"
           style="font-style:normal;font-variant:normal;font-weight:normal;font-stretch:normal;font-size:8.75px;line-height:125%;font-family:Inconsolata;-inkscape-font-specification:'Inconsolata, Normal';text-align:center;writing-mode:lr-tb;text-anchor:middle;fill:#306998;fill-opacity:1"
           id="path6212" />
        <path
           d="m 73.826875,994.38598 -0.3675,0.55125 q -0.04375,-0.009 -0.04375,-0.07 0,-0.0612 -0.0175,-0.0875 -0.1575,-0.20125 -0.44625,-0.3675 -0.28875,-0.175 -0.65625,-0.175 -0.16625,0 -0.32375,0.0438 -0.14875,0.035 -0.27125,0.105 -0.11375,0.07 -0.18375,0.18375 -0.07,0.105 -0.07,0.245 0,0.105 0.0525,0.1925 0.0525,0.0787 0.16625,0.1575 0.11375,0.0788 0.315,0.1575 0.21,0.0788 0.5425,0.175 0.7525,0.20125 1.05875,0.48125 0.315,0.27125 0.315,0.67375 0,0.2625 -0.11375,0.49875 -0.11375,0.23625 -0.3325,0.41125 -0.21875,0.175 -0.525,0.28 -0.30625,0.0963 -0.69125,0.0963 -1.00625,0 -1.68875,-0.63 l 0.35875,-0.63 q 0.02625,0.0263 0.035,0.0875 0.0088,0.0525 0.06125,0.13125 0.0525,0.0788 0.1925,0.18375 0.14,0.0963 0.42875,0.21875 0.13125,0.0613 0.2975,0.0875 0.16625,0.0263 0.3325,0.0263 0.175,0 0.35,-0.0438 0.18375,-0.0438 0.32375,-0.1225 0.14875,-0.0875 0.23625,-0.20125 0.0875,-0.1225 0.0875,-0.27125 0,-0.2275 -0.21,-0.385 -0.21,-0.1575 -0.77,-0.32375 -0.385,-0.11375 -0.5075,-0.1575 -0.315,-0.1225 -0.455,-0.21 -0.14,-0.0963 -0.25375,-0.21875 -0.11375,-0.13125 -0.18375,-0.28875 -0.07,-0.16625 -0.07,-0.35875 0,-0.21 0.11375,-0.4025 0.11375,-0.1925 0.315,-0.34125 0.21,-0.14875 0.49,-0.23625 0.28875,-0.0962 0.62125,-0.0962 0.91875,0 1.4875,0.63 z"
           style="font-style:normal;font-variant:normal;font-weight:normal;font-stretch:normal;font-size:8.75px;line-height:125%;font-family:Inconsolata;-inkscape-font-specification:'Inconsolata, Normal';text-align:center;writing-mode:lr-tb;text-anchor:middle;fill:#306998;fill-opacity:1"
           id="path6214" />
        <path
           d="m 76.066875,992.78473 0.69125,-0.11375 q 0,0.0788 -0.02625,0.14 -0.0175,0.0612 -0.02625,0.0963 l -0.105,0.945 1.3125,0 0,0.51625 -1.3125,0 q -0.07875,0.77875 -0.07875,1.46125 0,0.42 0.0175,0.70875 0.0175,0.28875 0.0875,0.455 0.07875,0.16625 0.21875,0.2625 0.14,0.0875 0.37625,0.0875 0.4025,0 0.8925,-0.35875 l 0.1925,0.49875 q -0.60375,0.44625 -1.2425,0.44625 -0.63,0 -0.91875,-0.37625 -0.28875,-0.385 -0.2625,-1.2425 0,-0.315 0.0175,-0.805 0.0175,-0.49 0.07,-1.1375 l -0.93625,0 0,-0.51625 0.9625,0 0.07,-1.0675 z"
           style="font-style:normal;font-variant:normal;font-weight:normal;font-stretch:normal;font-size:8.75px;line-height:125%;font-family:Inconsolata;-inkscape-font-specification:'Inconsolata, Normal';text-align:center;writing-mode:lr-tb;text-anchor:middle;fill:#306998;fill-opacity:1"
           id="path6216" />
        <path
           d="m 83.303125,997.85098 1.925,-5.5475 0.07,0 2.1,5.5475 -0.63,0 -0.60375,-1.5925 -1.7325,0 -0.525,1.5925 -0.60375,0 z m 2.72125,-2.065 -0.77,-2.0825 -0.7,2.0825 1.47,0 z"
           style="font-style:normal;font-variant:normal;font-weight:normal;font-stretch:normal;font-size:8.75px;line-height:125%;font-family:Inconsolata;-inkscape-font-specification:'Inconsolata, Normal';text-align:center;writing-mode:lr-tb;text-anchor:middle;fill:#306998;fill-opacity:1"
           id="path6218" />
        <path
           d="m 88.071875,992.03223 0.735,0 0,0.0175 q 0,0.0438 -0.0525,0.0875 -0.04375,0.035 -0.04375,0.0875 l 0,2.24 q 0.1925,-0.32375 0.51625,-0.51625 0.3325,-0.1925 0.67375,-0.1925 0.3325,0 0.63,0.13125 0.2975,0.1225 0.525,0.385 0.2275,0.25375 0.35875,0.63875 0.13125,0.385 0.13125,0.90125 0,0.5425 -0.14875,0.945 -0.14,0.39375 -0.37625,0.665 -0.23625,0.2625 -0.53375,0.39375 -0.2975,0.13125 -0.6125,0.13125 -0.3675,0 -0.67375,-0.16625 -0.30625,-0.16625 -0.5075,-0.455 l -0.21875,0.525 -0.4025,0 0,-5.81875 z m 1.09375,5.20625 q 0.16625,0.0875 0.2975,0.1225 0.13125,0.0263 0.245,0.0263 0.175,0 0.385,-0.0613 0.21,-0.07 0.385,-0.23625 0.18375,-0.16625 0.2975,-0.44625 0.1225,-0.28 0.1225,-0.70875 0,-0.79625 -0.32375,-1.21625 -0.32375,-0.42 -0.93625,-0.42 -0.21875,0 -0.46375,0.1575 -0.245,0.1575 -0.35875,0.42 -0.105,0.2625 -0.105,0.8575 0,0.3675 0.0175,0.62125 0.0175,0.25375 0.07,0.42875 0.0525,0.16625 0.14,0.27125 0.0875,0.105 0.2275,0.18375 z"
           style="font-style:normal;font-variant:normal;font-weight:normal;font-stretch:normal;font-size:8.75px;line-height:125%;font-family:Inconsolata;-inkscape-font-specification:'Inconsolata, Normal';text-align:center;writing-mode:lr-tb;text-anchor:middle;fill:#306998;fill-opacity:1"
           id="path6220" />
        <path
           d="m 94.144375,993.76473 q 0.3675,0 0.69125,0.14875 0.3325,0.14 0.5775,0.41125 0.245,0.27125 0.385,0.665 0.14875,0.385 0.14875,0.86625 0,0.49 -0.14,0.875 -0.14,0.385 -0.385,0.665 -0.245,0.27125 -0.5775,0.42 -0.3325,0.14 -0.70875,0.14 -0.385,0 -0.72625,-0.1575 -0.3325,-0.1575 -0.58625,-0.42875 -0.25375,-0.28 -0.4025,-0.665 -0.14875,-0.385 -0.14875,-0.83125 0,-0.44625 0.14875,-0.84 0.1575,-0.39375 0.41125,-0.665 0.2625,-0.28 0.60375,-0.4375 0.34125,-0.16625 0.70875,-0.16625 z m 1.1725,2.10875 q 0,-0.37625 -0.105,-0.665 -0.09625,-0.2975 -0.2625,-0.49875 -0.16625,-0.20125 -0.385,-0.30625 -0.21,-0.105 -0.44625,-0.105 -0.23625,0 -0.455,0.105 -0.21,0.105 -0.37625,0.30625 -0.1575,0.20125 -0.25375,0.49 -0.09625,0.28 -0.09625,0.63875 0,0.35 0.09625,0.63875 0.09625,0.28875 0.25375,0.49875 0.16625,0.21 0.385,0.32375 0.21875,0.11375 0.46375,0.11375 0.245,0 0.455,-0.0963 0.21875,-0.105 0.37625,-0.2975 0.16625,-0.20125 0.25375,-0.49 0.09625,-0.28875 0.09625,-0.65625 z"
           style="font-style:normal;font-variant:normal;font-weight:normal;font-stretch:normal;font-size:8.75px;line-height:125%;font-family:Inconsolata;-inkscape-font-specification:'Inconsolata, Normal';text-align:center;writing-mode:lr-tb;text-anchor:middle;fill:#306998;fill-opacity:1"
           id="path6222" />
        <path
           d="m 96.848125,993.85223 0.63,0 0,2.23125 q 0,0.385 0.07,0.6475 0.07,0.25375 0.1925,0.41125 0.13125,0.1575 0.28875,0.2275 0.16625,0.07 0.35875,0.07 0.21,-0.0175 0.4025,-0.105 0.1925,-0.0875 0.34125,-0.245 0.1575,-0.16625 0.245,-0.42 0.0875,-0.25375 0.0875,-0.6125 l 0,-2.205 0.638755,0 0,3.64 q 0,0.20125 0.0437,0.35875 l -0.664995,0 q -0.0088,-0.0613 -0.0175,-0.13125 -0.0088,-0.0788 0,-0.175 l 0.0087,-0.30625 q -0.1925,0.3325 -0.525,0.525 -0.32375,0.18375 -0.7175,0.18375 -0.30625,0 -0.55125,-0.105 -0.245,-0.11375 -0.44625,-0.34125 -0.1925,-0.2275 -0.2975,-0.5775 -0.09625,-0.35 -0.09625,-0.84 l 0.0087,-2.23125 z"
           style="font-style:normal;font-variant:normal;font-weight:normal;font-stretch:normal;font-size:8.75px;line-height:125%;font-family:Inconsolata;-inkscape-font-specification:'Inconsolata, Normal';text-align:center;writing-mode:lr-tb;text-anchor:middle;fill:#306998;fill-opacity:1"
           id="path6224" />
        <path
           d="m 102.31687,992.78473 0.69126,-0.11375 q 0,0.0788 -0.0262,0.14 -0.0175,0.0612 -0.0263,0.0963 l -0.105,0.945 1.3125,0 0,0.51625 -1.3125,0 q -0.0787,0.77875 -0.0787,1.46125 0,0.42 0.0175,0.70875 0.0175,0.28875 0.0875,0.455 0.0787,0.16625 0.21875,0.2625 0.14001,0.0875 0.37625,0.0875 0.40251,0 0.8925,-0.35875 l 0.19251,0.49875 q -0.60375,0.44625 -1.24251,0.44625 -0.62999,0 -0.91875,-0.37625 -0.28874,-0.385 -0.26249,-1.2425 0,-0.315 0.0175,-0.805 0.0175,-0.49 0.07,-1.1375 l -0.93625,0 0,-0.51625 0.96251,0 0.07,-1.0675 z"
           style="font-style:normal;font-variant:normal;font-weight:normal;font-stretch:normal;font-size:8.75px;line-height:125%;font-family:Inconsolata;-inkscape-font-specification:'Inconsolata, Normal';text-align:center;writing-mode:lr-tb;text-anchor:middle;fill:#306998;fill-opacity:1"
           id="path6226" />
        <path
           d="m 109.93813,992.39973 1.75,0 q 0.45499,0 0.76999,0.1225 0.32376,0.11375 0.52501,0.3325 0.20999,0.21 0.30625,0.49 0.10499,0.28 0.12249,0.595 -0.0175,0.315 -0.12249,0.595 -0.0963,0.27125 -0.29751,0.4725 -0.1925,0.20125 -0.50749,0.32375 -0.30626,0.11375 -0.7525,0.11375 l -1.16376,0 0,2.40625 -0.62999,0 0,-5.45125 z m 0.62999,0.5775 0,1.925 1.09375,0 q 0.595,0 0.84,-0.25375 0.25375,-0.2625 0.28001,-0.69125 -0.0175,-0.20125 -0.0875,-0.37625 -0.0612,-0.18375 -0.1925,-0.315 -0.13124,-0.13125 -0.34125,-0.21 -0.20125,-0.0788 -0.48999,-0.0788 l -1.10251,0 z"
           style="font-style:normal;font-variant:normal;font-weight:normal;font-stretch:normal;font-size:8.75px;line-height:125%;font-family:Inconsolata;-inkscape-font-specification:'Inconsolata, Normal';text-align:center;writing-mode:lr-tb;text-anchor:middle;fill:#306998;fill-opacity:1"
           id="path6228" />
        <path
           d="m 114.31313,994.13223 -0.11375,-0.28 0.77875,0 q 0,0.07 -0.0175,0.1225 -0.0175,0.0437 -0.0175,0.0875 0,0.035 0.0175,0.0525 l 1.17251,2.94 0.76124,-2.14375 q 0.11376,-0.30625 0.18376,-0.56875 0.07,-0.27125 0.11374,-0.49 l 0.65625,0 q -0.0787,0.2275 -0.17499,0.51625 -0.0875,0.28875 -0.21875,0.63875 l -1.085,2.86125 -0.16625,0.4375 q -0.21,0.58625 -0.54251,0.8225 -0.32374,0.245 -0.7525,0.245 -0.56874,0 -0.91875,-0.34125 l 0.33251,-0.56 q 0.0262,0.0263 0.0437,0.0788 0.0175,0.0612 0.0263,0.0788 0,0 0.035,0.035 0.035,0.0438 0.0875,0.0788 0.0613,0.0438 0.14874,0.0788 0.0875,0.035 0.19251,0.035 0.25375,0 0.44624,-0.1575 0.20125,-0.1575 0.39376,-0.56875 l 0.12249,-0.2975 -1.50499,-3.70125 z"
           style="font-style:normal;font-variant:normal;font-weight:normal;font-stretch:normal;font-size:8.75px;line-height:125%;font-family:Inconsolata;-inkscape-font-specification:'Inconsolata, Normal';text-align:center;writing-mode:lr-tb;text-anchor:middle;fill:#306998;fill-opacity:1"
           id="path6230" />
        <path
           d="m 119.81687,992.78473 0.69126,-0.11375 q 0,0.0788 -0.0262,0.14 -0.0175,0.0612 -0.0263,0.0963 l -0.105,0.945 1.3125,0 0,0.51625 -1.3125,0 q -0.0787,0.77875 -0.0787,1.46125 0,0.42 0.0175,0.70875 0.0175,0.28875 0.0875,0.455 0.0787,0.16625 0.21875,0.2625 0.14001,0.0875 0.37625,0.0875 0.40251,0 0.8925,-0.35875 l 0.19251,0.49875 q -0.60375,0.44625 -1.24251,0.44625 -0.62999,0 -0.91875,-0.37625 -0.28874,-0.385 -0.26249,-1.2425 0,-0.315 0.0175,-0.805 0.0175,-0.49 0.07,-1.1375 l -0.93625,0 0,-0.51625 0.96251,0 0.07,-1.0675 z"
           style="font-style:normal;font-variant:normal;font-weight:normal;font-stretch:normal;font-size:8.75px;line-height:125%;font-family:Inconsolata;-inkscape-font-specification:'Inconsolata, Normal';text-align:center;writing-mode:lr-tb;text-anchor:middle;fill:#306998;fill-opacity:1"
           id="path6232" />
        <path
           d="m 123.15937,997.85098 0,-5.81875 0.72626,0 q 0,0.009 0,0.009 0.009,0 0.009,0.009 0,0.0263 -0.0437,0.0788 -0.035,0.0438 -0.0525,0.11375 l 0,2.31875 q 0.23624,-0.3675 0.58625,-0.58625 0.35875,-0.21875 0.72625,-0.21875 0.27124,0 0.48999,0.0962 0.22751,0.0875 0.39376,0.28875 0.16624,0.20125 0.25375,0.51625 0.0875,0.315 0.0875,0.77 l 0,2.42375 -0.62124,0 0,-2.40625 q 0,-0.63 -0.21875,-0.88375 -0.21001,-0.25375 -0.51625,-0.25375 -0.20125,0 -0.4025,0.0875 -0.20125,0.0875 -0.39375,0.245 -0.18375,0.1575 -0.28876,0.385 -0.0962,0.2275 -0.0962,0.525 l 0,2.30125 -0.63876,0 z"
           style="font-style:normal;font-variant:normal;font-weight:normal;font-stretch:normal;font-size:8.75px;line-height:125%;font-family:Inconsolata;-inkscape-font-specification:'Inconsolata, Normal';text-align:center;writing-mode:lr-tb;text-anchor:middle;fill:#306998;fill-opacity:1"
           id="path6234" />
        <path
           d="m 129.14437,993.76473 q 0.3675,0 0.69125,0.14875 0.3325,0.14 0.5775,0.41125 0.245,0.27125 0.385,0.665 0.14875,0.385 0.14875,0.86625 0,0.49 -0.14,0.875 -0.14,0.385 -0.385,0.665 -0.245,0.27125 -0.57749,0.42 -0.33251,0.14 -0.70876,0.14 -0.38499,0 -0.72625,-0.1575 -0.3325,-0.1575 -0.58624,-0.42875 -0.25376,-0.28 -0.4025,-0.665 -0.14876,-0.385 -0.14876,-0.83125 0,-0.44625 0.14876,-0.84 0.1575,-0.39375 0.41124,-0.665 0.26251,-0.28 0.60375,-0.4375 0.34125,-0.16625 0.70875,-0.16625 z m 1.1725,2.10875 q 0,-0.37625 -0.105,-0.665 -0.0962,-0.2975 -0.2625,-0.49875 -0.16625,-0.20125 -0.385,-0.30625 -0.21,-0.105 -0.44625,-0.105 -0.23625,0 -0.455,0.105 -0.21,0.105 -0.37625,0.30625 -0.1575,0.20125 -0.25375,0.49 -0.0962,0.28 -0.0962,0.63875 0,0.35 0.0962,0.63875 0.0962,0.28875 0.25375,0.49875 0.16625,0.21 0.385,0.32375 0.21875,0.11375 0.46375,0.11375 0.245,0 0.455,-0.0963 0.21875,-0.105 0.37625,-0.2975 0.16625,-0.20125 0.25375,-0.49 0.0962,-0.28875 0.0962,-0.65625 z"
           style="font-style:normal;font-variant:normal;font-weight:normal;font-stretch:normal;font-size:8.75px;line-height:125%;font-family:Inconsolata;-inkscape-font-specification:'Inconsolata, Normal';text-align:center;writing-mode:lr-tb;text-anchor:middle;fill:#306998;fill-opacity:1"
           id="path6236" />
        <path
           d="m 131.89187,997.85098 0,-3.99875 0.6475,0 0,0.70875 q 0.2275,-0.3675 0.5775,-0.58625 0.35875,-0.21875 0.72625,-0.21875 0.2625,0 0.49,0.0962 0.2275,0.0875 0.39375,0.28875 0.16625,0.20125 0.25375,0.51625 0.0963,0.315 0.0963,0.77 l 0,2.42375 -0.62125,0 0,-2.40625 q 0,-0.63 -0.21875,-0.88375 -0.21,-0.25375 -0.51625,-0.25375 -0.20125,0 -0.41125,0.0875 -0.21,0.0875 -0.385,0.25375 -0.16625,0.1575 -0.28,0.385 -0.105,0.2275 -0.105,0.51625 l 0,2.30125 -0.6475,0 z"
           style="font-style:normal;font-variant:normal;font-weight:normal;font-stretch:normal;font-size:8.75px;line-height:125%;font-family:Inconsolata;-inkscape-font-specification:'Inconsolata, Normal';text-align:center;writing-mode:lr-tb;text-anchor:middle;fill:#306998;fill-opacity:1"
           id="path6238" />
        <path
           d="m 140.84312,994.32473 q 0.53375,-0.56 1.42625,-0.56 0.735,0 1.155,0.37625 0.42875,0.3675 0.42875,1.23375 l 0,2.47625 -0.595,0 0,-0.4375 q -0.63875,0.53375 -1.435,0.53375 -0.315,0 -0.56875,-0.0962 -0.245,-0.0963 -0.42,-0.25375 -0.175,-0.1575 -0.27124,-0.35875 -0.0875,-0.20125 -0.0875,-0.4025 0,-0.60375 0.51625,-0.95375 0.525,-0.35 1.505,-0.385 l 0.7525,0 0,-0.14875 q 0,-0.595 -0.25375,-0.83125 -0.24499,-0.23625 -0.77,-0.23625 -0.6475,0 -1.07625,0.44625 l -0.30625,-0.4025 z m 2.4325,1.65375 -0.14875,0 q -0.1225,0 -0.23625,0 -0.105,-0.009 -0.21,-0.009 -0.48125,0 -0.7875,0.07 -0.30625,0.0613 -0.48125,0.175 -0.175,0.11375 -0.245,0.2625 -0.0613,0.14 -0.0613,0.30625 0,0.28 0.245,0.48125 0.245,0.20125 0.60375,0.20125 0.2625,0 0.4725,-0.0787 0.21,-0.0875 0.3675,-0.20125 0.1575,-0.1225 0.25375,-0.245 0.0962,-0.13125 0.14001,-0.2275 0.0875,-0.175 0.0875,-0.4725 l 0,-0.2625 z"
           style="font-style:normal;font-variant:normal;font-weight:normal;font-stretch:normal;font-size:8.75px;line-height:125%;font-family:Inconsolata;-inkscape-font-specification:'Inconsolata, Normal';text-align:center;writing-mode:lr-tb;text-anchor:middle;fill:#306998;fill-opacity:1"
           id="path6240" />
        <path
           d="m 145.01687,997.85098 0,-3.99875 0.6475,0 0,0.70875 q 0.2275,-0.3675 0.5775,-0.58625 0.35875,-0.21875 0.72625,-0.21875 0.2625,0 0.49,0.0962 0.2275,0.0875 0.39375,0.28875 0.16625,0.20125 0.25375,0.51625 0.0963,0.315 0.0963,0.77 l 0,2.42375 -0.62125,0 0,-2.40625 q 0,-0.63 -0.21875,-0.88375 -0.21,-0.25375 -0.51625,-0.25375 -0.20125,0 -0.41125,0.0875 -0.21,0.0875 -0.385,0.25375 -0.16625,0.1575 -0.28,0.385 -0.105,0.2275 -0.105,0.51625 l 0,2.30125 -0.6475,0 z"
           style="font-style:normal;font-variant:normal;font-weight:normal;font-stretch:normal;font-size:8.75px;line-height:125%;font-family:Inconsolata;-inkscape-font-specification:'Inconsolata, Normal';text-align:center;writing-mode:lr-tb;text-anchor:middle;fill:#306998;fill-opacity:1"
           id="path6242" />
        <path
           d="m 152.04312,994.43848 0,-2.40625 0.67375,0 q 0,0.0525 -0.0437,0.1225 -0.0438,0.0612 -0.0438,0.1225 l 0.009,5.20625 q 0,0.21 0.0438,0.3675 l -0.63,0 q -0.035,-0.105 -0.035,-0.2975 l 0,-0.34125 q -0.1925,0.3325 -0.525,0.53375 -0.3325,0.1925 -0.67375,0.1925 -0.3325,0 -0.62999,-0.13125 -0.28876,-0.13125 -0.51626,-0.39375 -0.21875,-0.2625 -0.35,-0.65625 -0.13125,-0.4025 -0.13125,-0.945 0,-0.55125 0.14875,-0.93625 0.14875,-0.39375 0.385,-0.63875 0.24501,-0.25375 0.5425,-0.3675 0.2975,-0.1225 0.60375,-0.1225 0.42,0 0.7175,0.1925 0.30625,0.18375 0.455,0.49875 z m -1.86375,0.1225 q -0.37625,0.34125 -0.37625,1.155 0,0.7525 0.28875,1.21625 0.28875,0.455 0.84875,0.455 0.13125,0 0.28,-0.0438 0.14875,-0.0525 0.28001,-0.14875 0.13124,-0.0963 0.23624,-0.2275 0.105,-0.13125 0.1575,-0.2975 0.0962,-0.315 0.0962,-0.84 0,-0.3325 -0.0263,-0.55125 -0.0262,-0.2275 -0.0875,-0.385 -0.0525,-0.1575 -0.14,-0.25375 -0.0875,-0.105 -0.21875,-0.18375 -0.1575,-0.0962 -0.2975,-0.14 -0.13125,-0.0525 -0.25375,-0.0525 -0.25375,0 -0.4375,0.07 -0.175,0.07 -0.35,0.2275 z"
           style="font-style:normal;font-variant:normal;font-weight:normal;font-stretch:normal;font-size:8.75px;line-height:125%;font-family:Inconsolata;-inkscape-font-specification:'Inconsolata, Normal';text-align:center;writing-mode:lr-tb;text-anchor:middle;fill:#306998;fill-opacity:1"
           id="path6244" />
        <path
           d="m 157.81812,992.39098 3.78,0 0,0.55125 -1.61,0 0,4.90875 -0.62125,0 0,-4.90875 -1.54875,0 0,-0.55125 z"
           style="font-style:normal;font-variant:normal;font-weight:normal;font-stretch:normal;font-size:8.75px;line-height:125%;font-family:Inconsolata;-inkscape-font-specification:'Inconsolata, Normal';text-align:center;writing-mode:lr-tb;text-anchor:middle;fill:#306998;fill-opacity:1"
           id="path6246" />
        <path
           d="m 162.53437,997.85098 0,-5.81875 0.72625,0 q 0,0.009 0,0.009 0.009,0 0.009,0.009 0,0.0263 -0.0438,0.0788 -0.035,0.0438 -0.0525,0.11375 l 0,2.31875 q 0.23625,-0.3675 0.58625,-0.58625 0.35875,-0.21875 0.72625,-0.21875 0.27125,0 0.49,0.0962 0.2275,0.0875 0.39375,0.28875 0.16625,0.20125 0.25375,0.51625 0.0875,0.315 0.0875,0.77 l 0,2.42375 -0.62125,0 0,-2.40625 q 0,-0.63 -0.21875,-0.88375 -0.21,-0.25375 -0.51625,-0.25375 -0.20125,0 -0.4025,0.0875 -0.20124,0.0875 -0.39375,0.245 -0.18375,0.1575 -0.28875,0.385 -0.0962,0.2275 -0.0962,0.525 l 0,2.30125 -0.63875,0 z"
           style="font-style:normal;font-variant:normal;font-weight:normal;font-stretch:normal;font-size:8.75px;line-height:125%;font-family:Inconsolata;-inkscape-font-specification:'Inconsolata, Normal';text-align:center;writing-mode:lr-tb;text-anchor:middle;fill:#306998;fill-opacity:1"
           id="path6248" />
        <path
           d="m 168.56313,993.75598 q 0.31499,0 0.61249,0.11375 0.2975,0.11375 0.51625,0.35 0.2275,0.2275 0.35875,0.58625 0.14,0.35875 0.14,0.84875 0,0.07 -0.009,0.14875 0,0.07 -0.009,0.14 l -2.84375,0 q 0.0175,0.42 0.14001,0.70875 0.13124,0.28 0.32374,0.455 0.1925,0.175 0.42875,0.25375 0.23625,0.07 0.4725,0.07 0.62125,0 1.0325,-0.44625 l 0.35,0.34125 q -0.5075,0.6125 -1.4,0.6125 -0.4375,0 -0.805,-0.13125 -0.35875,-0.14 -0.6125,-0.4025 -0.25375,-0.2625 -0.39375,-0.6475 -0.14,-0.39375 -0.14,-0.8925 0,-0.5075 0.14,-0.90125 0.14875,-0.39375 0.39375,-0.65625 0.25375,-0.27125 0.58625,-0.41125 0.3325,-0.14 0.71751,-0.14 z m -1.20751,1.6975 2.19625,0 q 0,-0.035 0,-0.0612 0.009,-0.035 0.009,-0.0788 0,-0.21875 -0.0875,-0.41125 -0.0787,-0.20125 -0.21875,-0.34125 -0.14,-0.14875 -0.3325,-0.23625 -0.18375,-0.0875 -0.4025,-0.0875 -0.41125,0 -0.74375,0.2975 -0.3325,0.28875 -0.42,0.91875 z"
           style="font-style:normal;font-variant:normal;font-weight:normal;font-stretch:normal;font-size:8.75px;line-height:125%;font-family:Inconsolata;-inkscape-font-specification:'Inconsolata, Normal';text-align:center;writing-mode:lr-tb;text-anchor:middle;fill:#306998;fill-opacity:1"
           id="path6250" />
        <path
           d="m 175.56313,992.39973 1.75,0 q 0.45499,0 0.76999,0.1225 0.32376,0.11375 0.525,0.3325 0.21,0.21 0.30625,0.49 0.105,0.28 0.1225,0.595 -0.0175,0.315 -0.1225,0.595 -0.0962,0.27125 -0.2975,0.4725 -0.1925,0.20125 -0.5075,0.32375 -0.30625,0.11375 -0.7525,0.11375 l -1.16375,0 0,2.40625 -0.62999,0 0,-5.45125 z m 0.62999,0.5775 0,1.925 1.09375,0 q 0.595,0 0.84,-0.25375 0.25375,-0.2625 0.28001,-0.69125 -0.0175,-0.20125 -0.0875,-0.37625 -0.0613,-0.18375 -0.1925,-0.315 -0.13125,-0.13125 -0.34125,-0.21 -0.20125,-0.0788 -0.49,-0.0788 l -1.1025,0 z"
           style="font-style:normal;font-variant:normal;font-weight:normal;font-stretch:normal;font-size:8.75px;line-height:125%;font-family:Inconsolata;-inkscape-font-specification:'Inconsolata, Normal';text-align:center;writing-mode:lr-tb;text-anchor:middle;fill:#306998;fill-opacity:1"
           id="path6252" />
        <path
           d="m 181.68813,993.75598 q 0.31499,0 0.61249,0.11375 0.2975,0.11375 0.51625,0.35 0.2275,0.2275 0.35875,0.58625 0.14,0.35875 0.14,0.84875 0,0.07 -0.009,0.14875 0,0.07 -0.009,0.14 l -2.84375,0 q 0.0175,0.42 0.14001,0.70875 0.13124,0.28 0.32374,0.455 0.1925,0.175 0.42875,0.25375 0.23625,0.07 0.4725,0.07 0.62125,0 1.0325,-0.44625 l 0.35,0.34125 q -0.5075,0.6125 -1.4,0.6125 -0.4375,0 -0.805,-0.13125 -0.35875,-0.14 -0.6125,-0.4025 -0.25375,-0.2625 -0.39375,-0.6475 -0.14,-0.39375 -0.14,-0.8925 0,-0.5075 0.14,-0.90125 0.14875,-0.39375 0.39375,-0.65625 0.25375,-0.27125 0.58625,-0.41125 0.3325,-0.14 0.71751,-0.14 z m -1.20751,1.6975 2.19625,0 q 0,-0.035 0,-0.0612 0.009,-0.035 0.009,-0.0788 0,-0.21875 -0.0875,-0.41125 -0.0787,-0.20125 -0.21875,-0.34125 -0.14,-0.14875 -0.3325,-0.23625 -0.18375,-0.0875 -0.4025,-0.0875 -0.41125,0 -0.74375,0.2975 -0.3325,0.28875 -0.42,0.91875 z"
           style="font-style:normal;font-variant:normal;font-weight:normal;font-stretch:normal;font-size:8.75px;line-height:125%;font-family:Inconsolata;-inkscape-font-specification:'Inconsolata, Normal';text-align:center;writing-mode:lr-tb;text-anchor:middle;fill:#306998;fill-opacity:1"
           id="path6254" />
        <path
           d="m 186.01937,993.76473 q 0.3675,0 0.69125,0.14875 0.3325,0.14 0.5775,0.41125 0.245,0.27125 0.385,0.665 0.14875,0.385 0.14875,0.86625 0,0.49 -0.14,0.875 -0.14,0.385 -0.385,0.665 -0.245,0.27125 -0.57749,0.42 -0.33251,0.14 -0.70876,0.14 -0.38499,0 -0.72625,-0.1575 -0.3325,-0.1575 -0.58625,-0.42875 -0.25375,-0.28 -0.4025,-0.665 -0.14875,-0.385 -0.14875,-0.83125 0,-0.44625 0.14875,-0.84 0.1575,-0.39375 0.41125,-0.665 0.26251,-0.28 0.60375,-0.4375 0.34125,-0.16625 0.70875,-0.16625 z m 1.1725,2.10875 q 0,-0.37625 -0.105,-0.665 -0.0962,-0.2975 -0.2625,-0.49875 -0.16625,-0.20125 -0.385,-0.30625 -0.21,-0.105 -0.44625,-0.105 -0.23625,0 -0.455,0.105 -0.21,0.105 -0.37625,0.30625 -0.1575,0.20125 -0.25375,0.49 -0.0962,0.28 -0.0962,0.63875 0,0.35 0.0962,0.63875 0.0962,0.28875 0.25375,0.49875 0.16625,0.21 0.385,0.32375 0.21875,0.11375 0.46375,0.11375 0.245,0 0.455,-0.0963 0.21875,-0.105 0.37625,-0.2975 0.16625,-0.20125 0.25375,-0.49 0.0962,-0.28875 0.0962,-0.65625 z"
           style="font-style:normal;font-variant:normal;font-weight:normal;font-stretch:normal;font-size:8.75px;line-height:125%;font-family:Inconsolata;-inkscape-font-specification:'Inconsolata, Normal';text-align:center;writing-mode:lr-tb;text-anchor:middle;fill:#306998;fill-opacity:1"
           id="path6256" />
        <path
           d="m 188.69687,993.85223 0.63875,0 0,0.6125 q 0.20125,-0.32375 0.53375,-0.5075 0.34125,-0.1925 0.6825,-0.1925 0.3325,0 0.63,0.13125 0.30625,0.1225 0.53375,0.37625 0.23625,0.25375 0.3675,0.63875 0.14,0.385 0.14,0.91 0,0.525 -0.14875,0.9275 -0.14,0.4025 -0.37625,0.67375 -0.23625,0.2625 -0.5425,0.4025 -0.2975,0.13125 -0.6125,0.13125 -0.3675,0 -0.6825,-0.16625 -0.315,-0.16625 -0.51624,-0.46375 l 0,1.98625 -0.64751,0 0,-5.46 z m 0.63875,2.33625 q 0.0175,0.6475 0.2975,0.9275 0.28,0.28 0.69125,0.28 0.21875,0 0.4375,-0.07 0.21875,-0.07 0.4025,-0.23625 0.18375,-0.175 0.28875,-0.455 0.11375,-0.28 0.11375,-0.7 0,-0.77 -0.32375,-1.19 -0.315,-0.42875 -0.8925,-0.44625 -0.175,0 -0.35875,0.0612 -0.18375,0.0612 -0.3325,0.21 -0.14,0.14875 -0.23625,0.4025 -0.0875,0.245 -0.0875,0.6125 l 0,0.60375 z"
           style="font-style:normal;font-variant:normal;font-weight:normal;font-stretch:normal;font-size:8.75px;line-height:125%;font-family:Inconsolata;-inkscape-font-specification:'Inconsolata, Normal';text-align:center;writing-mode:lr-tb;text-anchor:middle;fill:#306998;fill-opacity:1"
           id="path6258" />
        <path
           d="m 193.29062,992.03223 1.7675,0 0,5.31125 1.1725,0 0,0.5075 -2.9925,0 0,-0.5075 1.18125,0 0,-4.80375 -1.12875,0 0,-0.5075 z"
           style="font-style:normal;font-variant:normal;font-weight:normal;font-stretch:normal;font-size:8.75px;line-height:125%;font-family:Inconsolata;-inkscape-font-specification:'Inconsolata, Normal';text-align:center;writing-mode:lr-tb;text-anchor:middle;fill:#306998;fill-opacity:1"
           id="path6260" />
        <path
           d="m 199.18813,993.75598 q 0.31499,0 0.61249,0.11375 0.2975,0.11375 0.51625,0.35 0.2275,0.2275 0.35875,0.58625 0.14,0.35875 0.14,0.84875 0,0.07 -0.009,0.14875 0,0.07 -0.009,0.14 l -2.84375,0 q 0.0175,0.42 0.14001,0.70875 0.13124,0.28 0.32374,0.455 0.1925,0.175 0.42875,0.25375 0.23625,0.07 0.4725,0.07 0.62125,0 1.0325,-0.44625 l 0.35,0.34125 q -0.5075,0.6125 -1.4,0.6125 -0.4375,0 -0.805,-0.13125 -0.35875,-0.14 -0.6125,-0.4025 -0.25375,-0.2625 -0.39375,-0.6475 -0.14,-0.39375 -0.14,-0.8925 0,-0.5075 0.14,-0.90125 0.14875,-0.39375 0.39375,-0.65625 0.25375,-0.27125 0.58625,-0.41125 0.3325,-0.14 0.71751,-0.14 z m -1.20751,1.6975 2.19625,0 q 0,-0.035 0,-0.0612 0.009,-0.035 0.009,-0.0788 0,-0.21875 -0.0875,-0.41125 -0.0787,-0.20125 -0.21875,-0.34125 -0.14,-0.14875 -0.3325,-0.23625 -0.18375,-0.0875 -0.4025,-0.0875 -0.41125,0 -0.74375,0.2975 -0.3325,0.28875 -0.42,0.91875 z"
           style="font-style:normal;font-variant:normal;font-weight:normal;font-stretch:normal;font-size:8.75px;line-height:125%;font-family:Inconsolata;-inkscape-font-specification:'Inconsolata, Normal';text-align:center;writing-mode:lr-tb;text-anchor:middle;fill:#306998;fill-opacity:1"
           id="path6262" />
        <path
           d="m 205.82062,992.39973 0.56875,0 0.58625,3.68375 0.875,-3.28125 0.1925,0 0.88375,3.29875 0.49875,-3.70125 0.51625,0 -0.86625,5.48625 -0.23625,0 -0.93625,-3.59625 -0.95375,3.59625 -0.25375,0 -0.875,-5.48625 z"
           style="font-style:normal;font-variant:normal;font-weight:normal;font-stretch:normal;font-size:8.75px;line-height:125%;font-family:Inconsolata;-inkscape-font-specification:'Inconsolata, Normal';text-align:center;writing-mode:lr-tb;text-anchor:middle;fill:#306998;fill-opacity:1"
           id="path6264" />
        <path
           d="m 210.65937,997.85098 0,-5.81875 0.72625,0 q 0,0.009 0,0.009 0.009,0 0.009,0.009 0,0.0263 -0.0438,0.0788 -0.035,0.0438 -0.0525,0.11375 l 0,2.31875 q 0.23625,-0.3675 0.58625,-0.58625 0.35875,-0.21875 0.72625,-0.21875 0.27125,0 0.49,0.0962 0.2275,0.0875 0.39375,0.28875 0.16625,0.20125 0.25375,0.51625 0.0875,0.315 0.0875,0.77 l 0,2.42375 -0.62125,0 0,-2.40625 q 0,-0.63 -0.21875,-0.88375 -0.21,-0.25375 -0.51625,-0.25375 -0.20125,0 -0.4025,0.0875 -0.20124,0.0875 -0.39375,0.245 -0.18375,0.1575 -0.28875,0.385 -0.0962,0.2275 -0.0962,0.525 l 0,2.30125 -0.63875,0 z"
           style="font-style:normal;font-variant:normal;font-weight:normal;font-stretch:normal;font-size:8.75px;line-height:125%;font-family:Inconsolata;-inkscape-font-specification:'Inconsolata, Normal';text-align:center;writing-mode:lr-tb;text-anchor:middle;fill:#306998;fill-opacity:1"
           id="path6266" />
        <path
           d="m 216.64437,993.76473 q 0.3675,0 0.69125,0.14875 0.3325,0.14 0.5775,0.41125 0.245,0.27125 0.385,0.665 0.14875,0.385 0.14875,0.86625 0,0.49 -0.14,0.875 -0.14,0.385 -0.385,0.665 -0.245,0.27125 -0.57749,0.42 -0.33251,0.14 -0.70876,0.14 -0.38499,0 -0.72625,-0.1575 -0.3325,-0.1575 -0.58625,-0.42875 -0.25375,-0.28 -0.4025,-0.665 -0.14875,-0.385 -0.14875,-0.83125 0,-0.44625 0.14875,-0.84 0.1575,-0.39375 0.41125,-0.665 0.26251,-0.28 0.60375,-0.4375 0.34125,-0.16625 0.70875,-0.16625 z m 1.1725,2.10875 q 0,-0.37625 -0.105,-0.665 -0.0962,-0.2975 -0.2625,-0.49875 -0.16625,-0.20125 -0.385,-0.30625 -0.21,-0.105 -0.44625,-0.105 -0.23625,0 -0.455,0.105 -0.21,0.105 -0.37625,0.30625 -0.1575,0.20125 -0.25375,0.49 -0.0962,0.28 -0.0962,0.63875 0,0.35 0.0962,0.63875 0.0962,0.28875 0.25375,0.49875 0.16625,0.21 0.385,0.32375 0.21875,0.11375 0.46375,0.11375 0.245,0 0.455,-0.0963 0.21875,-0.105 0.37625,-0.2975 0.16625,-0.20125 0.25375,-0.49 0.0962,-0.28875 0.0962,-0.65625 z"
           style="font-style:normal;font-variant:normal;font-weight:normal;font-stretch:normal;font-size:8.75px;line-height:125%;font-family:Inconsolata;-inkscape-font-specification:'Inconsolata, Normal';text-align:center;writing-mode:lr-tb;text-anchor:middle;fill:#306998;fill-opacity:1"
           id="path6268" />
        <path
           d="m 223.53062,992.39973 0.48125,0 1.3475,2.66875 1.37375,-2.6775 0.46375,0 0,5.46 -0.5775,0 0,-4.1125 -1.18124,2.19625 -0.23626,0 -1.1025,-2.17 0,4.08625 -0.56875,0 0,-5.45125 z"
           style="font-style:normal;font-variant:normal;font-weight:normal;font-stretch:normal;font-size:8.75px;line-height:125%;font-family:Inconsolata;-inkscape-font-specification:'Inconsolata, Normal';text-align:center;writing-mode:lr-tb;text-anchor:middle;fill:#306998;fill-opacity:1"
           id="path6270" />
        <path
           d="m 228.34312,994.32473 q 0.53375,-0.56 1.42625,-0.56 0.735,0 1.155,0.37625 0.42875,0.3675 0.42875,1.23375 l 0,2.47625 -0.595,0 0,-0.4375 q -0.63875,0.53375 -1.435,0.53375 -0.315,0 -0.56875,-0.0962 -0.245,-0.0963 -0.42,-0.25375 -0.175,-0.1575 -0.27124,-0.35875 -0.0875,-0.20125 -0.0875,-0.4025 0,-0.60375 0.51625,-0.95375 0.525,-0.35 1.505,-0.385 l 0.7525,0 0,-0.14875 q 0,-0.595 -0.25375,-0.83125 -0.24499,-0.23625 -0.77,-0.23625 -0.6475,0 -1.07625,0.44625 l -0.30625,-0.4025 z m 2.4325,1.65375 -0.14875,0 q -0.1225,0 -0.23625,0 -0.105,-0.009 -0.21,-0.009 -0.48125,0 -0.7875,0.07 -0.30625,0.0613 -0.48125,0.175 -0.175,0.11375 -0.245,0.2625 -0.0613,0.14 -0.0613,0.30625 0,0.28 0.245,0.48125 0.245,0.20125 0.60375,0.20125 0.2625,0 0.4725,-0.0787 0.21,-0.0875 0.3675,-0.20125 0.1575,-0.1225 0.25375,-0.245 0.0962,-0.13125 0.14001,-0.2275 0.0875,-0.175 0.0875,-0.4725 l 0,-0.2625 z"
           style="font-style:normal;font-variant:normal;font-weight:normal;font-stretch:normal;font-size:8.75px;line-height:125%;font-family:Inconsolata;-inkscape-font-specification:'Inconsolata, Normal';text-align:center;writing-mode:lr-tb;text-anchor:middle;fill:#306998;fill-opacity:1"
           id="path6272" />
        <path
           d="m 232.49937,992.03223 0.7175,0 q 0,0.0525 -0.0437,0.11375 -0.035,0.0612 -0.035,0.11375 l 0,3.43 2.00375,-1.855 q 0.20125,0.0437 0.46375,0.0437 l 0.2275,0 -1.68,1.58375 1.96,2.38875 -0.81375,0.035 -1.63625,-2.03875 -0.525,0.49 0,1.51375 -0.63875,0 0,-5.81875 z"
           style="font-style:normal;font-variant:normal;font-weight:normal;font-stretch:normal;font-size:8.75px;line-height:125%;font-family:Inconsolata;-inkscape-font-specification:'Inconsolata, Normal';text-align:center;writing-mode:lr-tb;text-anchor:middle;fill:#306998;fill-opacity:1"
           id="path6274" />
        <path
           d="m 238.56313,993.75598 q 0.31499,0 0.61249,0.11375 0.2975,0.11375 0.51625,0.35 0.2275,0.2275 0.35875,0.58625 0.14,0.35875 0.14,0.84875 0,0.07 -0.009,0.14875 0,0.07 -0.009,0.14 l -2.84375,0 q 0.0175,0.42 0.14001,0.70875 0.13124,0.28 0.32374,0.455 0.1925,0.175 0.42875,0.25375 0.23625,0.07 0.4725,0.07 0.62125,0 1.0325,-0.44625 l 0.35,0.34125 q -0.5075,0.6125 -1.4,0.6125 -0.4375,0 -0.805,-0.13125 -0.35875,-0.14 -0.6125,-0.4025 -0.25375,-0.2625 -0.39375,-0.6475 -0.14,-0.39375 -0.14,-0.8925 0,-0.5075 0.14,-0.90125 0.14875,-0.39375 0.39375,-0.65625 0.25375,-0.27125 0.58625,-0.41125 0.3325,-0.14 0.71751,-0.14 z m -1.20751,1.6975 2.19625,0 q 0,-0.035 0,-0.0612 0.009,-0.035 0.009,-0.0788 0,-0.21875 -0.0875,-0.41125 -0.0787,-0.20125 -0.21875,-0.34125 -0.14,-0.14875 -0.3325,-0.23625 -0.18375,-0.0875 -0.4025,-0.0875 -0.41125,0 -0.74375,0.2975 -0.3325,0.28875 -0.42,0.91875 z"
           style="font-style:normal;font-variant:normal;font-weight:normal;font-stretch:normal;font-size:8.75px;line-height:125%;font-family:Inconsolata;-inkscape-font-specification:'Inconsolata, Normal';text-align:center;writing-mode:lr-tb;text-anchor:middle;fill:#306998;fill-opacity:1"
           id="path6276" />
        <path
           d="m 245.81687,992.39973 2.70375,0 0,0.51625 -1.07625,0 0,4.43625 1.12875,0 0,0.5075 -2.8175,0 0,-0.51625 1.07625,0 0,-4.4275 -1.015,0 0,-0.51625 z"
           style="font-style:normal;font-variant:normal;font-weight:normal;font-stretch:normal;font-size:8.75px;line-height:125%;font-family:Inconsolata;-inkscape-font-specification:'Inconsolata, Normal';text-align:center;writing-mode:lr-tb;text-anchor:middle;fill:#306998;fill-opacity:1"
           id="path6278" />
        <path
           d="m 251.06687,992.78473 0.69125,-0.11375 q 0,0.0788 -0.0263,0.14 -0.0175,0.0612 -0.0262,0.0963 l -0.105,0.945 1.3125,0 0,0.51625 -1.3125,0 q -0.0787,0.77875 -0.0787,1.46125 0,0.42 0.0175,0.70875 0.0175,0.28875 0.0875,0.455 0.0788,0.16625 0.21875,0.2625 0.14,0.0875 0.37625,0.0875 0.4025,0 0.8925,-0.35875 l 0.1925,0.49875 q -0.60375,0.44625 -1.2425,0.44625 -0.63,0 -0.91875,-0.37625 -0.28875,-0.385 -0.2625,-1.2425 0,-0.315 0.0175,-0.805 0.0175,-0.49 0.07,-1.1375 l -0.93625,0 0,-0.51625 0.9625,0 0.07,-1.0675 z"
           style="font-style:normal;font-variant:normal;font-weight:normal;font-stretch:normal;font-size:8.75px;line-height:125%;font-family:Inconsolata;-inkscape-font-specification:'Inconsolata, Normal';text-align:center;writing-mode:lr-tb;text-anchor:middle;fill:#306998;fill-opacity:1"
           id="path6280" />
        <path
           d="m 262.17937,993.25723 -0.42874,0.4375 q -0.0525,-0.035 -0.11376,-0.16625 -0.13125,-0.28875 -0.41125,-0.46375 -0.27124,-0.18375 -0.63874,-0.18375 -0.25376,0 -0.52501,0.105 -0.2625,0.105 -0.48125,0.35875 -0.21875,0.25375 -0.35875,0.67375 -0.13125,0.41125 -0.13125,1.04125 0,0.56875 0.11376,1.00625 0.11374,0.4375 0.315,0.735 0.20124,0.28875 0.47249,0.44625 0.28001,0.14875 0.60375,0.14875 0.56875,0 1.0325,-0.3325 l 0,-1.295 -0.98875,0 0,-0.53375 1.5575,0 0,2.135 q -0.77875,0.56875 -1.60125,0.56875 -0.49,0 -0.88374,-0.1925 -0.38501,-0.20125 -0.66501,-0.56 -0.27125,-0.35875 -0.42,-0.86625 -0.14,-0.5075 -0.14,-1.12875 0,-0.8575 0.21,-1.435 0.21875,-0.5775 0.56,-0.875 0.34125,-0.30625 0.69125,-0.42 0.35875,-0.11375 0.6475,-0.11375 0.49876,0 0.9275,0.25375 0.42875,0.245 0.65625,0.65625 z"
           style="font-style:normal;font-variant:normal;font-weight:normal;font-stretch:normal;font-size:8.75px;line-height:125%;font-family:Inconsolata;-inkscape-font-specification:'Inconsolata, Normal';text-align:center;writing-mode:lr-tb;text-anchor:middle;fill:#306998;fill-opacity:1"
           id="path6282" />
        <path
           d="m 263.41312,993.85223 0.65625,0 -0.0175,0.77 q 0.18376,-0.42 0.5775,-0.63875 0.40251,-0.2275 0.8575,-0.2275 0.6475,0 1.0675,0.4375 l -0.28875,0.60375 q -0.0962,-0.13125 -0.175,-0.21875 -0.0788,-0.0875 -0.175,-0.14875 -0.0875,-0.0612 -0.20124,-0.0962 -0.10501,-0.035 -0.26251,-0.035 -0.28875,0 -0.5425,0.14 -0.25375,0.13125 -0.44625,0.35875 -0.18374,0.21875 -0.2975,0.5075 -0.11375,0.28875 -0.11375,0.60375 l 0,1.95125 -0.63875,0 0,-4.0075 z"
           style="font-style:normal;font-variant:normal;font-weight:normal;font-stretch:normal;font-size:8.75px;line-height:125%;font-family:Inconsolata;-inkscape-font-specification:'Inconsolata, Normal';text-align:center;writing-mode:lr-tb;text-anchor:middle;fill:#306998;fill-opacity:1"
           id="path6284" />
        <path
           d="m 269.18813,993.75598 q 0.31499,0 0.6125,0.11375 0.29749,0.11375 0.51624,0.35 0.2275,0.2275 0.35876,0.58625 0.13999,0.35875 0.13999,0.84875 0,0.07 -0.009,0.14875 0,0.07 -0.009,0.14 l -2.84375,0 q 0.0175,0.42 0.14,0.70875 0.13124,0.28 0.32374,0.455 0.19251,0.175 0.42875,0.25375 0.23625,0.07 0.4725,0.07 0.62125,0 1.0325,-0.44625 l 0.35,0.34125 q -0.5075,0.6125 -1.4,0.6125 -0.4375,0 -0.805,-0.13125 -0.35875,-0.14 -0.6125,-0.4025 -0.25375,-0.2625 -0.39374,-0.6475 -0.14001,-0.39375 -0.14001,-0.8925 0,-0.5075 0.14001,-0.90125 0.14874,-0.39375 0.39374,-0.65625 0.25375,-0.27125 0.58625,-0.41125 0.33251,-0.14 0.71751,-0.14 z m -1.20751,1.6975 2.19625,0 q 0,-0.035 0,-0.0612 0.009,-0.035 0.009,-0.0788 0,-0.21875 -0.0875,-0.41125 -0.0787,-0.20125 -0.21875,-0.34125 -0.14,-0.14875 -0.3325,-0.23625 -0.18374,-0.0875 -0.40249,-0.0875 -0.41126,0 -0.74376,0.2975 -0.3325,0.28875 -0.42,0.91875 z"
           style="font-style:normal;font-variant:normal;font-weight:normal;font-stretch:normal;font-size:8.75px;line-height:125%;font-family:Inconsolata;-inkscape-font-specification:'Inconsolata, Normal';text-align:center;writing-mode:lr-tb;text-anchor:middle;fill:#306998;fill-opacity:1"
           id="path6286" />
        <path
           d="m 272.09312,994.32473 q 0.53375,-0.56 1.42626,-0.56 0.73499,0 1.15499,0.37625 0.42875,0.3675 0.42875,1.23375 l 0,2.47625 -0.595,0 0,-0.4375 q -0.63875,0.53375 -1.435,0.53375 -0.315,0 -0.56875,-0.0962 -0.245,-0.0963 -0.41999,-0.25375 -0.17501,-0.1575 -0.27125,-0.35875 -0.0875,-0.20125 -0.0875,-0.4025 0,-0.60375 0.51625,-0.95375 0.52501,-0.35 1.505,-0.385 l 0.7525,0 0,-0.14875 q 0,-0.595 -0.25374,-0.83125 -0.245,-0.23625 -0.77001,-0.23625 -0.6475,0 -1.07624,0.44625 l -0.30626,-0.4025 z m 2.4325,1.65375 -0.14875,0 q -0.1225,0 -0.23625,0 -0.105,-0.009 -0.20999,-0.009 -0.48126,0 -0.78751,0.07 -0.30624,0.0613 -0.48125,0.175 -0.175,0.11375 -0.245,0.2625 -0.0613,0.14 -0.0613,0.30625 0,0.28 0.245,0.48125 0.245,0.20125 0.60376,0.20125 0.2625,0 0.47249,-0.0787 0.21,-0.0875 0.3675,-0.20125 0.1575,-0.1225 0.25376,-0.245 0.0962,-0.13125 0.14,-0.2275 0.0875,-0.175 0.0875,-0.4725 l 0,-0.2625 z"
           style="font-style:normal;font-variant:normal;font-weight:normal;font-stretch:normal;font-size:8.75px;line-height:125%;font-family:Inconsolata;-inkscape-font-specification:'Inconsolata, Normal';text-align:center;writing-mode:lr-tb;text-anchor:middle;fill:#306998;fill-opacity:1"
           id="path6288" />
        <path
           d="m 277.31687,992.78473 0.69125,-0.11375 q 0,0.0788 -0.0263,0.14 -0.0175,0.0612 -0.0263,0.0963 l -0.105,0.945 1.3125,0 0,0.51625 -1.3125,0 q -0.0787,0.77875 -0.0787,1.46125 0,0.42 0.0175,0.70875 0.0175,0.28875 0.0875,0.455 0.0788,0.16625 0.21875,0.2625 0.14001,0.0875 0.37625,0.0875 0.4025,0 0.8925,-0.35875 l 0.1925,0.49875 q -0.60375,0.44625 -1.2425,0.44625 -0.63,0 -0.91875,-0.37625 -0.28875,-0.385 -0.2625,-1.2425 0,-0.315 0.0175,-0.805 0.0175,-0.49 0.07,-1.1375 l -0.93625,0 0,-0.51625 0.9625,0 0.07,-1.0675 z"
           style="font-style:normal;font-variant:normal;font-weight:normal;font-stretch:normal;font-size:8.75px;line-height:125%;font-family:Inconsolata;-inkscape-font-specification:'Inconsolata, Normal';text-align:center;writing-mode:lr-tb;text-anchor:middle;fill:#306998;fill-opacity:1"
           id="path6290" />
      </g>
      <g
         style="font-style:normal;font-weight:normal;font-size:40.58158112px;line-height:125%;font-family:Sans;letter-spacing:0px;word-spacing:0px;fill:#000000;fill-opacity:1;stroke:none;stroke-width:1px;stroke-linecap:butt;stroke-linejoin:miter;stroke-opacity:1"
         id="text4349">
        <path
           d="m 99.595162,1011.0007 1.059998,0 0.54,-2.32 c 0.08,-0.34 0.16,-0.82 0.24,-1.44 l 0.04,0 c 0.08,0.62 0.16,1.1 0.24,1.44 l 0.56,2.32 1.06,0 1.04,-4.86 -0.76,0 -0.58,2.82 c -0.09,0.46 -0.14,0.88 -0.22,1.34 l -0.04,0 c -0.06,-0.46 -0.19,-0.88 -0.3,-1.34 l -0.58,-2.52 -0.82,0 -0.6,2.52 c -0.11,0.45 -0.22,0.88 -0.28,1.34 l -0.04,0 c -0.06,-0.46 -0.13,-0.88 -0.219998,-1.34 l -0.58,-2.82 -0.82,0 1.06,4.86 z"
           style="font-style:normal;font-variant:normal;font-weight:normal;font-stretch:normal;font-size:10px;line-height:125%;font-family:'Source Code Pro';-inkscape-font-specification:'Source Code Pro, Normal';text-align:start;writing-mode:lr-tb;text-anchor:start"
           id="path6293" />
        <path
           d="m 105.59126,1011.0007 1.06,0 0.54,-2.32 c 0.08,-0.34 0.16,-0.82 0.24,-1.44 l 0.04,0 c 0.08,0.62 0.16,1.1 0.24,1.44 l 0.56,2.32 1.06,0 1.04,-4.86 -0.76,0 -0.58,2.82 c -0.09,0.46 -0.14,0.88 -0.22,1.34 l -0.04,0 c -0.06,-0.46 -0.19,-0.88 -0.3,-1.34 l -0.58,-2.52 -0.82,0 -0.6,2.52 c -0.11,0.45 -0.22,0.88 -0.28,1.34 l -0.04,0 c -0.06,-0.46 -0.13,-0.88 -0.22,-1.34 l -0.58,-2.82 -0.82,0 1.06,4.86 z"
           style="font-style:normal;font-variant:normal;font-weight:normal;font-stretch:normal;font-size:10px;line-height:125%;font-family:'Source Code Pro';-inkscape-font-specification:'Source Code Pro, Normal';text-align:start;writing-mode:lr-tb;text-anchor:start"
           id="path6295" />
        <path
           d="m 111.58735,1011.0007 1.06,0 0.54,-2.32 c 0.08,-0.34 0.16,-0.82 0.24,-1.44 l 0.04,0 c 0.08,0.62 0.16,1.1 0.24,1.44 l 0.56,2.32 1.06,0 1.04,-4.86 -0.76,0 -0.58,2.82 c -0.09,0.46 -0.14,0.88 -0.22,1.34 l -0.04,0 c -0.06,-0.46 -0.19,-0.88 -0.3,-1.34 l -0.58,-2.52 -0.82,0 -0.6,2.52 c -0.11,0.45 -0.22,0.88 -0.28,1.34 l -0.04,0 c -0.06,-0.46 -0.13,-0.88 -0.22,-1.34 l -0.58,-2.82 -0.82,0 1.06,4.86 z"
           style="font-style:normal;font-variant:normal;font-weight:normal;font-stretch:normal;font-size:10px;line-height:125%;font-family:'Source Code Pro';-inkscape-font-specification:'Source Code Pro, Normal';text-align:start;writing-mode:lr-tb;text-anchor:start"
           id="path6297" />
        <path
           d="m 119.44344,1011.1207 c 0.45,0 0.81,-0.34 0.81,-0.84 0,-0.51 -0.36,-0.85 -0.81,-0.85 -0.45,0 -0.81,0.34 -0.81,0.85 0,0.5 0.36,0.84 0.81,0.84 z"
           style="font-style:normal;font-variant:normal;font-weight:normal;font-stretch:normal;font-size:10px;line-height:125%;font-family:'Source Code Pro';-inkscape-font-specification:'Source Code Pro, Normal';text-align:start;writing-mode:lr-tb;text-anchor:start"
           id="path6299" />
        <path
           d="m 123.36954,1013.0507 0.82,0 0,-1.64 -0.04,-0.92 0.03,0 c 0.43,0.4 1,0.63 1.45,0.63 1.17,0 2.21,-0.97 2.21,-2.62 0,-1.51 -0.7,-2.48 -2.01,-2.48 -0.6,0 -1.23,0.31 -1.68,0.74 l -0.03,0 -0.07,-0.62 -0.68,0 0,6.91 z m 2.12,-2.62 c -0.33,0 -0.84,-0.16 -1.3,-0.57 l 0,-2.42 c 0.5,-0.5 1,-0.73 1.43,-0.73 0.97,0 1.37,0.72 1.37,1.79 0,1.2 -0.63,1.93 -1.5,1.93 z"
           style="font-style:normal;font-variant:normal;font-weight:normal;font-stretch:normal;font-size:10px;line-height:125%;font-family:'Source Code Pro';-inkscape-font-specification:'Source Code Pro, Normal';text-align:start;writing-mode:lr-tb;text-anchor:start"
           id="path6301" />
        <path
           d="m 131.43563,1011.1207 c 1.28,0 2.4,-0.93 2.4,-2.54 0,-1.63 -1.12,-2.56 -2.4,-2.56 -1.28,0 -2.4,0.93 -2.4,2.56 0,1.61 1.12,2.54 2.4,2.54 z m 0,-0.68 c -0.93,0 -1.55,-0.75 -1.55,-1.86 0,-1.12 0.62,-1.88 1.55,-1.88 0.93,0 1.55,0.76 1.55,1.88 0,1.11 -0.62,1.86 -1.55,1.86 z"
           style="font-style:normal;font-variant:normal;font-weight:normal;font-stretch:normal;font-size:10px;line-height:125%;font-family:'Source Code Pro';-inkscape-font-specification:'Source Code Pro, Normal';text-align:start;writing-mode:lr-tb;text-anchor:start"
           id="path6303" />
        <path
           d="m 137.14172,1011.1207 c 0.6,0 1.18,-0.35 1.58,-0.76 l 0.03,0 0.07,0.64 0.68,0 0,-7.12 -0.82,0 0,1.87 0.04,0.9 -0.03,0 c -0.42,-0.4 -0.87,-0.63 -1.45,-0.63 -1.15,0 -2.21,0.98 -2.21,2.56 0,1.62 0.84,2.54 2.11,2.54 z m 0.17,-0.69 c -0.9,0 -1.43,-0.7 -1.43,-1.86 0,-1.11 0.68,-1.86 1.52,-1.86 0.42,0 0.84,0.16 1.28,0.57 l 0,2.42 c -0.43,0.48 -0.89,0.73 -1.37,0.73 z"
           style="font-style:normal;font-variant:normal;font-weight:normal;font-stretch:normal;font-size:10px;line-height:125%;font-family:'Source Code Pro';-inkscape-font-specification:'Source Code Pro, Normal';text-align:start;writing-mode:lr-tb;text-anchor:start"
           id="path6305" />
        <path
           d="m 143.88782,1011.1207 c 0.72,0 1.39,-0.28 1.93,-0.76 l -0.37,-0.53 c -0.4,0.34 -0.9,0.61 -1.5,0.61 -1.12,0 -1.87,-0.75 -1.87,-1.86 0,-1.12 0.77,-1.88 1.89,-1.88 0.51,0 0.93,0.21 1.33,0.56 l 0.41,-0.53 c -0.4,-0.39 -0.98,-0.71 -1.77,-0.71 -1.47,0 -2.71,0.93 -2.71,2.56 0,1.61 1.14,2.54 2.66,2.54 z"
           style="font-style:normal;font-variant:normal;font-weight:normal;font-stretch:normal;font-size:10px;line-height:125%;font-family:'Source Code Pro';-inkscape-font-specification:'Source Code Pro, Normal';text-align:start;writing-mode:lr-tb;text-anchor:start"
           id="path6307" />
        <path
           d="m 148.88391,1011.1207 c 0.69,0 1.38,-0.36 1.92,-0.78 l 0.03,0 0.07,0.66 0.67,0 0,-2.98 c 0,-1.21 -0.64,-2 -1.97,-2 -0.85,0 -1.67,0.38 -2.16,0.7 l 0.32,0.56 c 0.45,-0.28 1.07,-0.58 1.7,-0.58 0.94,0 1.27,0.56 1.29,1.22 -2.51,0.2 -3.52,0.73 -3.52,1.82 0,0.87 0.74,1.38 1.65,1.38 z m 0.22,-0.66 c -0.56,0 -1.07,-0.23 -1.07,-0.78 0,-0.64 0.64,-1.05 2.72,-1.22 l 0,1.28 c -0.55,0.46 -1.1,0.72 -1.65,0.72 z"
           style="font-style:normal;font-variant:normal;font-weight:normal;font-stretch:normal;font-size:10px;line-height:125%;font-family:'Source Code Pro';-inkscape-font-specification:'Source Code Pro, Normal';text-align:start;writing-mode:lr-tb;text-anchor:start"
           id="path6309" />
        <path
           d="m 155.52001,1011.1207 c 1.39,0 2.16,-0.66 2.16,-1.45 0,-0.74 -0.39,-1.15 -2.01,-1.5 -0.99,-0.21 -1.41,-0.39 -1.41,-0.81 0,-0.37 0.29,-0.7 1.12,-0.7 0.62,0 1.18,0.2 1.63,0.51 l 0.4,-0.53 c -0.48,-0.33 -1.22,-0.62 -1.96,-0.62 -1.33,0 -2.02,0.6 -2.02,1.38 0,0.73 0.64,1.16 1.9,1.42 1.32,0.27 1.52,0.53 1.52,0.9 0,0.41 -0.41,0.76 -1.23,0.76 -0.9,0 -1.55,-0.26 -2.11,-0.66 l -0.38,0.54 c 0.59,0.41 1.44,0.76 2.39,0.76 z"
           style="font-style:normal;font-variant:normal;font-weight:normal;font-stretch:normal;font-size:10px;line-height:125%;font-family:'Source Code Pro';-inkscape-font-specification:'Source Code Pro, Normal';text-align:start;writing-mode:lr-tb;text-anchor:start"
           id="path6311" />
        <path
           d="m 162.3561,1011.1207 c 0.61,0 1.08,-0.13 1.52,-0.29 l -0.18,-0.6 c -0.35,0.13 -0.71,0.22 -1.17,0.22 -0.94,0 -1.23,-0.46 -1.23,-1.33 l 0,-2.31 2.39,0 0,-0.67 -2.39,0 0,-1.56 -0.68,0 -0.11,1.56 -1.4,0.05 0,0.62 1.37,0 0,2.3 c 0,1.2 0.46,2.01 1.88,2.01 z"
           style="font-style:normal;font-variant:normal;font-weight:normal;font-stretch:normal;font-size:10px;line-height:125%;font-family:'Source Code Pro';-inkscape-font-specification:'Source Code Pro, Normal';text-align:start;writing-mode:lr-tb;text-anchor:start"
           id="path6313" />
        <path
           d="m 167.57219,1011.0007 0.82,0 0,-4.86 -3.08,0 0,0.67 2.26,0 0,4.19 z m 0.32,-5.88 c 0.37,0 0.66,-0.25 0.66,-0.64 0,-0.38 -0.29,-0.64 -0.66,-0.64 -0.37,0 -0.66,0.26 -0.66,0.64 0,0.39 0.29,0.64 0.66,0.64 z"
           style="font-style:normal;font-variant:normal;font-weight:normal;font-stretch:normal;font-size:10px;line-height:125%;font-family:'Source Code Pro';-inkscape-font-specification:'Source Code Pro, Normal';text-align:start;writing-mode:lr-tb;text-anchor:start"
           id="path6315" />
        <path
           d="m 171.33829,1011.0007 0.82,0 0,-3.39 c 0.57,-0.59 0.96,-0.88 1.54,-0.88 0.8,0 1.12,0.44 1.12,1.36 l 0,2.91 0.82,0 0,-3.02 c 0,-1.28 -0.53,-1.96 -1.68,-1.96 -0.76,0 -1.32,0.41 -1.83,0.95 l -0.04,0 -0.07,-0.83 -0.68,0 0,4.86 z"
           style="font-style:normal;font-variant:normal;font-weight:normal;font-stretch:normal;font-size:10px;line-height:125%;font-family:'Source Code Pro';-inkscape-font-specification:'Source Code Pro, Normal';text-align:start;writing-mode:lr-tb;text-anchor:start"
           id="path6317" />
        <path
           d="m 179.56438,1011.0007 0.82,0 0,-4.86 -3.08,0 0,0.67 2.26,0 0,4.19 z m 0.32,-5.88 c 0.37,0 0.66,-0.25 0.66,-0.64 0,-0.38 -0.29,-0.64 -0.66,-0.64 -0.37,0 -0.66,0.26 -0.66,0.64 0,0.39 0.29,0.64 0.66,0.64 z"
           style="font-style:normal;font-variant:normal;font-weight:normal;font-stretch:normal;font-size:10px;line-height:125%;font-family:'Source Code Pro';-inkscape-font-specification:'Source Code Pro, Normal';text-align:start;writing-mode:lr-tb;text-anchor:start"
           id="path6319" />
        <path
           d="m 186.34047,1011.1207 c 0.61,0 1.08,-0.13 1.52,-0.29 l -0.18,-0.6 c -0.35,0.13 -0.71,0.22 -1.17,0.22 -0.94,0 -1.23,-0.46 -1.23,-1.33 l 0,-2.31 2.39,0 0,-0.67 -2.39,0 0,-1.56 -0.68,0 -0.11,1.56 -1.4,0.05 0,0.62 1.37,0 0,2.3 c 0,1.2 0.46,2.01 1.88,2.01 z"
           style="font-style:normal;font-variant:normal;font-weight:normal;font-stretch:normal;font-size:10px;line-height:125%;font-family:'Source Code Pro';-inkscape-font-specification:'Source Code Pro, Normal';text-align:start;writing-mode:lr-tb;text-anchor:start"
           id="path6321" />
        <path
           d="m 191.39657,1011.1207 c 0.45,0 0.81,-0.34 0.81,-0.84 0,-0.51 -0.36,-0.85 -0.81,-0.85 -0.45,0 -0.81,0.34 -0.81,0.85 0,0.5 0.36,0.84 0.81,0.84 z"
           style="font-style:normal;font-variant:normal;font-weight:normal;font-stretch:normal;font-size:10px;line-height:125%;font-family:'Source Code Pro';-inkscape-font-specification:'Source Code Pro, Normal';text-align:start;writing-mode:lr-tb;text-anchor:start"
           id="path6323" />
        <path
           d="m 197.85266,1011.1207 c 0.72,0 1.39,-0.28 1.93,-0.76 l -0.37,-0.53 c -0.4,0.34 -0.9,0.61 -1.5,0.61 -1.12,0 -1.87,-0.75 -1.87,-1.86 0,-1.12 0.77,-1.88 1.89,-1.88 0.51,0 0.93,0.21 1.33,0.56 l 0.41,-0.53 c -0.4,-0.39 -0.98,-0.71 -1.77,-0.71 -1.47,0 -2.71,0.93 -2.71,2.56 0,1.61 1.14,2.54 2.66,2.54 z"
           style="font-style:normal;font-variant:normal;font-weight:normal;font-stretch:normal;font-size:10px;line-height:125%;font-family:'Source Code Pro';-inkscape-font-specification:'Source Code Pro, Normal';text-align:start;writing-mode:lr-tb;text-anchor:start"
           id="path6325" />
        <path
           d="m 203.38876,1011.1207 c 1.28,0 2.4,-0.93 2.4,-2.54 0,-1.63 -1.12,-2.56 -2.4,-2.56 -1.28,0 -2.4,0.93 -2.4,2.56 0,1.61 1.12,2.54 2.4,2.54 z m 0,-0.68 c -0.93,0 -1.55,-0.75 -1.55,-1.86 0,-1.12 0.62,-1.88 1.55,-1.88 0.93,0 1.55,0.76 1.55,1.88 0,1.11 -0.62,1.86 -1.55,1.86 z"
           style="font-style:normal;font-variant:normal;font-weight:normal;font-stretch:normal;font-size:10px;line-height:125%;font-family:'Source Code Pro';-inkscape-font-specification:'Source Code Pro, Normal';text-align:start;writing-mode:lr-tb;text-anchor:start"
           id="path6327" />
        <path
           d="m 206.96485,1011.0007 0.82,0 0,-3.52 c 0.24,-0.5 0.46,-0.75 0.8,-0.75 0.36,0 0.5,0.29 0.5,0.85 l 0,3.42 0.76,0 0,-3.52 c 0.26,-0.5 0.44,-0.75 0.78,-0.75 0.36,0 0.52,0.29 0.52,0.85 l 0,3.42 0.82,0 0,-3.48 c 0,-0.97 -0.4,-1.5 -1.08,-1.5 -0.56,0 -0.86,0.32 -1.14,0.84 -0.14,-0.56 -0.44,-0.84 -0.92,-0.84 -0.56,0 -0.86,0.31 -1.11,0.76 l -0.02,0 -0.07,-0.64 -0.66,0 0,4.86 z"
           style="font-style:normal;font-variant:normal;font-weight:normal;font-stretch:normal;font-size:10px;line-height:125%;font-family:'Source Code Pro';-inkscape-font-specification:'Source Code Pro, Normal';text-align:start;writing-mode:lr-tb;text-anchor:start"
           id="path6329" />
      </g>
    </g>
  </g>
</svg>
