<?xml version="1.0" encoding="UTF-8" standalone="no"?>
<!-- Created with Inkscape (http://www.inkscape.org/) -->

<svg
   xmlns:dc="http://purl.org/dc/elements/1.1/"
   xmlns:cc="http://creativecommons.org/ns#"
   xmlns:rdf="http://www.w3.org/1999/02/22-rdf-syntax-ns#"
   xmlns:svg="http://www.w3.org/2000/svg"
   xmlns="http://www.w3.org/2000/svg"
   xmlns:sodipodi="http://sodipodi.sourceforge.net/DTD/sodipodi-0.dtd"
   xmlns:inkscape="http://www.inkscape.org/namespaces/inkscape"
   width="70.555557mm"
   height="70.555557mm"
   viewBox="0 0 250.00001 250"
   id="svg4216"
   version="1.1"
   inkscape:version="0.91 r13725"
   sodipodi:docname="DEP Icon Logo.svg">
  <defs
     id="defs4218" />
  <sodipodi:namedview
     id="base"
     pagecolor="#ffffff"
     bordercolor="#666666"
     borderopacity="1.0"
     inkscape:pageopacity="0.0"
     inkscape:pageshadow="2"
     inkscape:zoom="0.98994949"
     inkscape:cx="50.085797"
     inkscape:cy="172.82819"
     inkscape:document-units="px"
     inkscape:current-layer="layer1"
     showgrid="false"
     fit-margin-top="0"
     fit-margin-left="0"
     fit-margin-right="0"
     fit-margin-bottom="0"
     inkscape:window-width="1920"
     inkscape:window-height="1019"
     inkscape:window-x="0"
     inkscape:window-y="0"
     inkscape:window-maximized="1" />
  <metadata
     id="metadata4221">
    <rdf:RDF>
      <cc:Work
         rdf:about="">
        <dc:format>image/svg+xml</dc:format>
        <dc:type
           rdf:resource="http://purl.org/dc/dcmitype/StillImage" />
        <dc:title></dc:title>
      </cc:Work>
    </rdf:RDF>
  </metadata>
  <g
     inkscape:groupmode="layer"
     id="layer2"
     inkscape:label="Layer 2"
     transform="translate(-139.27603,-282.08623)" />
  <g
     inkscape:label="Layer 1"
     inkscape:groupmode="layer"
     id="layer1"
     transform="translate(-139.27603,-282.08623)">
    <g
       id="g4914">
      <rect
         y="282.14771"
         x="139.33751"
         height="249.87704"
         width="249.87704"
         id="rect4803"
         style="opacity:1;fill:#29395b;fill-opacity:1;fill-rule:nonzero;stroke:#ffffff;stroke-width:0.12295317;stroke-linecap:butt;stroke-linejoin:round;stroke-miterlimit:4;stroke-dasharray:none;stroke-opacity:0.98823529" />
      <g
         style="stroke:#ffffff;stroke-opacity:0.98823529"
         transform="matrix(0.99101953,0,0,0.99101953,163.09907,305.95377)"
         id="g4309">
        <path
           style="fill:#666666;stroke:#ffffff;stroke-width:2;stroke-miterlimit:10;stroke-opacity:0.98823529"
           inkscape:connector-curvature="0"
           d="m 142,192 0,-40 c 0,-5.52 13.43,-10 30,-10 16.57,0 30,4.48 30,10 l 0,40 c 0,5.52 -13.43,10 -30,10 -16.57,0 -30,-4.48 -30,-10 z"
           stroke-miterlimit="10"
           pointer-events="none"
           id="path4311-3" />
        <path
           style="fill:none;stroke:#ffffff;stroke-width:2;stroke-miterlimit:10;stroke-opacity:0.98823529"
           inkscape:connector-curvature="0"
           d="m 142,152 c 0,5.52 13.43,10 30,10 16.57,0 30,-4.48 30,-10"
           stroke-miterlimit="10"
           pointer-events="none"
           id="path4313-1" />
        <path
           style="fill:none;stroke:#ffffff;stroke-width:3;stroke-miterlimit:10;stroke-opacity:0.98823529"
           inkscape:connector-curvature="0"
           d="m 47,52 -5,0 0,40 30.9,0"
           stroke-miterlimit="10"
           pointer-events="none"
           id="path4315" />
        <path
           style="fill:#000000;stroke:#ffffff;stroke-width:3;stroke-miterlimit:10;stroke-opacity:0.98823529"
           inkscape:connector-curvature="0"
           d="m 79.65,92 -9,4.5 2.25,-4.5 -2.25,-4.5 z"
           stroke-miterlimit="10"
           pointer-events="none"
           id="path4317" />
        <path
           style="fill:#666666;stroke:#ffffff;stroke-width:2;stroke-miterlimit:10;stroke-opacity:0.98823529"
           inkscape:connector-curvature="0"
           d="M 19.65,6.25 C 20.7,3.58 22.4,2.03 24.21,2.1 l 62.87,0 c 1.43,-0.03 2.81,0.43 3.7,1.24 0.9,0.82 1.22,1.9 0.86,2.91 l -17.32,41.5 c -1.05,2.67 -2.75,4.22 -4.55,4.15 l -63.79,0 C 4.71,51.75 3.59,51.21 2.89,50.42 2.2,49.62 2,48.66 2.34,47.75 Z"
           stroke-miterlimit="10"
           pointer-events="none"
           id="path4319" />
        <path
           style="fill:none;stroke:#ffffff;stroke-width:3;stroke-miterlimit:10;stroke-opacity:0.98823529"
           inkscape:connector-curvature="0"
           d="m 110,122 0,50 21.9,0"
           stroke-miterlimit="10"
           pointer-events="none"
           id="path4321" />
        <path
           style="fill:#000000;stroke:#ffffff;stroke-width:3;stroke-miterlimit:10;stroke-opacity:0.98823529"
           inkscape:connector-curvature="0"
           d="m 138.65,172 -9,4.5 2.25,-4.5 -2.25,-4.5 z"
           stroke-miterlimit="10"
           pointer-events="none"
           id="path4323" />
        <path
           style="fill:#666666;stroke:#ffffff;stroke-width:2;stroke-miterlimit:10;stroke-opacity:0.98823529"
           inkscape:connector-curvature="0"
           d="m 65.5,122 87.99,0 c 1.17,-0.05 2.24,-0.68 2.84,-1.67 0.6,-0.99 0.66,-2.22 0.16,-3.26 l -45,-54.24 c -1.2,-0.83 -2.79,-0.83 -3.99,0 l -45,54.24 c -0.5,1.04 -0.44,2.27 0.16,3.26 0.6,0.99 1.67,1.62 2.84,1.67 z"
           stroke-miterlimit="10"
           pointer-events="none"
           id="path4325" />
      </g>
    </g>
  </g>
</svg>
